<?xml version="1.0" encoding="UTF-8" standalone="no"?>
<!DOCTYPE svg PUBLIC "-//W3C//DTD SVG 1.1//EN"
 "http://www.w3.org/Graphics/SVG/1.1/DTD/svg11.dtd">
<!-- Generated by graphviz version 5.0.0 (20220707.1540)
 -->
<!-- Title: StorageDiagram Pages: 1 -->
<svg width="2508pt" height="760pt"
 viewBox="0.00 0.00 2507.57 760.20" xmlns="http://www.w3.org/2000/svg" xmlns:xlink="http://www.w3.org/1999/xlink">
<g id="graph0" class="graph" transform="scale(1 1) rotate(0) translate(4 756.2)">
<title>StorageDiagram</title>
<polygon fill="black" stroke="transparent" points="-4,4 -4,-756.2 2503.57,-756.2 2503.57,4 -4,4"/>
<!-- 6 -->
<g id="node1" class="node">
<title>6</title>
<polygon fill="dimgrey" stroke="deeppink" points="0,-84.5 0,-423.7 1013.35,-423.7 1013.35,-84.5 0,-84.5"/>
<text text-anchor="middle" x="506.68" y="-407.1" font-family="Courier New" font-size="14.00" fill="#ffffff">Pool &lt;&lt;Contract&gt;&gt;</text>
<text text-anchor="middle" x="506.68" y="-390.3" font-family="Courier New" font-size="14.00" fill="#ffffff">0xfCc00A1e250644d89AF0df661bC6f04891E21585</text>
<polyline fill="none" stroke="deeppink" points="0,-382.1 1013.35,-382.1 "/>
<text text-anchor="middle" x="24.8" y="-365.5" font-family="Courier New" font-size="14.00" fill="#ffffff">slot</text>
<polyline fill="none" stroke="deeppink" points="0,-357.3 49.61,-357.3 "/>
<text text-anchor="middle" x="24.8" y="-340.7" font-family="Courier New" font-size="14.00" fill="#ffffff">0</text>
<polyline fill="none" stroke="deeppink" points="0,-332.5 49.61,-332.5 "/>
<text text-anchor="middle" x="24.8" y="-315.9" font-family="Courier New" font-size="14.00" fill="#ffffff">1</text>
<polyline fill="none" stroke="deeppink" points="0,-307.7 49.61,-307.7 "/>
<text text-anchor="middle" x="24.8" y="-291.1" font-family="Courier New" font-size="14.00" fill="#ffffff">2&#45;51</text>
<polyline fill="none" stroke="deeppink" points="0,-282.9 49.61,-282.9 "/>
<text text-anchor="middle" x="24.8" y="-266.3" font-family="Courier New" font-size="14.00" fill="#ffffff">52</text>
<polyline fill="none" stroke="deeppink" points="0,-258.1 49.61,-258.1 "/>
<text text-anchor="middle" x="24.8" y="-241.5" font-family="Courier New" font-size="14.00" fill="#ffffff">53</text>
<polyline fill="none" stroke="deeppink" points="0,-233.3 49.61,-233.3 "/>
<text text-anchor="middle" x="24.8" y="-216.7" font-family="Courier New" font-size="14.00" fill="#ffffff">54</text>
<polyline fill="none" stroke="deeppink" points="0,-208.5 49.61,-208.5 "/>
<text text-anchor="middle" x="24.8" y="-191.9" font-family="Courier New" font-size="14.00" fill="#ffffff">55</text>
<polyline fill="none" stroke="deeppink" points="0,-183.7 49.61,-183.7 "/>
<text text-anchor="middle" x="24.8" y="-167.1" font-family="Courier New" font-size="14.00" fill="#ffffff">56</text>
<polyline fill="none" stroke="deeppink" points="0,-158.9 49.61,-158.9 "/>
<text text-anchor="middle" x="24.8" y="-142.3" font-family="Courier New" font-size="14.00" fill="#ffffff">57</text>
<polyline fill="none" stroke="deeppink" points="0,-134.1 49.61,-134.1 "/>
<text text-anchor="middle" x="24.8" y="-117.5" font-family="Courier New" font-size="14.00" fill="#ffffff">58</text>
<polyline fill="none" stroke="deeppink" points="0,-109.3 49.61,-109.3 "/>
<text text-anchor="middle" x="24.8" y="-92.7" font-family="Courier New" font-size="14.00" fill="#ffffff">59</text>
<polyline fill="none" stroke="deeppink" points="49.61,-84.5 49.61,-382.1 "/>
<text text-anchor="middle" x="531.48" y="-365.5" font-family="Courier New" font-size="14.00" fill="#ffffff">type: &lt;inherited contract&gt;.variable (bytes)</text>
<polyline fill="none" stroke="deeppink" points="49.61,-357.3 1013.35,-357.3 "/>
<text text-anchor="middle" x="531.15" y="-340.7" font-family="Courier New" font-size="14.00" fill="#ffffff">uint256: VersionedInitializable.lastInitializedRevision (32)</text>
<polyline fill="none" stroke="deeppink" points="49.61,-332.5 1013.35,-332.5 "/>
<text text-anchor="middle" x="229.32" y="-315.9" font-family="Courier New" font-size="14.00" fill="#ffffff">unallocated (31)</text>
<polyline fill="none" stroke="deeppink" points="409.03,-307.7 409.03,-332.5 "/>
<text text-anchor="middle" x="711.06" y="-315.9" font-family="Courier New" font-size="14.00" fill="#ffffff">bool: VersionedInitializable.initializing (1)</text>
<polyline fill="none" stroke="deeppink" points="49.61,-307.7 1013.35,-307.7 "/>
<text text-anchor="middle" x="531.04" y="-291.1" font-family="Courier New" font-size="14.00" fill="#ffffff">uint256[50]: VersionedInitializable.______gap (1600)</text>
<polyline fill="none" stroke="deeppink" points="49.61,-282.9 1013.35,-282.9 "/>
<text text-anchor="middle" x="531.05" y="-266.3" font-family="Courier New" font-size="14.00" fill="#ffffff">mapping(address=&gt;DataTypes.ReserveData): PoolStorage._reserves (32)</text>
<polyline fill="none" stroke="deeppink" points="49.61,-258.1 1013.35,-258.1 "/>
<text text-anchor="middle" x="531.46" y="-241.5" font-family="Courier New" font-size="14.00" fill="#ffffff">mapping(address=&gt;DataTypes.UserConfigurationMap): PoolStorage._usersConfig (32)</text>
<polyline fill="none" stroke="deeppink" points="49.61,-233.3 1013.35,-233.3 "/>
<text text-anchor="middle" x="531.04" y="-216.7" font-family="Courier New" font-size="14.00" fill="#ffffff">mapping(uint256=&gt;address): PoolStorage._reservesList (32)</text>
<polyline fill="none" stroke="deeppink" points="49.61,-208.5 1013.35,-208.5 "/>
<text text-anchor="middle" x="531.46" y="-191.9" font-family="Courier New" font-size="14.00" fill="#ffffff">mapping(uint8=&gt;DataTypes.EModeCategory): PoolStorage._eModeCategories (32)</text>
<polyline fill="none" stroke="deeppink" points="49.61,-183.7 1013.35,-183.7 "/>
<text text-anchor="middle" x="531.35" y="-167.1" font-family="Courier New" font-size="14.00" fill="#ffffff">mapping(address=&gt;uint8): PoolStorage._usersEModeCategory (32)</text>
<polyline fill="none" stroke="deeppink" points="49.61,-158.9 1013.35,-158.9 "/>
<text text-anchor="middle" x="531.44" y="-142.3" font-family="Courier New" font-size="14.00" fill="#ffffff">uint256: PoolStorage._bridgeProtocolFee (32)</text>
<polyline fill="none" stroke="deeppink" points="49.61,-134.1 1013.35,-134.1 "/>
<text text-anchor="middle" x="300.74" y="-117.5" font-family="Courier New" font-size="14.00" fill="#ffffff">uint128: PoolStorage._flashLoanPremiumToProtocol (16)</text>
<polyline fill="none" stroke="deeppink" points="551.88,-109.3 551.88,-134.1 "/>
<text text-anchor="middle" x="782.51" y="-117.5" font-family="Courier New" font-size="14.00" fill="#ffffff">uint128: PoolStorage._flashLoanPremiumTotal (16)</text>
<polyline fill="none" stroke="deeppink" points="49.61,-109.3 1013.35,-109.3 "/>
<text text-anchor="middle" x="124.82" y="-92.7" font-family="Courier New" font-size="14.00" fill="#ffffff">unallocated (22)</text>
<polyline fill="none" stroke="deeppink" points="200.03,-84.5 200.03,-109.3 "/>
<text text-anchor="middle" x="367.65" y="-92.7" font-family="Courier New" font-size="14.00" fill="#ffffff">uint16: PoolStorage._reservesCount (2)</text>
<polyline fill="none" stroke="deeppink" points="535.28,-84.5 535.28,-109.3 "/>
<text text-anchor="middle" x="774.32" y="-92.7" font-family="Courier New" font-size="14.00" fill="#ffffff">uint64: PoolStorage._maxStableRateBorrowSizePercent (8)</text>
</g>
<!-- 1 -->
<g id="node2" class="node">
<title>1</title>
<polygon fill="dimgrey" stroke="deeppink" points="1463.22,-528.5 1463.22,-751.7 1748.06,-751.7 1748.06,-528.5 1463.22,-528.5"/>
<text text-anchor="middle" x="1605.64" y="-735.1" font-family="Courier New" font-size="14.00" fill="#ffffff">uint256[50]: ______gap &lt;&lt;Array&gt;&gt;</text>
<polyline fill="none" stroke="deeppink" points="1463.22,-726.9 1748.06,-726.9 "/>
<text text-anchor="middle" x="1496.52" y="-710.3" font-family="Courier New" font-size="14.00" fill="#ffffff">slot</text>
<polyline fill="none" stroke="deeppink" points="1463.22,-702.1 1529.82,-702.1 "/>
<text text-anchor="middle" x="1496.52" y="-685.5" font-family="Courier New" font-size="14.00" fill="#ffffff">2</text>
<polyline fill="none" stroke="deeppink" points="1463.22,-677.3 1529.82,-677.3 "/>
<text text-anchor="middle" x="1496.52" y="-660.7" font-family="Courier New" font-size="14.00" fill="#ffffff">3</text>
<polyline fill="none" stroke="deeppink" points="1463.22,-652.5 1529.82,-652.5 "/>
<text text-anchor="middle" x="1496.52" y="-635.9" font-family="Courier New" font-size="14.00" fill="#ffffff">4</text>
<polyline fill="none" stroke="deeppink" points="1463.22,-627.7 1529.82,-627.7 "/>
<text text-anchor="middle" x="1496.52" y="-611.1" font-family="Courier New" font-size="14.00" fill="#ffffff">5&#45;48</text>
<polyline fill="none" stroke="deeppink" points="1463.22,-602.9 1529.82,-602.9 "/>
<text text-anchor="middle" x="1496.52" y="-586.3" font-family="Courier New" font-size="14.00" fill="#ffffff">49</text>
<polyline fill="none" stroke="deeppink" points="1463.22,-578.1 1529.82,-578.1 "/>
<text text-anchor="middle" x="1496.52" y="-561.5" font-family="Courier New" font-size="14.00" fill="#ffffff">50</text>
<polyline fill="none" stroke="deeppink" points="1463.22,-553.3 1529.82,-553.3 "/>
<text text-anchor="middle" x="1496.52" y="-536.7" font-family="Courier New" font-size="14.00" fill="#ffffff">51</text>
<polyline fill="none" stroke="deeppink" points="1529.82,-528.5 1529.82,-726.9 "/>
<text text-anchor="middle" x="1638.74" y="-710.3" font-family="Courier New" font-size="14.00" fill="#ffffff">type: variable (bytes)</text>
<polyline fill="none" stroke="deeppink" points="1529.82,-702.1 1747.65,-702.1 "/>
<text text-anchor="middle" x="1638.73" y="-685.5" font-family="Courier New" font-size="14.00" fill="#ffffff">uint256 (32)</text>
<polyline fill="none" stroke="deeppink" points="1529.82,-677.3 1747.65,-677.3 "/>
<text text-anchor="middle" x="1638.73" y="-660.7" font-family="Courier New" font-size="14.00" fill="#ffffff">uint256 (32)</text>
<polyline fill="none" stroke="deeppink" points="1529.82,-652.5 1747.65,-652.5 "/>
<text text-anchor="middle" x="1638.73" y="-635.9" font-family="Courier New" font-size="14.00" fill="#ffffff">uint256 (32)</text>
<polyline fill="none" stroke="deeppink" points="1529.82,-627.7 1747.65,-627.7 "/>
<text text-anchor="middle" x="1638.53" y="-611.1" font-family="Courier New" font-size="14.00" fill="#ffffff">&#45;&#45;&#45;&#45; (1376)</text>
<polyline fill="none" stroke="deeppink" points="1529.82,-602.9 1747.65,-602.9 "/>
<text text-anchor="middle" x="1638.73" y="-586.3" font-family="Courier New" font-size="14.00" fill="#ffffff">uint256 (32)</text>
<polyline fill="none" stroke="deeppink" points="1529.82,-578.1 1747.65,-578.1 "/>
<text text-anchor="middle" x="1638.73" y="-561.5" font-family="Courier New" font-size="14.00" fill="#ffffff">uint256 (32)</text>
<polyline fill="none" stroke="deeppink" points="1529.82,-553.3 1747.65,-553.3 "/>
<text text-anchor="middle" x="1638.73" y="-536.7" font-family="Courier New" font-size="14.00" fill="#ffffff">uint256 (32)</text>
</g>
<!-- 6&#45;&gt;1 -->
<g id="edge1" class="edge">
<title>6:10&#45;&gt;1</title>
<path fill="none" stroke="deeppink" d="M1013.35,-295.1C1063.77,-295.1 1014.7,-482.48 1049.35,-519.1 1151.78,-627.34 1326.63,-649.98 1452.79,-650.35"/>
<polygon fill="deeppink" stroke="deeppink" points="1452.94,-653.85 1462.93,-650.33 1452.93,-646.85 1452.94,-653.85"/>
</g>
<!-- 3 -->
<g id="node4" class="node">
<title>3</title>
<polygon fill="dimgrey" stroke="deeppink" points="1132.97,-212.3 1132.97,-509.9 2078.31,-509.9 2078.31,-212.3 1132.97,-212.3"/>
<text text-anchor="middle" x="1605.64" y="-493.3" font-family="Courier New" font-size="14.00" fill="#ffffff">ReserveData &lt;&lt;Struct&gt;&gt;</text>
<polyline fill="none" stroke="deeppink" points="1132.97,-485.1 2078.31,-485.1 "/>
<text text-anchor="middle" x="1166.17" y="-468.5" font-family="Courier New" font-size="14.00" fill="#ffffff">offset</text>
<polyline fill="none" stroke="deeppink" points="1132.97,-460.3 1199.38,-460.3 "/>
<text text-anchor="middle" x="1166.17" y="-443.7" font-family="Courier New" font-size="14.00" fill="#ffffff">0</text>
<polyline fill="none" stroke="deeppink" points="1132.97,-435.5 1199.38,-435.5 "/>
<text text-anchor="middle" x="1166.17" y="-418.9" font-family="Courier New" font-size="14.00" fill="#ffffff">1</text>
<polyline fill="none" stroke="deeppink" points="1132.97,-410.7 1199.38,-410.7 "/>
<text text-anchor="middle" x="1166.17" y="-394.1" font-family="Courier New" font-size="14.00" fill="#ffffff">2</text>
<polyline fill="none" stroke="deeppink" points="1132.97,-385.9 1199.38,-385.9 "/>
<text text-anchor="middle" x="1166.17" y="-369.3" font-family="Courier New" font-size="14.00" fill="#ffffff">3</text>
<polyline fill="none" stroke="deeppink" points="1132.97,-361.1 1199.38,-361.1 "/>
<text text-anchor="middle" x="1166.17" y="-344.5" font-family="Courier New" font-size="14.00" fill="#ffffff">4</text>
<polyline fill="none" stroke="deeppink" points="1132.97,-336.3 1199.38,-336.3 "/>
<text text-anchor="middle" x="1166.17" y="-319.7" font-family="Courier New" font-size="14.00" fill="#ffffff">5</text>
<polyline fill="none" stroke="deeppink" points="1132.97,-311.5 1199.38,-311.5 "/>
<text text-anchor="middle" x="1166.17" y="-294.9" font-family="Courier New" font-size="14.00" fill="#ffffff">6</text>
<polyline fill="none" stroke="deeppink" points="1132.97,-286.7 1199.38,-286.7 "/>
<text text-anchor="middle" x="1166.17" y="-270.1" font-family="Courier New" font-size="14.00" fill="#ffffff">7</text>
<polyline fill="none" stroke="deeppink" points="1132.97,-261.9 1199.38,-261.9 "/>
<text text-anchor="middle" x="1166.17" y="-245.3" font-family="Courier New" font-size="14.00" fill="#ffffff">8</text>
<polyline fill="none" stroke="deeppink" points="1132.97,-237.1 1199.38,-237.1 "/>
<text text-anchor="middle" x="1166.17" y="-220.5" font-family="Courier New" font-size="14.00" fill="#ffffff">9</text>
<polyline fill="none" stroke="deeppink" points="1199.38,-212.3 1199.38,-485.1 "/>
<text text-anchor="middle" x="1638.84" y="-468.5" font-family="Courier New" font-size="14.00" fill="#ffffff">type: variable (bytes)</text>
<polyline fill="none" stroke="deeppink" points="1199.38,-460.3 2078.31,-460.3 "/>
<text text-anchor="middle" x="1638.5" y="-443.7" font-family="Courier New" font-size="14.00" fill="#ffffff">ReserveConfigurationMap: configuration (32)</text>
<polyline fill="none" stroke="deeppink" points="1199.38,-435.5 2078.31,-435.5 "/>
<text text-anchor="middle" x="1431.7" y="-418.9" font-family="Courier New" font-size="14.00" fill="#ffffff">uint128: currentLiquidityRate (16)</text>
<polyline fill="none" stroke="deeppink" points="1664.02,-410.7 1664.02,-435.5 "/>
<text text-anchor="middle" x="1871.14" y="-418.9" font-family="Courier New" font-size="14.00" fill="#ffffff">uint128: liquidityIndex (16)</text>
<polyline fill="none" stroke="deeppink" points="1199.38,-410.7 2078.31,-410.7 "/>
<text text-anchor="middle" x="1431.7" y="-394.1" font-family="Courier New" font-size="14.00" fill="#ffffff">uint128: currentVariableBorrowRate (16)</text>
<polyline fill="none" stroke="deeppink" points="1664.03,-385.9 1664.03,-410.7 "/>
<text text-anchor="middle" x="1871.15" y="-394.1" font-family="Courier New" font-size="14.00" fill="#ffffff">uint128: variableBorrowIndex (16)</text>
<polyline fill="none" stroke="deeppink" points="1199.38,-385.9 2078.31,-385.9 "/>
<text text-anchor="middle" x="1270.39" y="-369.3" font-family="Courier New" font-size="14.00" fill="#ffffff">unallocated (9)</text>
<polyline fill="none" stroke="deeppink" points="1341.4,-361.1 1341.4,-385.9 "/>
<text text-anchor="middle" x="1408.21" y="-369.3" font-family="Courier New" font-size="14.00" fill="#ffffff">uint16: id (2)</text>
<polyline fill="none" stroke="deeppink" points="1475.01,-361.1 1475.01,-385.9 "/>
<text text-anchor="middle" x="1613.24" y="-369.3" font-family="Courier New" font-size="14.00" fill="#ffffff">uint40: lastUpdateTimestamp (5)</text>
<polyline fill="none" stroke="deeppink" points="1751.46,-361.1 1751.46,-385.9 "/>
<text text-anchor="middle" x="1914.88" y="-369.3" font-family="Courier New" font-size="14.00" fill="#ffffff">uint128: currentStableBorrowRate (16)</text>
<polyline fill="none" stroke="deeppink" points="1199.38,-361.1 2078.31,-361.1 "/>
<text text-anchor="middle" x="1395.59" y="-344.5" font-family="Courier New" font-size="14.00" fill="#ffffff">unallocated (12)</text>
<polyline fill="none" stroke="deeppink" points="1591.8,-336.3 1591.8,-361.1 "/>
<text text-anchor="middle" x="1834.72" y="-344.5" font-family="Courier New" font-size="14.00" fill="#ffffff">address: aTokenAddress (20)</text>
<polyline fill="none" stroke="deeppink" points="1199.38,-336.3 2078.31,-336.3 "/>
<text text-anchor="middle" x="1377.09" y="-319.7" font-family="Courier New" font-size="14.00" fill="#ffffff">unallocated (12)</text>
<polyline fill="none" stroke="deeppink" points="1554.8,-311.5 1554.8,-336.3 "/>
<text text-anchor="middle" x="1816.52" y="-319.7" font-family="Courier New" font-size="14.00" fill="#ffffff">address: stableDebtTokenAddress (20)</text>
<polyline fill="none" stroke="deeppink" points="1199.38,-311.5 2078.31,-311.5 "/>
<text text-anchor="middle" x="1372.59" y="-294.9" font-family="Courier New" font-size="14.00" fill="#ffffff">unallocated (12)</text>
<polyline fill="none" stroke="deeppink" points="1545.8,-286.7 1545.8,-311.5 "/>
<text text-anchor="middle" x="1811.92" y="-294.9" font-family="Courier New" font-size="14.00" fill="#ffffff">address: variableDebtTokenAddress (20)</text>
<polyline fill="none" stroke="deeppink" points="1199.38,-286.7 2078.31,-286.7 "/>
<text text-anchor="middle" x="1366.59" y="-270.1" font-family="Courier New" font-size="14.00" fill="#ffffff">unallocated (12)</text>
<polyline fill="none" stroke="deeppink" points="1533.8,-261.9 1533.8,-286.7 "/>
<text text-anchor="middle" x="1806.02" y="-270.1" font-family="Courier New" font-size="14.00" fill="#ffffff">address: interestRateStrategyAddress (20)</text>
<polyline fill="none" stroke="deeppink" points="1199.38,-261.9 2078.31,-261.9 "/>
<text text-anchor="middle" x="1399.79" y="-245.3" font-family="Courier New" font-size="14.00" fill="#ffffff">uint128: unbacked (16)</text>
<polyline fill="none" stroke="deeppink" points="1600.21,-237.1 1600.21,-261.9 "/>
<text text-anchor="middle" x="1838.93" y="-245.3" font-family="Courier New" font-size="14.00" fill="#ffffff">uint128: accruedToTreasury (16)</text>
<polyline fill="none" stroke="deeppink" points="1199.38,-237.1 2078.31,-237.1 "/>
<text text-anchor="middle" x="1377.09" y="-220.5" font-family="Courier New" font-size="14.00" fill="#ffffff">unallocated (16)</text>
<polyline fill="none" stroke="deeppink" points="1554.8,-212.3 1554.8,-237.1 "/>
<text text-anchor="middle" x="1816.52" y="-220.5" font-family="Courier New" font-size="14.00" fill="#ffffff">uint128: isolationModeTotalDebt (16)</text>
</g>
<!-- 6&#45;&gt;3 -->
<g id="edge2" class="edge">
<title>6:27&#45;&gt;3</title>
<path fill="none" stroke="deeppink" d="M1013.35,-270.1C1048.96,-270.1 1085.62,-271.73 1122.43,-274.56"/>
<polygon fill="deeppink" stroke="deeppink" points="1122.57,-278.08 1132.82,-275.39 1123.13,-271.1 1122.57,-278.08"/>
</g>
<!-- 4 -->
<g id="node5" class="node">
<title>4</title>
<polygon fill="dimgrey" stroke="deeppink" points="1467.42,-118.9 1467.42,-193.3 1743.86,-193.3 1743.86,-118.9 1467.42,-118.9"/>
<text text-anchor="middle" x="1605.64" y="-176.7" font-family="Courier New" font-size="14.00" fill="#ffffff">UserConfigurationMap &lt;&lt;Struct&gt;&gt;</text>
<polyline fill="none" stroke="deeppink" points="1467.42,-168.5 1743.86,-168.5 "/>
<text text-anchor="middle" x="1502.62" y="-151.9" font-family="Courier New" font-size="14.00" fill="#ffffff">offset</text>
<polyline fill="none" stroke="deeppink" points="1467.42,-143.7 1537.82,-143.7 "/>
<text text-anchor="middle" x="1502.62" y="-127.1" font-family="Courier New" font-size="14.00" fill="#ffffff">0</text>
<polyline fill="none" stroke="deeppink" points="1537.82,-118.9 1537.82,-168.5 "/>
<text text-anchor="middle" x="1640.74" y="-151.9" font-family="Courier New" font-size="14.00" fill="#ffffff">type: variable (bytes)</text>
<polyline fill="none" stroke="deeppink" points="1537.82,-143.7 1743.65,-143.7 "/>
<text text-anchor="middle" x="1640.44" y="-127.1" font-family="Courier New" font-size="14.00" fill="#ffffff">uint256: data (32)</text>
</g>
<!-- 6&#45;&gt;4 -->
<g id="edge3" class="edge">
<title>6:29&#45;&gt;4</title>
<path fill="none" stroke="deeppink" d="M1013.35,-246.1C1038.28,-246.1 1027.24,-214.59 1049.35,-203.1 1175.64,-137.5 1340.12,-131.77 1457.21,-138.76"/>
<polygon fill="deeppink" stroke="deeppink" points="1457.12,-142.26 1467.33,-139.4 1457.57,-135.28 1457.12,-142.26"/>
</g>
<!-- 5 -->
<g id="node6" class="node">
<title>5</title>
<polygon fill="dimgrey" stroke="deeppink" points="1049.35,-0.5 1049.35,-99.7 2161.92,-99.7 2161.92,-0.5 1049.35,-0.5"/>
<text text-anchor="middle" x="1605.64" y="-83.1" font-family="Courier New" font-size="14.00" fill="#ffffff">EModeCategory &lt;&lt;Struct&gt;&gt;</text>
<polyline fill="none" stroke="deeppink" points="1049.35,-74.9 2161.92,-74.9 "/>
<text text-anchor="middle" x="1082.56" y="-58.3" font-family="Courier New" font-size="14.00" fill="#ffffff">offset</text>
<polyline fill="none" stroke="deeppink" points="1049.35,-50.1 1115.76,-50.1 "/>
<text text-anchor="middle" x="1082.56" y="-33.5" font-family="Courier New" font-size="14.00" fill="#ffffff">0</text>
<polyline fill="none" stroke="deeppink" points="1049.35,-25.3 1115.76,-25.3 "/>
<text text-anchor="middle" x="1082.56" y="-8.7" font-family="Courier New" font-size="14.00" fill="#ffffff">1</text>
<polyline fill="none" stroke="deeppink" points="1115.76,-0.5 1115.76,-74.9 "/>
<text text-anchor="middle" x="1638.84" y="-58.3" font-family="Courier New" font-size="14.00" fill="#ffffff">type: variable (bytes)</text>
<polyline fill="none" stroke="deeppink" points="1115.76,-50.1 2161.92,-50.1 "/>
<text text-anchor="middle" x="1186.77" y="-33.5" font-family="Courier New" font-size="14.00" fill="#ffffff">unallocated (6)</text>
<polyline fill="none" stroke="deeppink" points="1257.78,-25.3 1257.78,-50.1 "/>
<text text-anchor="middle" x="1370.8" y="-33.5" font-family="Courier New" font-size="14.00" fill="#ffffff">address: priceSource (20)</text>
<polyline fill="none" stroke="deeppink" points="1483.82,-25.3 1483.82,-50.1 "/>
<text text-anchor="middle" x="1609.44" y="-33.5" font-family="Courier New" font-size="14.00" fill="#ffffff">uint16: liquidationBonus (2)</text>
<polyline fill="none" stroke="deeppink" points="1735.06,-25.3 1735.06,-50.1 "/>
<text text-anchor="middle" x="1877.48" y="-33.5" font-family="Courier New" font-size="14.00" fill="#ffffff">uint16: liquidationThreshold (2)</text>
<polyline fill="none" stroke="deeppink" points="2019.9,-25.3 2019.9,-50.1 "/>
<text text-anchor="middle" x="2090.91" y="-33.5" font-family="Courier New" font-size="14.00" fill="#ffffff">uint16: ltv (2)</text>
<polyline fill="none" stroke="deeppink" points="1115.76,-25.3 2161.92,-25.3 "/>
<text text-anchor="middle" x="1638.38" y="-8.7" font-family="Courier New" font-size="14.00" fill="#ffffff">string: label (32)</text>
</g>
<!-- 6&#45;&gt;5 -->
<g id="edge4" class="edge">
<title>6:36&#45;&gt;5</title>
<path fill="none" stroke="deeppink" d="M1013.35,-196.1C1055.2,-196.1 1015.84,-134.16 1049.35,-109.1 1050.82,-108 1052.3,-106.92 1053.78,-105.85"/>
<polygon fill="deeppink" stroke="deeppink" points="1056.18,-108.44 1062.38,-99.85 1052.17,-102.7 1056.18,-108.44"/>
</g>
<!-- 2 -->
<g id="node3" class="node">
<title>2</title>
<polygon fill="dimgrey" stroke="deeppink" points="2197.92,-410.9 2197.92,-485.3 2499.57,-485.3 2499.57,-410.9 2197.92,-410.9"/>
<text text-anchor="middle" x="2348.74" y="-468.7" font-family="Courier New" font-size="14.00" fill="#ffffff">ReserveConfigurationMap &lt;&lt;Struct&gt;&gt;</text>
<polyline fill="none" stroke="deeppink" points="2197.92,-460.5 2499.57,-460.5 "/>
<text text-anchor="middle" x="2239.62" y="-443.9" font-family="Courier New" font-size="14.00" fill="#ffffff">offset</text>
<polyline fill="none" stroke="deeppink" points="2197.92,-435.7 2281.33,-435.7 "/>
<text text-anchor="middle" x="2239.62" y="-419.1" font-family="Courier New" font-size="14.00" fill="#ffffff">0</text>
<polyline fill="none" stroke="deeppink" points="2281.33,-410.9 2281.33,-460.5 "/>
<text text-anchor="middle" x="2390.24" y="-443.9" font-family="Courier New" font-size="14.00" fill="#ffffff">type: variable (bytes)</text>
<polyline fill="none" stroke="deeppink" points="2281.33,-435.7 2499.16,-435.7 "/>
<text text-anchor="middle" x="2389.94" y="-419.1" font-family="Courier New" font-size="14.00" fill="#ffffff">uint256: data (32)</text>
</g>
<!-- 3&#45;&gt;2 -->
<g id="edge5" class="edge">
<title>3:12&#45;&gt;2</title>
<path fill="none" stroke="deeppink" d="M2078.64,-448.1C2113.87,-448.1 2151.69,-448.1 2187.53,-448.1"/>
<polygon fill="deeppink" stroke="deeppink" points="2187.58,-451.6 2197.58,-448.1 2187.58,-444.6 2187.58,-451.6"/>
</g>
</g>
</svg>
