<?xml version="1.0" encoding="UTF-8" standalone="no"?>
<!DOCTYPE svg PUBLIC "-//W3C//DTD SVG 1.1//EN"
 "http://www.w3.org/Graphics/SVG/1.1/DTD/svg11.dtd">
<!-- Generated by graphviz version 5.0.0 (20220707.1540)
 -->
<!-- Title: StorageDiagram Pages: 1 -->
<svg width="1532pt" height="425pt"
 viewBox="0.00 0.00 1532.23 425.00" xmlns="http://www.w3.org/2000/svg" xmlns:xlink="http://www.w3.org/1999/xlink">
<g id="graph0" class="graph" transform="scale(1 1) rotate(0) translate(4 421)">
<title>StorageDiagram</title>
<polygon fill="white" stroke="transparent" points="-4,4 -4,-421 1528.23,-421 1528.23,4 -4,4"/>
<!-- 1 -->
<g id="node1" class="node">
<title>1</title>
<polygon fill="#f2f2f2" stroke="black" points="0,-0.5 0,-416.5 1524.23,-416.5 1524.23,-0.5 0,-0.5"/>
<text text-anchor="middle" x="762.12" y="-399.9" font-family="Courier New" font-size="14.00">BasicStorage &lt;&lt;Contract&gt;&gt;</text>
<text text-anchor="middle" x="762.12" y="-383.1" font-family="Courier New" font-size="14.00">0x8E2587265C68CD9EE3EcBf22DC229980b47CB960</text>
<polyline fill="none" stroke="black" points="0,-374.9 1524.23,-374.9 "/>
<text text-anchor="middle" x="24.8" y="-358.3" font-family="Courier New" font-size="14.00">slot</text>
<text text-anchor="middle" x="24.8" y="-341.5" font-family="Courier New" font-size="14.00"> &#160;</text>
<polyline fill="none" stroke="black" points="0,-333.3 49.61,-333.3 "/>
<text text-anchor="middle" x="24.8" y="-316.7" font-family="Courier New" font-size="14.00">0</text>
<text text-anchor="middle" x="24.8" y="-299.9" font-family="Courier New" font-size="14.00"> &#160;</text>
<polyline fill="none" stroke="black" points="0,-291.7 49.61,-291.7 "/>
<text text-anchor="middle" x="24.8" y="-275.1" font-family="Courier New" font-size="14.00">1</text>
<text text-anchor="middle" x="24.8" y="-258.3" font-family="Courier New" font-size="14.00"> &#160;</text>
<polyline fill="none" stroke="black" points="0,-250.1 49.61,-250.1 "/>
<text text-anchor="middle" x="24.8" y="-233.5" font-family="Courier New" font-size="14.00">2</text>
<text text-anchor="middle" x="24.8" y="-216.7" font-family="Courier New" font-size="14.00"> &#160;</text>
<polyline fill="none" stroke="black" points="0,-208.5 49.61,-208.5 "/>
<text text-anchor="middle" x="24.8" y="-191.9" font-family="Courier New" font-size="14.00">3</text>
<text text-anchor="middle" x="24.8" y="-175.1" font-family="Courier New" font-size="14.00"> &#160;</text>
<polyline fill="none" stroke="black" points="0,-166.9 49.61,-166.9 "/>
<text text-anchor="middle" x="24.8" y="-150.3" font-family="Courier New" font-size="14.00">4</text>
<text text-anchor="middle" x="24.8" y="-133.5" font-family="Courier New" font-size="14.00"> &#160;</text>
<polyline fill="none" stroke="black" points="0,-125.3 49.61,-125.3 "/>
<text text-anchor="middle" x="24.8" y="-108.7" font-family="Courier New" font-size="14.00">5</text>
<text text-anchor="middle" x="24.8" y="-91.9" font-family="Courier New" font-size="14.00"> &#160;</text>
<polyline fill="none" stroke="black" points="0,-83.7 49.61,-83.7 "/>
<text text-anchor="middle" x="24.8" y="-67.1" font-family="Courier New" font-size="14.00">6</text>
<text text-anchor="middle" x="24.8" y="-50.3" font-family="Courier New" font-size="14.00"> &#160;</text>
<polyline fill="none" stroke="black" points="0,-42.1 49.61,-42.1 "/>
<text text-anchor="middle" x="24.8" y="-25.5" font-family="Courier New" font-size="14.00">7</text>
<text text-anchor="middle" x="24.8" y="-8.7" font-family="Courier New" font-size="14.00"> </text>
<polyline fill="none" stroke="black" points="49.61,-0.5 49.61,-374.9 "/>
<text text-anchor="middle" x="334.85" y="-358.3" font-family="Courier New" font-size="14.00">value</text>
<text text-anchor="middle" x="334.85" y="-341.5" font-family="Courier New" font-size="14.00"> &#160;</text>
<polyline fill="none" stroke="black" points="49.61,-333.3 620.1,-333.3 "/>
<text text-anchor="middle" x="334.85" y="-316.7" font-family="Courier New" font-size="14.00">0x0000000000000000000000000000000000000000000000000000000000FA0101</text>
<text text-anchor="middle" x="334.85" y="-299.9" font-family="Courier New" font-size="14.00"> &#160;</text>
<polyline fill="none" stroke="black" points="49.61,-291.7 620.1,-291.7 "/>
<text text-anchor="middle" x="334.85" y="-275.1" font-family="Courier New" font-size="14.00">0x00000000000000000000000000000000000000000000043C33C1937564800000</text>
<text text-anchor="middle" x="334.85" y="-258.3" font-family="Courier New" font-size="14.00"> &#160;</text>
<polyline fill="none" stroke="black" points="49.61,-250.1 620.1,-250.1 "/>
<text text-anchor="middle" x="334.85" y="-233.5" font-family="Courier New" font-size="14.00">0x0000000000000000000000000000000000000000021E19E0C9BAB2400000D8F0</text>
<text text-anchor="middle" x="334.85" y="-216.7" font-family="Courier New" font-size="14.00"> &#160;</text>
<polyline fill="none" stroke="black" points="49.61,-208.5 620.1,-208.5 "/>
<text text-anchor="middle" x="334.85" y="-191.9" font-family="Courier New" font-size="14.00">0x0000000000000000000000008E2587265C68CD9EE3ECBF22DC229980B47CB960</text>
<text text-anchor="middle" x="334.85" y="-175.1" font-family="Courier New" font-size="14.00"> &#160;</text>
<polyline fill="none" stroke="black" points="49.61,-166.9 620.1,-166.9 "/>
<text text-anchor="middle" x="334.85" y="-150.3" font-family="Courier New" font-size="14.00">0x0000008100FF81C300FF01FF1C727A55EA3C11B0AB7D3A361FE0F3C47CE6DE5D</text>
<text text-anchor="middle" x="334.85" y="-133.5" font-family="Courier New" font-size="14.00"> &#160;</text>
<polyline fill="none" stroke="black" points="49.61,-125.3 620.1,-125.3 "/>
<text text-anchor="middle" x="334.85" y="-108.7" font-family="Courier New" font-size="14.00">0xE9B69CD5563A8BFBFFB0FA4F422862013492D43FE7FB62D771A0147B6E891D13</text>
<text text-anchor="middle" x="334.85" y="-91.9" font-family="Courier New" font-size="14.00"> &#160;</text>
<polyline fill="none" stroke="black" points="49.61,-83.7 620.1,-83.7 "/>
<text text-anchor="middle" x="334.85" y="-67.1" font-family="Courier New" font-size="14.00">0x426173696353746F7261676520636F6E7472616374000000000000000000002A</text>
<text text-anchor="middle" x="334.85" y="-50.3" font-family="Courier New" font-size="14.00"> &#160;</text>
<polyline fill="none" stroke="black" points="49.61,-42.1 620.1,-42.1 "/>
<text text-anchor="middle" x="334.85" y="-25.5" font-family="Courier New" font-size="14.00">0xFFEEDDCCBBAA9988770011000000000000000000000000000000000000000016</text>
<text text-anchor="middle" x="334.85" y="-8.7" font-family="Courier New" font-size="14.00"> </text>
<polyline fill="none" stroke="black" points="620.1,-0.5 620.1,-374.9 "/>
<text text-anchor="middle" x="1072.16" y="-358.3" font-family="Courier New" font-size="14.00">type: &lt;inherited contract&gt;.variable (bytes)</text>
<text text-anchor="middle" x="1072.16" y="-341.5" font-family="Courier New" font-size="14.00">decoded data</text>
<polyline fill="none" stroke="black" points="620.1,-333.3 1524.23,-333.3 "/>
<text text-anchor="middle" x="719.31" y="-308.3" font-family="Courier New" font-size="14.00">unallocated (29)</text>
<polyline fill="none" stroke="black" points="818.52,-291.7 818.52,-333.3 "/>
<text text-anchor="middle" x="938.73" y="-316.7" font-family="Courier New" font-size="14.00">uint8: tinyNumber (1)</text>
<text text-anchor="middle" x="938.73" y="-299.9" font-family="Courier New" font-size="14.00"> 250 &#160;</text>
<polyline fill="none" stroke="black" points="1058.95,-291.7 1058.95,-333.3 "/>
<text text-anchor="middle" x="1183.36" y="-316.7" font-family="Courier New" font-size="14.00">Severity: severity (1)</text>
<text text-anchor="middle" x="1183.36" y="-299.9" font-family="Courier New" font-size="14.00"> Medium &#160;</text>
<polyline fill="none" stroke="black" points="1307.78,-291.7 1307.78,-333.3 "/>
<text text-anchor="middle" x="1415.89" y="-316.7" font-family="Courier New" font-size="14.00">bool: someBool (1)</text>
<text text-anchor="middle" x="1415.89" y="-299.9" font-family="Courier New" font-size="14.00"> true </text>
<polyline fill="none" stroke="black" points="620.1,-291.7 1524.23,-291.7 "/>
<text text-anchor="middle" x="1072.02" y="-275.1" font-family="Courier New" font-size="14.00">uint256: fullSlotNumber (32)</text>
<text text-anchor="middle" x="1072.02" y="-258.3" font-family="Courier New" font-size="14.00"> 20,000,000,000,000,000,000,000 </text>
<polyline fill="none" stroke="black" points="620.1,-250.1 1524.23,-250.1 "/>
<text text-anchor="middle" x="727.31" y="-225.1" font-family="Courier New" font-size="14.00">unallocated (14)</text>
<polyline fill="none" stroke="black" points="834.52,-208.5 834.52,-250.1 "/>
<text text-anchor="middle" x="1013.14" y="-233.5" font-family="Courier New" font-size="14.00">uint128: halfSlotNumber (16)</text>
<text text-anchor="middle" x="1013.14" y="-216.7" font-family="Courier New" font-size="14.00"> 10,000,000,000,000,000,000,000 &#160;</text>
<polyline fill="none" stroke="black" points="1191.76,-208.5 1191.76,-250.1 "/>
<text text-anchor="middle" x="1357.78" y="-233.5" font-family="Courier New" font-size="14.00">int16: smallNegativeNumber (2)</text>
<text text-anchor="middle" x="1357.78" y="-216.7" font-family="Courier New" font-size="14.00"> &#45;10,000 </text>
<polyline fill="none" stroke="black" points="620.1,-208.5 1524.23,-208.5 "/>
<text text-anchor="middle" x="787.31" y="-183.5" font-family="Courier New" font-size="14.00">unallocated (12)</text>
<polyline fill="none" stroke="black" points="954.52,-166.9 954.52,-208.5 "/>
<text text-anchor="middle" x="1239.35" y="-191.9" font-family="Courier New" font-size="14.00">address: owner (20)</text>
<text text-anchor="middle" x="1239.35" y="-175.1" font-family="Courier New" font-size="14.00"> 0x8E2587265C68CD9EE3EcBf22DC229980b47CB960 </text>
<polyline fill="none" stroke="black" points="620.1,-166.9 1524.23,-166.9 "/>
<text text-anchor="middle" x="691.11" y="-141.9" font-family="Courier New" font-size="14.00">unallocated (3)</text>
<polyline fill="none" stroke="black" points="762.12,-125.3 762.12,-166.9 "/>
<text text-anchor="middle" x="862.53" y="-150.3" font-family="Courier New" font-size="14.00">bytes8: eightBytes (8)</text>
<text text-anchor="middle" x="862.53" y="-133.5" font-family="Courier New" font-size="14.00"> 0x8100FF81C300FF01 &#160;</text>
<polyline fill="none" stroke="black" points="962.95,-125.3 962.95,-166.9 "/>
<text text-anchor="middle" x="1050.76" y="-150.3" font-family="Courier New" font-size="14.00">bytes1: oneByte (1)</text>
<text text-anchor="middle" x="1050.76" y="-133.5" font-family="Courier New" font-size="14.00"> 0xFF &#160;</text>
<polyline fill="none" stroke="black" points="1138.57,-125.3 1138.57,-166.9 "/>
<text text-anchor="middle" x="1331.4" y="-150.3" font-family="Courier New" font-size="14.00">ITrade: exchange (20)</text>
<text text-anchor="middle" x="1331.4" y="-133.5" font-family="Courier New" font-size="14.00"> 0x1C727a55eA3c11B0ab7D3a361Fe0F3C47cE6de5d </text>
<polyline fill="none" stroke="black" points="620.1,-125.3 1524.23,-125.3 "/>
<text text-anchor="middle" x="1071.74" y="-108.7" font-family="Courier New" font-size="14.00">bytes32: fullSlotBytes (32)</text>
<text text-anchor="middle" x="1071.74" y="-91.9" font-family="Courier New" font-size="14.00"> 0xE9B69CD5563A8BFBFFB0FA4F422862013492D43FE7FB62D771A0147B6E891D13 </text>
<polyline fill="none" stroke="black" points="620.1,-83.7 1524.23,-83.7 "/>
<text text-anchor="middle" x="1072.11" y="-67.1" font-family="Courier New" font-size="14.00">string: name (32)</text>
<text text-anchor="middle" x="1072.11" y="-50.3" font-family="Courier New" font-size="14.00"> &quot;BasicStorage contract&quot; </text>
<polyline fill="none" stroke="black" points="620.1,-42.1 1524.23,-42.1 "/>
<text text-anchor="middle" x="1071.81" y="-25.5" font-family="Courier New" font-size="14.00">bytes: data (32)</text>
<text text-anchor="middle" x="1071.81" y="-8.7" font-family="Courier New" font-size="14.00"> 0xFFEEDDCCBBAA9988770011 </text>
</g>
</g>
</svg>
