<?xml version="1.0" encoding="UTF-8" standalone="no"?>
<!DOCTYPE svg PUBLIC "-//W3C//DTD SVG 1.1//EN"
 "http://www.w3.org/Graphics/SVG/1.1/DTD/svg11.dtd">
<!-- Generated by graphviz version 5.0.0 (20220707.1540)
 -->
<!-- Title: StorageDiagram Pages: 1 -->
<svg width="2220pt" height="948pt"
 viewBox="0.00 0.00 2220.33 948.20" xmlns="http://www.w3.org/2000/svg" xmlns:xlink="http://www.w3.org/1999/xlink">
<g id="graph0" class="graph" transform="scale(1 1) rotate(0) translate(4 944.2)">
<title>StorageDiagram</title>
<polygon fill="white" stroke="transparent" points="-4,4 -4,-944.2 2216.33,-944.2 2216.33,4 -4,4"/>
<!-- 5 -->
<g id="node1" class="node">
<title>5</title>
<polygon fill="#f2f2f2" stroke="black" points="0,-390.7 0,-640.3 997.35,-640.3 997.35,-390.7 0,-390.7"/>
<text text-anchor="middle" x="498.68" y="-623.7" font-family="Courier New" font-size="14.00">DynamicArrayStorage &lt;&lt;Contract&gt;&gt;</text>
<text text-anchor="middle" x="498.68" y="-606.9" font-family="Courier New" font-size="14.00">0x66535378de7FB9219b637DBE3e3FFad33387f80B</text>
<polyline fill="none" stroke="black" points="0,-598.7 997.35,-598.7 "/>
<text text-anchor="middle" x="24.8" y="-582.1" font-family="Courier New" font-size="14.00">slot</text>
<text text-anchor="middle" x="24.8" y="-565.3" font-family="Courier New" font-size="14.00"> &#160;</text>
<polyline fill="none" stroke="black" points="0,-557.1 49.61,-557.1 "/>
<text text-anchor="middle" x="24.8" y="-540.5" font-family="Courier New" font-size="14.00">0</text>
<text text-anchor="middle" x="24.8" y="-523.7" font-family="Courier New" font-size="14.00"> &#160;</text>
<polyline fill="none" stroke="black" points="0,-515.5 49.61,-515.5 "/>
<text text-anchor="middle" x="24.8" y="-498.9" font-family="Courier New" font-size="14.00">1</text>
<text text-anchor="middle" x="24.8" y="-482.1" font-family="Courier New" font-size="14.00"> &#160;</text>
<polyline fill="none" stroke="black" points="0,-473.9 49.61,-473.9 "/>
<text text-anchor="middle" x="24.8" y="-457.3" font-family="Courier New" font-size="14.00">2</text>
<text text-anchor="middle" x="24.8" y="-440.5" font-family="Courier New" font-size="14.00"> &#160;</text>
<polyline fill="none" stroke="black" points="0,-432.3 49.61,-432.3 "/>
<text text-anchor="middle" x="24.8" y="-415.7" font-family="Courier New" font-size="14.00">3</text>
<text text-anchor="middle" x="24.8" y="-398.9" font-family="Courier New" font-size="14.00"> </text>
<polyline fill="none" stroke="black" points="49.61,-390.7 49.61,-598.7 "/>
<text text-anchor="middle" x="334.85" y="-582.1" font-family="Courier New" font-size="14.00">value</text>
<text text-anchor="middle" x="334.85" y="-565.3" font-family="Courier New" font-size="14.00"> &#160;</text>
<polyline fill="none" stroke="black" points="49.61,-557.1 620.1,-557.1 "/>
<text text-anchor="middle" x="334.85" y="-540.5" font-family="Courier New" font-size="14.00">0x000000000000000000000000000000000000000000000000000000000000000A</text>
<text text-anchor="middle" x="334.85" y="-523.7" font-family="Courier New" font-size="14.00"> &#160;</text>
<polyline fill="none" stroke="black" points="49.61,-515.5 620.1,-515.5 "/>
<text text-anchor="middle" x="334.85" y="-498.9" font-family="Courier New" font-size="14.00">0x0000000000000000000000000000000000000000000000000000000000000000</text>
<text text-anchor="middle" x="334.85" y="-482.1" font-family="Courier New" font-size="14.00"> &#160;</text>
<polyline fill="none" stroke="black" points="49.61,-473.9 620.1,-473.9 "/>
<text text-anchor="middle" x="334.85" y="-457.3" font-family="Courier New" font-size="14.00">0x0000000000000000000000000000000000000000000000000000000000000014</text>
<text text-anchor="middle" x="334.85" y="-440.5" font-family="Courier New" font-size="14.00"> &#160;</text>
<polyline fill="none" stroke="black" points="49.61,-432.3 620.1,-432.3 "/>
<text text-anchor="middle" x="334.85" y="-415.7" font-family="Courier New" font-size="14.00">0x0000000000000000000000000000000000000000000000000000000000000003</text>
<text text-anchor="middle" x="334.85" y="-398.9" font-family="Courier New" font-size="14.00"> </text>
<polyline fill="none" stroke="black" points="620.1,-390.7 620.1,-598.7 "/>
<text text-anchor="middle" x="808.73" y="-582.1" font-family="Courier New" font-size="14.00">type: &lt;inherited contract&gt;.variable (bytes)</text>
<text text-anchor="middle" x="808.73" y="-565.3" font-family="Courier New" font-size="14.00">decoded data</text>
<polyline fill="none" stroke="black" points="620.1,-557.1 997.35,-557.1 "/>
<text text-anchor="middle" x="808.71" y="-540.5" font-family="Courier New" font-size="14.00">uint256[]: numbers (32)</text>
<text text-anchor="middle" x="808.71" y="-523.7" font-family="Courier New" font-size="14.00"> 10 </text>
<polyline fill="none" stroke="black" points="620.1,-515.5 997.35,-515.5 "/>
<text text-anchor="middle" x="808.31" y="-498.9" font-family="Courier New" font-size="14.00">uint256[]: empty (32)</text>
<text text-anchor="middle" x="808.31" y="-482.1" font-family="Courier New" font-size="14.00"> 0 </text>
<polyline fill="none" stroke="black" points="620.1,-473.9 997.35,-473.9 "/>
<text text-anchor="middle" x="808.32" y="-457.3" font-family="Courier New" font-size="14.00">uint56[]: sevenByteNumbers (32)</text>
<text text-anchor="middle" x="808.32" y="-440.5" font-family="Courier New" font-size="14.00"> 20 </text>
<polyline fill="none" stroke="black" points="620.1,-432.3 997.35,-432.3 "/>
<text text-anchor="middle" x="808.51" y="-415.7" font-family="Courier New" font-size="14.00">address[]: tokens (32)</text>
<text text-anchor="middle" x="808.51" y="-398.9" font-family="Courier New" font-size="14.00"> 3 </text>
</g>
<!-- 1 -->
<g id="node2" class="node">
<title>1</title>
<polygon fill="#f2f2f2" stroke="black" points="1203.98,-665.3 1203.98,-939.7 2041.71,-939.7 2041.71,-665.3 1203.98,-665.3"/>
<text text-anchor="middle" x="1622.84" y="-923.1" font-family="Courier New" font-size="14.00">uint256[]: numbers &lt;&lt;Array&gt;&gt;</text>
<text text-anchor="middle" x="1622.84" y="-906.3" font-family="Courier New" font-size="14.00">0x290decd9548b62a8d60345a988386fc84ba6bc95484008f6362f93160ef3e563</text>
<polyline fill="none" stroke="black" points="1203.98,-898.1 2041.71,-898.1 "/>
<text text-anchor="middle" x="1237.18" y="-881.5" font-family="Courier New" font-size="14.00">offset</text>
<text text-anchor="middle" x="1237.18" y="-864.7" font-family="Courier New" font-size="14.00"> &#160;</text>
<polyline fill="none" stroke="black" points="1203.98,-856.5 1270.39,-856.5 "/>
<text text-anchor="middle" x="1237.18" y="-839.9" font-family="Courier New" font-size="14.00">0</text>
<text text-anchor="middle" x="1237.18" y="-823.1" font-family="Courier New" font-size="14.00"> &#160;</text>
<polyline fill="none" stroke="black" points="1203.98,-814.9 1270.39,-814.9 "/>
<text text-anchor="middle" x="1237.18" y="-798.3" font-family="Courier New" font-size="14.00">1</text>
<text text-anchor="middle" x="1237.18" y="-781.5" font-family="Courier New" font-size="14.00"> &#160;</text>
<polyline fill="none" stroke="black" points="1203.98,-773.3 1270.39,-773.3 "/>
<text text-anchor="middle" x="1237.18" y="-756.7" font-family="Courier New" font-size="14.00">2&#45;7 </text>
<polyline fill="none" stroke="black" points="1203.98,-748.5 1270.39,-748.5 "/>
<text text-anchor="middle" x="1237.18" y="-731.9" font-family="Courier New" font-size="14.00">8</text>
<text text-anchor="middle" x="1237.18" y="-715.1" font-family="Courier New" font-size="14.00"> &#160;</text>
<polyline fill="none" stroke="black" points="1203.98,-706.9 1270.39,-706.9 "/>
<text text-anchor="middle" x="1237.18" y="-690.3" font-family="Courier New" font-size="14.00">9</text>
<text text-anchor="middle" x="1237.18" y="-673.5" font-family="Courier New" font-size="14.00"> </text>
<polyline fill="none" stroke="black" points="1270.39,-665.3 1270.39,-898.1 "/>
<text text-anchor="middle" x="1555.63" y="-881.5" font-family="Courier New" font-size="14.00">value</text>
<text text-anchor="middle" x="1555.63" y="-864.7" font-family="Courier New" font-size="14.00"> &#160;</text>
<polyline fill="none" stroke="black" points="1270.39,-856.5 1840.88,-856.5 "/>
<text text-anchor="middle" x="1555.63" y="-839.9" font-family="Courier New" font-size="14.00">0x0000000000000000000000000000000000000000000000000000000000000001</text>
<text text-anchor="middle" x="1555.63" y="-823.1" font-family="Courier New" font-size="14.00"> &#160;</text>
<polyline fill="none" stroke="black" points="1270.39,-814.9 1840.88,-814.9 "/>
<text text-anchor="middle" x="1555.63" y="-798.3" font-family="Courier New" font-size="14.00">0x0000000000000000000000000000000000000000000000000000000000000002</text>
<text text-anchor="middle" x="1555.63" y="-781.5" font-family="Courier New" font-size="14.00"> &#160;</text>
<polyline fill="none" stroke="black" points="1270.39,-773.3 1840.88,-773.3 "/>
<text text-anchor="middle" x="1555.63" y="-756.7" font-family="Courier New" font-size="14.00"> </text>
<polyline fill="none" stroke="black" points="1270.39,-748.5 1840.88,-748.5 "/>
<text text-anchor="middle" x="1555.63" y="-731.9" font-family="Courier New" font-size="14.00">0x0000000000000000000000000000000000000000000000000000000000000009</text>
<text text-anchor="middle" x="1555.63" y="-715.1" font-family="Courier New" font-size="14.00"> &#160;</text>
<polyline fill="none" stroke="black" points="1270.39,-706.9 1840.88,-706.9 "/>
<text text-anchor="middle" x="1555.63" y="-690.3" font-family="Courier New" font-size="14.00">0x000000000000000000000000000000000000000000000000000000000000000A</text>
<text text-anchor="middle" x="1555.63" y="-673.5" font-family="Courier New" font-size="14.00"> </text>
<polyline fill="none" stroke="black" points="1840.88,-665.3 1840.88,-898.1 "/>
<text text-anchor="middle" x="1941.29" y="-881.5" font-family="Courier New" font-size="14.00">type: variable (bytes)</text>
<text text-anchor="middle" x="1941.29" y="-864.7" font-family="Courier New" font-size="14.00">decoded data</text>
<polyline fill="none" stroke="black" points="1840.88,-856.5 2041.71,-856.5 "/>
<text text-anchor="middle" x="1941.28" y="-839.9" font-family="Courier New" font-size="14.00">uint256 (32)</text>
<text text-anchor="middle" x="1941.28" y="-823.1" font-family="Courier New" font-size="14.00"> 1 </text>
<polyline fill="none" stroke="black" points="1840.88,-814.9 2041.71,-814.9 "/>
<text text-anchor="middle" x="1941.28" y="-798.3" font-family="Courier New" font-size="14.00">uint256 (32)</text>
<text text-anchor="middle" x="1941.28" y="-781.5" font-family="Courier New" font-size="14.00"> 2 </text>
<polyline fill="none" stroke="black" points="1840.88,-773.3 2041.71,-773.3 "/>
<text text-anchor="middle" x="1940.88" y="-756.7" font-family="Courier New" font-size="14.00">&#45;&#45;&#45;&#45; (192)</text>
<polyline fill="none" stroke="black" points="1840.88,-748.5 2041.71,-748.5 "/>
<text text-anchor="middle" x="1941.28" y="-731.9" font-family="Courier New" font-size="14.00">uint256 (32)</text>
<text text-anchor="middle" x="1941.28" y="-715.1" font-family="Courier New" font-size="14.00"> 9 </text>
<polyline fill="none" stroke="black" points="1840.88,-706.9 2041.71,-706.9 "/>
<text text-anchor="middle" x="1941.28" y="-690.3" font-family="Courier New" font-size="14.00">uint256 (32)</text>
<text text-anchor="middle" x="1941.28" y="-673.5" font-family="Courier New" font-size="14.00"> 10 </text>
</g>
<!-- 5&#45;&gt;1 -->
<g id="edge1" class="edge">
<title>5:2&#45;&gt;1</title>
<path fill="none" stroke="black" d="M997.35,-536.5C1052.61,-536.5 993.34,-617.4 1033.35,-655.5 1078.78,-698.75 1134.93,-729.84 1194.34,-752.07"/>
<polygon fill="black" stroke="black" points="1193.31,-755.42 1203.91,-755.57 1195.71,-748.85 1193.31,-755.42"/>
</g>
<!-- 2 -->
<g id="node3" class="node">
<title>2</title>
<polygon fill="#f2f2f2" stroke="black" points="1203.98,-521.1 1203.98,-645.9 2041.71,-645.9 2041.71,-521.1 1203.98,-521.1"/>
<text text-anchor="middle" x="1622.84" y="-629.3" font-family="Courier New" font-size="14.00">uint256[]: empty &lt;&lt;Array&gt;&gt;</text>
<text text-anchor="middle" x="1622.84" y="-612.5" font-family="Courier New" font-size="14.00">0xb10e2d527612073b26eecdfd717e6a320cf44b4afac2b0732d9fcbe2b7fa0cf6</text>
<polyline fill="none" stroke="black" points="1203.98,-604.3 2041.71,-604.3 "/>
<text text-anchor="middle" x="1237.18" y="-587.7" font-family="Courier New" font-size="14.00">offset</text>
<text text-anchor="middle" x="1237.18" y="-570.9" font-family="Courier New" font-size="14.00"> &#160;</text>
<polyline fill="none" stroke="black" points="1203.98,-562.7 1270.39,-562.7 "/>
<text text-anchor="middle" x="1237.18" y="-546.1" font-family="Courier New" font-size="14.00">0</text>
<text text-anchor="middle" x="1237.18" y="-529.3" font-family="Courier New" font-size="14.00"> </text>
<polyline fill="none" stroke="black" points="1270.39,-521.1 1270.39,-604.3 "/>
<text text-anchor="middle" x="1555.63" y="-587.7" font-family="Courier New" font-size="14.00">value</text>
<text text-anchor="middle" x="1555.63" y="-570.9" font-family="Courier New" font-size="14.00"> &#160;</text>
<polyline fill="none" stroke="black" points="1270.39,-562.7 1840.88,-562.7 "/>
<text text-anchor="middle" x="1555.63" y="-546.1" font-family="Courier New" font-size="14.00">0x0000000000000000000000000000000000000000000000000000000000000000</text>
<text text-anchor="middle" x="1555.63" y="-529.3" font-family="Courier New" font-size="14.00"> </text>
<polyline fill="none" stroke="black" points="1840.88,-521.1 1840.88,-604.3 "/>
<text text-anchor="middle" x="1941.29" y="-587.7" font-family="Courier New" font-size="14.00">type: variable (bytes)</text>
<text text-anchor="middle" x="1941.29" y="-570.9" font-family="Courier New" font-size="14.00">decoded data</text>
<polyline fill="none" stroke="black" points="1840.88,-562.7 2041.71,-562.7 "/>
<text text-anchor="middle" x="1941.28" y="-546.1" font-family="Courier New" font-size="14.00">uint256 (32)</text>
<text text-anchor="middle" x="1941.28" y="-529.3" font-family="Courier New" font-size="14.00"> 0 </text>
</g>
<!-- 5&#45;&gt;2 -->
<g id="edge2" class="edge">
<title>5:4&#45;&gt;2</title>
<path fill="none" stroke="black" d="M997.35,-494.5C1015.05,-494.5 1016.36,-506.59 1033.35,-511.5 1084.55,-526.3 1139.11,-538.06 1193.58,-547.41"/>
<polygon fill="black" stroke="black" points="1193.31,-550.91 1203.75,-549.12 1194.47,-544.01 1193.31,-550.91"/>
</g>
<!-- 3 -->
<g id="node4" class="node">
<title>3</title>
<polygon fill="#f2f2f2" stroke="black" points="1033.35,-227.3 1033.35,-501.7 2212.33,-501.7 2212.33,-227.3 1033.35,-227.3"/>
<text text-anchor="middle" x="1622.84" y="-485.1" font-family="Courier New" font-size="14.00">uint56[]: sevenByteNumbers &lt;&lt;Array&gt;&gt;</text>
<text text-anchor="middle" x="1622.84" y="-468.3" font-family="Courier New" font-size="14.00">0x405787fa12a823e0f2b7631cc41b3ba8828b3321ca811111fa75cd3aa3bb5ace</text>
<polyline fill="none" stroke="black" points="1033.35,-460.1 2212.33,-460.1 "/>
<text text-anchor="middle" x="1066.56" y="-443.5" font-family="Courier New" font-size="14.00">offset</text>
<text text-anchor="middle" x="1066.56" y="-426.7" font-family="Courier New" font-size="14.00"> &#160;</text>
<polyline fill="none" stroke="black" points="1033.35,-418.5 1099.76,-418.5 "/>
<text text-anchor="middle" x="1066.56" y="-401.9" font-family="Courier New" font-size="14.00">0</text>
<text text-anchor="middle" x="1066.56" y="-385.1" font-family="Courier New" font-size="14.00"> &#160;</text>
<polyline fill="none" stroke="black" points="1033.35,-376.9 1099.76,-376.9 "/>
<text text-anchor="middle" x="1066.56" y="-360.3" font-family="Courier New" font-size="14.00">1</text>
<text text-anchor="middle" x="1066.56" y="-343.5" font-family="Courier New" font-size="14.00"> &#160;</text>
<polyline fill="none" stroke="black" points="1033.35,-335.3 1099.76,-335.3 "/>
<text text-anchor="middle" x="1066.56" y="-318.7" font-family="Courier New" font-size="14.00">2 </text>
<polyline fill="none" stroke="black" points="1033.35,-310.5 1099.76,-310.5 "/>
<text text-anchor="middle" x="1066.56" y="-293.9" font-family="Courier New" font-size="14.00">3</text>
<text text-anchor="middle" x="1066.56" y="-277.1" font-family="Courier New" font-size="14.00"> &#160;</text>
<polyline fill="none" stroke="black" points="1033.35,-268.9 1099.76,-268.9 "/>
<text text-anchor="middle" x="1066.56" y="-252.3" font-family="Courier New" font-size="14.00">4</text>
<text text-anchor="middle" x="1066.56" y="-235.5" font-family="Courier New" font-size="14.00"> </text>
<polyline fill="none" stroke="black" points="1099.76,-227.3 1099.76,-460.1 "/>
<text text-anchor="middle" x="1385.01" y="-443.5" font-family="Courier New" font-size="14.00">value</text>
<text text-anchor="middle" x="1385.01" y="-426.7" font-family="Courier New" font-size="14.00"> &#160;</text>
<polyline fill="none" stroke="black" points="1099.76,-418.5 1670.25,-418.5 "/>
<text text-anchor="middle" x="1385.01" y="-401.9" font-family="Courier New" font-size="14.00">0x0000000000000000000004000000000000030000000000000200000000000001</text>
<text text-anchor="middle" x="1385.01" y="-385.1" font-family="Courier New" font-size="14.00"> &#160;</text>
<polyline fill="none" stroke="black" points="1099.76,-376.9 1670.25,-376.9 "/>
<text text-anchor="middle" x="1385.01" y="-360.3" font-family="Courier New" font-size="14.00">0x0000000000000000000008000000000000070000000000000600000000000005</text>
<text text-anchor="middle" x="1385.01" y="-343.5" font-family="Courier New" font-size="14.00"> &#160;</text>
<polyline fill="none" stroke="black" points="1099.76,-335.3 1670.25,-335.3 "/>
<text text-anchor="middle" x="1385.01" y="-318.7" font-family="Courier New" font-size="14.00"> </text>
<polyline fill="none" stroke="black" points="1099.76,-310.5 1670.25,-310.5 "/>
<text text-anchor="middle" x="1385.01" y="-293.9" font-family="Courier New" font-size="14.00">0x00000000000000000000100000000000000F0000000000000E0000000000000D</text>
<text text-anchor="middle" x="1385.01" y="-277.1" font-family="Courier New" font-size="14.00"> &#160;</text>
<polyline fill="none" stroke="black" points="1099.76,-268.9 1670.25,-268.9 "/>
<text text-anchor="middle" x="1385.01" y="-252.3" font-family="Courier New" font-size="14.00">0x0000000000000000000014000000000000130000000000001200000000000011</text>
<text text-anchor="middle" x="1385.01" y="-235.5" font-family="Courier New" font-size="14.00"> </text>
<polyline fill="none" stroke="black" points="1670.25,-227.3 1670.25,-460.1 "/>
<text text-anchor="middle" x="1941.29" y="-443.5" font-family="Courier New" font-size="14.00">type: variable (bytes)</text>
<text text-anchor="middle" x="1941.29" y="-426.7" font-family="Courier New" font-size="14.00">decoded data</text>
<polyline fill="none" stroke="black" points="1670.25,-418.5 2212.33,-418.5 "/>
<text text-anchor="middle" x="1741.26" y="-393.5" font-family="Courier New" font-size="14.00">unallocated (4)</text>
<polyline fill="none" stroke="black" points="1812.27,-376.9 1812.27,-418.5 "/>
<text text-anchor="middle" x="1862.28" y="-401.9" font-family="Courier New" font-size="14.00">uint56 (7)</text>
<text text-anchor="middle" x="1862.28" y="-385.1" font-family="Courier New" font-size="14.00"> 4 &#160;</text>
<polyline fill="none" stroke="black" points="1912.29,-376.9 1912.29,-418.5 "/>
<text text-anchor="middle" x="1962.29" y="-401.9" font-family="Courier New" font-size="14.00">uint56 (7)</text>
<text text-anchor="middle" x="1962.29" y="-385.1" font-family="Courier New" font-size="14.00"> 3 &#160;</text>
<polyline fill="none" stroke="black" points="2012.3,-376.9 2012.3,-418.5 "/>
<text text-anchor="middle" x="2062.31" y="-401.9" font-family="Courier New" font-size="14.00">uint56 (7)</text>
<text text-anchor="middle" x="2062.31" y="-385.1" font-family="Courier New" font-size="14.00"> 2 &#160;</text>
<polyline fill="none" stroke="black" points="2112.31,-376.9 2112.31,-418.5 "/>
<text text-anchor="middle" x="2162.32" y="-401.9" font-family="Courier New" font-size="14.00">uint56 (7)</text>
<text text-anchor="middle" x="2162.32" y="-385.1" font-family="Courier New" font-size="14.00"> 1 </text>
<polyline fill="none" stroke="black" points="1670.25,-376.9 2212.33,-376.9 "/>
<text text-anchor="middle" x="1741.26" y="-351.9" font-family="Courier New" font-size="14.00">unallocated (4)</text>
<polyline fill="none" stroke="black" points="1812.27,-335.3 1812.27,-376.9 "/>
<text text-anchor="middle" x="1862.28" y="-360.3" font-family="Courier New" font-size="14.00">uint56 (7)</text>
<text text-anchor="middle" x="1862.28" y="-343.5" font-family="Courier New" font-size="14.00"> 8 &#160;</text>
<polyline fill="none" stroke="black" points="1912.29,-335.3 1912.29,-376.9 "/>
<text text-anchor="middle" x="1962.29" y="-360.3" font-family="Courier New" font-size="14.00">uint56 (7)</text>
<text text-anchor="middle" x="1962.29" y="-343.5" font-family="Courier New" font-size="14.00"> 7 &#160;</text>
<polyline fill="none" stroke="black" points="2012.3,-335.3 2012.3,-376.9 "/>
<text text-anchor="middle" x="2062.31" y="-360.3" font-family="Courier New" font-size="14.00">uint56 (7)</text>
<text text-anchor="middle" x="2062.31" y="-343.5" font-family="Courier New" font-size="14.00"> 6 &#160;</text>
<polyline fill="none" stroke="black" points="2112.31,-335.3 2112.31,-376.9 "/>
<text text-anchor="middle" x="2162.32" y="-360.3" font-family="Courier New" font-size="14.00">uint56 (7)</text>
<text text-anchor="middle" x="2162.32" y="-343.5" font-family="Courier New" font-size="14.00"> 5 </text>
<polyline fill="none" stroke="black" points="1670.25,-335.3 2212.33,-335.3 "/>
<text text-anchor="middle" x="1941.06" y="-318.7" font-family="Courier New" font-size="14.00">&#45;&#45;&#45;&#45; (32)</text>
<polyline fill="none" stroke="black" points="1670.25,-310.5 2212.33,-310.5 "/>
<text text-anchor="middle" x="1741.26" y="-285.5" font-family="Courier New" font-size="14.00">unallocated (4)</text>
<polyline fill="none" stroke="black" points="1812.27,-268.9 1812.27,-310.5 "/>
<text text-anchor="middle" x="1862.28" y="-293.9" font-family="Courier New" font-size="14.00">uint56 (7)</text>
<text text-anchor="middle" x="1862.28" y="-277.1" font-family="Courier New" font-size="14.00"> 16 &#160;</text>
<polyline fill="none" stroke="black" points="1912.29,-268.9 1912.29,-310.5 "/>
<text text-anchor="middle" x="1962.29" y="-293.9" font-family="Courier New" font-size="14.00">uint56 (7)</text>
<text text-anchor="middle" x="1962.29" y="-277.1" font-family="Courier New" font-size="14.00"> 15 &#160;</text>
<polyline fill="none" stroke="black" points="2012.3,-268.9 2012.3,-310.5 "/>
<text text-anchor="middle" x="2062.31" y="-293.9" font-family="Courier New" font-size="14.00">uint56 (7)</text>
<text text-anchor="middle" x="2062.31" y="-277.1" font-family="Courier New" font-size="14.00"> 14 &#160;</text>
<polyline fill="none" stroke="black" points="2112.31,-268.9 2112.31,-310.5 "/>
<text text-anchor="middle" x="2162.32" y="-293.9" font-family="Courier New" font-size="14.00">uint56 (7)</text>
<text text-anchor="middle" x="2162.32" y="-277.1" font-family="Courier New" font-size="14.00"> 13 </text>
<polyline fill="none" stroke="black" points="1670.25,-268.9 2212.33,-268.9 "/>
<text text-anchor="middle" x="1741.26" y="-243.9" font-family="Courier New" font-size="14.00">unallocated (4)</text>
<polyline fill="none" stroke="black" points="1812.27,-227.3 1812.27,-268.9 "/>
<text text-anchor="middle" x="1862.28" y="-252.3" font-family="Courier New" font-size="14.00">uint56 (7)</text>
<text text-anchor="middle" x="1862.28" y="-235.5" font-family="Courier New" font-size="14.00"> 20 &#160;</text>
<polyline fill="none" stroke="black" points="1912.29,-227.3 1912.29,-268.9 "/>
<text text-anchor="middle" x="1962.29" y="-252.3" font-family="Courier New" font-size="14.00">uint56 (7)</text>
<text text-anchor="middle" x="1962.29" y="-235.5" font-family="Courier New" font-size="14.00"> 19 &#160;</text>
<polyline fill="none" stroke="black" points="2012.3,-227.3 2012.3,-268.9 "/>
<text text-anchor="middle" x="2062.31" y="-252.3" font-family="Courier New" font-size="14.00">uint56 (7)</text>
<text text-anchor="middle" x="2062.31" y="-235.5" font-family="Courier New" font-size="14.00"> 18 &#160;</text>
<polyline fill="none" stroke="black" points="2112.31,-227.3 2112.31,-268.9 "/>
<text text-anchor="middle" x="2162.32" y="-252.3" font-family="Courier New" font-size="14.00">uint56 (7)</text>
<text text-anchor="middle" x="2162.32" y="-235.5" font-family="Courier New" font-size="14.00"> 17 </text>
</g>
<!-- 5&#45;&gt;3 -->
<g id="edge3" class="edge">
<title>5:6&#45;&gt;3</title>
<path fill="none" stroke="black" d="M997.35,-453.5C1005.82,-453.5 1014.34,-453.42 1022.9,-453.26"/>
<polygon fill="black" stroke="black" points="1023.06,-456.76 1032.98,-453.04 1022.91,-449.76 1023.06,-456.76"/>
</g>
<!-- 4 -->
<g id="node5" class="node">
<title>4</title>
<polygon fill="#f2f2f2" stroke="black" points="1036.35,-0.5 1036.35,-208.5 2209.33,-208.5 2209.33,-0.5 1036.35,-0.5"/>
<text text-anchor="middle" x="1622.84" y="-191.9" font-family="Courier New" font-size="14.00">address[]: tokens &lt;&lt;Array&gt;&gt;</text>
<text text-anchor="middle" x="1622.84" y="-175.1" font-family="Courier New" font-size="14.00">0xc2575a0e9e593c00f959f8c92f12db2869c3395a3b0502d05e2516446f71f85b</text>
<polyline fill="none" stroke="black" points="1036.35,-166.9 2209.33,-166.9 "/>
<text text-anchor="middle" x="1069.56" y="-150.3" font-family="Courier New" font-size="14.00">offset</text>
<text text-anchor="middle" x="1069.56" y="-133.5" font-family="Courier New" font-size="14.00"> &#160;</text>
<polyline fill="none" stroke="black" points="1036.35,-125.3 1102.76,-125.3 "/>
<text text-anchor="middle" x="1069.56" y="-108.7" font-family="Courier New" font-size="14.00">0</text>
<text text-anchor="middle" x="1069.56" y="-91.9" font-family="Courier New" font-size="14.00"> &#160;</text>
<polyline fill="none" stroke="black" points="1036.35,-83.7 1102.76,-83.7 "/>
<text text-anchor="middle" x="1069.56" y="-67.1" font-family="Courier New" font-size="14.00">1</text>
<text text-anchor="middle" x="1069.56" y="-50.3" font-family="Courier New" font-size="14.00"> &#160;</text>
<polyline fill="none" stroke="black" points="1036.35,-42.1 1102.76,-42.1 "/>
<text text-anchor="middle" x="1069.56" y="-25.5" font-family="Courier New" font-size="14.00">2</text>
<text text-anchor="middle" x="1069.56" y="-8.7" font-family="Courier New" font-size="14.00"> </text>
<polyline fill="none" stroke="black" points="1102.76,-0.5 1102.76,-166.9 "/>
<text text-anchor="middle" x="1388" y="-150.3" font-family="Courier New" font-size="14.00">value</text>
<text text-anchor="middle" x="1388" y="-133.5" font-family="Courier New" font-size="14.00"> &#160;</text>
<polyline fill="none" stroke="black" points="1102.76,-125.3 1673.25,-125.3 "/>
<text text-anchor="middle" x="1388" y="-108.7" font-family="Courier New" font-size="14.00">0x000000000000000000000000A0B86991C6218B36C1D19D4A2E9EB0CE3606EB48</text>
<text text-anchor="middle" x="1388" y="-91.9" font-family="Courier New" font-size="14.00"> &#160;</text>
<polyline fill="none" stroke="black" points="1102.76,-83.7 1673.25,-83.7 "/>
<text text-anchor="middle" x="1388" y="-67.1" font-family="Courier New" font-size="14.00">0x000000000000000000000000DAC17F958D2EE523A2206206994597C13D831EC7</text>
<text text-anchor="middle" x="1388" y="-50.3" font-family="Courier New" font-size="14.00"> &#160;</text>
<polyline fill="none" stroke="black" points="1102.76,-42.1 1673.25,-42.1 "/>
<text text-anchor="middle" x="1388" y="-25.5" font-family="Courier New" font-size="14.00">0x0000000000000000000000006B175474E89094C44DA98B954EEDEAC495271D0F</text>
<text text-anchor="middle" x="1388" y="-8.7" font-family="Courier New" font-size="14.00"> </text>
<polyline fill="none" stroke="black" points="1673.25,-0.5 1673.25,-166.9 "/>
<text text-anchor="middle" x="1941.29" y="-150.3" font-family="Courier New" font-size="14.00">type: variable (bytes)</text>
<text text-anchor="middle" x="1941.29" y="-133.5" font-family="Courier New" font-size="14.00">decoded data</text>
<polyline fill="none" stroke="black" points="1673.25,-125.3 2209.33,-125.3 "/>
<text text-anchor="middle" x="1748.46" y="-100.3" font-family="Courier New" font-size="14.00">unallocated (12)</text>
<polyline fill="none" stroke="black" points="1823.67,-83.7 1823.67,-125.3 "/>
<text text-anchor="middle" x="2016.5" y="-108.7" font-family="Courier New" font-size="14.00">address (20)</text>
<text text-anchor="middle" x="2016.5" y="-91.9" font-family="Courier New" font-size="14.00"> 0xA0b86991c6218b36c1d19D4a2e9Eb0cE3606eB48 </text>
<polyline fill="none" stroke="black" points="1673.25,-83.7 2209.33,-83.7 "/>
<text text-anchor="middle" x="1748.46" y="-58.7" font-family="Courier New" font-size="14.00">unallocated (12)</text>
<polyline fill="none" stroke="black" points="1823.67,-42.1 1823.67,-83.7 "/>
<text text-anchor="middle" x="2016.5" y="-67.1" font-family="Courier New" font-size="14.00">address (20)</text>
<text text-anchor="middle" x="2016.5" y="-50.3" font-family="Courier New" font-size="14.00"> 0xdAC17F958D2ee523a2206206994597C13D831ec7 </text>
<polyline fill="none" stroke="black" points="1673.25,-42.1 2209.33,-42.1 "/>
<text text-anchor="middle" x="1748.46" y="-17.1" font-family="Courier New" font-size="14.00">unallocated (12)</text>
<polyline fill="none" stroke="black" points="1823.67,-0.5 1823.67,-42.1 "/>
<text text-anchor="middle" x="2016.5" y="-25.5" font-family="Courier New" font-size="14.00">address (20)</text>
<text text-anchor="middle" x="2016.5" y="-8.7" font-family="Courier New" font-size="14.00"> 0x6B175474E89094C44Da98b954EedeAC495271d0F </text>
</g>
<!-- 5&#45;&gt;4 -->
<g id="edge4" class="edge">
<title>5:8&#45;&gt;4</title>
<path fill="none" stroke="black" d="M997.35,-411.5C1085.05,-411.5 971.54,-279.7 1033.35,-217.5 1034.02,-216.83 1034.68,-216.17 1035.35,-215.51"/>
<polygon fill="black" stroke="black" points="1037.79,-218.02 1042.59,-208.57 1032.95,-212.96 1037.79,-218.02"/>
</g>
</g>
</svg>
