<?xml version="1.0" encoding="UTF-8" standalone="no"?>
<!DOCTYPE svg PUBLIC "-//W3C//DTD SVG 1.1//EN"
 "http://www.w3.org/Graphics/SVG/1.1/DTD/svg11.dtd">
<!-- Generated by graphviz version 5.0.0 (20220707.1540)
 -->
<!-- Title: StorageDiagram Pages: 1 -->
<svg width="1041pt" height="430pt"
 viewBox="0.00 0.00 1041.35 430.20" xmlns="http://www.w3.org/2000/svg" xmlns:xlink="http://www.w3.org/1999/xlink">
<g id="graph0" class="graph" transform="scale(1 1) rotate(0) translate(4 426.2)">
<title>StorageDiagram</title>
<polygon fill="white" stroke="transparent" points="-4,4 -4,-426.2 1037.35,-426.2 1037.35,4 -4,4"/>
<!-- 5 -->
<g id="node1" class="node">
<title>5</title>
<polygon fill="#f2f2f2" stroke="black" points="0,-160.7 0,-309.5 426.86,-309.5 426.86,-160.7 0,-160.7"/>
<text text-anchor="middle" x="213.43" y="-292.9" font-family="Courier New" font-size="14.00">DynamicArrayStorage &lt;&lt;Contract&gt;&gt;</text>
<polyline fill="none" stroke="black" points="0,-284.7 426.86,-284.7 "/>
<text text-anchor="middle" x="24.8" y="-268.1" font-family="Courier New" font-size="14.00">slot</text>
<polyline fill="none" stroke="black" points="0,-259.9 49.61,-259.9 "/>
<text text-anchor="middle" x="24.8" y="-243.3" font-family="Courier New" font-size="14.00">0</text>
<polyline fill="none" stroke="black" points="0,-235.1 49.61,-235.1 "/>
<text text-anchor="middle" x="24.8" y="-218.5" font-family="Courier New" font-size="14.00">1</text>
<polyline fill="none" stroke="black" points="0,-210.3 49.61,-210.3 "/>
<text text-anchor="middle" x="24.8" y="-193.7" font-family="Courier New" font-size="14.00">2</text>
<polyline fill="none" stroke="black" points="0,-185.5 49.61,-185.5 "/>
<text text-anchor="middle" x="24.8" y="-168.9" font-family="Courier New" font-size="14.00">3</text>
<polyline fill="none" stroke="black" points="49.61,-160.7 49.61,-284.7 "/>
<text text-anchor="middle" x="238.23" y="-268.1" font-family="Courier New" font-size="14.00">type: &lt;inherited contract&gt;.variable (bytes)</text>
<polyline fill="none" stroke="black" points="49.61,-259.9 426.86,-259.9 "/>
<text text-anchor="middle" x="238.22" y="-243.3" font-family="Courier New" font-size="14.00">uint256[]: numbers (32)</text>
<polyline fill="none" stroke="black" points="49.61,-235.1 426.86,-235.1 "/>
<text text-anchor="middle" x="237.82" y="-218.5" font-family="Courier New" font-size="14.00">uint256[]: empty (32)</text>
<polyline fill="none" stroke="black" points="49.61,-210.3 426.86,-210.3 "/>
<text text-anchor="middle" x="237.83" y="-193.7" font-family="Courier New" font-size="14.00">uint56[]: sevenByteNumbers (32)</text>
<polyline fill="none" stroke="black" points="49.61,-185.5 426.86,-185.5 "/>
<text text-anchor="middle" x="238.02" y="-168.9" font-family="Courier New" font-size="14.00">address[]: tokens (32)</text>
</g>
<!-- 1 -->
<g id="node2" class="node">
<title>1</title>
<polygon fill="#f2f2f2" stroke="black" points="462.86,-330.5 462.86,-421.7 1033.35,-421.7 1033.35,-330.5 462.86,-330.5"/>
<text text-anchor="middle" x="748.11" y="-405.1" font-family="Courier New" font-size="14.00">uint256[]: numbers &lt;&lt;Array&gt;&gt;</text>
<text text-anchor="middle" x="748.11" y="-388.3" font-family="Courier New" font-size="14.00">0x290decd9548b62a8d60345a988386fc84ba6bc95484008f6362f93160ef3e563</text>
<polyline fill="none" stroke="black" points="462.86,-380.1 1033.35,-380.1 "/>
<text text-anchor="middle" x="571.57" y="-363.5" font-family="Courier New" font-size="14.00">offset</text>
<polyline fill="none" stroke="black" points="462.86,-355.3 680.27,-355.3 "/>
<text text-anchor="middle" x="571.57" y="-338.7" font-family="Courier New" font-size="14.00">0</text>
<polyline fill="none" stroke="black" points="680.27,-330.5 680.27,-380.1 "/>
<text text-anchor="middle" x="856.69" y="-363.5" font-family="Courier New" font-size="14.00">type: variable (bytes)</text>
<polyline fill="none" stroke="black" points="680.27,-355.3 1033.1,-355.3 "/>
<text text-anchor="middle" x="856.68" y="-338.7" font-family="Courier New" font-size="14.00">uint256 (32)</text>
</g>
<!-- 5&#45;&gt;1 -->
<g id="edge1" class="edge">
<title>5:2&#45;&gt;1</title>
<path fill="none" stroke="black" d="M426.86,-247.1C463.44,-247.1 433.85,-298.83 462.86,-321.1 464.47,-322.33 466.1,-323.54 467.75,-324.73"/>
<polygon fill="black" stroke="black" points="465.89,-327.7 476.13,-330.44 469.84,-321.92 465.89,-327.7"/>
</g>
<!-- 2 -->
<g id="node3" class="node">
<title>2</title>
<polygon fill="#f2f2f2" stroke="black" points="462.86,-220.5 462.86,-311.7 1033.35,-311.7 1033.35,-220.5 462.86,-220.5"/>
<text text-anchor="middle" x="748.11" y="-295.1" font-family="Courier New" font-size="14.00">uint256[]: empty &lt;&lt;Array&gt;&gt;</text>
<text text-anchor="middle" x="748.11" y="-278.3" font-family="Courier New" font-size="14.00">0xb10e2d527612073b26eecdfd717e6a320cf44b4afac2b0732d9fcbe2b7fa0cf6</text>
<polyline fill="none" stroke="black" points="462.86,-270.1 1033.35,-270.1 "/>
<text text-anchor="middle" x="571.57" y="-253.5" font-family="Courier New" font-size="14.00">offset</text>
<polyline fill="none" stroke="black" points="462.86,-245.3 680.27,-245.3 "/>
<text text-anchor="middle" x="571.57" y="-228.7" font-family="Courier New" font-size="14.00">0</text>
<polyline fill="none" stroke="black" points="680.27,-220.5 680.27,-270.1 "/>
<text text-anchor="middle" x="856.69" y="-253.5" font-family="Courier New" font-size="14.00">type: variable (bytes)</text>
<polyline fill="none" stroke="black" points="680.27,-245.3 1033.1,-245.3 "/>
<text text-anchor="middle" x="856.68" y="-228.7" font-family="Courier New" font-size="14.00">uint256 (32)</text>
</g>
<!-- 5&#45;&gt;2 -->
<g id="edge2" class="edge">
<title>5:4&#45;&gt;2</title>
<path fill="none" stroke="black" d="M426.86,-223.1C435.33,-223.1 443.91,-223.25 452.57,-223.53"/>
<polygon fill="black" stroke="black" points="452.63,-227.04 462.76,-223.92 452.9,-220.04 452.63,-227.04"/>
</g>
<!-- 3 -->
<g id="node4" class="node">
<title>3</title>
<polygon fill="#f2f2f2" stroke="black" points="462.86,-110.5 462.86,-201.7 1033.35,-201.7 1033.35,-110.5 462.86,-110.5"/>
<text text-anchor="middle" x="748.11" y="-185.1" font-family="Courier New" font-size="14.00">uint56[]: sevenByteNumbers &lt;&lt;Array&gt;&gt;</text>
<text text-anchor="middle" x="748.11" y="-168.3" font-family="Courier New" font-size="14.00">0x405787fa12a823e0f2b7631cc41b3ba8828b3321ca811111fa75cd3aa3bb5ace</text>
<polyline fill="none" stroke="black" points="462.86,-160.1 1033.35,-160.1 "/>
<text text-anchor="middle" x="559.07" y="-143.5" font-family="Courier New" font-size="14.00">offset</text>
<polyline fill="none" stroke="black" points="462.86,-135.3 655.27,-135.3 "/>
<text text-anchor="middle" x="559.07" y="-118.7" font-family="Courier New" font-size="14.00">0</text>
<polyline fill="none" stroke="black" points="655.27,-110.5 655.27,-160.1 "/>
<text text-anchor="middle" x="843.99" y="-143.5" font-family="Courier New" font-size="14.00">type: variable (bytes)</text>
<polyline fill="none" stroke="black" points="655.27,-135.3 1032.71,-135.3 "/>
<text text-anchor="middle" x="761.98" y="-118.7" font-family="Courier New" font-size="14.00">unallocated (25)</text>
<polyline fill="none" stroke="black" points="868.69,-110.5 868.69,-135.3 "/>
<text text-anchor="middle" x="950.7" y="-118.7" font-family="Courier New" font-size="14.00">uint56 (7)</text>
</g>
<!-- 5&#45;&gt;3 -->
<g id="edge3" class="edge">
<title>5:6&#45;&gt;3</title>
<path fill="none" stroke="black" d="M426.86,-198.1C435.33,-198.1 443.91,-197.95 452.56,-197.68"/>
<polygon fill="black" stroke="black" points="452.88,-201.17 462.74,-197.3 452.62,-194.17 452.88,-201.17"/>
</g>
<!-- 4 -->
<g id="node5" class="node">
<title>4</title>
<polygon fill="#f2f2f2" stroke="black" points="462.86,-0.5 462.86,-91.7 1033.35,-91.7 1033.35,-0.5 462.86,-0.5"/>
<text text-anchor="middle" x="748.11" y="-75.1" font-family="Courier New" font-size="14.00">address[]: tokens &lt;&lt;Array&gt;&gt;</text>
<text text-anchor="middle" x="748.11" y="-58.3" font-family="Courier New" font-size="14.00">0xc2575a0e9e593c00f959f8c92f12db2869c3395a3b0502d05e2516446f71f85b</text>
<polyline fill="none" stroke="black" points="462.86,-50.1 1033.35,-50.1 "/>
<text text-anchor="middle" x="555.07" y="-33.5" font-family="Courier New" font-size="14.00">offset</text>
<polyline fill="none" stroke="black" points="462.86,-25.3 647.27,-25.3 "/>
<text text-anchor="middle" x="555.07" y="-8.7" font-family="Courier New" font-size="14.00">0</text>
<polyline fill="none" stroke="black" points="647.27,-0.5 647.27,-50.1 "/>
<text text-anchor="middle" x="839.89" y="-33.5" font-family="Courier New" font-size="14.00">type: variable (bytes)</text>
<polyline fill="none" stroke="black" points="647.27,-25.3 1032.51,-25.3 "/>
<text text-anchor="middle" x="751.98" y="-8.7" font-family="Courier New" font-size="14.00">unallocated (12)</text>
<polyline fill="none" stroke="black" points="856.69,-0.5 856.69,-25.3 "/>
<text text-anchor="middle" x="944.6" y="-8.7" font-family="Courier New" font-size="14.00">address (20)</text>
</g>
<!-- 5&#45;&gt;4 -->
<g id="edge4" class="edge">
<title>5:8&#45;&gt;4</title>
<path fill="none" stroke="black" d="M426.86,-173.1C462.64,-173.1 434.36,-122.73 462.86,-101.1 464.48,-99.88 466.11,-98.68 467.76,-97.5"/>
<polygon fill="black" stroke="black" points="469.84,-100.32 476.18,-91.82 465.93,-94.52 469.84,-100.32"/>
</g>
</g>
</svg>
