<?xml version="1.0" encoding="UTF-8" standalone="no"?>
<!DOCTYPE svg PUBLIC "-//W3C//DTD SVG 1.1//EN"
 "http://www.w3.org/Graphics/SVG/1.1/DTD/svg11.dtd">
<!-- Generated by graphviz version 5.0.0 (20220707.1540)
 -->
<!-- Title: StorageDiagram Pages: 1 -->
<svg width="6074pt" height="664pt"
 viewBox="0.00 0.00 6074.11 664.00" xmlns="http://www.w3.org/2000/svg" xmlns:xlink="http://www.w3.org/1999/xlink">
<g id="graph0" class="graph" transform="scale(1 1) rotate(0) translate(4 660)">
<title>StorageDiagram</title>
<polygon fill="white" stroke="transparent" points="-4,4 -4,-660 6070.11,-660 6070.11,4 -4,4"/>
<!-- 8 -->
<g id="node1" class="node">
<title>8</title>
<polygon fill="#f2f2f2" stroke="black" points="0,-276.3 0,-558.7 1415.82,-558.7 1415.82,-276.3 0,-276.3"/>
<text text-anchor="middle" x="707.91" y="-542.1" font-family="Courier New" font-size="14.00">EmissionsController &lt;&lt;Contract&gt;&gt;</text>
<text text-anchor="middle" x="707.91" y="-525.3" font-family="Courier New" font-size="14.00">0xebfd9cD78510c591eDa8735D0F8a87414eF27A83</text>
<polyline fill="none" stroke="black" points="0,-517.1 1415.82,-517.1 "/>
<text text-anchor="middle" x="24.8" y="-500.5" font-family="Courier New" font-size="14.00">slot</text>
<text text-anchor="middle" x="24.8" y="-483.7" font-family="Courier New" font-size="14.00"> &#160;</text>
<polyline fill="none" stroke="black" points="0,-475.5 49.61,-475.5 "/>
<text text-anchor="middle" x="24.8" y="-458.9" font-family="Courier New" font-size="14.00">0</text>
<text text-anchor="middle" x="24.8" y="-442.1" font-family="Courier New" font-size="14.00"> &#160;</text>
<polyline fill="none" stroke="black" points="0,-433.9 49.61,-433.9 "/>
<text text-anchor="middle" x="24.8" y="-417.3" font-family="Courier New" font-size="14.00">1 </text>
<polyline fill="none" stroke="black" points="0,-409.1 49.61,-409.1 "/>
<text text-anchor="middle" x="24.8" y="-392.5" font-family="Courier New" font-size="14.00">2 </text>
<polyline fill="none" stroke="black" points="0,-384.3 49.61,-384.3 "/>
<text text-anchor="middle" x="24.8" y="-367.7" font-family="Courier New" font-size="14.00">3</text>
<text text-anchor="middle" x="24.8" y="-350.9" font-family="Courier New" font-size="14.00"> &#160;</text>
<polyline fill="none" stroke="black" points="0,-342.7 49.61,-342.7 "/>
<text text-anchor="middle" x="24.8" y="-326.1" font-family="Courier New" font-size="14.00">4</text>
<text text-anchor="middle" x="24.8" y="-309.3" font-family="Courier New" font-size="14.00"> &#160;</text>
<polyline fill="none" stroke="black" points="0,-301.1 49.61,-301.1 "/>
<text text-anchor="middle" x="24.8" y="-284.5" font-family="Courier New" font-size="14.00">5</text>
<polyline fill="none" stroke="black" points="49.61,-276.3 49.61,-517.1 "/>
<text text-anchor="middle" x="334.85" y="-500.5" font-family="Courier New" font-size="14.00">value</text>
<text text-anchor="middle" x="334.85" y="-483.7" font-family="Courier New" font-size="14.00"> &#160;</text>
<polyline fill="none" stroke="black" points="49.61,-475.5 620.1,-475.5 "/>
<text text-anchor="middle" x="334.85" y="-458.9" font-family="Courier New" font-size="14.00">0x0000000000000000000000000000000000000000000000000000000000000001</text>
<text text-anchor="middle" x="334.85" y="-442.1" font-family="Courier New" font-size="14.00"> &#160;</text>
<polyline fill="none" stroke="black" points="49.61,-433.9 620.1,-433.9 "/>
<text text-anchor="middle" x="334.85" y="-417.3" font-family="Courier New" font-size="14.00"> </text>
<polyline fill="none" stroke="black" points="49.61,-409.1 620.1,-409.1 "/>
<text text-anchor="middle" x="334.85" y="-392.5" font-family="Courier New" font-size="14.00"> </text>
<polyline fill="none" stroke="black" points="49.61,-384.3 620.1,-384.3 "/>
<text text-anchor="middle" x="334.85" y="-367.7" font-family="Courier New" font-size="14.00">0x0000000000000000000000000000000000000000000000000000000000000002</text>
<text text-anchor="middle" x="334.85" y="-350.9" font-family="Courier New" font-size="14.00"> &#160;</text>
<polyline fill="none" stroke="black" points="49.61,-342.7 620.1,-342.7 "/>
<text text-anchor="middle" x="334.85" y="-326.1" font-family="Courier New" font-size="14.00">0x0000000000000000000000000000000000000000000000000000000000000013</text>
<text text-anchor="middle" x="334.85" y="-309.3" font-family="Courier New" font-size="14.00"> &#160;</text>
<polyline fill="none" stroke="black" points="49.61,-301.1 620.1,-301.1 "/>
<text text-anchor="middle" x="334.85" y="-284.5" font-family="Courier New" font-size="14.00"> </text>
<polyline fill="none" stroke="black" points="620.1,-276.3 620.1,-517.1 "/>
<text text-anchor="middle" x="1017.96" y="-500.5" font-family="Courier New" font-size="14.00">type: &lt;inherited contract&gt;.variable (bytes)</text>
<text text-anchor="middle" x="1017.96" y="-483.7" font-family="Courier New" font-size="14.00">decoded data</text>
<polyline fill="none" stroke="black" points="620.1,-475.5 1415.82,-475.5 "/>
<text text-anchor="middle" x="695.31" y="-450.5" font-family="Courier New" font-size="14.00">unallocated (30)</text>
<polyline fill="none" stroke="black" points="770.52,-433.9 770.52,-475.5 "/>
<text text-anchor="middle" x="933.94" y="-458.9" font-family="Courier New" font-size="14.00">bool: Initializable._initializing (1)</text>
<text text-anchor="middle" x="933.94" y="-442.1" font-family="Courier New" font-size="14.00"> false &#160;</text>
<polyline fill="none" stroke="black" points="1097.37,-433.9 1097.37,-475.5 "/>
<text text-anchor="middle" x="1256.59" y="-458.9" font-family="Courier New" font-size="14.00">bool: Initializable._initialized (1)</text>
<text text-anchor="middle" x="1256.59" y="-442.1" font-family="Courier New" font-size="14.00"> true </text>
<polyline fill="none" stroke="black" points="620.1,-433.9 1415.82,-433.9 "/>
<text text-anchor="middle" x="1017.61" y="-417.3" font-family="Courier New" font-size="14.00">EpochHistory: epochs (32)</text>
<polyline fill="none" stroke="black" points="620.1,-409.1 1415.82,-409.1 "/>
<text text-anchor="middle" x="1017.73" y="-392.5" font-family="Courier New" font-size="14.00">mapping(address=&gt;uint32): stakingContractAddTime (32)</text>
<polyline fill="none" stroke="black" points="620.1,-384.3 1415.82,-384.3 "/>
<text text-anchor="middle" x="1017.82" y="-367.7" font-family="Courier New" font-size="14.00">IVotes[]: stakingContracts (32)</text>
<text text-anchor="middle" x="1017.82" y="-350.9" font-family="Courier New" font-size="14.00"> 2 </text>
<polyline fill="none" stroke="black" points="620.1,-342.7 1415.82,-342.7 "/>
<text text-anchor="middle" x="1017.51" y="-326.1" font-family="Courier New" font-size="14.00">DialData[]: dials (32)</text>
<text text-anchor="middle" x="1017.51" y="-309.3" font-family="Courier New" font-size="14.00"> 19 </text>
<polyline fill="none" stroke="black" points="620.1,-301.1 1415.82,-301.1 "/>
<text text-anchor="middle" x="1017.53" y="-284.5" font-family="Courier New" font-size="14.00">mapping(address=&gt;VoterPreferences): voterPreferences (32)</text>
</g>
<!-- 1 -->
<g id="node2" class="node">
<title>1</title>
<polygon fill="#f2f2f2" stroke="black" points="1456.42,-547.5 1456.42,-655.5 2620.2,-655.5 2620.2,-547.5 1456.42,-547.5"/>
<text text-anchor="middle" x="2038.31" y="-638.9" font-family="Courier New" font-size="14.00">EpochHistory &lt;&lt;Struct&gt;&gt;</text>
<polyline fill="none" stroke="black" points="1456.42,-630.7 2620.2,-630.7 "/>
<text text-anchor="middle" x="1481.22" y="-614.1" font-family="Courier New" font-size="14.00">slot</text>
<text text-anchor="middle" x="1481.22" y="-597.3" font-family="Courier New" font-size="14.00"> &#160;</text>
<polyline fill="none" stroke="black" points="1456.42,-589.1 1506.02,-589.1 "/>
<text text-anchor="middle" x="1481.22" y="-572.5" font-family="Courier New" font-size="14.00">1</text>
<text text-anchor="middle" x="1481.22" y="-555.7" font-family="Courier New" font-size="14.00"> </text>
<polyline fill="none" stroke="black" points="1506.02,-547.5 1506.02,-630.7 "/>
<text text-anchor="middle" x="1791.27" y="-614.1" font-family="Courier New" font-size="14.00">value</text>
<text text-anchor="middle" x="1791.27" y="-597.3" font-family="Courier New" font-size="14.00"> &#160;</text>
<polyline fill="none" stroke="black" points="1506.02,-589.1 2076.52,-589.1 "/>
<text text-anchor="middle" x="1791.27" y="-572.5" font-family="Courier New" font-size="14.00">0x00000000000000000000000000000000000000000000000000000AD400000A96</text>
<text text-anchor="middle" x="1791.27" y="-555.7" font-family="Courier New" font-size="14.00"> </text>
<polyline fill="none" stroke="black" points="2076.52,-547.5 2076.52,-630.7 "/>
<text text-anchor="middle" x="2348.36" y="-614.1" font-family="Courier New" font-size="14.00">type: variable (bytes)</text>
<text text-anchor="middle" x="2348.36" y="-597.3" font-family="Courier New" font-size="14.00">decoded data</text>
<polyline fill="none" stroke="black" points="2076.52,-589.1 2620.2,-589.1 "/>
<text text-anchor="middle" x="2151.73" y="-564.1" font-family="Courier New" font-size="14.00">unallocated (24)</text>
<polyline fill="none" stroke="black" points="2226.94,-547.5 2226.94,-589.1 "/>
<text text-anchor="middle" x="2323.15" y="-572.5" font-family="Courier New" font-size="14.00">uint32: lastEpoch (4)</text>
<text text-anchor="middle" x="2323.15" y="-555.7" font-family="Courier New" font-size="14.00"> 2,772 &#160;</text>
<polyline fill="none" stroke="black" points="2419.37,-547.5 2419.37,-589.1 "/>
<text text-anchor="middle" x="2519.78" y="-572.5" font-family="Courier New" font-size="14.00">uint32: startEpoch (4)</text>
<text text-anchor="middle" x="2519.78" y="-555.7" font-family="Courier New" font-size="14.00"> 2,710 </text>
</g>
<!-- 8&#45;&gt;1 -->
<g id="edge1" class="edge">
<title>8:5&#45;&gt;1</title>
<path fill="none" stroke="black" d="M1415.82,-421.5C1470.22,-421.5 1409.85,-503.88 1451.82,-538.5 1452.87,-539.37 1453.93,-540.23 1454.99,-541.09"/>
<polygon fill="black" stroke="black" points="1453.2,-544.12 1463.24,-547.49 1457.49,-538.59 1453.2,-544.12"/>
</g>
<!-- 2 -->
<g id="node3" class="node">
<title>2</title>
<polygon fill="#f2f2f2" stroke="black" points="1451.82,-362.3 1451.82,-528.7 2624.8,-528.7 2624.8,-362.3 1451.82,-362.3"/>
<text text-anchor="middle" x="2038.31" y="-512.1" font-family="Courier New" font-size="14.00">IVotes[]: stakingContracts &lt;&lt;Array&gt;&gt;</text>
<text text-anchor="middle" x="2038.31" y="-495.3" font-family="Courier New" font-size="14.00">0xc2575a0e9e593c00f959f8c92f12db2869c3395a3b0502d05e2516446f71f85b</text>
<polyline fill="none" stroke="black" points="1451.82,-487.1 2624.8,-487.1 "/>
<text text-anchor="middle" x="1485.02" y="-470.5" font-family="Courier New" font-size="14.00">offset</text>
<text text-anchor="middle" x="1485.02" y="-453.7" font-family="Courier New" font-size="14.00"> &#160;</text>
<polyline fill="none" stroke="black" points="1451.82,-445.5 1518.23,-445.5 "/>
<text text-anchor="middle" x="1485.02" y="-428.9" font-family="Courier New" font-size="14.00">0</text>
<text text-anchor="middle" x="1485.02" y="-412.1" font-family="Courier New" font-size="14.00"> &#160;</text>
<polyline fill="none" stroke="black" points="1451.82,-403.9 1518.23,-403.9 "/>
<text text-anchor="middle" x="1485.02" y="-387.3" font-family="Courier New" font-size="14.00">1</text>
<text text-anchor="middle" x="1485.02" y="-370.5" font-family="Courier New" font-size="14.00"> </text>
<polyline fill="none" stroke="black" points="1518.23,-362.3 1518.23,-487.1 "/>
<text text-anchor="middle" x="1803.47" y="-470.5" font-family="Courier New" font-size="14.00">value</text>
<text text-anchor="middle" x="1803.47" y="-453.7" font-family="Courier New" font-size="14.00"> &#160;</text>
<polyline fill="none" stroke="black" points="1518.23,-445.5 2088.72,-445.5 "/>
<text text-anchor="middle" x="1803.47" y="-428.9" font-family="Courier New" font-size="14.00">0x0000000000000000000000008F2326316EC696F6D023E37A9931C2B2C177A3D7</text>
<text text-anchor="middle" x="1803.47" y="-412.1" font-family="Courier New" font-size="14.00"> &#160;</text>
<polyline fill="none" stroke="black" points="1518.23,-403.9 2088.72,-403.9 "/>
<text text-anchor="middle" x="1803.47" y="-387.3" font-family="Courier New" font-size="14.00">0x000000000000000000000000EFBE22085D9F29863CFB77EED16D3CC0D927B011</text>
<text text-anchor="middle" x="1803.47" y="-370.5" font-family="Courier New" font-size="14.00"> </text>
<polyline fill="none" stroke="black" points="2088.72,-362.3 2088.72,-487.1 "/>
<text text-anchor="middle" x="2356.76" y="-470.5" font-family="Courier New" font-size="14.00">type: variable (bytes)</text>
<text text-anchor="middle" x="2356.76" y="-453.7" font-family="Courier New" font-size="14.00">decoded data</text>
<polyline fill="none" stroke="black" points="2088.72,-445.5 2624.8,-445.5 "/>
<text text-anchor="middle" x="2163.93" y="-420.5" font-family="Courier New" font-size="14.00">unallocated (12)</text>
<polyline fill="none" stroke="black" points="2239.14,-403.9 2239.14,-445.5 "/>
<text text-anchor="middle" x="2431.97" y="-428.9" font-family="Courier New" font-size="14.00">IVotes (20)</text>
<text text-anchor="middle" x="2431.97" y="-412.1" font-family="Courier New" font-size="14.00"> 0x8f2326316eC696F6d023E37A9931c2b2C177a3D7 </text>
<polyline fill="none" stroke="black" points="2088.72,-403.9 2624.8,-403.9 "/>
<text text-anchor="middle" x="2163.93" y="-378.9" font-family="Courier New" font-size="14.00">unallocated (12)</text>
<polyline fill="none" stroke="black" points="2239.14,-362.3 2239.14,-403.9 "/>
<text text-anchor="middle" x="2431.97" y="-387.3" font-family="Courier New" font-size="14.00">IVotes (20)</text>
<text text-anchor="middle" x="2431.97" y="-370.5" font-family="Courier New" font-size="14.00"> 0xeFbe22085D9f29863Cfb77EEd16d3cC0D927b011 </text>
</g>
<!-- 8&#45;&gt;2 -->
<g id="edge2" class="edge">
<title>8:8&#45;&gt;2</title>
<path fill="none" stroke="black" d="M1415.82,-363.5C1424.32,-363.5 1432.89,-363.58 1441.51,-363.72"/>
<polygon fill="black" stroke="black" points="1441.57,-367.23 1451.64,-363.93 1441.71,-360.23 1441.57,-367.23"/>
</g>
<!-- 6 -->
<g id="node7" class="node">
<title>6</title>
<polygon fill="#f2f2f2" stroke="black" points="1753.06,-135.9 1753.06,-343.1 2323.55,-343.1 2323.55,-135.9 1753.06,-135.9"/>
<text text-anchor="middle" x="2038.31" y="-326.5" font-family="Courier New" font-size="14.00">DialData[]: dials &lt;&lt;Array&gt;&gt;</text>
<text text-anchor="middle" x="2038.31" y="-309.7" font-family="Courier New" font-size="14.00">0x8a35acfbc15ff81a39ae7d344fd709f28e8600b4aa8c65c6b64bfe7fe36bd19b</text>
<polyline fill="none" stroke="black" points="1753.06,-301.5 2323.55,-301.5 "/>
<text text-anchor="middle" x="1826.77" y="-284.9" font-family="Courier New" font-size="14.00">offset</text>
<text text-anchor="middle" x="1826.77" y="-268.1" font-family="Courier New" font-size="14.00"> &#160;</text>
<polyline fill="none" stroke="black" points="1753.06,-259.9 1900.47,-259.9 "/>
<text text-anchor="middle" x="1826.77" y="-243.3" font-family="Courier New" font-size="14.00">0&#45;2 </text>
<polyline fill="none" stroke="black" points="1753.06,-235.1 1900.47,-235.1 "/>
<text text-anchor="middle" x="1826.77" y="-218.5" font-family="Courier New" font-size="14.00">3&#45;6 </text>
<polyline fill="none" stroke="black" points="1753.06,-210.3 1900.47,-210.3 "/>
<text text-anchor="middle" x="1826.77" y="-193.7" font-family="Courier New" font-size="14.00">6&#45;51 </text>
<polyline fill="none" stroke="black" points="1753.06,-185.5 1900.47,-185.5 "/>
<text text-anchor="middle" x="1826.77" y="-168.9" font-family="Courier New" font-size="14.00">51&#45;54 </text>
<polyline fill="none" stroke="black" points="1753.06,-160.7 1900.47,-160.7 "/>
<text text-anchor="middle" x="1826.77" y="-144.1" font-family="Courier New" font-size="14.00">54&#45;57</text>
<polyline fill="none" stroke="black" points="1900.47,-135.9 1900.47,-301.5 "/>
<text text-anchor="middle" x="1970.47" y="-284.9" font-family="Courier New" font-size="14.00">value</text>
<text text-anchor="middle" x="1970.47" y="-268.1" font-family="Courier New" font-size="14.00"> &#160;</text>
<polyline fill="none" stroke="black" points="1900.47,-259.9 2040.48,-259.9 "/>
<text text-anchor="middle" x="1970.47" y="-243.3" font-family="Courier New" font-size="14.00"> </text>
<polyline fill="none" stroke="black" points="1900.47,-235.1 2040.48,-235.1 "/>
<text text-anchor="middle" x="1970.47" y="-218.5" font-family="Courier New" font-size="14.00"> </text>
<polyline fill="none" stroke="black" points="1900.47,-210.3 2040.48,-210.3 "/>
<text text-anchor="middle" x="1970.47" y="-193.7" font-family="Courier New" font-size="14.00"> </text>
<polyline fill="none" stroke="black" points="1900.47,-185.5 2040.48,-185.5 "/>
<text text-anchor="middle" x="1970.47" y="-168.9" font-family="Courier New" font-size="14.00"> </text>
<polyline fill="none" stroke="black" points="1900.47,-160.7 2040.48,-160.7 "/>
<text text-anchor="middle" x="1970.47" y="-144.1" font-family="Courier New" font-size="14.00"> </text>
<polyline fill="none" stroke="black" points="2040.48,-135.9 2040.48,-301.5 "/>
<text text-anchor="middle" x="2181.89" y="-284.9" font-family="Courier New" font-size="14.00">type: variable (bytes)</text>
<text text-anchor="middle" x="2181.89" y="-268.1" font-family="Courier New" font-size="14.00">decoded data</text>
<polyline fill="none" stroke="black" points="2040.48,-259.9 2323.31,-259.9 "/>
<text text-anchor="middle" x="2181.59" y="-243.3" font-family="Courier New" font-size="14.00">DialData (96)</text>
<polyline fill="none" stroke="black" points="2040.48,-235.1 2323.31,-235.1 "/>
<text text-anchor="middle" x="2181.59" y="-218.5" font-family="Courier New" font-size="14.00">DialData (96)</text>
<polyline fill="none" stroke="black" points="2040.48,-210.3 2323.31,-210.3 "/>
<text text-anchor="middle" x="2181.69" y="-193.7" font-family="Courier New" font-size="14.00">&#45;&#45;&#45;&#45; (1472)</text>
<polyline fill="none" stroke="black" points="2040.48,-185.5 2323.31,-185.5 "/>
<text text-anchor="middle" x="2181.59" y="-168.9" font-family="Courier New" font-size="14.00">DialData (96)</text>
<polyline fill="none" stroke="black" points="2040.48,-160.7 2323.31,-160.7 "/>
<text text-anchor="middle" x="2181.59" y="-144.1" font-family="Courier New" font-size="14.00">DialData (96)</text>
</g>
<!-- 8&#45;&gt;6 -->
<g id="edge3" class="edge">
<title>8:19&#45;&gt;6</title>
<path fill="none" stroke="black" d="M1415.82,-321.5C1523.09,-321.5 1639.9,-309.34 1742.99,-294.39"/>
<polygon fill="black" stroke="black" points="1743.54,-297.85 1752.92,-292.94 1742.52,-290.92 1743.54,-297.85"/>
</g>
<!-- 7 -->
<g id="node8" class="node">
<title>7</title>
<polygon fill="#f2f2f2" stroke="black" points="1679.06,-0.5 1679.06,-116.5 2397.56,-116.5 2397.56,-0.5 1679.06,-0.5"/>
<text text-anchor="middle" x="2038.31" y="-99.9" font-family="Courier New" font-size="14.00">VoterPreferences &lt;&lt;Struct&gt;&gt;</text>
<polyline fill="none" stroke="black" points="1679.06,-91.7 2397.56,-91.7 "/>
<text text-anchor="middle" x="1712.26" y="-75.1" font-family="Courier New" font-size="14.00">offset</text>
<text text-anchor="middle" x="1712.26" y="-58.3" font-family="Courier New" font-size="14.00"> &#160;</text>
<polyline fill="none" stroke="black" points="1679.06,-50.1 1745.46,-50.1 "/>
<text text-anchor="middle" x="1712.26" y="-33.5" font-family="Courier New" font-size="14.00">0 </text>
<polyline fill="none" stroke="black" points="1679.06,-25.3 1745.46,-25.3 "/>
<text text-anchor="middle" x="1712.26" y="-8.7" font-family="Courier New" font-size="14.00">1</text>
<polyline fill="none" stroke="black" points="1745.46,-0.5 1745.46,-91.7 "/>
<text text-anchor="middle" x="1774.47" y="-75.1" font-family="Courier New" font-size="14.00">value</text>
<text text-anchor="middle" x="1774.47" y="-58.3" font-family="Courier New" font-size="14.00"> &#160;</text>
<polyline fill="none" stroke="black" points="1745.46,-50.1 1803.47,-50.1 "/>
<text text-anchor="middle" x="1774.47" y="-33.5" font-family="Courier New" font-size="14.00"> </text>
<polyline fill="none" stroke="black" points="1745.46,-25.3 1803.47,-25.3 "/>
<text text-anchor="middle" x="1774.47" y="-8.7" font-family="Courier New" font-size="14.00"> </text>
<polyline fill="none" stroke="black" points="1803.47,-0.5 1803.47,-91.7 "/>
<text text-anchor="middle" x="2100.52" y="-75.1" font-family="Courier New" font-size="14.00">type: variable (bytes)</text>
<text text-anchor="middle" x="2100.52" y="-58.3" font-family="Courier New" font-size="14.00">decoded data</text>
<polyline fill="none" stroke="black" points="1803.47,-50.1 2397.56,-50.1 "/>
<text text-anchor="middle" x="2100.49" y="-33.5" font-family="Courier New" font-size="14.00">uint256: dialWeights (32)</text>
<polyline fill="none" stroke="black" points="1803.47,-25.3 2397.56,-25.3 "/>
<text text-anchor="middle" x="1878.68" y="-8.7" font-family="Courier New" font-size="14.00">unallocated (12)</text>
<polyline fill="none" stroke="black" points="1953.89,-0.5 1953.89,-25.3 "/>
<text text-anchor="middle" x="2071.11" y="-8.7" font-family="Courier New" font-size="14.00">uint32: lastSourcePoke (4)</text>
<polyline fill="none" stroke="black" points="2188.33,-0.5 2188.33,-25.3 "/>
<text text-anchor="middle" x="2292.94" y="-8.7" font-family="Courier New" font-size="14.00">uint128: votesCast (16)</text>
</g>
<!-- 8&#45;&gt;7 -->
<g id="edge4" class="edge">
<title>8:23&#45;&gt;7</title>
<path fill="none" stroke="black" d="M1415.82,-288.5C1489.57,-288.5 1397.05,-175.9 1451.82,-126.5 1511.3,-72.85 1589.15,-45.65 1668.57,-33.75"/>
<polygon fill="black" stroke="black" points="1669.35,-37.17 1678.76,-32.3 1668.37,-30.24 1669.35,-37.17"/>
</g>
<!-- 3 -->
<g id="node4" class="node">
<title>3</title>
<polygon fill="#f2f2f2" stroke="black" points="4826.72,-60.1 4826.72,-184.9 6066.11,-184.9 6066.11,-60.1 4826.72,-60.1"/>
<text text-anchor="middle" x="5446.41" y="-168.3" font-family="Courier New" font-size="14.00">HistoricVotes &lt;&lt;Struct&gt;&gt;</text>
<text text-anchor="middle" x="5446.41" y="-151.5" font-family="Courier New" font-size="14.00">0x60264186ee63f748d340388f07b244d96d007fff5cbc397bbd69f8747c421f79</text>
<polyline fill="none" stroke="black" points="4826.72,-143.3 6066.11,-143.3 "/>
<text text-anchor="middle" x="4859.92" y="-126.7" font-family="Courier New" font-size="14.00">offset</text>
<text text-anchor="middle" x="4859.92" y="-109.9" font-family="Courier New" font-size="14.00"> &#160;</text>
<polyline fill="none" stroke="black" points="4826.72,-101.7 4893.13,-101.7 "/>
<text text-anchor="middle" x="4859.92" y="-85.1" font-family="Courier New" font-size="14.00">0</text>
<text text-anchor="middle" x="4859.92" y="-68.3" font-family="Courier New" font-size="14.00"> </text>
<polyline fill="none" stroke="black" points="4893.13,-60.1 4893.13,-143.3 "/>
<text text-anchor="middle" x="5178.37" y="-126.7" font-family="Courier New" font-size="14.00">value</text>
<text text-anchor="middle" x="5178.37" y="-109.9" font-family="Courier New" font-size="14.00"> &#160;</text>
<polyline fill="none" stroke="black" points="4893.13,-101.7 5463.62,-101.7 "/>
<text text-anchor="middle" x="5178.37" y="-85.1" font-family="Courier New" font-size="14.00">0x00000000000000000000000000000A96000000000000614DDBBD96DBD25D5A21</text>
<text text-anchor="middle" x="5178.37" y="-68.3" font-family="Courier New" font-size="14.00"> </text>
<polyline fill="none" stroke="black" points="5463.62,-60.1 5463.62,-143.3 "/>
<text text-anchor="middle" x="5764.86" y="-126.7" font-family="Courier New" font-size="14.00">type: variable (bytes)</text>
<text text-anchor="middle" x="5764.86" y="-109.9" font-family="Courier New" font-size="14.00">decoded data</text>
<polyline fill="none" stroke="black" points="5463.62,-101.7 6066.11,-101.7 "/>
<text text-anchor="middle" x="5538.83" y="-76.7" font-family="Courier New" font-size="14.00">unallocated (12)</text>
<polyline fill="none" stroke="black" points="5614.04,-60.1 5614.04,-101.7 "/>
<text text-anchor="middle" x="5693.45" y="-85.1" font-family="Courier New" font-size="14.00">uint32: epoch (4)</text>
<text text-anchor="middle" x="5693.45" y="-68.3" font-family="Courier New" font-size="14.00"> 2,710 &#160;</text>
<polyline fill="none" stroke="black" points="5772.86,-60.1 5772.86,-101.7 "/>
<text text-anchor="middle" x="5919.48" y="-85.1" font-family="Courier New" font-size="14.00">uint128: votes (16)</text>
<text text-anchor="middle" x="5919.48" y="-68.3" font-family="Courier New" font-size="14.00"> 459,505,782,109,766,997,072,417 </text>
</g>
<!-- 4 -->
<g id="node5" class="node">
<title>4</title>
<polygon fill="#f2f2f2" stroke="black" points="4220.23,-110.5 4220.23,-218.5 4790.72,-218.5 4790.72,-110.5 4220.23,-110.5"/>
<text text-anchor="middle" x="4505.47" y="-201.9" font-family="Courier New" font-size="14.00">HistoricVotes[]: voteHistory &lt;&lt;Array&gt;&gt;</text>
<text text-anchor="middle" x="4505.47" y="-185.1" font-family="Courier New" font-size="14.00">0x60264186ee63f748d340388f07b244d96d007fff5cbc397bbd69f8747c421f79</text>
<polyline fill="none" stroke="black" points="4220.23,-176.9 4790.72,-176.9 "/>
<text text-anchor="middle" x="4293.93" y="-160.3" font-family="Courier New" font-size="14.00">offset</text>
<text text-anchor="middle" x="4293.93" y="-143.5" font-family="Courier New" font-size="14.00"> &#160;</text>
<polyline fill="none" stroke="black" points="4220.23,-135.3 4367.64,-135.3 "/>
<text text-anchor="middle" x="4293.93" y="-118.7" font-family="Courier New" font-size="14.00">0</text>
<polyline fill="none" stroke="black" points="4367.64,-110.5 4367.64,-176.9 "/>
<text text-anchor="middle" x="4437.64" y="-160.3" font-family="Courier New" font-size="14.00">value</text>
<text text-anchor="middle" x="4437.64" y="-143.5" font-family="Courier New" font-size="14.00"> &#160;</text>
<polyline fill="none" stroke="black" points="4367.64,-135.3 4507.64,-135.3 "/>
<text text-anchor="middle" x="4437.64" y="-118.7" font-family="Courier New" font-size="14.00"> </text>
<polyline fill="none" stroke="black" points="4507.64,-110.5 4507.64,-176.9 "/>
<text text-anchor="middle" x="4649.06" y="-160.3" font-family="Courier New" font-size="14.00">type: variable (bytes)</text>
<text text-anchor="middle" x="4649.06" y="-143.5" font-family="Courier New" font-size="14.00">decoded data</text>
<polyline fill="none" stroke="black" points="4507.64,-135.3 4790.47,-135.3 "/>
<text text-anchor="middle" x="4648.75" y="-118.7" font-family="Courier New" font-size="14.00">HistoricVotes (32)</text>
</g>
<!-- 4&#45;&gt;3 -->
<g id="edge5" class="edge">
<title>4:16&#45;&gt;3</title>
<path fill="none" stroke="black" d="M4790.47,-122.5C4799.05,-122.5 4807.7,-122.5 4816.39,-122.5"/>
<polygon fill="black" stroke="black" points="4816.63,-126 4826.63,-122.5 4816.63,-119 4816.63,-126"/>
</g>
<!-- 5 -->
<g id="node6" class="node">
<title>5</title>
<polygon fill="#f2f2f2" stroke="black" points="2660.8,-143.5 2660.8,-351.5 4184.23,-351.5 4184.23,-143.5 2660.8,-143.5"/>
<text text-anchor="middle" x="3422.51" y="-334.9" font-family="Courier New" font-size="14.00">DialData &lt;&lt;Struct&gt;&gt;</text>
<text text-anchor="middle" x="3422.51" y="-318.1" font-family="Courier New" font-size="14.00">0x8a35acfbc15ff81a39ae7d344fd709f28e8600b4aa8c65c6b64bfe7fe36bd19b</text>
<polyline fill="none" stroke="black" points="2660.8,-309.9 4184.23,-309.9 "/>
<text text-anchor="middle" x="2694" y="-293.3" font-family="Courier New" font-size="14.00">offset</text>
<text text-anchor="middle" x="2694" y="-276.5" font-family="Courier New" font-size="14.00"> &#160;</text>
<polyline fill="none" stroke="black" points="2660.8,-268.3 2727.21,-268.3 "/>
<text text-anchor="middle" x="2694" y="-251.7" font-family="Courier New" font-size="14.00">0</text>
<text text-anchor="middle" x="2694" y="-234.9" font-family="Courier New" font-size="14.00"> &#160;</text>
<polyline fill="none" stroke="black" points="2660.8,-226.7 2727.21,-226.7 "/>
<text text-anchor="middle" x="2694" y="-210.1" font-family="Courier New" font-size="14.00">1</text>
<text text-anchor="middle" x="2694" y="-193.3" font-family="Courier New" font-size="14.00"> &#160;</text>
<polyline fill="none" stroke="black" points="2660.8,-185.1 2727.21,-185.1 "/>
<text text-anchor="middle" x="2694" y="-168.5" font-family="Courier New" font-size="14.00">2</text>
<text text-anchor="middle" x="2694" y="-151.7" font-family="Courier New" font-size="14.00"> </text>
<polyline fill="none" stroke="black" points="2727.21,-143.5 2727.21,-309.9 "/>
<text text-anchor="middle" x="3012.45" y="-293.3" font-family="Courier New" font-size="14.00">value</text>
<text text-anchor="middle" x="3012.45" y="-276.5" font-family="Courier New" font-size="14.00"> &#160;</text>
<polyline fill="none" stroke="black" points="2727.21,-268.3 3297.7,-268.3 "/>
<text text-anchor="middle" x="3012.45" y="-251.7" font-family="Courier New" font-size="14.00">0x0000000000000000000000000000000000000001AE012AE200C9E3D7800A0100</text>
<text text-anchor="middle" x="3012.45" y="-234.9" font-family="Courier New" font-size="14.00"> &#160;</text>
<polyline fill="none" stroke="black" points="2727.21,-226.7 3297.7,-226.7 "/>
<text text-anchor="middle" x="3012.45" y="-210.1" font-family="Courier New" font-size="14.00">0x0000000000000000000000008F2326316EC696F6D023E37A9931C2B2C177A3D7</text>
<text text-anchor="middle" x="3012.45" y="-193.3" font-family="Courier New" font-size="14.00"> &#160;</text>
<polyline fill="none" stroke="black" points="2727.21,-185.1 3297.7,-185.1 "/>
<text text-anchor="middle" x="3012.45" y="-168.5" font-family="Courier New" font-size="14.00">0x000000000000000000000000000000000000000000000000000000000000003F</text>
<text text-anchor="middle" x="3012.45" y="-151.7" font-family="Courier New" font-size="14.00"> </text>
<polyline fill="none" stroke="black" points="3297.7,-143.5 3297.7,-309.9 "/>
<text text-anchor="middle" x="3740.96" y="-293.3" font-family="Courier New" font-size="14.00">type: variable (bytes)</text>
<text text-anchor="middle" x="3740.96" y="-276.5" font-family="Courier New" font-size="14.00">decoded data</text>
<polyline fill="none" stroke="black" points="3297.7,-268.3 4184.23,-268.3 "/>
<text text-anchor="middle" x="3372.91" y="-243.3" font-family="Courier New" font-size="14.00">unallocated (17)</text>
<polyline fill="none" stroke="black" points="3448.12,-226.7 3448.12,-268.3 "/>
<text text-anchor="middle" x="3590.54" y="-251.7" font-family="Courier New" font-size="14.00">uint96: balance (12)</text>
<text text-anchor="middle" x="3590.54" y="-234.9" font-family="Courier New" font-size="14.00"> 7,932,184,079,731,182,000,000 &#160;</text>
<polyline fill="none" stroke="black" points="3732.96,-226.7 3732.96,-268.3 "/>
<text text-anchor="middle" x="3799.77" y="-251.7" font-family="Courier New" font-size="14.00">uint8: cap (1)</text>
<text text-anchor="middle" x="3799.77" y="-234.9" font-family="Courier New" font-size="14.00"> 10 &#160;</text>
<polyline fill="none" stroke="black" points="3866.58,-226.7 3866.58,-268.3 "/>
<text text-anchor="middle" x="3941.79" y="-251.7" font-family="Courier New" font-size="14.00">bool: notify (1)</text>
<text text-anchor="middle" x="3941.79" y="-234.9" font-family="Courier New" font-size="14.00"> true &#160;</text>
<polyline fill="none" stroke="black" points="4017,-226.7 4017,-268.3 "/>
<text text-anchor="middle" x="4100.62" y="-251.7" font-family="Courier New" font-size="14.00">bool: disabled (1)</text>
<text text-anchor="middle" x="4100.62" y="-234.9" font-family="Courier New" font-size="14.00"> false </text>
<polyline fill="none" stroke="black" points="3297.7,-226.7 4184.23,-226.7 "/>
<text text-anchor="middle" x="3460.41" y="-201.7" font-family="Courier New" font-size="14.00">unallocated (12)</text>
<polyline fill="none" stroke="black" points="3623.12,-185.1 3623.12,-226.7 "/>
<text text-anchor="middle" x="3903.45" y="-210.1" font-family="Courier New" font-size="14.00">address: recipient (20)</text>
<text text-anchor="middle" x="3903.45" y="-193.3" font-family="Courier New" font-size="14.00"> 0x8f2326316eC696F6d023E37A9931c2b2C177a3D7 </text>
<polyline fill="none" stroke="black" points="3297.7,-185.1 4184.23,-185.1 "/>
<text text-anchor="middle" x="3740.82" y="-168.5" font-family="Courier New" font-size="14.00">HistoricVotes[]: voteHistory (32)</text>
<text text-anchor="middle" x="3740.82" y="-151.7" font-family="Courier New" font-size="14.00"> 63 </text>
</g>
<!-- 5&#45;&gt;4 -->
<g id="edge6" class="edge">
<title>5:17&#45;&gt;4</title>
<path fill="none" stroke="black" d="M4184.23,-164.5C4192.62,-164.5 4201.13,-164.5 4209.73,-164.5"/>
<polygon fill="black" stroke="black" points="4209.85,-168 4219.85,-164.5 4209.85,-161 4209.85,-168"/>
</g>
<!-- 6&#45;&gt;5 -->
<g id="edge7" class="edge">
<title>6:18&#45;&gt;5</title>
<path fill="none" stroke="black" d="M2323.31,-247.5C2429.04,-247.5 2540.5,-247.5 2650.24,-247.5"/>
<polygon fill="black" stroke="black" points="2650.52,-251 2660.52,-247.5 2650.52,-244 2650.52,-251"/>
</g>
</g>
</svg>
