<?xml version="1.0" encoding="UTF-8" standalone="no"?>
<!DOCTYPE svg PUBLIC "-//W3C//DTD SVG 1.1//EN"
 "http://www.w3.org/Graphics/SVG/1.1/DTD/svg11.dtd">
<!-- Generated by graphviz version 5.0.0 (20220707.1540)
 -->
<!-- Title: StorageDiagram Pages: 1 -->
<svg width="5982pt" height="713pt"
 viewBox="0.00 0.00 5981.69 713.00" xmlns="http://www.w3.org/2000/svg" xmlns:xlink="http://www.w3.org/1999/xlink">
<g id="graph0" class="graph" transform="scale(1 1) rotate(0) translate(4 709)">
<title>StorageDiagram</title>
<polygon fill="white" stroke="transparent" points="-4,4 -4,-709 5977.69,-709 5977.69,4 -4,4"/>
<!-- 8 -->
<g id="node1" class="node">
<title>8</title>
<polygon fill="#f2f2f2" stroke="black" points="0,-329.1 0,-577.9 1424.22,-577.9 1424.22,-329.1 0,-329.1"/>
<text text-anchor="middle" x="712.11" y="-561.3" font-family="Courier New" font-size="14.00">EmissionsController &lt;&lt;Contract&gt;&gt;</text>
<text text-anchor="middle" x="712.11" y="-544.5" font-family="Courier New" font-size="14.00">0xebfd9cD78510c591eDa8735D0F8a87414eF27A83</text>
<polyline fill="none" stroke="black" points="0,-536.3 1424.22,-536.3 "/>
<text text-anchor="middle" x="24.8" y="-519.7" font-family="Courier New" font-size="14.00">slot</text>
<text text-anchor="middle" x="24.8" y="-502.9" font-family="Courier New" font-size="14.00"> &#160;</text>
<polyline fill="none" stroke="black" points="0,-494.7 49.61,-494.7 "/>
<text text-anchor="middle" x="24.8" y="-478.1" font-family="Courier New" font-size="14.00">0</text>
<text text-anchor="middle" x="24.8" y="-461.3" font-family="Courier New" font-size="14.00"> &#160;</text>
<polyline fill="none" stroke="black" points="0,-453.1 49.61,-453.1 "/>
<text text-anchor="middle" x="24.8" y="-436.5" font-family="Courier New" font-size="14.00">1 </text>
<polyline fill="none" stroke="black" points="0,-428.3 49.61,-428.3 "/>
<text text-anchor="middle" x="24.8" y="-411.7" font-family="Courier New" font-size="14.00">2 </text>
<polyline fill="none" stroke="black" points="0,-403.5 49.61,-403.5 "/>
<text text-anchor="middle" x="24.8" y="-386.9" font-family="Courier New" font-size="14.00">3 </text>
<polyline fill="none" stroke="black" points="0,-378.7 49.61,-378.7 "/>
<text text-anchor="middle" x="24.8" y="-362.1" font-family="Courier New" font-size="14.00">4 </text>
<polyline fill="none" stroke="black" points="0,-353.9 49.61,-353.9 "/>
<text text-anchor="middle" x="24.8" y="-337.3" font-family="Courier New" font-size="14.00">5</text>
<polyline fill="none" stroke="black" points="49.61,-329.1 49.61,-536.3 "/>
<text text-anchor="middle" x="339.05" y="-519.7" font-family="Courier New" font-size="14.00">value</text>
<text text-anchor="middle" x="339.05" y="-502.9" font-family="Courier New" font-size="14.00"> &#160;</text>
<polyline fill="none" stroke="black" points="49.61,-494.7 628.5,-494.7 "/>
<text text-anchor="middle" x="339.05" y="-478.1" font-family="Courier New" font-size="14.00">0x0000000000000000000000000000000000000000000000000000000000000001</text>
<text text-anchor="middle" x="339.05" y="-461.3" font-family="Courier New" font-size="14.00"> &#160;</text>
<polyline fill="none" stroke="black" points="49.61,-453.1 628.5,-453.1 "/>
<text text-anchor="middle" x="339.05" y="-436.5" font-family="Courier New" font-size="14.00"> </text>
<polyline fill="none" stroke="black" points="49.61,-428.3 628.5,-428.3 "/>
<text text-anchor="middle" x="339.05" y="-411.7" font-family="Courier New" font-size="14.00"> </text>
<polyline fill="none" stroke="black" points="49.61,-403.5 628.5,-403.5 "/>
<text text-anchor="middle" x="339.05" y="-386.9" font-family="Courier New" font-size="14.00">0x0000000000000000000000000000000000000000000000000000000000000002 </text>
<polyline fill="none" stroke="black" points="49.61,-378.7 628.5,-378.7 "/>
<text text-anchor="middle" x="339.05" y="-362.1" font-family="Courier New" font-size="14.00">0x0000000000000000000000000000000000000000000000000000000000000013 </text>
<polyline fill="none" stroke="black" points="49.61,-353.9 628.5,-353.9 "/>
<text text-anchor="middle" x="339.05" y="-337.3" font-family="Courier New" font-size="14.00"> </text>
<polyline fill="none" stroke="black" points="628.5,-329.1 628.5,-536.3 "/>
<text text-anchor="middle" x="1026.36" y="-519.7" font-family="Courier New" font-size="14.00">type: &lt;inherited contract&gt;.variable (bytes)</text>
<text text-anchor="middle" x="1026.36" y="-502.9" font-family="Courier New" font-size="14.00">decoded data</text>
<polyline fill="none" stroke="black" points="628.5,-494.7 1424.22,-494.7 "/>
<text text-anchor="middle" x="703.71" y="-469.7" font-family="Courier New" font-size="14.00">unallocated (30)</text>
<polyline fill="none" stroke="black" points="778.92,-453.1 778.92,-494.7 "/>
<text text-anchor="middle" x="942.34" y="-478.1" font-family="Courier New" font-size="14.00">bool: Initializable._initializing (1)</text>
<text text-anchor="middle" x="942.34" y="-461.3" font-family="Courier New" font-size="14.00"> false &#160;</text>
<polyline fill="none" stroke="black" points="1105.77,-453.1 1105.77,-494.7 "/>
<text text-anchor="middle" x="1264.99" y="-478.1" font-family="Courier New" font-size="14.00">bool: Initializable._initialized (1)</text>
<text text-anchor="middle" x="1264.99" y="-461.3" font-family="Courier New" font-size="14.00"> true </text>
<polyline fill="none" stroke="black" points="628.5,-453.1 1424.22,-453.1 "/>
<text text-anchor="middle" x="1026.01" y="-436.5" font-family="Courier New" font-size="14.00">EpochHistory: epochs (32)</text>
<polyline fill="none" stroke="black" points="628.5,-428.3 1424.22,-428.3 "/>
<text text-anchor="middle" x="1026.13" y="-411.7" font-family="Courier New" font-size="14.00">mapping(address=&gt;uint32): stakingContractAddTime (32)</text>
<polyline fill="none" stroke="black" points="628.5,-403.5 1424.22,-403.5 "/>
<text text-anchor="middle" x="1026.22" y="-386.9" font-family="Courier New" font-size="14.00">IVotes[]: stakingContracts (32)</text>
<polyline fill="none" stroke="black" points="628.5,-378.7 1424.22,-378.7 "/>
<text text-anchor="middle" x="1025.91" y="-362.1" font-family="Courier New" font-size="14.00">DialData[]: dials (32)</text>
<polyline fill="none" stroke="black" points="628.5,-353.9 1424.22,-353.9 "/>
<text text-anchor="middle" x="1025.94" y="-337.3" font-family="Courier New" font-size="14.00">mapping(address=&gt;VoterPreferences): voterPreferences (32)</text>
</g>
<!-- 1 -->
<g id="node2" class="node">
<title>1</title>
<polygon fill="#f2f2f2" stroke="black" points="1464.82,-596.5 1464.82,-704.5 2628.6,-704.5 2628.6,-596.5 1464.82,-596.5"/>
<text text-anchor="middle" x="2046.71" y="-687.9" font-family="Courier New" font-size="14.00">EpochHistory &lt;&lt;Struct&gt;&gt;</text>
<polyline fill="none" stroke="black" points="1464.82,-679.7 2628.6,-679.7 "/>
<text text-anchor="middle" x="1489.62" y="-663.1" font-family="Courier New" font-size="14.00">slot</text>
<text text-anchor="middle" x="1489.62" y="-646.3" font-family="Courier New" font-size="14.00"> &#160;</text>
<polyline fill="none" stroke="black" points="1464.82,-638.1 1514.43,-638.1 "/>
<text text-anchor="middle" x="1489.62" y="-621.5" font-family="Courier New" font-size="14.00">1</text>
<text text-anchor="middle" x="1489.62" y="-604.7" font-family="Courier New" font-size="14.00"> </text>
<polyline fill="none" stroke="black" points="1514.43,-596.5 1514.43,-679.7 "/>
<text text-anchor="middle" x="1799.67" y="-663.1" font-family="Courier New" font-size="14.00">value</text>
<text text-anchor="middle" x="1799.67" y="-646.3" font-family="Courier New" font-size="14.00"> &#160;</text>
<polyline fill="none" stroke="black" points="1514.43,-638.1 2084.92,-638.1 "/>
<text text-anchor="middle" x="1799.67" y="-621.5" font-family="Courier New" font-size="14.00">0x00000000000000000000000000000000000000000000000000000AD300000A96</text>
<text text-anchor="middle" x="1799.67" y="-604.7" font-family="Courier New" font-size="14.00"> </text>
<polyline fill="none" stroke="black" points="2084.92,-596.5 2084.92,-679.7 "/>
<text text-anchor="middle" x="2356.76" y="-663.1" font-family="Courier New" font-size="14.00">type: variable (bytes)</text>
<text text-anchor="middle" x="2356.76" y="-646.3" font-family="Courier New" font-size="14.00">decoded data</text>
<polyline fill="none" stroke="black" points="2084.92,-638.1 2628.6,-638.1 "/>
<text text-anchor="middle" x="2160.13" y="-613.1" font-family="Courier New" font-size="14.00">unallocated (24)</text>
<polyline fill="none" stroke="black" points="2235.34,-596.5 2235.34,-638.1 "/>
<text text-anchor="middle" x="2331.55" y="-621.5" font-family="Courier New" font-size="14.00">uint32: lastEpoch (4)</text>
<text text-anchor="middle" x="2331.55" y="-604.7" font-family="Courier New" font-size="14.00"> 2,771 &#160;</text>
<polyline fill="none" stroke="black" points="2427.77,-596.5 2427.77,-638.1 "/>
<text text-anchor="middle" x="2528.18" y="-621.5" font-family="Courier New" font-size="14.00">uint32: startEpoch (4)</text>
<text text-anchor="middle" x="2528.18" y="-604.7" font-family="Courier New" font-size="14.00"> 2,710 </text>
</g>
<!-- 8&#45;&gt;1 -->
<g id="edge1" class="edge">
<title>8:5&#45;&gt;1</title>
<path fill="none" stroke="black" d="M1424.11,-440.5C1491.38,-440.5 1409.58,-543.21 1460.22,-587.5 1461.08,-588.26 1461.95,-589.01 1462.83,-589.76"/>
<polygon fill="black" stroke="black" points="1460.84,-592.66 1470.78,-596.33 1465.3,-587.26 1460.84,-592.66"/>
</g>
<!-- 2 -->
<g id="node3" class="node">
<title>2</title>
<polygon fill="#f2f2f2" stroke="black" points="1460.22,-411.3 1460.22,-577.7 2633.2,-577.7 2633.2,-411.3 1460.22,-411.3"/>
<text text-anchor="middle" x="2046.71" y="-561.1" font-family="Courier New" font-size="14.00">IVotes[]: stakingContracts &lt;&lt;Array&gt;&gt;</text>
<text text-anchor="middle" x="2046.71" y="-544.3" font-family="Courier New" font-size="14.00">0xc2575a0e9e593c00f959f8c92f12db2869c3395a3b0502d05e2516446f71f85b</text>
<polyline fill="none" stroke="black" points="1460.22,-536.1 2633.2,-536.1 "/>
<text text-anchor="middle" x="1493.42" y="-519.5" font-family="Courier New" font-size="14.00">offset</text>
<text text-anchor="middle" x="1493.42" y="-502.7" font-family="Courier New" font-size="14.00"> &#160;</text>
<polyline fill="none" stroke="black" points="1460.22,-494.5 1526.63,-494.5 "/>
<text text-anchor="middle" x="1493.42" y="-477.9" font-family="Courier New" font-size="14.00">0</text>
<text text-anchor="middle" x="1493.42" y="-461.1" font-family="Courier New" font-size="14.00"> &#160;</text>
<polyline fill="none" stroke="black" points="1460.22,-452.9 1526.63,-452.9 "/>
<text text-anchor="middle" x="1493.42" y="-436.3" font-family="Courier New" font-size="14.00">1</text>
<text text-anchor="middle" x="1493.42" y="-419.5" font-family="Courier New" font-size="14.00"> </text>
<polyline fill="none" stroke="black" points="1526.63,-411.3 1526.63,-536.1 "/>
<text text-anchor="middle" x="1811.87" y="-519.5" font-family="Courier New" font-size="14.00">value</text>
<text text-anchor="middle" x="1811.87" y="-502.7" font-family="Courier New" font-size="14.00"> &#160;</text>
<polyline fill="none" stroke="black" points="1526.63,-494.5 2097.12,-494.5 "/>
<text text-anchor="middle" x="1811.87" y="-477.9" font-family="Courier New" font-size="14.00">0x0000000000000000000000008F2326316EC696F6D023E37A9931C2B2C177A3D7</text>
<text text-anchor="middle" x="1811.87" y="-461.1" font-family="Courier New" font-size="14.00"> &#160;</text>
<polyline fill="none" stroke="black" points="1526.63,-452.9 2097.12,-452.9 "/>
<text text-anchor="middle" x="1811.87" y="-436.3" font-family="Courier New" font-size="14.00">0x000000000000000000000000EFBE22085D9F29863CFB77EED16D3CC0D927B011</text>
<text text-anchor="middle" x="1811.87" y="-419.5" font-family="Courier New" font-size="14.00"> </text>
<polyline fill="none" stroke="black" points="2097.12,-411.3 2097.12,-536.1 "/>
<text text-anchor="middle" x="2365.16" y="-519.5" font-family="Courier New" font-size="14.00">type: variable (bytes)</text>
<text text-anchor="middle" x="2365.16" y="-502.7" font-family="Courier New" font-size="14.00">decoded data</text>
<polyline fill="none" stroke="black" points="2097.12,-494.5 2633.2,-494.5 "/>
<text text-anchor="middle" x="2172.33" y="-469.5" font-family="Courier New" font-size="14.00">unallocated (12)</text>
<polyline fill="none" stroke="black" points="2247.54,-452.9 2247.54,-494.5 "/>
<text text-anchor="middle" x="2440.37" y="-477.9" font-family="Courier New" font-size="14.00">IVotes (20)</text>
<text text-anchor="middle" x="2440.37" y="-461.1" font-family="Courier New" font-size="14.00"> 0x8F2326316EC696F6D023E37A9931C2B2C177A3D7 </text>
<polyline fill="none" stroke="black" points="2097.12,-452.9 2633.2,-452.9 "/>
<text text-anchor="middle" x="2172.33" y="-427.9" font-family="Courier New" font-size="14.00">unallocated (12)</text>
<polyline fill="none" stroke="black" points="2247.54,-411.3 2247.54,-452.9 "/>
<text text-anchor="middle" x="2440.37" y="-436.3" font-family="Courier New" font-size="14.00">IVotes (20)</text>
<text text-anchor="middle" x="2440.37" y="-419.5" font-family="Courier New" font-size="14.00"> 0xEFBE22085D9F29863CFB77EED16D3CC0D927B011 </text>
</g>
<!-- 8&#45;&gt;2 -->
<g id="edge2" class="edge">
<title>8:8&#45;&gt;2</title>
<path fill="none" stroke="black" d="M1424.22,-391.5C1440.82,-391.5 1443.99,-397.97 1460.22,-401.5 1472.22,-404.11 1484.38,-406.68 1496.65,-409.21"/>
<polygon fill="black" stroke="black" points="1496.01,-412.65 1506.51,-411.23 1497.41,-405.79 1496.01,-412.65"/>
</g>
<!-- 6 -->
<g id="node7" class="node">
<title>6</title>
<polygon fill="#f2f2f2" stroke="black" points="1761.46,-135.1 1761.46,-391.9 2331.95,-391.9 2331.95,-135.1 1761.46,-135.1"/>
<text text-anchor="middle" x="2046.71" y="-375.3" font-family="Courier New" font-size="14.00">DialData[]: dials &lt;&lt;Array&gt;&gt;</text>
<text text-anchor="middle" x="2046.71" y="-358.5" font-family="Courier New" font-size="14.00">0x8a35acfbc15ff81a39ae7d344fd709f28e8600b4aa8c65c6b64bfe7fe36bd19b</text>
<polyline fill="none" stroke="black" points="1761.46,-350.3 2331.95,-350.3 "/>
<text text-anchor="middle" x="1835.17" y="-333.7" font-family="Courier New" font-size="14.00">offset</text>
<text text-anchor="middle" x="1835.17" y="-316.9" font-family="Courier New" font-size="14.00"> &#160;</text>
<polyline fill="none" stroke="black" points="1761.46,-308.7 1908.87,-308.7 "/>
<text text-anchor="middle" x="1835.17" y="-292.1" font-family="Courier New" font-size="14.00">0&#45;2 </text>
<polyline fill="none" stroke="black" points="1761.46,-283.9 1908.87,-283.9 "/>
<text text-anchor="middle" x="1835.17" y="-267.3" font-family="Courier New" font-size="14.00">3&#45;5 </text>
<polyline fill="none" stroke="black" points="1761.46,-259.1 1908.87,-259.1 "/>
<text text-anchor="middle" x="1835.17" y="-242.5" font-family="Courier New" font-size="14.00">6&#45;8 </text>
<polyline fill="none" stroke="black" points="1761.46,-234.3 1908.87,-234.3 "/>
<text text-anchor="middle" x="1835.17" y="-217.7" font-family="Courier New" font-size="14.00">9&#45;47 </text>
<polyline fill="none" stroke="black" points="1761.46,-209.5 1908.87,-209.5 "/>
<text text-anchor="middle" x="1835.17" y="-192.9" font-family="Courier New" font-size="14.00">48&#45;50 </text>
<polyline fill="none" stroke="black" points="1761.46,-184.7 1908.87,-184.7 "/>
<text text-anchor="middle" x="1835.17" y="-168.1" font-family="Courier New" font-size="14.00">51&#45;53 </text>
<polyline fill="none" stroke="black" points="1761.46,-159.9 1908.87,-159.9 "/>
<text text-anchor="middle" x="1835.17" y="-143.3" font-family="Courier New" font-size="14.00">54&#45;56</text>
<polyline fill="none" stroke="black" points="1908.87,-135.1 1908.87,-350.3 "/>
<text text-anchor="middle" x="1978.88" y="-333.7" font-family="Courier New" font-size="14.00">value</text>
<text text-anchor="middle" x="1978.88" y="-316.9" font-family="Courier New" font-size="14.00"> &#160;</text>
<polyline fill="none" stroke="black" points="1908.87,-308.7 2048.88,-308.7 "/>
<text text-anchor="middle" x="1978.88" y="-292.1" font-family="Courier New" font-size="14.00"> </text>
<polyline fill="none" stroke="black" points="1908.87,-283.9 2048.88,-283.9 "/>
<text text-anchor="middle" x="1978.88" y="-267.3" font-family="Courier New" font-size="14.00"> </text>
<polyline fill="none" stroke="black" points="1908.87,-259.1 2048.88,-259.1 "/>
<text text-anchor="middle" x="1978.88" y="-242.5" font-family="Courier New" font-size="14.00"> </text>
<polyline fill="none" stroke="black" points="1908.87,-234.3 2048.88,-234.3 "/>
<text text-anchor="middle" x="1978.88" y="-217.7" font-family="Courier New" font-size="14.00"> </text>
<polyline fill="none" stroke="black" points="1908.87,-209.5 2048.88,-209.5 "/>
<text text-anchor="middle" x="1978.88" y="-192.9" font-family="Courier New" font-size="14.00"> </text>
<polyline fill="none" stroke="black" points="1908.87,-184.7 2048.88,-184.7 "/>
<text text-anchor="middle" x="1978.88" y="-168.1" font-family="Courier New" font-size="14.00"> </text>
<polyline fill="none" stroke="black" points="1908.87,-159.9 2048.88,-159.9 "/>
<text text-anchor="middle" x="1978.88" y="-143.3" font-family="Courier New" font-size="14.00"> </text>
<polyline fill="none" stroke="black" points="2048.88,-135.1 2048.88,-350.3 "/>
<text text-anchor="middle" x="2190.29" y="-333.7" font-family="Courier New" font-size="14.00">type: variable (bytes)</text>
<text text-anchor="middle" x="2190.29" y="-316.9" font-family="Courier New" font-size="14.00">decoded data</text>
<polyline fill="none" stroke="black" points="2048.88,-308.7 2331.71,-308.7 "/>
<text text-anchor="middle" x="2189.99" y="-292.1" font-family="Courier New" font-size="14.00">DialData (96)</text>
<polyline fill="none" stroke="black" points="2048.88,-283.9 2331.71,-283.9 "/>
<text text-anchor="middle" x="2189.99" y="-267.3" font-family="Courier New" font-size="14.00">DialData (96)</text>
<polyline fill="none" stroke="black" points="2048.88,-259.1 2331.71,-259.1 "/>
<text text-anchor="middle" x="2189.99" y="-242.5" font-family="Courier New" font-size="14.00">DialData (96)</text>
<polyline fill="none" stroke="black" points="2048.88,-234.3 2331.71,-234.3 "/>
<text text-anchor="middle" x="2190.09" y="-217.7" font-family="Courier New" font-size="14.00">&#45;&#45;&#45;&#45; (1216)</text>
<polyline fill="none" stroke="black" points="2048.88,-209.5 2331.71,-209.5 "/>
<text text-anchor="middle" x="2189.99" y="-192.9" font-family="Courier New" font-size="14.00">DialData (96)</text>
<polyline fill="none" stroke="black" points="2048.88,-184.7 2331.71,-184.7 "/>
<text text-anchor="middle" x="2189.99" y="-168.1" font-family="Courier New" font-size="14.00">DialData (96)</text>
<polyline fill="none" stroke="black" points="2048.88,-159.9 2331.71,-159.9 "/>
<text text-anchor="middle" x="2189.99" y="-143.3" font-family="Courier New" font-size="14.00">DialData (96)</text>
</g>
<!-- 8&#45;&gt;6 -->
<g id="edge3" class="edge">
<title>8:19&#45;&gt;6</title>
<path fill="none" stroke="black" d="M1424.11,-366.5C1531.67,-366.5 1648.31,-351.3 1751.18,-332.59"/>
<polygon fill="black" stroke="black" points="1751.89,-336.02 1761.09,-330.76 1750.62,-329.13 1751.89,-336.02"/>
</g>
<!-- 7 -->
<g id="node8" class="node">
<title>7</title>
<polygon fill="#f2f2f2" stroke="black" points="1687.46,-0.5 1687.46,-116.5 2405.96,-116.5 2405.96,-0.5 1687.46,-0.5"/>
<text text-anchor="middle" x="2046.71" y="-99.9" font-family="Courier New" font-size="14.00">VoterPreferences &lt;&lt;Struct&gt;&gt;</text>
<polyline fill="none" stroke="black" points="1687.46,-91.7 2405.96,-91.7 "/>
<text text-anchor="middle" x="1720.66" y="-75.1" font-family="Courier New" font-size="14.00">offset</text>
<text text-anchor="middle" x="1720.66" y="-58.3" font-family="Courier New" font-size="14.00"> &#160;</text>
<polyline fill="none" stroke="black" points="1687.46,-50.1 1753.87,-50.1 "/>
<text text-anchor="middle" x="1720.66" y="-33.5" font-family="Courier New" font-size="14.00">0 </text>
<polyline fill="none" stroke="black" points="1687.46,-25.3 1753.87,-25.3 "/>
<text text-anchor="middle" x="1720.66" y="-8.7" font-family="Courier New" font-size="14.00">1</text>
<polyline fill="none" stroke="black" points="1753.87,-0.5 1753.87,-91.7 "/>
<text text-anchor="middle" x="1782.87" y="-75.1" font-family="Courier New" font-size="14.00">value</text>
<text text-anchor="middle" x="1782.87" y="-58.3" font-family="Courier New" font-size="14.00"> &#160;</text>
<polyline fill="none" stroke="black" points="1753.87,-50.1 1811.87,-50.1 "/>
<text text-anchor="middle" x="1782.87" y="-33.5" font-family="Courier New" font-size="14.00"> </text>
<polyline fill="none" stroke="black" points="1753.87,-25.3 1811.87,-25.3 "/>
<text text-anchor="middle" x="1782.87" y="-8.7" font-family="Courier New" font-size="14.00"> </text>
<polyline fill="none" stroke="black" points="1811.87,-0.5 1811.87,-91.7 "/>
<text text-anchor="middle" x="2108.92" y="-75.1" font-family="Courier New" font-size="14.00">type: variable (bytes)</text>
<text text-anchor="middle" x="2108.92" y="-58.3" font-family="Courier New" font-size="14.00">decoded data</text>
<polyline fill="none" stroke="black" points="1811.87,-50.1 2405.96,-50.1 "/>
<text text-anchor="middle" x="2108.89" y="-33.5" font-family="Courier New" font-size="14.00">uint256: dialWeights (32)</text>
<polyline fill="none" stroke="black" points="1811.87,-25.3 2405.96,-25.3 "/>
<text text-anchor="middle" x="1887.08" y="-8.7" font-family="Courier New" font-size="14.00">unallocated (12)</text>
<polyline fill="none" stroke="black" points="1962.29,-0.5 1962.29,-25.3 "/>
<text text-anchor="middle" x="2079.51" y="-8.7" font-family="Courier New" font-size="14.00">uint32: lastSourcePoke (4)</text>
<polyline fill="none" stroke="black" points="2196.73,-0.5 2196.73,-25.3 "/>
<text text-anchor="middle" x="2301.35" y="-8.7" font-family="Courier New" font-size="14.00">uint128: votesCast (16)</text>
</g>
<!-- 8&#45;&gt;7 -->
<g id="edge4" class="edge">
<title>8:23&#45;&gt;7</title>
<path fill="none" stroke="black" d="M1424.11,-341.5C1472.78,-341.5 1424.93,-159.01 1460.22,-125.5 1518.83,-69.85 1597.02,-42.16 1677.12,-30.48"/>
<polygon fill="black" stroke="black" points="1677.98,-33.9 1687.41,-29.07 1677.02,-26.96 1677.98,-33.9"/>
</g>
<!-- 3 -->
<g id="node4" class="node">
<title>3</title>
<polygon fill="#f2f2f2" stroke="black" points="4734.3,-109.1 4734.3,-233.9 5973.69,-233.9 5973.69,-109.1 4734.3,-109.1"/>
<text text-anchor="middle" x="5354" y="-217.3" font-family="Courier New" font-size="14.00">HistoricVotes &lt;&lt;Struct&gt;&gt;</text>
<text text-anchor="middle" x="5354" y="-200.5" font-family="Courier New" font-size="14.00">0x60264186ee63f748d340388f07b244d96d007fff5cbc397bbd69f8747c421f79</text>
<polyline fill="none" stroke="black" points="4734.3,-192.3 5973.69,-192.3 "/>
<text text-anchor="middle" x="4767.51" y="-175.7" font-family="Courier New" font-size="14.00">offset</text>
<text text-anchor="middle" x="4767.51" y="-158.9" font-family="Courier New" font-size="14.00"> &#160;</text>
<polyline fill="none" stroke="black" points="4734.3,-150.7 4800.71,-150.7 "/>
<text text-anchor="middle" x="4767.51" y="-134.1" font-family="Courier New" font-size="14.00">0</text>
<text text-anchor="middle" x="4767.51" y="-117.3" font-family="Courier New" font-size="14.00"> </text>
<polyline fill="none" stroke="black" points="4800.71,-109.1 4800.71,-192.3 "/>
<text text-anchor="middle" x="5085.96" y="-175.7" font-family="Courier New" font-size="14.00">value</text>
<text text-anchor="middle" x="5085.96" y="-158.9" font-family="Courier New" font-size="14.00"> &#160;</text>
<polyline fill="none" stroke="black" points="4800.71,-150.7 5371.2,-150.7 "/>
<text text-anchor="middle" x="5085.96" y="-134.1" font-family="Courier New" font-size="14.00">0x00000000000000000000000000000A96000000000000614DDBBD96DBD25D5A21</text>
<text text-anchor="middle" x="5085.96" y="-117.3" font-family="Courier New" font-size="14.00"> </text>
<polyline fill="none" stroke="black" points="5371.2,-109.1 5371.2,-192.3 "/>
<text text-anchor="middle" x="5672.45" y="-175.7" font-family="Courier New" font-size="14.00">type: variable (bytes)</text>
<text text-anchor="middle" x="5672.45" y="-158.9" font-family="Courier New" font-size="14.00">decoded data</text>
<polyline fill="none" stroke="black" points="5371.2,-150.7 5973.69,-150.7 "/>
<text text-anchor="middle" x="5446.41" y="-125.7" font-family="Courier New" font-size="14.00">unallocated (12)</text>
<polyline fill="none" stroke="black" points="5521.62,-109.1 5521.62,-150.7 "/>
<text text-anchor="middle" x="5601.03" y="-134.1" font-family="Courier New" font-size="14.00">uint32: epoch (4)</text>
<text text-anchor="middle" x="5601.03" y="-117.3" font-family="Courier New" font-size="14.00"> 2,710 &#160;</text>
<polyline fill="none" stroke="black" points="5680.45,-109.1 5680.45,-150.7 "/>
<text text-anchor="middle" x="5827.07" y="-134.1" font-family="Courier New" font-size="14.00">uint128: votes (16)</text>
<text text-anchor="middle" x="5827.07" y="-117.3" font-family="Courier New" font-size="14.00"> 459,505,782,109,766,997,072,417 </text>
</g>
<!-- 4 -->
<g id="node5" class="node">
<title>4</title>
<polygon fill="#f2f2f2" stroke="black" points="4127.81,-159.5 4127.81,-267.5 4698.3,-267.5 4698.3,-159.5 4127.81,-159.5"/>
<text text-anchor="middle" x="4413.06" y="-250.9" font-family="Courier New" font-size="14.00">HistoricVotes[]: voteHistory &lt;&lt;Array&gt;&gt;</text>
<text text-anchor="middle" x="4413.06" y="-234.1" font-family="Courier New" font-size="14.00">0x60264186ee63f748d340388f07b244d96d007fff5cbc397bbd69f8747c421f79</text>
<polyline fill="none" stroke="black" points="4127.81,-225.9 4698.3,-225.9 "/>
<text text-anchor="middle" x="4201.52" y="-209.3" font-family="Courier New" font-size="14.00">offset</text>
<text text-anchor="middle" x="4201.52" y="-192.5" font-family="Courier New" font-size="14.00"> &#160;</text>
<polyline fill="none" stroke="black" points="4127.81,-184.3 4275.22,-184.3 "/>
<text text-anchor="middle" x="4201.52" y="-167.7" font-family="Courier New" font-size="14.00">0</text>
<polyline fill="none" stroke="black" points="4275.22,-159.5 4275.22,-225.9 "/>
<text text-anchor="middle" x="4345.22" y="-209.3" font-family="Courier New" font-size="14.00">value</text>
<text text-anchor="middle" x="4345.22" y="-192.5" font-family="Courier New" font-size="14.00"> &#160;</text>
<polyline fill="none" stroke="black" points="4275.22,-184.3 4415.23,-184.3 "/>
<text text-anchor="middle" x="4345.22" y="-167.7" font-family="Courier New" font-size="14.00"> </text>
<polyline fill="none" stroke="black" points="4415.23,-159.5 4415.23,-225.9 "/>
<text text-anchor="middle" x="4556.64" y="-209.3" font-family="Courier New" font-size="14.00">type: variable (bytes)</text>
<text text-anchor="middle" x="4556.64" y="-192.5" font-family="Courier New" font-size="14.00">decoded data</text>
<polyline fill="none" stroke="black" points="4415.23,-184.3 4698.06,-184.3 "/>
<text text-anchor="middle" x="4556.34" y="-167.7" font-family="Courier New" font-size="14.00">HistoricVotes (32)</text>
</g>
<!-- 4&#45;&gt;3 -->
<g id="edge5" class="edge">
<title>4:16&#45;&gt;3</title>
<path fill="none" stroke="black" d="M4698.06,-171.5C4706.64,-171.5 4715.28,-171.5 4723.98,-171.5"/>
<polygon fill="black" stroke="black" points="4724.21,-175 4734.21,-171.5 4724.21,-168 4724.21,-175"/>
</g>
<!-- 5 -->
<g id="node6" class="node">
<title>5</title>
<polygon fill="#f2f2f2" stroke="black" points="2669.2,-200.9 2669.2,-392.1 4091.81,-392.1 4091.81,-200.9 2669.2,-200.9"/>
<text text-anchor="middle" x="3380.51" y="-375.5" font-family="Courier New" font-size="14.00">DialData &lt;&lt;Struct&gt;&gt;</text>
<text text-anchor="middle" x="3380.51" y="-358.7" font-family="Courier New" font-size="14.00">0x8a35acfbc15ff81a39ae7d344fd709f28e8600b4aa8c65c6b64bfe7fe36bd19b</text>
<polyline fill="none" stroke="black" points="2669.2,-350.5 4091.81,-350.5 "/>
<text text-anchor="middle" x="2702.4" y="-333.9" font-family="Courier New" font-size="14.00">offset</text>
<text text-anchor="middle" x="2702.4" y="-317.1" font-family="Courier New" font-size="14.00"> &#160;</text>
<polyline fill="none" stroke="black" points="2669.2,-308.9 2735.61,-308.9 "/>
<text text-anchor="middle" x="2702.4" y="-292.3" font-family="Courier New" font-size="14.00">0</text>
<text text-anchor="middle" x="2702.4" y="-275.5" font-family="Courier New" font-size="14.00"> &#160;</text>
<polyline fill="none" stroke="black" points="2669.2,-267.3 2735.61,-267.3 "/>
<text text-anchor="middle" x="2702.4" y="-250.7" font-family="Courier New" font-size="14.00">1</text>
<text text-anchor="middle" x="2702.4" y="-233.9" font-family="Courier New" font-size="14.00"> &#160;</text>
<polyline fill="none" stroke="black" points="2669.2,-225.7 2735.61,-225.7 "/>
<text text-anchor="middle" x="2702.4" y="-209.1" font-family="Courier New" font-size="14.00">2</text>
<polyline fill="none" stroke="black" points="2735.61,-200.9 2735.61,-350.5 "/>
<text text-anchor="middle" x="3020.85" y="-333.9" font-family="Courier New" font-size="14.00">value</text>
<text text-anchor="middle" x="3020.85" y="-317.1" font-family="Courier New" font-size="14.00"> &#160;</text>
<polyline fill="none" stroke="black" points="2735.61,-308.9 3306.1,-308.9 "/>
<text text-anchor="middle" x="3020.85" y="-292.3" font-family="Courier New" font-size="14.00">0x00000000000000000000000000000000000000000000000000000000000A0100</text>
<text text-anchor="middle" x="3020.85" y="-275.5" font-family="Courier New" font-size="14.00"> &#160;</text>
<polyline fill="none" stroke="black" points="2735.61,-267.3 3306.1,-267.3 "/>
<text text-anchor="middle" x="3020.85" y="-250.7" font-family="Courier New" font-size="14.00">0x0000000000000000000000008F2326316EC696F6D023E37A9931C2B2C177A3D7</text>
<text text-anchor="middle" x="3020.85" y="-233.9" font-family="Courier New" font-size="14.00"> &#160;</text>
<polyline fill="none" stroke="black" points="2735.61,-225.7 3306.1,-225.7 "/>
<text text-anchor="middle" x="3020.85" y="-209.1" font-family="Courier New" font-size="14.00">0x000000000000000000000000000000000000000000000000000000000000003E</text>
<polyline fill="none" stroke="black" points="3306.1,-200.9 3306.1,-350.5 "/>
<text text-anchor="middle" x="3698.96" y="-333.9" font-family="Courier New" font-size="14.00">type: variable (bytes)</text>
<text text-anchor="middle" x="3698.96" y="-317.1" font-family="Courier New" font-size="14.00">decoded data</text>
<polyline fill="none" stroke="black" points="3306.1,-308.9 4091.81,-308.9 "/>
<text text-anchor="middle" x="3381.31" y="-283.9" font-family="Courier New" font-size="14.00">unallocated (17)</text>
<polyline fill="none" stroke="black" points="3456.52,-267.3 3456.52,-308.9 "/>
<text text-anchor="middle" x="3548.53" y="-292.3" font-family="Courier New" font-size="14.00">uint96: balance (12)</text>
<text text-anchor="middle" x="3548.53" y="-275.5" font-family="Courier New" font-size="14.00"> 0 &#160;</text>
<polyline fill="none" stroke="black" points="3640.55,-267.3 3640.55,-308.9 "/>
<text text-anchor="middle" x="3707.36" y="-292.3" font-family="Courier New" font-size="14.00">uint8: cap (1)</text>
<text text-anchor="middle" x="3707.36" y="-275.5" font-family="Courier New" font-size="14.00"> 10 &#160;</text>
<polyline fill="none" stroke="black" points="3774.17,-267.3 3774.17,-308.9 "/>
<text text-anchor="middle" x="3849.38" y="-292.3" font-family="Courier New" font-size="14.00">bool: notify (1)</text>
<text text-anchor="middle" x="3849.38" y="-275.5" font-family="Courier New" font-size="14.00"> true &#160;</text>
<polyline fill="none" stroke="black" points="3924.59,-267.3 3924.59,-308.9 "/>
<text text-anchor="middle" x="4008.2" y="-292.3" font-family="Courier New" font-size="14.00">bool: disabled (1)</text>
<text text-anchor="middle" x="4008.2" y="-275.5" font-family="Courier New" font-size="14.00"> false </text>
<polyline fill="none" stroke="black" points="3306.1,-267.3 4091.81,-267.3 "/>
<text text-anchor="middle" x="3443.31" y="-242.3" font-family="Courier New" font-size="14.00">unallocated (12)</text>
<polyline fill="none" stroke="black" points="3580.52,-225.7 3580.52,-267.3 "/>
<text text-anchor="middle" x="3835.85" y="-250.7" font-family="Courier New" font-size="14.00">address: recipient (20)</text>
<text text-anchor="middle" x="3835.85" y="-233.9" font-family="Courier New" font-size="14.00"> 0x8F2326316EC696F6D023E37A9931C2B2C177A3D7 </text>
<polyline fill="none" stroke="black" points="3306.1,-225.7 4091.81,-225.7 "/>
<text text-anchor="middle" x="3698.72" y="-209.1" font-family="Courier New" font-size="14.00">HistoricVotes[]: voteHistory (32)</text>
</g>
<!-- 5&#45;&gt;4 -->
<g id="edge6" class="edge">
<title>5:17&#45;&gt;4</title>
<path fill="none" stroke="black" d="M4091.81,-213.5C4100.2,-213.5 4108.72,-213.5 4117.32,-213.5"/>
<polygon fill="black" stroke="black" points="4117.44,-217 4127.44,-213.5 4117.44,-210 4117.44,-217"/>
</g>
<!-- 6&#45;&gt;5 -->
<g id="edge7" class="edge">
<title>6:18&#45;&gt;5</title>
<path fill="none" stroke="black" d="M2331.71,-296.5C2437.44,-296.5 2549.17,-296.5 2658.73,-296.5"/>
<polygon fill="black" stroke="black" points="2658.99,-300 2668.98,-296.5 2658.98,-293 2658.99,-300"/>
</g>
</g>
</svg>
