<?xml version="1.0" encoding="UTF-8" standalone="no"?>
<!DOCTYPE svg PUBLIC "-//W3C//DTD SVG 1.1//EN"
 "http://www.w3.org/Graphics/SVG/1.1/DTD/svg11.dtd">
<!-- Generated by graphviz version 5.0.0 (20220707.1540)
 -->
<!-- Title: StorageDiagram Pages: 1 -->
<svg width="1729pt" height="260pt"
 viewBox="0.00 0.00 1728.65 260.00" xmlns="http://www.w3.org/2000/svg" xmlns:xlink="http://www.w3.org/1999/xlink">
<g id="graph0" class="graph" transform="scale(1 1) rotate(0) translate(4 256)">
<title>StorageDiagram</title>
<polygon fill="white" stroke="transparent" points="-4,4 -4,-256 1724.65,-256 1724.65,4 -4,4"/>
<!-- 4 -->
<g id="node1" class="node">
<title>4</title>
<polygon fill="#f2f2f2" stroke="black" points="0,-102.7 0,-251.5 569.69,-251.5 569.69,-102.7 0,-102.7"/>
<text text-anchor="middle" x="284.84" y="-234.9" font-family="Courier New" font-size="14.00">MappingStorage &lt;&lt;Contract&gt;&gt;</text>
<polyline fill="none" stroke="black" points="0,-226.7 569.69,-226.7 "/>
<text text-anchor="middle" x="24.8" y="-210.1" font-family="Courier New" font-size="14.00">slot</text>
<polyline fill="none" stroke="black" points="0,-201.9 49.61,-201.9 "/>
<text text-anchor="middle" x="24.8" y="-185.3" font-family="Courier New" font-size="14.00">0</text>
<polyline fill="none" stroke="black" points="0,-177.1 49.61,-177.1 "/>
<text text-anchor="middle" x="24.8" y="-160.5" font-family="Courier New" font-size="14.00">1</text>
<polyline fill="none" stroke="black" points="0,-152.3 49.61,-152.3 "/>
<text text-anchor="middle" x="24.8" y="-135.7" font-family="Courier New" font-size="14.00">2</text>
<polyline fill="none" stroke="black" points="0,-127.5 49.61,-127.5 "/>
<text text-anchor="middle" x="24.8" y="-110.9" font-family="Courier New" font-size="14.00">3</text>
<polyline fill="none" stroke="black" points="49.61,-102.7 49.61,-226.7 "/>
<text text-anchor="middle" x="309.65" y="-210.1" font-family="Courier New" font-size="14.00">type: &lt;inherited contract&gt;.variable (bytes)</text>
<polyline fill="none" stroke="black" points="49.61,-201.9 569.69,-201.9 "/>
<text text-anchor="middle" x="309.63" y="-185.3" font-family="Courier New" font-size="14.00">mapping(address=&gt;uint256): balances (32)</text>
<polyline fill="none" stroke="black" points="49.61,-177.1 569.69,-177.1 "/>
<text text-anchor="middle" x="309.65" y="-160.5" font-family="Courier New" font-size="14.00">mapping(address=&gt;mapping(address=&gt;uint256)): allowances (32)</text>
<polyline fill="none" stroke="black" points="49.61,-152.3 569.69,-152.3 "/>
<text text-anchor="middle" x="309.44" y="-135.7" font-family="Courier New" font-size="14.00">mapping(uint256=&gt;address[]): grantRecipients (32)</text>
<polyline fill="none" stroke="black" points="49.61,-127.5 569.69,-127.5 "/>
<text text-anchor="middle" x="309.44" y="-110.9" font-family="Courier New" font-size="14.00">mapping(address=&gt;ExampleStruct): mapToStruct (32)</text>
</g>
<!-- 3 -->
<g id="node4" class="node">
<title>3</title>
<polygon fill="#f2f2f2" stroke="black" points="605.69,-28.3 605.69,-201.9 1332.59,-201.9 1332.59,-28.3 605.69,-28.3"/>
<text text-anchor="middle" x="969.14" y="-185.3" font-family="Courier New" font-size="14.00">ExampleStruct &lt;&lt;Struct&gt;&gt;</text>
<polyline fill="none" stroke="black" points="605.69,-177.1 1332.59,-177.1 "/>
<text text-anchor="middle" x="638.89" y="-160.5" font-family="Courier New" font-size="14.00">offset</text>
<polyline fill="none" stroke="black" points="605.69,-152.3 672.1,-152.3 "/>
<text text-anchor="middle" x="638.89" y="-135.7" font-family="Courier New" font-size="14.00">0</text>
<polyline fill="none" stroke="black" points="605.69,-127.5 672.1,-127.5 "/>
<text text-anchor="middle" x="638.89" y="-110.9" font-family="Courier New" font-size="14.00">1</text>
<polyline fill="none" stroke="black" points="605.69,-102.7 672.1,-102.7 "/>
<text text-anchor="middle" x="638.89" y="-86.1" font-family="Courier New" font-size="14.00">2&#45;3</text>
<polyline fill="none" stroke="black" points="605.69,-77.9 672.1,-77.9 "/>
<text text-anchor="middle" x="638.89" y="-61.3" font-family="Courier New" font-size="14.00">4</text>
<polyline fill="none" stroke="black" points="605.69,-53.1 672.1,-53.1 "/>
<text text-anchor="middle" x="638.89" y="-36.5" font-family="Courier New" font-size="14.00">5</text>
<polyline fill="none" stroke="black" points="672.1,-28.3 672.1,-177.1 "/>
<text text-anchor="middle" x="1002.34" y="-160.5" font-family="Courier New" font-size="14.00">type: variable (bytes)</text>
<polyline fill="none" stroke="black" points="672.1,-152.3 1332.59,-152.3 "/>
<text text-anchor="middle" x="747.31" y="-135.7" font-family="Courier New" font-size="14.00">unallocated (10)</text>
<polyline fill="none" stroke="black" points="822.52,-127.5 822.52,-152.3 "/>
<text text-anchor="middle" x="922.93" y="-135.7" font-family="Courier New" font-size="14.00">Severity: severity (1)</text>
<polyline fill="none" stroke="black" points="1023.35,-127.5 1023.35,-152.3 "/>
<text text-anchor="middle" x="1111.16" y="-135.7" font-family="Courier New" font-size="14.00">address: token (20)</text>
<polyline fill="none" stroke="black" points="1198.97,-127.5 1198.97,-152.3 "/>
<text text-anchor="middle" x="1265.78" y="-135.7" font-family="Courier New" font-size="14.00">bool: flag (1)</text>
<polyline fill="none" stroke="black" points="672.1,-127.5 1332.59,-127.5 "/>
<text text-anchor="middle" x="1002.12" y="-110.9" font-family="Courier New" font-size="14.00">address[]: dynamicAddressArray (32)</text>
<polyline fill="none" stroke="black" points="672.1,-102.7 1332.59,-102.7 "/>
<text text-anchor="middle" x="1002.32" y="-86.1" font-family="Courier New" font-size="14.00">uint256[2]: staticIntArray (64)</text>
<polyline fill="none" stroke="black" points="672.1,-77.9 1332.59,-77.9 "/>
<text text-anchor="middle" x="1002.21" y="-61.3" font-family="Courier New" font-size="14.00">string: someString (32)</text>
<polyline fill="none" stroke="black" points="672.1,-53.1 1332.59,-53.1 "/>
<text text-anchor="middle" x="1001.92" y="-36.5" font-family="Courier New" font-size="14.00">mapping(address=&gt;uint256): claimed (32)</text>
</g>
<!-- 4&#45;&gt;3 -->
<g id="edge1" class="edge">
<title>4:14&#45;&gt;3</title>
<path fill="none" stroke="black" d="M569.69,-115.1C578.14,-115.1 586.69,-115.1 595.32,-115.1"/>
<polygon fill="black" stroke="black" points="595.48,-118.6 605.48,-115.1 595.48,-111.6 595.48,-118.6"/>
</g>
<!-- 1 -->
<g id="node2" class="node">
<title>1</title>
<polygon fill="#f2f2f2" stroke="black" points="1368.59,-118.9 1368.59,-193.3 1720.65,-193.3 1720.65,-118.9 1368.59,-118.9"/>
<text text-anchor="middle" x="1544.62" y="-176.7" font-family="Courier New" font-size="14.00">address[]: dynamicAddressArray &lt;&lt;Array&gt;&gt;</text>
<polyline fill="none" stroke="black" points="1368.59,-168.5 1720.65,-168.5 "/>
<text text-anchor="middle" x="1406.3" y="-151.9" font-family="Courier New" font-size="14.00">offset</text>
<polyline fill="none" stroke="black" points="1368.59,-143.7 1444,-143.7 "/>
<text text-anchor="middle" x="1406.3" y="-127.1" font-family="Courier New" font-size="14.00">0</text>
<polyline fill="none" stroke="black" points="1444,-118.9 1444,-168.5 "/>
<text text-anchor="middle" x="1582.12" y="-151.9" font-family="Courier New" font-size="14.00">type: variable (bytes)</text>
<polyline fill="none" stroke="black" points="1444,-143.7 1720.24,-143.7 "/>
<text text-anchor="middle" x="1521.21" y="-127.1" font-family="Courier New" font-size="14.00">unallocated (12)</text>
<polyline fill="none" stroke="black" points="1598.42,-118.9 1598.42,-143.7 "/>
<text text-anchor="middle" x="1659.33" y="-127.1" font-family="Courier New" font-size="14.00">address (20)</text>
</g>
<!-- 2 -->
<g id="node3" class="node">
<title>2</title>
<polygon fill="#f2f2f2" stroke="black" points="1385.4,-0.5 1385.4,-99.7 1703.84,-99.7 1703.84,-0.5 1385.4,-0.5"/>
<text text-anchor="middle" x="1544.62" y="-83.1" font-family="Courier New" font-size="14.00">uint256[2]: staticIntArray &lt;&lt;Array&gt;&gt;</text>
<polyline fill="none" stroke="black" points="1385.4,-74.9 1703.84,-74.9 "/>
<text text-anchor="middle" x="1431.1" y="-58.3" font-family="Courier New" font-size="14.00">offset</text>
<polyline fill="none" stroke="black" points="1385.4,-50.1 1476.8,-50.1 "/>
<text text-anchor="middle" x="1431.1" y="-33.5" font-family="Courier New" font-size="14.00">0</text>
<polyline fill="none" stroke="black" points="1385.4,-25.3 1476.8,-25.3 "/>
<text text-anchor="middle" x="1431.1" y="-8.7" font-family="Courier New" font-size="14.00">1</text>
<polyline fill="none" stroke="black" points="1476.8,-0.5 1476.8,-74.9 "/>
<text text-anchor="middle" x="1590.22" y="-58.3" font-family="Courier New" font-size="14.00">type: variable (bytes)</text>
<polyline fill="none" stroke="black" points="1476.8,-50.1 1703.63,-50.1 "/>
<text text-anchor="middle" x="1590.21" y="-33.5" font-family="Courier New" font-size="14.00">uint256 (32)</text>
<polyline fill="none" stroke="black" points="1476.8,-25.3 1703.63,-25.3 "/>
<text text-anchor="middle" x="1590.21" y="-8.7" font-family="Courier New" font-size="14.00">uint256 (32)</text>
</g>
<!-- 3&#45;&gt;1 -->
<g id="edge2" class="edge">
<title>3:8&#45;&gt;1</title>
<path fill="none" stroke="black" d="M1332.59,-115.1C1347.29,-115.1 1362.46,-116.07 1377.6,-117.71"/>
<polygon fill="black" stroke="black" points="1377.21,-121.19 1387.55,-118.88 1378.02,-114.24 1377.21,-121.19"/>
</g>
<!-- 3&#45;&gt;2 -->
<g id="edge3" class="edge">
<title>3:11&#45;&gt;2</title>
<path fill="none" stroke="black" d="M1332.59,-90.1C1346.53,-90.1 1360.89,-89.25 1375.27,-87.79"/>
<polygon fill="black" stroke="black" points="1375.66,-91.27 1385.21,-86.69 1374.89,-84.31 1375.66,-91.27"/>
</g>
</g>
</svg>
