<?xml version="1.0" encoding="UTF-8" standalone="no"?>
<!DOCTYPE svg PUBLIC "-//W3C//DTD SVG 1.1//EN"
 "http://www.w3.org/Graphics/SVG/1.1/DTD/svg11.dtd">
<!-- Generated by graphviz version 5.0.0 (20220707.1540)
 -->
<!-- Title: StorageDiagram Pages: 1 -->
<svg width="3659pt" height="552pt"
 viewBox="0.00 0.00 3659.34 552.00" xmlns="http://www.w3.org/2000/svg" xmlns:xlink="http://www.w3.org/1999/xlink">
<g id="graph0" class="graph" transform="scale(1 1) rotate(0) translate(4 548)">
<title>StorageDiagram</title>
<polygon fill="white" stroke="transparent" points="-4,4 -4,-548 3655.34,-548 3655.34,4 -4,4"/>
<!-- 6 -->
<g id="node1" class="node">
<title>6</title>
<polygon fill="#f2f2f2" stroke="black" points="0,-224.1 0,-390.5 997.35,-390.5 997.35,-224.1 0,-224.1"/>
<text text-anchor="middle" x="498.68" y="-373.9" font-family="Courier New" font-size="14.00">MultiDynamicArrayStorage &lt;&lt;Contract&gt;&gt;</text>
<text text-anchor="middle" x="498.68" y="-357.1" font-family="Courier New" font-size="14.00">0x6f44d1108bB79710C1BBE378661d90876682E027</text>
<polyline fill="none" stroke="black" points="0,-348.9 997.35,-348.9 "/>
<text text-anchor="middle" x="24.8" y="-332.3" font-family="Courier New" font-size="14.00">slot</text>
<text text-anchor="middle" x="24.8" y="-315.5" font-family="Courier New" font-size="14.00"> &#160;</text>
<polyline fill="none" stroke="black" points="0,-307.3 49.61,-307.3 "/>
<text text-anchor="middle" x="24.8" y="-290.7" font-family="Courier New" font-size="14.00">0</text>
<text text-anchor="middle" x="24.8" y="-273.9" font-family="Courier New" font-size="14.00"> &#160;</text>
<polyline fill="none" stroke="black" points="0,-265.7 49.61,-265.7 "/>
<text text-anchor="middle" x="24.8" y="-249.1" font-family="Courier New" font-size="14.00">1</text>
<text text-anchor="middle" x="24.8" y="-232.3" font-family="Courier New" font-size="14.00"> </text>
<polyline fill="none" stroke="black" points="49.61,-224.1 49.61,-348.9 "/>
<text text-anchor="middle" x="334.85" y="-332.3" font-family="Courier New" font-size="14.00">value</text>
<text text-anchor="middle" x="334.85" y="-315.5" font-family="Courier New" font-size="14.00"> &#160;</text>
<polyline fill="none" stroke="black" points="49.61,-307.3 620.1,-307.3 "/>
<text text-anchor="middle" x="334.85" y="-290.7" font-family="Courier New" font-size="14.00">0x0000000000000000000000000000000000000000000000000000000000000008</text>
<text text-anchor="middle" x="334.85" y="-273.9" font-family="Courier New" font-size="14.00"> &#160;</text>
<polyline fill="none" stroke="black" points="49.61,-265.7 620.1,-265.7 "/>
<text text-anchor="middle" x="334.85" y="-249.1" font-family="Courier New" font-size="14.00">0x0000000000000000000000000000000000000000000000000000000000000004</text>
<text text-anchor="middle" x="334.85" y="-232.3" font-family="Courier New" font-size="14.00"> </text>
<polyline fill="none" stroke="black" points="620.1,-224.1 620.1,-348.9 "/>
<text text-anchor="middle" x="808.73" y="-332.3" font-family="Courier New" font-size="14.00">type: &lt;inherited contract&gt;.variable (bytes)</text>
<text text-anchor="middle" x="808.73" y="-315.5" font-family="Courier New" font-size="14.00">decoded data</text>
<polyline fill="none" stroke="black" points="620.1,-307.3 997.35,-307.3 "/>
<text text-anchor="middle" x="808.62" y="-290.7" font-family="Courier New" font-size="14.00">uint256[][]: twoDimDynIntArray (32)</text>
<text text-anchor="middle" x="808.62" y="-273.9" font-family="Courier New" font-size="14.00"> 8 </text>
<polyline fill="none" stroke="black" points="620.1,-265.7 997.35,-265.7 "/>
<text text-anchor="middle" x="808.42" y="-249.1" font-family="Courier New" font-size="14.00">uint256[][][]: threeDimDynIntArray (32)</text>
<text text-anchor="middle" x="808.42" y="-232.3" font-family="Courier New" font-size="14.00"> 4 </text>
</g>
<!-- 2 -->
<g id="node3" class="node">
<title>2</title>
<polygon fill="#f2f2f2" stroke="black" points="1033.35,-269.1 1033.35,-543.5 1871.08,-543.5 1871.08,-269.1 1033.35,-269.1"/>
<text text-anchor="middle" x="1452.22" y="-526.9" font-family="Courier New" font-size="14.00">uint256[][]: twoDimDynIntArray &lt;&lt;Array&gt;&gt;</text>
<text text-anchor="middle" x="1452.22" y="-510.1" font-family="Courier New" font-size="14.00">0x290decd9548b62a8d60345a988386fc84ba6bc95484008f6362f93160ef3e563</text>
<polyline fill="none" stroke="black" points="1033.35,-501.9 1871.08,-501.9 "/>
<text text-anchor="middle" x="1066.56" y="-485.3" font-family="Courier New" font-size="14.00">offset</text>
<text text-anchor="middle" x="1066.56" y="-468.5" font-family="Courier New" font-size="14.00"> &#160;</text>
<polyline fill="none" stroke="black" points="1033.35,-460.3 1099.76,-460.3 "/>
<text text-anchor="middle" x="1066.56" y="-443.7" font-family="Courier New" font-size="14.00">0</text>
<text text-anchor="middle" x="1066.56" y="-426.9" font-family="Courier New" font-size="14.00"> &#160;</text>
<polyline fill="none" stroke="black" points="1033.35,-418.7 1099.76,-418.7 "/>
<text text-anchor="middle" x="1066.56" y="-402.1" font-family="Courier New" font-size="14.00">1</text>
<text text-anchor="middle" x="1066.56" y="-385.3" font-family="Courier New" font-size="14.00"> &#160;</text>
<polyline fill="none" stroke="black" points="1033.35,-377.1 1099.76,-377.1 "/>
<text text-anchor="middle" x="1066.56" y="-360.5" font-family="Courier New" font-size="14.00">2&#45;5 </text>
<polyline fill="none" stroke="black" points="1033.35,-352.3 1099.76,-352.3 "/>
<text text-anchor="middle" x="1066.56" y="-335.7" font-family="Courier New" font-size="14.00">6</text>
<text text-anchor="middle" x="1066.56" y="-318.9" font-family="Courier New" font-size="14.00"> &#160;</text>
<polyline fill="none" stroke="black" points="1033.35,-310.7 1099.76,-310.7 "/>
<text text-anchor="middle" x="1066.56" y="-294.1" font-family="Courier New" font-size="14.00">7</text>
<text text-anchor="middle" x="1066.56" y="-277.3" font-family="Courier New" font-size="14.00"> </text>
<polyline fill="none" stroke="black" points="1099.76,-269.1 1099.76,-501.9 "/>
<text text-anchor="middle" x="1385.01" y="-485.3" font-family="Courier New" font-size="14.00">value</text>
<text text-anchor="middle" x="1385.01" y="-468.5" font-family="Courier New" font-size="14.00"> &#160;</text>
<polyline fill="none" stroke="black" points="1099.76,-460.3 1670.25,-460.3 "/>
<text text-anchor="middle" x="1385.01" y="-443.7" font-family="Courier New" font-size="14.00">0x0000000000000000000000000000000000000000000000000000000000000002</text>
<text text-anchor="middle" x="1385.01" y="-426.9" font-family="Courier New" font-size="14.00"> &#160;</text>
<polyline fill="none" stroke="black" points="1099.76,-418.7 1670.25,-418.7 "/>
<text text-anchor="middle" x="1385.01" y="-402.1" font-family="Courier New" font-size="14.00">0x0000000000000000000000000000000000000000000000000000000000000003</text>
<text text-anchor="middle" x="1385.01" y="-385.3" font-family="Courier New" font-size="14.00"> &#160;</text>
<polyline fill="none" stroke="black" points="1099.76,-377.1 1670.25,-377.1 "/>
<text text-anchor="middle" x="1385.01" y="-360.5" font-family="Courier New" font-size="14.00"> </text>
<polyline fill="none" stroke="black" points="1099.76,-352.3 1670.25,-352.3 "/>
<text text-anchor="middle" x="1385.01" y="-335.7" font-family="Courier New" font-size="14.00">0x000000000000000000000000000000000000000000000000000000000000000B</text>
<text text-anchor="middle" x="1385.01" y="-318.9" font-family="Courier New" font-size="14.00"> &#160;</text>
<polyline fill="none" stroke="black" points="1099.76,-310.7 1670.25,-310.7 "/>
<text text-anchor="middle" x="1385.01" y="-294.1" font-family="Courier New" font-size="14.00">0x0000000000000000000000000000000000000000000000000000000000000004</text>
<text text-anchor="middle" x="1385.01" y="-277.3" font-family="Courier New" font-size="14.00"> </text>
<polyline fill="none" stroke="black" points="1670.25,-269.1 1670.25,-501.9 "/>
<text text-anchor="middle" x="1770.67" y="-485.3" font-family="Courier New" font-size="14.00">type: variable (bytes)</text>
<text text-anchor="middle" x="1770.67" y="-468.5" font-family="Courier New" font-size="14.00">decoded data</text>
<polyline fill="none" stroke="black" points="1670.25,-460.3 1871.08,-460.3 "/>
<text text-anchor="middle" x="1770.56" y="-443.7" font-family="Courier New" font-size="14.00">uint256[] (32)</text>
<text text-anchor="middle" x="1770.56" y="-426.9" font-family="Courier New" font-size="14.00"> 2 </text>
<polyline fill="none" stroke="black" points="1670.25,-418.7 1871.08,-418.7 "/>
<text text-anchor="middle" x="1770.56" y="-402.1" font-family="Courier New" font-size="14.00">uint256[] (32)</text>
<text text-anchor="middle" x="1770.56" y="-385.3" font-family="Courier New" font-size="14.00"> 3 </text>
<polyline fill="none" stroke="black" points="1670.25,-377.1 1871.08,-377.1 "/>
<text text-anchor="middle" x="1770.26" y="-360.5" font-family="Courier New" font-size="14.00">&#45;&#45;&#45;&#45; (128)</text>
<polyline fill="none" stroke="black" points="1670.25,-352.3 1871.08,-352.3 "/>
<text text-anchor="middle" x="1770.56" y="-335.7" font-family="Courier New" font-size="14.00">uint256[] (32)</text>
<text text-anchor="middle" x="1770.56" y="-318.9" font-family="Courier New" font-size="14.00"> 11 </text>
<polyline fill="none" stroke="black" points="1670.25,-310.7 1871.08,-310.7 "/>
<text text-anchor="middle" x="1770.56" y="-294.1" font-family="Courier New" font-size="14.00">uint256[] (32)</text>
<text text-anchor="middle" x="1770.56" y="-277.3" font-family="Courier New" font-size="14.00"> 4 </text>
</g>
<!-- 6&#45;&gt;2 -->
<g id="edge1" class="edge">
<title>6:3&#45;&gt;2</title>
<path fill="none" stroke="black" d="M997.35,-286.3C1005.85,-286.3 1014.4,-286.5 1023,-286.88"/>
<polygon fill="black" stroke="black" points="1022.94,-290.38 1033.11,-287.41 1023.31,-283.39 1022.94,-290.38"/>
</g>
<!-- 5 -->
<g id="node6" class="node">
<title>5</title>
<polygon fill="#f2f2f2" stroke="black" points="1033.35,-0.5 1033.35,-250.1 1871.08,-250.1 1871.08,-0.5 1033.35,-0.5"/>
<text text-anchor="middle" x="1452.22" y="-233.5" font-family="Courier New" font-size="14.00">uint256[][][]: threeDimDynIntArray &lt;&lt;Array&gt;&gt;</text>
<text text-anchor="middle" x="1452.22" y="-216.7" font-family="Courier New" font-size="14.00">0xb10e2d527612073b26eecdfd717e6a320cf44b4afac2b0732d9fcbe2b7fa0cf6</text>
<polyline fill="none" stroke="black" points="1033.35,-208.5 1871.08,-208.5 "/>
<text text-anchor="middle" x="1066.56" y="-191.9" font-family="Courier New" font-size="14.00">offset</text>
<text text-anchor="middle" x="1066.56" y="-175.1" font-family="Courier New" font-size="14.00"> &#160;</text>
<polyline fill="none" stroke="black" points="1033.35,-166.9 1099.76,-166.9 "/>
<text text-anchor="middle" x="1066.56" y="-150.3" font-family="Courier New" font-size="14.00">0</text>
<text text-anchor="middle" x="1066.56" y="-133.5" font-family="Courier New" font-size="14.00"> &#160;</text>
<polyline fill="none" stroke="black" points="1033.35,-125.3 1099.76,-125.3 "/>
<text text-anchor="middle" x="1066.56" y="-108.7" font-family="Courier New" font-size="14.00">1</text>
<text text-anchor="middle" x="1066.56" y="-91.9" font-family="Courier New" font-size="14.00"> &#160;</text>
<polyline fill="none" stroke="black" points="1033.35,-83.7 1099.76,-83.7 "/>
<text text-anchor="middle" x="1066.56" y="-67.1" font-family="Courier New" font-size="14.00">2</text>
<text text-anchor="middle" x="1066.56" y="-50.3" font-family="Courier New" font-size="14.00"> &#160;</text>
<polyline fill="none" stroke="black" points="1033.35,-42.1 1099.76,-42.1 "/>
<text text-anchor="middle" x="1066.56" y="-25.5" font-family="Courier New" font-size="14.00">3</text>
<text text-anchor="middle" x="1066.56" y="-8.7" font-family="Courier New" font-size="14.00"> </text>
<polyline fill="none" stroke="black" points="1099.76,-0.5 1099.76,-208.5 "/>
<text text-anchor="middle" x="1385.01" y="-191.9" font-family="Courier New" font-size="14.00">value</text>
<text text-anchor="middle" x="1385.01" y="-175.1" font-family="Courier New" font-size="14.00"> &#160;</text>
<polyline fill="none" stroke="black" points="1099.76,-166.9 1670.25,-166.9 "/>
<text text-anchor="middle" x="1385.01" y="-150.3" font-family="Courier New" font-size="14.00">0x0000000000000000000000000000000000000000000000000000000000000002</text>
<text text-anchor="middle" x="1385.01" y="-133.5" font-family="Courier New" font-size="14.00"> &#160;</text>
<polyline fill="none" stroke="black" points="1099.76,-125.3 1670.25,-125.3 "/>
<text text-anchor="middle" x="1385.01" y="-108.7" font-family="Courier New" font-size="14.00">0x0000000000000000000000000000000000000000000000000000000000000006</text>
<text text-anchor="middle" x="1385.01" y="-91.9" font-family="Courier New" font-size="14.00"> &#160;</text>
<polyline fill="none" stroke="black" points="1099.76,-83.7 1670.25,-83.7 "/>
<text text-anchor="middle" x="1385.01" y="-67.1" font-family="Courier New" font-size="14.00">0x0000000000000000000000000000000000000000000000000000000000000003</text>
<text text-anchor="middle" x="1385.01" y="-50.3" font-family="Courier New" font-size="14.00"> &#160;</text>
<polyline fill="none" stroke="black" points="1099.76,-42.1 1670.25,-42.1 "/>
<text text-anchor="middle" x="1385.01" y="-25.5" font-family="Courier New" font-size="14.00">0x0000000000000000000000000000000000000000000000000000000000000000</text>
<text text-anchor="middle" x="1385.01" y="-8.7" font-family="Courier New" font-size="14.00"> </text>
<polyline fill="none" stroke="black" points="1670.25,-0.5 1670.25,-208.5 "/>
<text text-anchor="middle" x="1770.67" y="-191.9" font-family="Courier New" font-size="14.00">type: variable (bytes)</text>
<text text-anchor="middle" x="1770.67" y="-175.1" font-family="Courier New" font-size="14.00">decoded data</text>
<polyline fill="none" stroke="black" points="1670.25,-166.9 1871.08,-166.9 "/>
<text text-anchor="middle" x="1770.46" y="-150.3" font-family="Courier New" font-size="14.00">uint256[][] (32)</text>
<text text-anchor="middle" x="1770.46" y="-133.5" font-family="Courier New" font-size="14.00"> 2 </text>
<polyline fill="none" stroke="black" points="1670.25,-125.3 1871.08,-125.3 "/>
<text text-anchor="middle" x="1770.46" y="-108.7" font-family="Courier New" font-size="14.00">uint256[][] (32)</text>
<text text-anchor="middle" x="1770.46" y="-91.9" font-family="Courier New" font-size="14.00"> 6 </text>
<polyline fill="none" stroke="black" points="1670.25,-83.7 1871.08,-83.7 "/>
<text text-anchor="middle" x="1770.46" y="-67.1" font-family="Courier New" font-size="14.00">uint256[][] (32)</text>
<text text-anchor="middle" x="1770.46" y="-50.3" font-family="Courier New" font-size="14.00"> 3 </text>
<polyline fill="none" stroke="black" points="1670.25,-42.1 1871.08,-42.1 "/>
<text text-anchor="middle" x="1770.46" y="-25.5" font-family="Courier New" font-size="14.00">uint256[][] (32)</text>
<text text-anchor="middle" x="1770.46" y="-8.7" font-family="Courier New" font-size="14.00"> 0 </text>
</g>
<!-- 6&#45;&gt;5 -->
<g id="edge2" class="edge">
<title>6:7&#45;&gt;5</title>
<path fill="none" stroke="black" d="M997.35,-245.3C1005.85,-245.3 1014.4,-245.1 1023,-244.72"/>
<polygon fill="black" stroke="black" points="1023.31,-248.21 1033.11,-244.19 1022.94,-241.22 1023.31,-248.21"/>
</g>
<!-- 1 -->
<g id="node2" class="node">
<title>1</title>
<polygon fill="#f2f2f2" stroke="black" points="1907.08,-356.1 1907.08,-522.5 2744.81,-522.5 2744.81,-356.1 1907.08,-356.1"/>
<text text-anchor="middle" x="2325.95" y="-505.9" font-family="Courier New" font-size="14.00">uint256[]: twoDimDynIntArray &lt;&lt;Array&gt;&gt;</text>
<text text-anchor="middle" x="2325.95" y="-489.1" font-family="Courier New" font-size="14.00">0x510e4e770828ddbf7f7b00ab00a9f6adaf81c0dc9cc85f1f8249c256942d61d9</text>
<polyline fill="none" stroke="black" points="1907.08,-480.9 2744.81,-480.9 "/>
<text text-anchor="middle" x="1940.29" y="-464.3" font-family="Courier New" font-size="14.00">offset</text>
<text text-anchor="middle" x="1940.29" y="-447.5" font-family="Courier New" font-size="14.00"> &#160;</text>
<polyline fill="none" stroke="black" points="1907.08,-439.3 1973.49,-439.3 "/>
<text text-anchor="middle" x="1940.29" y="-422.7" font-family="Courier New" font-size="14.00">0</text>
<text text-anchor="middle" x="1940.29" y="-405.9" font-family="Courier New" font-size="14.00"> &#160;</text>
<polyline fill="none" stroke="black" points="1907.08,-397.7 1973.49,-397.7 "/>
<text text-anchor="middle" x="1940.29" y="-381.1" font-family="Courier New" font-size="14.00">1</text>
<text text-anchor="middle" x="1940.29" y="-364.3" font-family="Courier New" font-size="14.00"> </text>
<polyline fill="none" stroke="black" points="1973.49,-356.1 1973.49,-480.9 "/>
<text text-anchor="middle" x="2258.74" y="-464.3" font-family="Courier New" font-size="14.00">value</text>
<text text-anchor="middle" x="2258.74" y="-447.5" font-family="Courier New" font-size="14.00"> &#160;</text>
<polyline fill="none" stroke="black" points="1973.49,-439.3 2543.98,-439.3 "/>
<text text-anchor="middle" x="2258.74" y="-422.7" font-family="Courier New" font-size="14.00">0x0000000000000000000000000000000000000000000000000000000000002B67</text>
<text text-anchor="middle" x="2258.74" y="-405.9" font-family="Courier New" font-size="14.00"> &#160;</text>
<polyline fill="none" stroke="black" points="1973.49,-397.7 2543.98,-397.7 "/>
<text text-anchor="middle" x="2258.74" y="-381.1" font-family="Courier New" font-size="14.00">0x0000000000000000000000000000000000000000000000000000000000002B72</text>
<text text-anchor="middle" x="2258.74" y="-364.3" font-family="Courier New" font-size="14.00"> </text>
<polyline fill="none" stroke="black" points="2543.98,-356.1 2543.98,-480.9 "/>
<text text-anchor="middle" x="2644.4" y="-464.3" font-family="Courier New" font-size="14.00">type: variable (bytes)</text>
<text text-anchor="middle" x="2644.4" y="-447.5" font-family="Courier New" font-size="14.00">decoded data</text>
<polyline fill="none" stroke="black" points="2543.98,-439.3 2744.81,-439.3 "/>
<text text-anchor="middle" x="2644.39" y="-422.7" font-family="Courier New" font-size="14.00">uint256 (32)</text>
<text text-anchor="middle" x="2644.39" y="-405.9" font-family="Courier New" font-size="14.00"> 11,111 </text>
<polyline fill="none" stroke="black" points="2543.98,-397.7 2744.81,-397.7 "/>
<text text-anchor="middle" x="2644.39" y="-381.1" font-family="Courier New" font-size="14.00">uint256 (32)</text>
<text text-anchor="middle" x="2644.39" y="-364.3" font-family="Courier New" font-size="14.00"> 11,122 </text>
</g>
<!-- 2&#45;&gt;1 -->
<g id="edge3" class="edge">
<title>2:2&#45;&gt;1</title>
<path fill="none" stroke="black" d="M1871.08,-439.3C1879.58,-439.3 1888.16,-439.3 1896.81,-439.3"/>
<polygon fill="black" stroke="black" points="1897,-442.8 1907,-439.3 1897,-435.8 1897,-442.8"/>
</g>
<!-- 3 -->
<g id="node4" class="node">
<title>3</title>
<polygon fill="#f2f2f2" stroke="black" points="2780.81,-21.3 2780.81,-229.3 3651.34,-229.3 3651.34,-21.3 2780.81,-21.3"/>
<text text-anchor="middle" x="3216.08" y="-212.7" font-family="Courier New" font-size="14.00">uint256[]: threeDimDynIntArray &lt;&lt;Array&gt;&gt;</text>
<text text-anchor="middle" x="3216.08" y="-195.9" font-family="Courier New" font-size="14.00">0x73139abbd176cf7f94893453632c00afefb2776f9805a21d03d176c885cd0d63</text>
<polyline fill="none" stroke="black" points="2780.81,-187.7 3651.34,-187.7 "/>
<text text-anchor="middle" x="2814.02" y="-171.1" font-family="Courier New" font-size="14.00">offset</text>
<text text-anchor="middle" x="2814.02" y="-154.3" font-family="Courier New" font-size="14.00"> &#160;</text>
<polyline fill="none" stroke="black" points="2780.81,-146.1 2847.22,-146.1 "/>
<text text-anchor="middle" x="2814.02" y="-129.5" font-family="Courier New" font-size="14.00">0</text>
<text text-anchor="middle" x="2814.02" y="-112.7" font-family="Courier New" font-size="14.00"> &#160;</text>
<polyline fill="none" stroke="black" points="2780.81,-104.5 2847.22,-104.5 "/>
<text text-anchor="middle" x="2814.02" y="-87.9" font-family="Courier New" font-size="14.00">1</text>
<text text-anchor="middle" x="2814.02" y="-71.1" font-family="Courier New" font-size="14.00"> &#160;</text>
<polyline fill="none" stroke="black" points="2780.81,-62.9 2847.22,-62.9 "/>
<text text-anchor="middle" x="2814.02" y="-46.3" font-family="Courier New" font-size="14.00">1</text>
<text text-anchor="middle" x="2814.02" y="-29.5" font-family="Courier New" font-size="14.00"> </text>
<polyline fill="none" stroke="black" points="2847.22,-21.3 2847.22,-187.7 "/>
<text text-anchor="middle" x="3132.46" y="-171.1" font-family="Courier New" font-size="14.00">value</text>
<text text-anchor="middle" x="3132.46" y="-154.3" font-family="Courier New" font-size="14.00"> &#160;</text>
<polyline fill="none" stroke="black" points="2847.22,-146.1 3417.71,-146.1 "/>
<text text-anchor="middle" x="3132.46" y="-129.5" font-family="Courier New" font-size="14.00">0x000000000000000000000000000000000000000000000000000000000001B207</text>
<text text-anchor="middle" x="3132.46" y="-112.7" font-family="Courier New" font-size="14.00"> &#160;</text>
<polyline fill="none" stroke="black" points="2847.22,-104.5 3417.71,-104.5 "/>
<text text-anchor="middle" x="3132.46" y="-87.9" font-family="Courier New" font-size="14.00">0x000000000000000000000000000000000000000000000000000000000001B212</text>
<text text-anchor="middle" x="3132.46" y="-71.1" font-family="Courier New" font-size="14.00"> &#160;</text>
<polyline fill="none" stroke="black" points="2847.22,-62.9 3417.71,-62.9 "/>
<text text-anchor="middle" x="3132.46" y="-46.3" font-family="Courier New" font-size="14.00">0x000000000000000000000000000000000000000000000000000000000001B212</text>
<text text-anchor="middle" x="3132.46" y="-29.5" font-family="Courier New" font-size="14.00"> </text>
<polyline fill="none" stroke="black" points="3417.71,-21.3 3417.71,-187.7 "/>
<text text-anchor="middle" x="3534.53" y="-171.1" font-family="Courier New" font-size="14.00">type: variable (bytes)</text>
<text text-anchor="middle" x="3534.53" y="-154.3" font-family="Courier New" font-size="14.00">decoded data</text>
<polyline fill="none" stroke="black" points="3417.71,-146.1 3651.34,-146.1 "/>
<text text-anchor="middle" x="3534.12" y="-129.5" font-family="Courier New" font-size="14.00">uint256 (32)</text>
<text text-anchor="middle" x="3534.12" y="-112.7" font-family="Courier New" font-size="14.00"> 111,111 </text>
<polyline fill="none" stroke="black" points="3417.71,-104.5 3651.34,-104.5 "/>
<text text-anchor="middle" x="3476.12" y="-87.9" font-family="Courier New" font-size="14.00">uint256 (32)</text>
<text text-anchor="middle" x="3476.12" y="-71.1" font-family="Courier New" font-size="14.00"> 111,122 &#160;</text>
<polyline fill="none" stroke="black" points="3534.53,-62.9 3534.53,-104.5 "/>
<text text-anchor="middle" x="3592.93" y="-87.9" font-family="Courier New" font-size="14.00">uint256 (32)</text>
<text text-anchor="middle" x="3592.93" y="-71.1" font-family="Courier New" font-size="14.00"> 111,122 </text>
<polyline fill="none" stroke="black" points="3417.71,-62.9 3651.34,-62.9 "/>
<text text-anchor="middle" x="3476.12" y="-46.3" font-family="Courier New" font-size="14.00">uint256 (32)</text>
<text text-anchor="middle" x="3476.12" y="-29.5" font-family="Courier New" font-size="14.00"> 111,122 &#160;</text>
<polyline fill="none" stroke="black" points="3534.53,-21.3 3534.53,-62.9 "/>
<text text-anchor="middle" x="3592.93" y="-46.3" font-family="Courier New" font-size="14.00">uint256 (32)</text>
<text text-anchor="middle" x="3592.93" y="-29.5" font-family="Courier New" font-size="14.00"> 111,122 </text>
</g>
<!-- 4 -->
<g id="node5" class="node">
<title>4</title>
<polygon fill="#f2f2f2" stroke="black" points="1907.08,-63.1 1907.08,-229.5 2744.81,-229.5 2744.81,-63.1 1907.08,-63.1"/>
<text text-anchor="middle" x="2325.95" y="-212.9" font-family="Courier New" font-size="14.00">uint256[][]: threeDimDynIntArray &lt;&lt;Array&gt;&gt;</text>
<text text-anchor="middle" x="2325.95" y="-196.1" font-family="Courier New" font-size="14.00">0xb5d9d894133a730aa651ef62d26b0ffa846233c74177a591a4a896adfda97d22</text>
<polyline fill="none" stroke="black" points="1907.08,-187.9 2744.81,-187.9 "/>
<text text-anchor="middle" x="1940.29" y="-171.3" font-family="Courier New" font-size="14.00">offset</text>
<text text-anchor="middle" x="1940.29" y="-154.5" font-family="Courier New" font-size="14.00"> &#160;</text>
<polyline fill="none" stroke="black" points="1907.08,-146.3 1973.49,-146.3 "/>
<text text-anchor="middle" x="1940.29" y="-129.7" font-family="Courier New" font-size="14.00">0</text>
<text text-anchor="middle" x="1940.29" y="-112.9" font-family="Courier New" font-size="14.00"> &#160;</text>
<polyline fill="none" stroke="black" points="1907.08,-104.7 1973.49,-104.7 "/>
<text text-anchor="middle" x="1940.29" y="-88.1" font-family="Courier New" font-size="14.00">1</text>
<text text-anchor="middle" x="1940.29" y="-71.3" font-family="Courier New" font-size="14.00"> </text>
<polyline fill="none" stroke="black" points="1973.49,-63.1 1973.49,-187.9 "/>
<text text-anchor="middle" x="2258.74" y="-171.3" font-family="Courier New" font-size="14.00">value</text>
<text text-anchor="middle" x="2258.74" y="-154.5" font-family="Courier New" font-size="14.00"> &#160;</text>
<polyline fill="none" stroke="black" points="1973.49,-146.3 2543.98,-146.3 "/>
<text text-anchor="middle" x="2258.74" y="-129.7" font-family="Courier New" font-size="14.00">0x0000000000000000000000000000000000000000000000000000000000000002</text>
<text text-anchor="middle" x="2258.74" y="-112.9" font-family="Courier New" font-size="14.00"> &#160;</text>
<polyline fill="none" stroke="black" points="1973.49,-104.7 2543.98,-104.7 "/>
<text text-anchor="middle" x="2258.74" y="-88.1" font-family="Courier New" font-size="14.00">0x0000000000000000000000000000000000000000000000000000000000000003</text>
<text text-anchor="middle" x="2258.74" y="-71.3" font-family="Courier New" font-size="14.00"> </text>
<polyline fill="none" stroke="black" points="2543.98,-63.1 2543.98,-187.9 "/>
<text text-anchor="middle" x="2644.4" y="-171.3" font-family="Courier New" font-size="14.00">type: variable (bytes)</text>
<text text-anchor="middle" x="2644.4" y="-154.5" font-family="Courier New" font-size="14.00">decoded data</text>
<polyline fill="none" stroke="black" points="2543.98,-146.3 2744.81,-146.3 "/>
<text text-anchor="middle" x="2644.29" y="-129.7" font-family="Courier New" font-size="14.00">uint256[] (32)</text>
<text text-anchor="middle" x="2644.29" y="-112.9" font-family="Courier New" font-size="14.00"> 2 </text>
<polyline fill="none" stroke="black" points="2543.98,-104.7 2744.81,-104.7 "/>
<text text-anchor="middle" x="2644.29" y="-88.1" font-family="Courier New" font-size="14.00">uint256[] (32)</text>
<text text-anchor="middle" x="2644.29" y="-71.3" font-family="Courier New" font-size="14.00"> 3 </text>
</g>
<!-- 4&#45;&gt;3 -->
<g id="edge4" class="edge">
<title>4:5&#45;&gt;3</title>
<path fill="none" stroke="black" d="M2744.81,-125.3C2753.32,-125.3 2761.92,-125.3 2770.58,-125.3"/>
<polygon fill="black" stroke="black" points="2770.77,-128.8 2780.77,-125.3 2770.77,-121.8 2770.77,-128.8"/>
</g>
<!-- 5&#45;&gt;4 -->
<g id="edge5" class="edge">
<title>5:6&#45;&gt;4</title>
<path fill="none" stroke="black" d="M1871.08,-146.3C1879.58,-146.3 1888.16,-146.3 1896.81,-146.3"/>
<polygon fill="black" stroke="black" points="1897,-149.8 1907,-146.3 1897,-142.8 1897,-149.8"/>
</g>
</g>
</svg>
