<?xml version="1.0" encoding="UTF-8" standalone="no"?>
<!DOCTYPE svg PUBLIC "-//W3C//DTD SVG 1.1//EN"
 "http://www.w3.org/Graphics/SVG/1.1/DTD/svg11.dtd">
<!-- Generated by graphviz version 5.0.0 (20220707.1540)
 -->
<!-- Title: StorageDiagram Pages: 1 -->
<svg width="2254pt" height="276pt"
 viewBox="0.00 0.00 2254.33 276.20" xmlns="http://www.w3.org/2000/svg" xmlns:xlink="http://www.w3.org/1999/xlink">
<g id="graph0" class="graph" transform="scale(1 1) rotate(0) translate(4 272.2)">
<title>StorageDiagram</title>
<polygon fill="white" stroke="transparent" points="-4,4 -4,-272.2 2250.33,-272.2 2250.33,4 -4,4"/>
<!-- 6 -->
<g id="node1" class="node">
<title>6</title>
<polygon fill="#f2f2f2" stroke="black" points="0,-141.5 0,-240.7 426.86,-240.7 426.86,-141.5 0,-141.5"/>
<text text-anchor="middle" x="213.43" y="-224.1" font-family="Courier New" font-size="14.00">MultiDynamicArrayStorage &lt;&lt;Contract&gt;&gt;</text>
<polyline fill="none" stroke="black" points="0,-215.9 426.86,-215.9 "/>
<text text-anchor="middle" x="24.8" y="-199.3" font-family="Courier New" font-size="14.00">slot</text>
<polyline fill="none" stroke="black" points="0,-191.1 49.61,-191.1 "/>
<text text-anchor="middle" x="24.8" y="-174.5" font-family="Courier New" font-size="14.00">0</text>
<polyline fill="none" stroke="black" points="0,-166.3 49.61,-166.3 "/>
<text text-anchor="middle" x="24.8" y="-149.7" font-family="Courier New" font-size="14.00">1</text>
<polyline fill="none" stroke="black" points="49.61,-141.5 49.61,-215.9 "/>
<text text-anchor="middle" x="238.23" y="-199.3" font-family="Courier New" font-size="14.00">type: &lt;inherited contract&gt;.variable (bytes)</text>
<polyline fill="none" stroke="black" points="49.61,-191.1 426.86,-191.1 "/>
<text text-anchor="middle" x="238.13" y="-174.5" font-family="Courier New" font-size="14.00">uint256[][]: twoDimDynIntArray (32)</text>
<polyline fill="none" stroke="black" points="49.61,-166.3 426.86,-166.3 "/>
<text text-anchor="middle" x="237.93" y="-149.7" font-family="Courier New" font-size="14.00">uint256[][][]: threeDimDynIntArray (32)</text>
</g>
<!-- 2 -->
<g id="node3" class="node">
<title>2</title>
<polygon fill="#f2f2f2" stroke="black" points="462.86,-176.5 462.86,-267.7 1033.35,-267.7 1033.35,-176.5 462.86,-176.5"/>
<text text-anchor="middle" x="748.11" y="-251.1" font-family="Courier New" font-size="14.00">uint256[][]: twoDimDynIntArray &lt;&lt;Array&gt;&gt;</text>
<text text-anchor="middle" x="748.11" y="-234.3" font-family="Courier New" font-size="14.00">0x290decd9548b62a8d60345a988386fc84ba6bc95484008f6362f93160ef3e563</text>
<polyline fill="none" stroke="black" points="462.86,-226.1 1033.35,-226.1 "/>
<text text-anchor="middle" x="571.57" y="-209.5" font-family="Courier New" font-size="14.00">offset</text>
<polyline fill="none" stroke="black" points="462.86,-201.3 680.27,-201.3 "/>
<text text-anchor="middle" x="571.57" y="-184.7" font-family="Courier New" font-size="14.00">0</text>
<polyline fill="none" stroke="black" points="680.27,-176.5 680.27,-226.1 "/>
<text text-anchor="middle" x="856.69" y="-209.5" font-family="Courier New" font-size="14.00">type: variable (bytes)</text>
<polyline fill="none" stroke="black" points="680.27,-201.3 1033.1,-201.3 "/>
<text text-anchor="middle" x="856.58" y="-184.7" font-family="Courier New" font-size="14.00">uint256[] (32)</text>
</g>
<!-- 6&#45;&gt;2 -->
<g id="edge1" class="edge">
<title>6:3&#45;&gt;2</title>
<path fill="none" stroke="black" d="M426.86,-179.1C435.33,-179.1 443.91,-179.25 452.57,-179.53"/>
<polygon fill="black" stroke="black" points="452.63,-183.04 462.76,-179.92 452.9,-176.04 452.63,-183.04"/>
</g>
<!-- 5 -->
<g id="node6" class="node">
<title>5</title>
<polygon fill="#f2f2f2" stroke="black" points="462.86,-66.5 462.86,-157.7 1033.35,-157.7 1033.35,-66.5 462.86,-66.5"/>
<text text-anchor="middle" x="748.11" y="-141.1" font-family="Courier New" font-size="14.00">uint256[][][]: threeDimDynIntArray &lt;&lt;Array&gt;&gt;</text>
<text text-anchor="middle" x="748.11" y="-124.3" font-family="Courier New" font-size="14.00">0xb10e2d527612073b26eecdfd717e6a320cf44b4afac2b0732d9fcbe2b7fa0cf6</text>
<polyline fill="none" stroke="black" points="462.86,-116.1 1033.35,-116.1 "/>
<text text-anchor="middle" x="571.57" y="-99.5" font-family="Courier New" font-size="14.00">offset</text>
<polyline fill="none" stroke="black" points="462.86,-91.3 680.27,-91.3 "/>
<text text-anchor="middle" x="571.57" y="-74.7" font-family="Courier New" font-size="14.00">0</text>
<polyline fill="none" stroke="black" points="680.27,-66.5 680.27,-116.1 "/>
<text text-anchor="middle" x="856.69" y="-99.5" font-family="Courier New" font-size="14.00">type: variable (bytes)</text>
<polyline fill="none" stroke="black" points="680.27,-91.3 1033.1,-91.3 "/>
<text text-anchor="middle" x="856.48" y="-74.7" font-family="Courier New" font-size="14.00">uint256[][] (32)</text>
</g>
<!-- 6&#45;&gt;5 -->
<g id="edge2" class="edge">
<title>6:7&#45;&gt;5</title>
<path fill="none" stroke="black" d="M426.86,-154.1C435.33,-154.1 443.91,-153.95 452.56,-153.68"/>
<polygon fill="black" stroke="black" points="452.88,-157.17 462.74,-153.3 452.62,-150.17 452.88,-157.17"/>
</g>
<!-- 1 -->
<g id="node2" class="node">
<title>1</title>
<polygon fill="#f2f2f2" stroke="black" points="1069.35,-143.5 1069.35,-234.7 1639.84,-234.7 1639.84,-143.5 1069.35,-143.5"/>
<text text-anchor="middle" x="1354.6" y="-218.1" font-family="Courier New" font-size="14.00">uint256[]: twoDimDynIntArray &lt;&lt;Array&gt;&gt;</text>
<text text-anchor="middle" x="1354.6" y="-201.3" font-family="Courier New" font-size="14.00">0x510e4e770828ddbf7f7b00ab00a9f6adaf81c0dc9cc85f1f8249c256942d61d9</text>
<polyline fill="none" stroke="black" points="1069.35,-193.1 1639.84,-193.1 "/>
<text text-anchor="middle" x="1178.06" y="-176.5" font-family="Courier New" font-size="14.00">offset</text>
<polyline fill="none" stroke="black" points="1069.35,-168.3 1286.76,-168.3 "/>
<text text-anchor="middle" x="1178.06" y="-151.7" font-family="Courier New" font-size="14.00">0</text>
<polyline fill="none" stroke="black" points="1286.76,-143.5 1286.76,-193.1 "/>
<text text-anchor="middle" x="1463.18" y="-176.5" font-family="Courier New" font-size="14.00">type: variable (bytes)</text>
<polyline fill="none" stroke="black" points="1286.76,-168.3 1639.59,-168.3 "/>
<text text-anchor="middle" x="1463.17" y="-151.7" font-family="Courier New" font-size="14.00">uint256 (32)</text>
</g>
<!-- 2&#45;&gt;1 -->
<g id="edge3" class="edge">
<title>2:2&#45;&gt;1</title>
<path fill="none" stroke="black" d="M1033.35,-189.1C1041.75,-189.1 1050.26,-189.1 1058.86,-189.1"/>
<polygon fill="black" stroke="black" points="1058.98,-192.6 1068.98,-189.1 1058.98,-185.6 1058.98,-192.6"/>
</g>
<!-- 3 -->
<g id="node4" class="node">
<title>3</title>
<polygon fill="#f2f2f2" stroke="black" points="1675.84,-0.5 1675.84,-91.7 2246.33,-91.7 2246.33,-0.5 1675.84,-0.5"/>
<text text-anchor="middle" x="1961.09" y="-75.1" font-family="Courier New" font-size="14.00">uint256[]: threeDimDynIntArray &lt;&lt;Array&gt;&gt;</text>
<text text-anchor="middle" x="1961.09" y="-58.3" font-family="Courier New" font-size="14.00">0x73139abbd176cf7f94893453632c00afefb2776f9805a21d03d176c885cd0d63</text>
<polyline fill="none" stroke="black" points="1675.84,-50.1 2246.33,-50.1 "/>
<text text-anchor="middle" x="1784.55" y="-33.5" font-family="Courier New" font-size="14.00">offset</text>
<polyline fill="none" stroke="black" points="1675.84,-25.3 1893.25,-25.3 "/>
<text text-anchor="middle" x="1784.55" y="-8.7" font-family="Courier New" font-size="14.00">0</text>
<polyline fill="none" stroke="black" points="1893.25,-0.5 1893.25,-50.1 "/>
<text text-anchor="middle" x="2069.67" y="-33.5" font-family="Courier New" font-size="14.00">type: variable (bytes)</text>
<polyline fill="none" stroke="black" points="1893.25,-25.3 2246.08,-25.3 "/>
<text text-anchor="middle" x="2069.66" y="-8.7" font-family="Courier New" font-size="14.00">uint256 (32)</text>
</g>
<!-- 4 -->
<g id="node5" class="node">
<title>4</title>
<polygon fill="#f2f2f2" stroke="black" points="1069.35,-33.5 1069.35,-124.7 1639.84,-124.7 1639.84,-33.5 1069.35,-33.5"/>
<text text-anchor="middle" x="1354.6" y="-108.1" font-family="Courier New" font-size="14.00">uint256[][]: threeDimDynIntArray &lt;&lt;Array&gt;&gt;</text>
<text text-anchor="middle" x="1354.6" y="-91.3" font-family="Courier New" font-size="14.00">0xb5d9d894133a730aa651ef62d26b0ffa846233c74177a591a4a896adfda97d22</text>
<polyline fill="none" stroke="black" points="1069.35,-83.1 1639.84,-83.1 "/>
<text text-anchor="middle" x="1178.06" y="-66.5" font-family="Courier New" font-size="14.00">offset</text>
<polyline fill="none" stroke="black" points="1069.35,-58.3 1286.76,-58.3 "/>
<text text-anchor="middle" x="1178.06" y="-41.7" font-family="Courier New" font-size="14.00">0</text>
<polyline fill="none" stroke="black" points="1286.76,-33.5 1286.76,-83.1 "/>
<text text-anchor="middle" x="1463.18" y="-66.5" font-family="Courier New" font-size="14.00">type: variable (bytes)</text>
<polyline fill="none" stroke="black" points="1286.76,-58.3 1639.59,-58.3 "/>
<text text-anchor="middle" x="1463.07" y="-41.7" font-family="Courier New" font-size="14.00">uint256[] (32)</text>
</g>
<!-- 4&#45;&gt;3 -->
<g id="edge4" class="edge">
<title>4:5&#45;&gt;3</title>
<path fill="none" stroke="black" d="M1639.84,-46.1C1648.24,-46.1 1656.75,-46.1 1665.35,-46.1"/>
<polygon fill="black" stroke="black" points="1665.47,-49.6 1675.47,-46.1 1665.47,-42.6 1665.47,-49.6"/>
</g>
<!-- 5&#45;&gt;4 -->
<g id="edge5" class="edge">
<title>5:6&#45;&gt;4</title>
<path fill="none" stroke="black" d="M1033.35,-79.1C1041.75,-79.1 1050.26,-79.1 1058.86,-79.1"/>
<polygon fill="black" stroke="black" points="1058.98,-82.6 1068.98,-79.1 1058.98,-75.6 1058.98,-82.6"/>
</g>
</g>
</svg>
