<?xml version="1.0" encoding="UTF-8" standalone="no"?>
<!DOCTYPE svg PUBLIC "-//W3C//DTD SVG 1.1//EN"
 "http://www.w3.org/Graphics/SVG/1.1/DTD/svg11.dtd">
<!-- Generated by graphviz version 5.0.0 (20220707.1540)
 -->
<!-- Title: StorageDiagram Pages: 1 -->
<svg width="644pt" height="325pt"
 viewBox="0.00 0.00 644.10 325.00" xmlns="http://www.w3.org/2000/svg" xmlns:xlink="http://www.w3.org/1999/xlink">
<g id="graph0" class="graph" transform="scale(1 1) rotate(0) translate(4 321)">
<title>StorageDiagram</title>
<polygon fill="white" stroke="transparent" points="-4,4 -4,-321 640.1,-321 640.1,4 -4,4"/>
<!-- 1 -->
<g id="node1" class="node">
<title>1</title>
<polygon fill="#f2f2f2" stroke="black" points="0,-0.5 0,-316.5 636.1,-316.5 636.1,-0.5 0,-0.5"/>
<text text-anchor="middle" x="318.05" y="-299.9" font-family="Courier New" font-size="14.00">OETHDripper &lt;&lt;Contract&gt;&gt;</text>
<text text-anchor="middle" x="318.05" y="-283.1" font-family="Courier New" font-size="14.00">0x2fdfbb2b905484f1445e23a97c97f65fe0e43dec</text>
<polyline fill="none" stroke="black" points="0,-274.9 636.1,-274.9 "/>
<text text-anchor="middle" x="50.01" y="-258.3" font-family="Courier New" font-size="14.00">slot</text>
<text text-anchor="middle" x="50.01" y="-241.5" font-family="Courier New" font-size="14.00"> &#160;</text>
<polyline fill="none" stroke="black" points="0,-233.3 100.01,-233.3 "/>
<text text-anchor="middle" x="50.01" y="-216.7" font-family="Courier New" font-size="14.00">0</text>
<text text-anchor="middle" x="50.01" y="-199.9" font-family="Courier New" font-size="14.00"> &#160;</text>
<polyline fill="none" stroke="black" points="0,-191.7 100.01,-191.7 "/>
<text text-anchor="middle" x="50.01" y="-175.1" font-family="Courier New" font-size="14.00">1 </text>
<polyline fill="none" stroke="black" points="0,-166.9 100.01,-166.9 "/>
<text text-anchor="middle" x="50.01" y="-150.3" font-family="Courier New" font-size="14.00">0x360..bbc</text>
<text text-anchor="middle" x="50.01" y="-133.5" font-family="Courier New" font-size="14.00"> &#160;</text>
<polyline fill="none" stroke="black" points="0,-125.3 100.01,-125.3 "/>
<text text-anchor="middle" x="50.01" y="-108.7" font-family="Courier New" font-size="14.00">0x44c..1db</text>
<text text-anchor="middle" x="50.01" y="-91.9" font-family="Courier New" font-size="14.00"> &#160;</text>
<polyline fill="none" stroke="black" points="0,-83.7 100.01,-83.7 "/>
<text text-anchor="middle" x="50.01" y="-67.1" font-family="Courier New" font-size="14.00">0x53b..535</text>
<text text-anchor="middle" x="50.01" y="-50.3" font-family="Courier New" font-size="14.00"> &#160;</text>
<polyline fill="none" stroke="black" points="0,-42.1 100.01,-42.1 "/>
<text text-anchor="middle" x="50.01" y="-25.5" font-family="Courier New" font-size="14.00">0x7be..a4a</text>
<text text-anchor="middle" x="50.01" y="-8.7" font-family="Courier New" font-size="14.00"> </text>
<polyline fill="none" stroke="black" points="100.01,-0.5 100.01,-274.9 "/>
<text text-anchor="middle" x="368.05" y="-258.3" font-family="Courier New" font-size="14.00">type: &lt;inherited contract&gt;.variable (bytes)</text>
<text text-anchor="middle" x="368.05" y="-241.5" font-family="Courier New" font-size="14.00">decoded data</text>
<polyline fill="none" stroke="black" points="100.01,-233.3 636.1,-233.3 "/>
<text text-anchor="middle" x="367.84" y="-216.7" font-family="Courier New" font-size="14.00">uint256: Dripper.dripDuration (32)</text>
<text text-anchor="middle" x="367.84" y="-199.9" font-family="Courier New" font-size="14.00"> 259,200 </text>
<polyline fill="none" stroke="black" points="100.01,-191.7 636.1,-191.7 "/>
<text text-anchor="middle" x="367.63" y="-175.1" font-family="Courier New" font-size="14.00">Drip: Dripper.drip (32)</text>
<polyline fill="none" stroke="black" points="100.01,-166.9 636.1,-166.9 "/>
<text text-anchor="middle" x="175.22" y="-141.9" font-family="Courier New" font-size="14.00">unallocated (12)</text>
<polyline fill="none" stroke="black" points="250.44,-125.3 250.44,-166.9 "/>
<text text-anchor="middle" x="443.27" y="-150.3" font-family="Courier New" font-size="14.00">address (20)</text>
<text text-anchor="middle" x="443.27" y="-133.5" font-family="Courier New" font-size="14.00"> 0x2FDfBb2b905484f1445E23A97C97F65fe0e43dEC </text>
<polyline fill="none" stroke="black" points="100.01,-125.3 636.1,-125.3 "/>
<text text-anchor="middle" x="175.22" y="-100.3" font-family="Courier New" font-size="14.00">unallocated (12)</text>
<polyline fill="none" stroke="black" points="250.44,-83.7 250.44,-125.3 "/>
<text text-anchor="middle" x="443.27" y="-108.7" font-family="Courier New" font-size="14.00">address: OUSD.pending.governor (20)</text>
<text text-anchor="middle" x="443.27" y="-91.9" font-family="Courier New" font-size="14.00"> 0x35918cDE7233F2dD33fA41ae3Cb6aE0e42E0e69F </text>
<polyline fill="none" stroke="black" points="100.01,-83.7 636.1,-83.7 "/>
<text text-anchor="middle" x="206.72" y="-58.7" font-family="Courier New" font-size="14.00">unallocated (31)</text>
<polyline fill="none" stroke="black" points="313.44,-42.1 313.44,-83.7 "/>
<text text-anchor="middle" x="474.76" y="-67.1" font-family="Courier New" font-size="14.00">bool: OUSD.reentry.status (1)</text>
<text text-anchor="middle" x="474.76" y="-50.3" font-family="Courier New" font-size="14.00"> false </text>
<polyline fill="none" stroke="black" points="100.01,-42.1 636.1,-42.1 "/>
<text text-anchor="middle" x="175.22" y="-17.1" font-family="Courier New" font-size="14.00">unallocated (12)</text>
<polyline fill="none" stroke="black" points="250.44,-0.5 250.44,-42.1 "/>
<text text-anchor="middle" x="443.27" y="-25.5" font-family="Courier New" font-size="14.00">address: OUSD.governor (20)</text>
<text text-anchor="middle" x="443.27" y="-8.7" font-family="Courier New" font-size="14.00"> 0x35918cDE7233F2dD33fA41ae3Cb6aE0e42E0e69F </text>
</g>
</g>
</svg>
