<?xml version="1.0" encoding="UTF-8" standalone="no"?>
<!DOCTYPE svg PUBLIC "-//W3C//DTD SVG 1.1//EN"
 "http://www.w3.org/Graphics/SVG/1.1/DTD/svg11.dtd">
<!-- Generated by graphviz version 5.0.0 (20220707.1540)
 -->
<!-- Title: StorageDiagram Pages: 1 -->
<svg width="5301pt" height="1210pt"
 viewBox="0.00 0.00 5301.19 1210.20" xmlns="http://www.w3.org/2000/svg" xmlns:xlink="http://www.w3.org/1999/xlink">
<g id="graph0" class="graph" transform="scale(1 1) rotate(0) translate(4 1206.2)">
<title>StorageDiagram</title>
<polygon fill="white" stroke="transparent" points="-4,4 -4,-1206.2 5297.19,-1206.2 5297.19,4 -4,4"/>
<!-- 10 -->
<g id="node1" class="node">
<title>10</title>
<polygon fill="#f2f2f2" stroke="black" points="0,-620.9 0,-770.5 997.35,-770.5 997.35,-620.9 0,-620.9"/>
<text text-anchor="middle" x="498.68" y="-753.9" font-family="Courier New" font-size="14.00">StructStorage &lt;&lt;Contract&gt;&gt;</text>
<text text-anchor="middle" x="498.68" y="-737.1" font-family="Courier New" font-size="14.00">0xB8F98C34e40E0D201CE2F3440cE92d0B5c5CfFe2</text>
<polyline fill="none" stroke="black" points="0,-728.9 997.35,-728.9 "/>
<text text-anchor="middle" x="24.8" y="-712.3" font-family="Courier New" font-size="14.00">slot</text>
<text text-anchor="middle" x="24.8" y="-695.5" font-family="Courier New" font-size="14.00"> &#160;</text>
<polyline fill="none" stroke="black" points="0,-687.3 49.61,-687.3 "/>
<text text-anchor="middle" x="24.8" y="-670.7" font-family="Courier New" font-size="14.00">0&#45;5 </text>
<polyline fill="none" stroke="black" points="0,-662.5 49.61,-662.5 "/>
<text text-anchor="middle" x="24.8" y="-645.9" font-family="Courier New" font-size="14.00">6</text>
<text text-anchor="middle" x="24.8" y="-629.1" font-family="Courier New" font-size="14.00"> </text>
<polyline fill="none" stroke="black" points="49.61,-620.9 49.61,-728.9 "/>
<text text-anchor="middle" x="334.85" y="-712.3" font-family="Courier New" font-size="14.00">value</text>
<text text-anchor="middle" x="334.85" y="-695.5" font-family="Courier New" font-size="14.00"> &#160;</text>
<polyline fill="none" stroke="black" points="49.61,-687.3 620.1,-687.3 "/>
<text text-anchor="middle" x="334.85" y="-670.7" font-family="Courier New" font-size="14.00"> </text>
<polyline fill="none" stroke="black" points="49.61,-662.5 620.1,-662.5 "/>
<text text-anchor="middle" x="334.85" y="-645.9" font-family="Courier New" font-size="14.00">0x0000000000000000000000000000000000000000000000000000000000000001</text>
<text text-anchor="middle" x="334.85" y="-629.1" font-family="Courier New" font-size="14.00"> </text>
<polyline fill="none" stroke="black" points="620.1,-620.9 620.1,-728.9 "/>
<text text-anchor="middle" x="808.73" y="-712.3" font-family="Courier New" font-size="14.00">type: &lt;inherited contract&gt;.variable (bytes)</text>
<text text-anchor="middle" x="808.73" y="-695.5" font-family="Courier New" font-size="14.00">decoded data</text>
<polyline fill="none" stroke="black" points="620.1,-687.3 997.35,-687.3 "/>
<text text-anchor="middle" x="808.42" y="-670.7" font-family="Courier New" font-size="14.00">ExampleStruct: exampleStruct (192)</text>
<polyline fill="none" stroke="black" points="620.1,-662.5 997.35,-662.5 "/>
<text text-anchor="middle" x="808.32" y="-645.9" font-family="Courier New" font-size="14.00">ExampleStruct[]: dynamicStructs (32)</text>
<text text-anchor="middle" x="808.32" y="-629.1" font-family="Courier New" font-size="14.00"> 1 </text>
</g>
<!-- 4 -->
<g id="node5" class="node">
<title>4</title>
<polygon fill="#f2f2f2" stroke="black" points="1033.35,-702.9 1033.35,-960.5 2532.38,-960.5 2532.38,-702.9 1033.35,-702.9"/>
<text text-anchor="middle" x="1782.87" y="-943.9" font-family="Courier New" font-size="14.00">ExampleStruct &lt;&lt;Struct&gt;&gt;</text>
<polyline fill="none" stroke="black" points="1033.35,-935.7 2532.38,-935.7 "/>
<text text-anchor="middle" x="1058.16" y="-919.1" font-family="Courier New" font-size="14.00">slot</text>
<text text-anchor="middle" x="1058.16" y="-902.3" font-family="Courier New" font-size="14.00"> &#160;</text>
<polyline fill="none" stroke="black" points="1033.35,-894.1 1082.96,-894.1 "/>
<text text-anchor="middle" x="1058.16" y="-877.5" font-family="Courier New" font-size="14.00">0</text>
<text text-anchor="middle" x="1058.16" y="-860.7" font-family="Courier New" font-size="14.00"> &#160;</text>
<polyline fill="none" stroke="black" points="1033.35,-852.5 1082.96,-852.5 "/>
<text text-anchor="middle" x="1058.16" y="-835.9" font-family="Courier New" font-size="14.00">1</text>
<text text-anchor="middle" x="1058.16" y="-819.1" font-family="Courier New" font-size="14.00"> &#160;</text>
<polyline fill="none" stroke="black" points="1033.35,-810.9 1082.96,-810.9 "/>
<text text-anchor="middle" x="1058.16" y="-794.3" font-family="Courier New" font-size="14.00">2</text>
<text text-anchor="middle" x="1058.16" y="-777.5" font-family="Courier New" font-size="14.00"> &#160;</text>
<polyline fill="none" stroke="black" points="1033.35,-769.3 1082.96,-769.3 "/>
<text text-anchor="middle" x="1058.16" y="-752.7" font-family="Courier New" font-size="14.00">3&#45;4 </text>
<polyline fill="none" stroke="black" points="1033.35,-744.5 1082.96,-744.5 "/>
<text text-anchor="middle" x="1058.16" y="-727.9" font-family="Courier New" font-size="14.00">5</text>
<text text-anchor="middle" x="1058.16" y="-711.1" font-family="Courier New" font-size="14.00"> </text>
<polyline fill="none" stroke="black" points="1082.96,-702.9 1082.96,-935.7 "/>
<text text-anchor="middle" x="1368.21" y="-919.1" font-family="Courier New" font-size="14.00">value</text>
<text text-anchor="middle" x="1368.21" y="-902.3" font-family="Courier New" font-size="14.00"> &#160;</text>
<polyline fill="none" stroke="black" points="1082.96,-894.1 1653.45,-894.1 "/>
<text text-anchor="middle" x="1368.21" y="-877.5" font-family="Courier New" font-size="14.00">0x00000000000000000000029FF58F4FFB29FA2266AB25E75E2A8B350331165601</text>
<text text-anchor="middle" x="1368.21" y="-860.7" font-family="Courier New" font-size="14.00"> &#160;</text>
<polyline fill="none" stroke="black" points="1082.96,-852.5 1653.45,-852.5 "/>
<text text-anchor="middle" x="1368.21" y="-835.9" font-family="Courier New" font-size="14.00">0x0000000000000000000000000000000000000000000000000000000000000003</text>
<text text-anchor="middle" x="1368.21" y="-819.1" font-family="Courier New" font-size="14.00"> &#160;</text>
<polyline fill="none" stroke="black" points="1082.96,-810.9 1653.45,-810.9 "/>
<text text-anchor="middle" x="1368.21" y="-794.3" font-family="Courier New" font-size="14.00">0x0000000000000000000000000000000000000000000000000000000000000003</text>
<text text-anchor="middle" x="1368.21" y="-777.5" font-family="Courier New" font-size="14.00"> &#160;</text>
<polyline fill="none" stroke="black" points="1082.96,-769.3 1653.45,-769.3 "/>
<text text-anchor="middle" x="1368.21" y="-752.7" font-family="Courier New" font-size="14.00"> </text>
<polyline fill="none" stroke="black" points="1082.96,-744.5 1653.45,-744.5 "/>
<text text-anchor="middle" x="1368.21" y="-727.9" font-family="Courier New" font-size="14.00">0x0000000000000000000000000000000000000000000000000000000000000099</text>
<text text-anchor="middle" x="1368.21" y="-711.1" font-family="Courier New" font-size="14.00"> </text>
<polyline fill="none" stroke="black" points="1653.45,-702.9 1653.45,-935.7 "/>
<text text-anchor="middle" x="2092.92" y="-919.1" font-family="Courier New" font-size="14.00">type: variable (bytes)</text>
<text text-anchor="middle" x="2092.92" y="-902.3" font-family="Courier New" font-size="14.00">decoded data</text>
<polyline fill="none" stroke="black" points="1653.45,-894.1 2532.38,-894.1 "/>
<text text-anchor="middle" x="1728.66" y="-869.1" font-family="Courier New" font-size="14.00">unallocated (10)</text>
<polyline fill="none" stroke="black" points="1803.87,-852.5 1803.87,-894.1 "/>
<text text-anchor="middle" x="1904.29" y="-877.5" font-family="Courier New" font-size="14.00">Severity: severity (1)</text>
<text text-anchor="middle" x="1904.29" y="-860.7" font-family="Courier New" font-size="14.00"> High &#160;</text>
<polyline fill="none" stroke="black" points="2004.7,-852.5 2004.7,-894.1 "/>
<text text-anchor="middle" x="2201.73" y="-877.5" font-family="Courier New" font-size="14.00">address: token (20)</text>
<text text-anchor="middle" x="2201.73" y="-860.7" font-family="Courier New" font-size="14.00"> 0x9ff58f4fFB29fA2266Ab25e75e2A8b3503311656 &#160;</text>
<polyline fill="none" stroke="black" points="2398.76,-852.5 2398.76,-894.1 "/>
<text text-anchor="middle" x="2465.57" y="-877.5" font-family="Courier New" font-size="14.00">bool: flag (1)</text>
<text text-anchor="middle" x="2465.57" y="-860.7" font-family="Courier New" font-size="14.00"> true </text>
<polyline fill="none" stroke="black" points="1653.45,-852.5 2532.38,-852.5 "/>
<text text-anchor="middle" x="2092.47" y="-835.9" font-family="Courier New" font-size="14.00">address[]: dynamicAddressArray (32)</text>
<text text-anchor="middle" x="2092.47" y="-819.1" font-family="Courier New" font-size="14.00"> 3 </text>
<polyline fill="none" stroke="black" points="1653.45,-810.9 2532.38,-810.9 "/>
<text text-anchor="middle" x="2092.77" y="-794.3" font-family="Courier New" font-size="14.00">int64[]: dynamicIntArray (32)</text>
<text text-anchor="middle" x="2092.77" y="-777.5" font-family="Courier New" font-size="14.00"> 3 </text>
<polyline fill="none" stroke="black" points="1653.45,-769.3 2532.38,-769.3 "/>
<text text-anchor="middle" x="2092.67" y="-752.7" font-family="Courier New" font-size="14.00">uint256[2]: staticIntArray (64)</text>
<polyline fill="none" stroke="black" points="1653.45,-744.5 2532.38,-744.5 "/>
<text text-anchor="middle" x="2092.57" y="-727.9" font-family="Courier New" font-size="14.00">string: someString (32)</text>
<text text-anchor="middle" x="2092.57" y="-711.1" font-family="Courier New" font-size="14.00"> 76 </text>
</g>
<!-- 10&#45;&gt;4 -->
<g id="edge1" class="edge">
<title>10:12&#45;&gt;4</title>
<path fill="none" stroke="black" d="M997.35,-674.7C1090.09,-674.7 1187.81,-685.38 1281.61,-701.16"/>
<polygon fill="black" stroke="black" points="1281.11,-704.63 1291.55,-702.86 1282.28,-697.73 1281.11,-704.63"/>
</g>
<!-- 9 -->
<g id="node10" class="node">
<title>9</title>
<polygon fill="#f2f2f2" stroke="black" points="1497.62,-431.7 1497.62,-539.7 2068.11,-539.7 2068.11,-431.7 1497.62,-431.7"/>
<text text-anchor="middle" x="1782.87" y="-523.1" font-family="Courier New" font-size="14.00">ExampleStruct[]: dynamicStructs &lt;&lt;Array&gt;&gt;</text>
<text text-anchor="middle" x="1782.87" y="-506.3" font-family="Courier New" font-size="14.00">0xf652222313e28459528d920b65115c16c04f3efc82aaedc97be59f3f377c0d3f</text>
<polyline fill="none" stroke="black" points="1497.62,-498.1 2068.11,-498.1 "/>
<text text-anchor="middle" x="1571.33" y="-481.5" font-family="Courier New" font-size="14.00">offset</text>
<text text-anchor="middle" x="1571.33" y="-464.7" font-family="Courier New" font-size="14.00"> &#160;</text>
<polyline fill="none" stroke="black" points="1497.62,-456.5 1645.03,-456.5 "/>
<text text-anchor="middle" x="1571.33" y="-439.9" font-family="Courier New" font-size="14.00">0&#45;5</text>
<polyline fill="none" stroke="black" points="1645.03,-431.7 1645.03,-498.1 "/>
<text text-anchor="middle" x="1715.04" y="-481.5" font-family="Courier New" font-size="14.00">value</text>
<text text-anchor="middle" x="1715.04" y="-464.7" font-family="Courier New" font-size="14.00"> &#160;</text>
<polyline fill="none" stroke="black" points="1645.03,-456.5 1785.04,-456.5 "/>
<text text-anchor="middle" x="1715.04" y="-439.9" font-family="Courier New" font-size="14.00"> </text>
<polyline fill="none" stroke="black" points="1785.04,-431.7 1785.04,-498.1 "/>
<text text-anchor="middle" x="1926.45" y="-481.5" font-family="Courier New" font-size="14.00">type: variable (bytes)</text>
<text text-anchor="middle" x="1926.45" y="-464.7" font-family="Courier New" font-size="14.00">decoded data</text>
<polyline fill="none" stroke="black" points="1785.04,-456.5 2067.87,-456.5 "/>
<text text-anchor="middle" x="1926.35" y="-439.9" font-family="Courier New" font-size="14.00">ExampleStruct (192)</text>
</g>
<!-- 10&#45;&gt;9 -->
<g id="edge2" class="edge">
<title>10:25&#45;&gt;9</title>
<path fill="none" stroke="black" d="M997.35,-641.7C1207.67,-641.7 1443.72,-587.1 1601.45,-542.5"/>
<polygon fill="black" stroke="black" points="1602.59,-545.82 1611.25,-539.71 1600.67,-539.08 1602.59,-545.82"/>
</g>
<!-- 1 -->
<g id="node2" class="node">
<title>1</title>
<polygon fill="#f2f2f2" stroke="black" points="2739.81,-993.7 2739.81,-1201.7 3912.79,-1201.7 3912.79,-993.7 2739.81,-993.7"/>
<text text-anchor="middle" x="3326.3" y="-1185.1" font-family="Courier New" font-size="14.00">address[]: dynamicAddressArray &lt;&lt;Array&gt;&gt;</text>
<text text-anchor="middle" x="3326.3" y="-1168.3" font-family="Courier New" font-size="14.00">0xb10e2d527612073b26eecdfd717e6a320cf44b4afac2b0732d9fcbe2b7fa0cf6</text>
<polyline fill="none" stroke="black" points="2739.81,-1160.1 3912.79,-1160.1 "/>
<text text-anchor="middle" x="2773.01" y="-1143.5" font-family="Courier New" font-size="14.00">offset</text>
<text text-anchor="middle" x="2773.01" y="-1126.7" font-family="Courier New" font-size="14.00"> &#160;</text>
<polyline fill="none" stroke="black" points="2739.81,-1118.5 2806.22,-1118.5 "/>
<text text-anchor="middle" x="2773.01" y="-1101.9" font-family="Courier New" font-size="14.00">0</text>
<text text-anchor="middle" x="2773.01" y="-1085.1" font-family="Courier New" font-size="14.00"> &#160;</text>
<polyline fill="none" stroke="black" points="2739.81,-1076.9 2806.22,-1076.9 "/>
<text text-anchor="middle" x="2773.01" y="-1060.3" font-family="Courier New" font-size="14.00">1</text>
<text text-anchor="middle" x="2773.01" y="-1043.5" font-family="Courier New" font-size="14.00"> &#160;</text>
<polyline fill="none" stroke="black" points="2739.81,-1035.3 2806.22,-1035.3 "/>
<text text-anchor="middle" x="2773.01" y="-1018.7" font-family="Courier New" font-size="14.00">2</text>
<text text-anchor="middle" x="2773.01" y="-1001.9" font-family="Courier New" font-size="14.00"> </text>
<polyline fill="none" stroke="black" points="2806.22,-993.7 2806.22,-1160.1 "/>
<text text-anchor="middle" x="3091.46" y="-1143.5" font-family="Courier New" font-size="14.00">value</text>
<text text-anchor="middle" x="3091.46" y="-1126.7" font-family="Courier New" font-size="14.00"> &#160;</text>
<polyline fill="none" stroke="black" points="2806.22,-1118.5 3376.71,-1118.5 "/>
<text text-anchor="middle" x="3091.46" y="-1101.9" font-family="Courier New" font-size="14.00">0x000000000000000000000000EB4C2781E4EBA804CE9A9803C67D0893436BB27D</text>
<text text-anchor="middle" x="3091.46" y="-1085.1" font-family="Courier New" font-size="14.00"> &#160;</text>
<polyline fill="none" stroke="black" points="2806.22,-1076.9 3376.71,-1076.9 "/>
<text text-anchor="middle" x="3091.46" y="-1060.3" font-family="Courier New" font-size="14.00">0x000000000000000000000000FE18BE6B3BD88A2D2A7F928D00292E7A9963CFC6</text>
<text text-anchor="middle" x="3091.46" y="-1043.5" font-family="Courier New" font-size="14.00"> &#160;</text>
<polyline fill="none" stroke="black" points="2806.22,-1035.3 3376.71,-1035.3 "/>
<text text-anchor="middle" x="3091.46" y="-1018.7" font-family="Courier New" font-size="14.00">0x000000000000000000000000DBDB4D16EDA451D0503B854CF79D55697F90C8DF</text>
<text text-anchor="middle" x="3091.46" y="-1001.9" font-family="Courier New" font-size="14.00"> </text>
<polyline fill="none" stroke="black" points="3376.71,-993.7 3376.71,-1160.1 "/>
<text text-anchor="middle" x="3644.75" y="-1143.5" font-family="Courier New" font-size="14.00">type: variable (bytes)</text>
<text text-anchor="middle" x="3644.75" y="-1126.7" font-family="Courier New" font-size="14.00">decoded data</text>
<polyline fill="none" stroke="black" points="3376.71,-1118.5 3912.79,-1118.5 "/>
<text text-anchor="middle" x="3451.92" y="-1093.5" font-family="Courier New" font-size="14.00">unallocated (12)</text>
<polyline fill="none" stroke="black" points="3527.13,-1076.9 3527.13,-1118.5 "/>
<text text-anchor="middle" x="3719.96" y="-1101.9" font-family="Courier New" font-size="14.00">address (20)</text>
<text text-anchor="middle" x="3719.96" y="-1085.1" font-family="Courier New" font-size="14.00"> 0xEB4C2781e4ebA804CE9a9803C67d0893436bB27D </text>
<polyline fill="none" stroke="black" points="3376.71,-1076.9 3912.79,-1076.9 "/>
<text text-anchor="middle" x="3451.92" y="-1051.9" font-family="Courier New" font-size="14.00">unallocated (12)</text>
<polyline fill="none" stroke="black" points="3527.13,-1035.3 3527.13,-1076.9 "/>
<text text-anchor="middle" x="3719.96" y="-1060.3" font-family="Courier New" font-size="14.00">address (20)</text>
<text text-anchor="middle" x="3719.96" y="-1043.5" font-family="Courier New" font-size="14.00"> 0xfE18be6b3Bd88A2D2A7f928d00292E7a9963CfC6 </text>
<polyline fill="none" stroke="black" points="3376.71,-1035.3 3912.79,-1035.3 "/>
<text text-anchor="middle" x="3451.92" y="-1010.3" font-family="Courier New" font-size="14.00">unallocated (12)</text>
<polyline fill="none" stroke="black" points="3527.13,-993.7 3527.13,-1035.3 "/>
<text text-anchor="middle" x="3719.96" y="-1018.7" font-family="Courier New" font-size="14.00">address (20)</text>
<text text-anchor="middle" x="3719.96" y="-1001.9" font-family="Courier New" font-size="14.00"> 0xdBdb4d16EdA451D0503b854CF79D55697F90c8DF </text>
</g>
<!-- 2 -->
<g id="node3" class="node">
<title>2</title>
<polygon fill="#f2f2f2" stroke="black" points="2799.42,-850.3 2799.42,-975.1 3853.18,-975.1 3853.18,-850.3 2799.42,-850.3"/>
<text text-anchor="middle" x="3326.3" y="-958.5" font-family="Courier New" font-size="14.00">int64[]: dynamicIntArray &lt;&lt;Array&gt;&gt;</text>
<text text-anchor="middle" x="3326.3" y="-941.7" font-family="Courier New" font-size="14.00">0x405787fa12a823e0f2b7631cc41b3ba8828b3321ca811111fa75cd3aa3bb5ace</text>
<polyline fill="none" stroke="black" points="2799.42,-933.5 3853.18,-933.5 "/>
<text text-anchor="middle" x="2832.62" y="-916.9" font-family="Courier New" font-size="14.00">offset</text>
<text text-anchor="middle" x="2832.62" y="-900.1" font-family="Courier New" font-size="14.00"> &#160;</text>
<polyline fill="none" stroke="black" points="2799.42,-891.9 2865.83,-891.9 "/>
<text text-anchor="middle" x="2832.62" y="-875.3" font-family="Courier New" font-size="14.00">0</text>
<text text-anchor="middle" x="2832.62" y="-858.5" font-family="Courier New" font-size="14.00"> </text>
<polyline fill="none" stroke="black" points="2865.83,-850.3 2865.83,-933.5 "/>
<text text-anchor="middle" x="3151.07" y="-916.9" font-family="Courier New" font-size="14.00">value</text>
<text text-anchor="middle" x="3151.07" y="-900.1" font-family="Courier New" font-size="14.00"> &#160;</text>
<polyline fill="none" stroke="black" points="2865.83,-891.9 3436.32,-891.9 "/>
<text text-anchor="middle" x="3151.07" y="-875.3" font-family="Courier New" font-size="14.00">0x000000000000000000000000000003FFFFFFFFFFFFFFFFFF0000000000000001</text>
<text text-anchor="middle" x="3151.07" y="-858.5" font-family="Courier New" font-size="14.00"> </text>
<polyline fill="none" stroke="black" points="3436.32,-850.3 3436.32,-933.5 "/>
<text text-anchor="middle" x="3644.75" y="-916.9" font-family="Courier New" font-size="14.00">type: variable (bytes)</text>
<text text-anchor="middle" x="3644.75" y="-900.1" font-family="Courier New" font-size="14.00">decoded data</text>
<polyline fill="none" stroke="black" points="3436.32,-891.9 3853.18,-891.9 "/>
<text text-anchor="middle" x="3507.33" y="-866.9" font-family="Courier New" font-size="14.00">unallocated (8)</text>
<polyline fill="none" stroke="black" points="3578.34,-850.3 3578.34,-891.9 "/>
<text text-anchor="middle" x="3624.15" y="-875.3" font-family="Courier New" font-size="14.00">int64 (8)</text>
<text text-anchor="middle" x="3624.15" y="-858.5" font-family="Courier New" font-size="14.00"> 1,023 &#160;</text>
<polyline fill="none" stroke="black" points="3669.95,-850.3 3669.95,-891.9 "/>
<text text-anchor="middle" x="3715.76" y="-875.3" font-family="Courier New" font-size="14.00">int64 (8)</text>
<text text-anchor="middle" x="3715.76" y="-858.5" font-family="Courier New" font-size="14.00"> &#45;1 &#160;</text>
<polyline fill="none" stroke="black" points="3761.56,-850.3 3761.56,-891.9 "/>
<text text-anchor="middle" x="3807.37" y="-875.3" font-family="Courier New" font-size="14.00">int64 (8)</text>
<text text-anchor="middle" x="3807.37" y="-858.5" font-family="Courier New" font-size="14.00"> 1 </text>
</g>
<!-- 3 -->
<g id="node4" class="node">
<title>3</title>
<polygon fill="#f2f2f2" stroke="black" points="2915.84,-681.9 2915.84,-831.5 3736.76,-831.5 3736.76,-681.9 2915.84,-681.9"/>
<text text-anchor="middle" x="3326.3" y="-814.9" font-family="Courier New" font-size="14.00">uint256[2]: staticIntArray &lt;&lt;Array&gt;&gt;</text>
<polyline fill="none" stroke="black" points="2915.84,-806.7 3736.76,-806.7 "/>
<text text-anchor="middle" x="2940.64" y="-790.1" font-family="Courier New" font-size="14.00">slot</text>
<text text-anchor="middle" x="2940.64" y="-773.3" font-family="Courier New" font-size="14.00"> &#160;</text>
<polyline fill="none" stroke="black" points="2915.84,-765.1 2965.44,-765.1 "/>
<text text-anchor="middle" x="2940.64" y="-748.5" font-family="Courier New" font-size="14.00">3</text>
<text text-anchor="middle" x="2940.64" y="-731.7" font-family="Courier New" font-size="14.00"> &#160;</text>
<polyline fill="none" stroke="black" points="2915.84,-723.5 2965.44,-723.5 "/>
<text text-anchor="middle" x="2940.64" y="-706.9" font-family="Courier New" font-size="14.00">4</text>
<text text-anchor="middle" x="2940.64" y="-690.1" font-family="Courier New" font-size="14.00"> </text>
<polyline fill="none" stroke="black" points="2965.44,-681.9 2965.44,-806.7 "/>
<text text-anchor="middle" x="3250.69" y="-790.1" font-family="Courier New" font-size="14.00">value</text>
<text text-anchor="middle" x="3250.69" y="-773.3" font-family="Courier New" font-size="14.00"> &#160;</text>
<polyline fill="none" stroke="black" points="2965.44,-765.1 3535.93,-765.1 "/>
<text text-anchor="middle" x="3250.69" y="-748.5" font-family="Courier New" font-size="14.00">0x000000000000000000000000000000000000000000000000000000000000000B</text>
<text text-anchor="middle" x="3250.69" y="-731.7" font-family="Courier New" font-size="14.00"> &#160;</text>
<polyline fill="none" stroke="black" points="2965.44,-723.5 3535.93,-723.5 "/>
<text text-anchor="middle" x="3250.69" y="-706.9" font-family="Courier New" font-size="14.00">0x0000000000000000000000000000000000000000000000000000000000000016</text>
<text text-anchor="middle" x="3250.69" y="-690.1" font-family="Courier New" font-size="14.00"> </text>
<polyline fill="none" stroke="black" points="3535.93,-681.9 3535.93,-806.7 "/>
<text text-anchor="middle" x="3636.35" y="-790.1" font-family="Courier New" font-size="14.00">type: variable (bytes)</text>
<text text-anchor="middle" x="3636.35" y="-773.3" font-family="Courier New" font-size="14.00">decoded data</text>
<polyline fill="none" stroke="black" points="3535.93,-765.1 3736.76,-765.1 "/>
<text text-anchor="middle" x="3636.34" y="-748.5" font-family="Courier New" font-size="14.00">uint256 (32)</text>
<text text-anchor="middle" x="3636.34" y="-731.7" font-family="Courier New" font-size="14.00"> 11 </text>
<polyline fill="none" stroke="black" points="3535.93,-723.5 3736.76,-723.5 "/>
<text text-anchor="middle" x="3636.34" y="-706.9" font-family="Courier New" font-size="14.00">uint256 (32)</text>
<text text-anchor="middle" x="3636.34" y="-690.1" font-family="Courier New" font-size="14.00"> 22 </text>
</g>
<!-- 4&#45;&gt;1 -->
<g id="edge3" class="edge">
<title>4:5&#45;&gt;1</title>
<path fill="none" stroke="black" d="M2532.38,-831.7C2602.24,-831.7 2516.98,-937.39 2568.38,-984.7 2615.01,-1027.62 2670.54,-1058.46 2730.04,-1080.25"/>
<polygon fill="black" stroke="black" points="2729.03,-1083.6 2739.62,-1083.67 2731.38,-1077.01 2729.03,-1083.6"/>
</g>
<!-- 4&#45;&gt;2 -->
<g id="edge4" class="edge">
<title>4:7&#45;&gt;2</title>
<path fill="none" stroke="black" d="M2532.38,-789.7C2560.13,-789.7 2544.38,-826.78 2568.38,-840.7 2635.46,-879.59 2711.6,-904.43 2789.12,-919.61"/>
<polygon fill="black" stroke="black" points="2788.59,-923.08 2799.07,-921.51 2789.9,-916.2 2788.59,-923.08"/>
</g>
<!-- 4&#45;&gt;3 -->
<g id="edge5" class="edge">
<title>4:10&#45;&gt;3</title>
<path fill="none" stroke="black" d="M2532.38,-756.7C2653.56,-756.7 2785.15,-756.7 2905.67,-756.7"/>
<polygon fill="black" stroke="black" points="2905.8,-760.2 2915.8,-756.7 2905.8,-753.2 2905.8,-760.2"/>
</g>
<!-- 11 -->
<g id="node11" class="node">
<title>11</title>
<polygon fill="#f2f2f2" stroke="black" points="2848.62,-454.7 2848.62,-662.7 3803.97,-662.7 3803.97,-454.7 2848.62,-454.7"/>
<text text-anchor="middle" x="3326.3" y="-646.1" font-family="Courier New" font-size="14.00">string: someString &lt;&lt;String&gt;&gt;</text>
<text text-anchor="middle" x="3326.3" y="-629.3" font-family="Courier New" font-size="14.00">0x036b6384b5eca791c62761152d0c79bb0604c104a5fb6f4eb0703f3154bb3db0</text>
<polyline fill="none" stroke="black" points="2848.62,-621.1 3803.97,-621.1 "/>
<text text-anchor="middle" x="2881.83" y="-604.5" font-family="Courier New" font-size="14.00">offset</text>
<text text-anchor="middle" x="2881.83" y="-587.7" font-family="Courier New" font-size="14.00"> &#160;</text>
<polyline fill="none" stroke="black" points="2848.62,-579.5 2915.03,-579.5 "/>
<text text-anchor="middle" x="2881.83" y="-562.9" font-family="Courier New" font-size="14.00">0</text>
<text text-anchor="middle" x="2881.83" y="-546.1" font-family="Courier New" font-size="14.00"> &#160;</text>
<polyline fill="none" stroke="black" points="2848.62,-537.9 2915.03,-537.9 "/>
<text text-anchor="middle" x="2881.83" y="-521.3" font-family="Courier New" font-size="14.00">1</text>
<text text-anchor="middle" x="2881.83" y="-504.5" font-family="Courier New" font-size="14.00"> &#160;</text>
<polyline fill="none" stroke="black" points="2848.62,-496.3 2915.03,-496.3 "/>
<text text-anchor="middle" x="2881.83" y="-479.7" font-family="Courier New" font-size="14.00">2</text>
<text text-anchor="middle" x="2881.83" y="-462.9" font-family="Courier New" font-size="14.00"> </text>
<polyline fill="none" stroke="black" points="2915.03,-454.7 2915.03,-621.1 "/>
<text text-anchor="middle" x="3200.28" y="-604.5" font-family="Courier New" font-size="14.00">value</text>
<text text-anchor="middle" x="3200.28" y="-587.7" font-family="Courier New" font-size="14.00"> &#160;</text>
<polyline fill="none" stroke="black" points="2915.03,-579.5 3485.52,-579.5 "/>
<text text-anchor="middle" x="3200.28" y="-562.9" font-family="Courier New" font-size="14.00">0x6D6F7265207468616E20736978747920666F7572202836342920627974657320</text>
<text text-anchor="middle" x="3200.28" y="-546.1" font-family="Courier New" font-size="14.00"> &#160;</text>
<polyline fill="none" stroke="black" points="2915.03,-537.9 3485.52,-537.9 "/>
<text text-anchor="middle" x="3200.28" y="-521.3" font-family="Courier New" font-size="14.00">0x736F20646174612069732073746F7265642064796E616D6963616C6C7920696E</text>
<text text-anchor="middle" x="3200.28" y="-504.5" font-family="Courier New" font-size="14.00"> &#160;</text>
<polyline fill="none" stroke="black" points="2915.03,-496.3 3485.52,-496.3 "/>
<text text-anchor="middle" x="3200.28" y="-479.7" font-family="Courier New" font-size="14.00">0x20746872656520736C6F74730000000000000000000000000000000000000000</text>
<text text-anchor="middle" x="3200.28" y="-462.9" font-family="Courier New" font-size="14.00"> </text>
<polyline fill="none" stroke="black" points="3485.52,-454.7 3485.52,-621.1 "/>
<text text-anchor="middle" x="3644.75" y="-604.5" font-family="Courier New" font-size="14.00">type: variable (bytes)</text>
<text text-anchor="middle" x="3644.75" y="-587.7" font-family="Courier New" font-size="14.00">decoded data</text>
<polyline fill="none" stroke="black" points="3485.52,-579.5 3803.97,-579.5 "/>
<text text-anchor="middle" x="3644.75" y="-562.9" font-family="Courier New" font-size="14.00">string (32)</text>
<text text-anchor="middle" x="3644.75" y="-546.1" font-family="Courier New" font-size="14.00"> &quot;more than sixty four (64) bytes &quot; </text>
<polyline fill="none" stroke="black" points="3485.52,-537.9 3803.97,-537.9 "/>
<text text-anchor="middle" x="3644.75" y="-521.3" font-family="Courier New" font-size="14.00">string (32)</text>
<text text-anchor="middle" x="3644.75" y="-504.5" font-family="Courier New" font-size="14.00"> &quot;so data is stored dynamically in&quot; </text>
<polyline fill="none" stroke="black" points="3485.52,-496.3 3803.97,-496.3 "/>
<text text-anchor="middle" x="3564.93" y="-479.7" font-family="Courier New" font-size="14.00">string (12)</text>
<text text-anchor="middle" x="3564.93" y="-462.9" font-family="Courier New" font-size="14.00"> &quot; three slots&quot; &#160;</text>
<polyline fill="none" stroke="black" points="3644.35,-454.7 3644.35,-496.3 "/>
<text text-anchor="middle" x="3723.76" y="-471.3" font-family="Courier New" font-size="14.00">unallocated (20) </text>
</g>
<!-- 4&#45;&gt;11 -->
<g id="edge6" class="edge">
<title>4:11&#45;&gt;11</title>
<path fill="none" stroke="black" d="M2532.38,-723.7C2560.13,-723.7 2544.77,-687.27 2568.38,-672.7 2649.21,-622.83 2743.91,-591.92 2838.42,-573.27"/>
<polygon fill="black" stroke="black" points="2839.3,-576.66 2848.46,-571.33 2837.98,-569.79 2839.3,-576.66"/>
</g>
<!-- 5 -->
<g id="node6" class="node">
<title>5</title>
<polygon fill="#f2f2f2" stroke="black" points="4120.21,-330.3 4120.21,-455.1 5293.19,-455.1 5293.19,-330.3 4120.21,-330.3"/>
<text text-anchor="middle" x="4706.7" y="-438.5" font-family="Courier New" font-size="14.00">address[]: dynamicAddressArray &lt;&lt;Array&gt;&gt;</text>
<text text-anchor="middle" x="4706.7" y="-421.7" font-family="Courier New" font-size="14.00">0x768c3a22b1e4688c94525eb9bc2cf1ce7601fc9e871dc6e10fc44f0f06340ce1</text>
<polyline fill="none" stroke="black" points="4120.21,-413.5 5293.19,-413.5 "/>
<text text-anchor="middle" x="4153.42" y="-396.9" font-family="Courier New" font-size="14.00">offset</text>
<text text-anchor="middle" x="4153.42" y="-380.1" font-family="Courier New" font-size="14.00"> &#160;</text>
<polyline fill="none" stroke="black" points="4120.21,-371.9 4186.62,-371.9 "/>
<text text-anchor="middle" x="4153.42" y="-355.3" font-family="Courier New" font-size="14.00">0</text>
<text text-anchor="middle" x="4153.42" y="-338.5" font-family="Courier New" font-size="14.00"> </text>
<polyline fill="none" stroke="black" points="4186.62,-330.3 4186.62,-413.5 "/>
<text text-anchor="middle" x="4471.87" y="-396.9" font-family="Courier New" font-size="14.00">value</text>
<text text-anchor="middle" x="4471.87" y="-380.1" font-family="Courier New" font-size="14.00"> &#160;</text>
<polyline fill="none" stroke="black" points="4186.62,-371.9 4757.11,-371.9 "/>
<text text-anchor="middle" x="4471.87" y="-355.3" font-family="Courier New" font-size="14.00">0x0000000000000000000000002A0B4BDB2492EC4D8EA0015A6784ACC98216C5D2</text>
<text text-anchor="middle" x="4471.87" y="-338.5" font-family="Courier New" font-size="14.00"> </text>
<polyline fill="none" stroke="black" points="4757.11,-330.3 4757.11,-413.5 "/>
<text text-anchor="middle" x="5025.15" y="-396.9" font-family="Courier New" font-size="14.00">type: variable (bytes)</text>
<text text-anchor="middle" x="5025.15" y="-380.1" font-family="Courier New" font-size="14.00">decoded data</text>
<polyline fill="none" stroke="black" points="4757.11,-371.9 5293.19,-371.9 "/>
<text text-anchor="middle" x="4832.32" y="-346.9" font-family="Courier New" font-size="14.00">unallocated (12)</text>
<polyline fill="none" stroke="black" points="4907.53,-330.3 4907.53,-371.9 "/>
<text text-anchor="middle" x="5100.36" y="-355.3" font-family="Courier New" font-size="14.00">address (20)</text>
<text text-anchor="middle" x="5100.36" y="-338.5" font-family="Courier New" font-size="14.00"> 0x2A0b4Bdb2492eC4D8eA0015A6784ACC98216c5D2 </text>
</g>
<!-- 6 -->
<g id="node7" class="node">
<title>6</title>
<polygon fill="#f2f2f2" stroke="black" points="4221.43,-186.3 4221.43,-311.1 5191.98,-311.1 5191.98,-186.3 4221.43,-186.3"/>
<text text-anchor="middle" x="4706.7" y="-294.5" font-family="Courier New" font-size="14.00">int64[]: dynamicIntArray &lt;&lt;Array&gt;&gt;</text>
<text text-anchor="middle" x="4706.7" y="-277.7" font-family="Courier New" font-size="14.00">0xaf786ca8f985b8adb0de73df0052ad2ed91db8313035df9caa6938d80f1945c8</text>
<polyline fill="none" stroke="black" points="4221.43,-269.5 5191.98,-269.5 "/>
<text text-anchor="middle" x="4254.64" y="-252.9" font-family="Courier New" font-size="14.00">offset</text>
<text text-anchor="middle" x="4254.64" y="-236.1" font-family="Courier New" font-size="14.00"> &#160;</text>
<polyline fill="none" stroke="black" points="4221.43,-227.9 4287.84,-227.9 "/>
<text text-anchor="middle" x="4254.64" y="-211.3" font-family="Courier New" font-size="14.00">0</text>
<text text-anchor="middle" x="4254.64" y="-194.5" font-family="Courier New" font-size="14.00"> </text>
<polyline fill="none" stroke="black" points="4287.84,-186.3 4287.84,-269.5 "/>
<text text-anchor="middle" x="4573.08" y="-252.9" font-family="Courier New" font-size="14.00">value</text>
<text text-anchor="middle" x="4573.08" y="-236.1" font-family="Courier New" font-size="14.00"> &#160;</text>
<polyline fill="none" stroke="black" points="4287.84,-227.9 4858.33,-227.9 "/>
<text text-anchor="middle" x="4573.08" y="-211.3" font-family="Courier New" font-size="14.00">0x0000000000000000000000000000000000000000000008AE0000000000000457</text>
<text text-anchor="middle" x="4573.08" y="-194.5" font-family="Courier New" font-size="14.00"> </text>
<polyline fill="none" stroke="black" points="4858.33,-186.3 4858.33,-269.5 "/>
<text text-anchor="middle" x="5025.15" y="-252.9" font-family="Courier New" font-size="14.00">type: variable (bytes)</text>
<text text-anchor="middle" x="5025.15" y="-236.1" font-family="Courier New" font-size="14.00">decoded data</text>
<polyline fill="none" stroke="black" points="4858.33,-227.9 5191.98,-227.9 "/>
<text text-anchor="middle" x="4933.54" y="-202.9" font-family="Courier New" font-size="14.00">unallocated (16)</text>
<polyline fill="none" stroke="black" points="5008.75,-186.3 5008.75,-227.9 "/>
<text text-anchor="middle" x="5054.56" y="-211.3" font-family="Courier New" font-size="14.00">int64 (8)</text>
<text text-anchor="middle" x="5054.56" y="-194.5" font-family="Courier New" font-size="14.00"> 2,222 &#160;</text>
<polyline fill="none" stroke="black" points="5100.36,-186.3 5100.36,-227.9 "/>
<text text-anchor="middle" x="5146.17" y="-211.3" font-family="Courier New" font-size="14.00">int64 (8)</text>
<text text-anchor="middle" x="5146.17" y="-194.5" font-family="Courier New" font-size="14.00"> 1,111 </text>
</g>
<!-- 7 -->
<g id="node8" class="node">
<title>7</title>
<polygon fill="#f2f2f2" stroke="black" points="4287.84,-0.5 4287.84,-166.9 5125.57,-166.9 5125.57,-0.5 4287.84,-0.5"/>
<text text-anchor="middle" x="4706.7" y="-150.3" font-family="Courier New" font-size="14.00">uint256[2]: staticIntArray &lt;&lt;Array&gt;&gt;</text>
<text text-anchor="middle" x="4706.7" y="-133.5" font-family="Courier New" font-size="14.00">0xf652222313e28459528d920b65115c16c04f3efc82aaedc97be59f3f377c0d3f</text>
<polyline fill="none" stroke="black" points="4287.84,-125.3 5125.57,-125.3 "/>
<text text-anchor="middle" x="4321.04" y="-108.7" font-family="Courier New" font-size="14.00">offset</text>
<text text-anchor="middle" x="4321.04" y="-91.9" font-family="Courier New" font-size="14.00"> &#160;</text>
<polyline fill="none" stroke="black" points="4287.84,-83.7 4354.25,-83.7 "/>
<text text-anchor="middle" x="4321.04" y="-67.1" font-family="Courier New" font-size="14.00">3</text>
<text text-anchor="middle" x="4321.04" y="-50.3" font-family="Courier New" font-size="14.00"> &#160;</text>
<polyline fill="none" stroke="black" points="4287.84,-42.1 4354.25,-42.1 "/>
<text text-anchor="middle" x="4321.04" y="-25.5" font-family="Courier New" font-size="14.00">4</text>
<text text-anchor="middle" x="4321.04" y="-8.7" font-family="Courier New" font-size="14.00"> </text>
<polyline fill="none" stroke="black" points="4354.25,-0.5 4354.25,-125.3 "/>
<text text-anchor="middle" x="4639.49" y="-108.7" font-family="Courier New" font-size="14.00">value</text>
<text text-anchor="middle" x="4639.49" y="-91.9" font-family="Courier New" font-size="14.00"> &#160;</text>
<polyline fill="none" stroke="black" points="4354.25,-83.7 4924.74,-83.7 "/>
<text text-anchor="middle" x="4639.49" y="-67.1" font-family="Courier New" font-size="14.00">0x0000000000000000000000000000000000000000000000000000000000000021</text>
<text text-anchor="middle" x="4639.49" y="-50.3" font-family="Courier New" font-size="14.00"> &#160;</text>
<polyline fill="none" stroke="black" points="4354.25,-42.1 4924.74,-42.1 "/>
<text text-anchor="middle" x="4639.49" y="-25.5" font-family="Courier New" font-size="14.00">0x000000000000000000000000000000000000000000000000000000000000002C</text>
<text text-anchor="middle" x="4639.49" y="-8.7" font-family="Courier New" font-size="14.00"> </text>
<polyline fill="none" stroke="black" points="4924.74,-0.5 4924.74,-125.3 "/>
<text text-anchor="middle" x="5025.15" y="-108.7" font-family="Courier New" font-size="14.00">type: variable (bytes)</text>
<text text-anchor="middle" x="5025.15" y="-91.9" font-family="Courier New" font-size="14.00">decoded data</text>
<polyline fill="none" stroke="black" points="4924.74,-83.7 5125.57,-83.7 "/>
<text text-anchor="middle" x="5025.15" y="-67.1" font-family="Courier New" font-size="14.00">uint256 (32)</text>
<text text-anchor="middle" x="5025.15" y="-50.3" font-family="Courier New" font-size="14.00"> 33 </text>
<polyline fill="none" stroke="black" points="4924.74,-42.1 5125.57,-42.1 "/>
<text text-anchor="middle" x="5025.15" y="-25.5" font-family="Courier New" font-size="14.00">uint256 (32)</text>
<text text-anchor="middle" x="5025.15" y="-8.7" font-family="Courier New" font-size="14.00"> 44 </text>
</g>
<!-- 8 -->
<g id="node9" class="node">
<title>8</title>
<polygon fill="#f2f2f2" stroke="black" points="2568.38,-161.5 2568.38,-435.9 4084.21,-435.9 4084.21,-161.5 2568.38,-161.5"/>
<text text-anchor="middle" x="3326.3" y="-419.3" font-family="Courier New" font-size="14.00">ExampleStruct &lt;&lt;Struct&gt;&gt;</text>
<text text-anchor="middle" x="3326.3" y="-402.5" font-family="Courier New" font-size="14.00">0xf652222313e28459528d920b65115c16c04f3efc82aaedc97be59f3f377c0d3f</text>
<polyline fill="none" stroke="black" points="2568.38,-394.3 4084.21,-394.3 "/>
<text text-anchor="middle" x="2601.59" y="-377.7" font-family="Courier New" font-size="14.00">offset</text>
<text text-anchor="middle" x="2601.59" y="-360.9" font-family="Courier New" font-size="14.00"> &#160;</text>
<polyline fill="none" stroke="black" points="2568.38,-352.7 2634.79,-352.7 "/>
<text text-anchor="middle" x="2601.59" y="-336.1" font-family="Courier New" font-size="14.00">0</text>
<text text-anchor="middle" x="2601.59" y="-319.3" font-family="Courier New" font-size="14.00"> &#160;</text>
<polyline fill="none" stroke="black" points="2568.38,-311.1 2634.79,-311.1 "/>
<text text-anchor="middle" x="2601.59" y="-294.5" font-family="Courier New" font-size="14.00">1</text>
<text text-anchor="middle" x="2601.59" y="-277.7" font-family="Courier New" font-size="14.00"> &#160;</text>
<polyline fill="none" stroke="black" points="2568.38,-269.5 2634.79,-269.5 "/>
<text text-anchor="middle" x="2601.59" y="-252.9" font-family="Courier New" font-size="14.00">2</text>
<text text-anchor="middle" x="2601.59" y="-236.1" font-family="Courier New" font-size="14.00"> &#160;</text>
<polyline fill="none" stroke="black" points="2568.38,-227.9 2634.79,-227.9 "/>
<text text-anchor="middle" x="2601.59" y="-211.3" font-family="Courier New" font-size="14.00">3&#45;4 </text>
<polyline fill="none" stroke="black" points="2568.38,-203.1 2634.79,-203.1 "/>
<text text-anchor="middle" x="2601.59" y="-186.5" font-family="Courier New" font-size="14.00">5</text>
<text text-anchor="middle" x="2601.59" y="-169.7" font-family="Courier New" font-size="14.00"> </text>
<polyline fill="none" stroke="black" points="2634.79,-161.5 2634.79,-394.3 "/>
<text text-anchor="middle" x="2920.04" y="-377.7" font-family="Courier New" font-size="14.00">value</text>
<text text-anchor="middle" x="2920.04" y="-360.9" font-family="Courier New" font-size="14.00"> &#160;</text>
<polyline fill="none" stroke="black" points="2634.79,-352.7 3205.28,-352.7 "/>
<text text-anchor="middle" x="2920.04" y="-336.1" font-family="Courier New" font-size="14.00">0x000000000000000000000122E2219F098AB128F11BE752DA4FC8E1C6BA2F3F01</text>
<text text-anchor="middle" x="2920.04" y="-319.3" font-family="Courier New" font-size="14.00"> &#160;</text>
<polyline fill="none" stroke="black" points="2634.79,-311.1 3205.28,-311.1 "/>
<text text-anchor="middle" x="2920.04" y="-294.5" font-family="Courier New" font-size="14.00">0x0000000000000000000000000000000000000000000000000000000000000001</text>
<text text-anchor="middle" x="2920.04" y="-277.7" font-family="Courier New" font-size="14.00"> &#160;</text>
<polyline fill="none" stroke="black" points="2634.79,-269.5 3205.28,-269.5 "/>
<text text-anchor="middle" x="2920.04" y="-252.9" font-family="Courier New" font-size="14.00">0x0000000000000000000000000000000000000000000000000000000000000002</text>
<text text-anchor="middle" x="2920.04" y="-236.1" font-family="Courier New" font-size="14.00"> &#160;</text>
<polyline fill="none" stroke="black" points="2634.79,-227.9 3205.28,-227.9 "/>
<text text-anchor="middle" x="2920.04" y="-211.3" font-family="Courier New" font-size="14.00"> </text>
<polyline fill="none" stroke="black" points="2634.79,-203.1 3205.28,-203.1 "/>
<text text-anchor="middle" x="2920.04" y="-186.5" font-family="Courier New" font-size="14.00">0x612073686F727420737472696E6700000000000000000000000000000000001C</text>
<text text-anchor="middle" x="2920.04" y="-169.7" font-family="Courier New" font-size="14.00"> </text>
<polyline fill="none" stroke="black" points="3205.28,-161.5 3205.28,-394.3 "/>
<text text-anchor="middle" x="3644.75" y="-377.7" font-family="Courier New" font-size="14.00">type: variable (bytes)</text>
<text text-anchor="middle" x="3644.75" y="-360.9" font-family="Courier New" font-size="14.00">decoded data</text>
<polyline fill="none" stroke="black" points="3205.28,-352.7 4084.21,-352.7 "/>
<text text-anchor="middle" x="3280.49" y="-327.7" font-family="Courier New" font-size="14.00">unallocated (10)</text>
<polyline fill="none" stroke="black" points="3355.7,-311.1 3355.7,-352.7 "/>
<text text-anchor="middle" x="3456.12" y="-336.1" font-family="Courier New" font-size="14.00">Severity: severity (1)</text>
<text text-anchor="middle" x="3456.12" y="-319.3" font-family="Courier New" font-size="14.00"> Medium &#160;</text>
<polyline fill="none" stroke="black" points="3556.53,-311.1 3556.53,-352.7 "/>
<text text-anchor="middle" x="3753.56" y="-336.1" font-family="Courier New" font-size="14.00">address: token (20)</text>
<text text-anchor="middle" x="3753.56" y="-319.3" font-family="Courier New" font-size="14.00"> 0x22E2219F098Ab128F11BE752Da4fC8e1c6BA2F3f &#160;</text>
<polyline fill="none" stroke="black" points="3950.59,-311.1 3950.59,-352.7 "/>
<text text-anchor="middle" x="4017.4" y="-336.1" font-family="Courier New" font-size="14.00">bool: flag (1)</text>
<text text-anchor="middle" x="4017.4" y="-319.3" font-family="Courier New" font-size="14.00"> true </text>
<polyline fill="none" stroke="black" points="3205.28,-311.1 4084.21,-311.1 "/>
<text text-anchor="middle" x="3644.31" y="-294.5" font-family="Courier New" font-size="14.00">address[]: dynamicAddressArray (32)</text>
<text text-anchor="middle" x="3644.31" y="-277.7" font-family="Courier New" font-size="14.00"> 1 </text>
<polyline fill="none" stroke="black" points="3205.28,-269.5 4084.21,-269.5 "/>
<text text-anchor="middle" x="3644.6" y="-252.9" font-family="Courier New" font-size="14.00">int64[]: dynamicIntArray (32)</text>
<text text-anchor="middle" x="3644.6" y="-236.1" font-family="Courier New" font-size="14.00"> 2 </text>
<polyline fill="none" stroke="black" points="3205.28,-227.9 4084.21,-227.9 "/>
<text text-anchor="middle" x="3644.5" y="-211.3" font-family="Courier New" font-size="14.00">uint256[2]: staticIntArray (64)</text>
<polyline fill="none" stroke="black" points="3205.28,-203.1 4084.21,-203.1 "/>
<text text-anchor="middle" x="3644.4" y="-186.5" font-family="Courier New" font-size="14.00">string: someString (32)</text>
<text text-anchor="middle" x="3644.4" y="-169.7" font-family="Courier New" font-size="14.00"> &quot;a short string&quot; </text>
</g>
<!-- 8&#45;&gt;5 -->
<g id="edge7" class="edge">
<title>8:17&#45;&gt;5</title>
<path fill="none" stroke="black" d="M4084.21,-290.7C4105.04,-290.7 4101.1,-312.43 4120.21,-320.7 4124.75,-322.66 4129.32,-324.58 4133.92,-326.44"/>
<polygon fill="black" stroke="black" points="4132.84,-329.78 4143.42,-330.21 4135.42,-323.27 4132.84,-329.78"/>
</g>
<!-- 8&#45;&gt;6 -->
<g id="edge8" class="edge">
<title>8:19&#45;&gt;6</title>
<path fill="none" stroke="black" d="M4084.21,-248.7C4125.51,-248.7 4168.34,-248.7 4211.33,-248.7"/>
<polygon fill="black" stroke="black" points="4211.38,-252.2 4221.38,-248.7 4211.38,-245.2 4211.38,-252.2"/>
</g>
<!-- 8&#45;&gt;7 -->
<g id="edge9" class="edge">
<title>8:22&#45;&gt;7</title>
<path fill="none" stroke="black" d="M4084.21,-215.7C4107.8,-215.7 4099.42,-187.83 4120.21,-176.7 4168.9,-150.64 4222.9,-131.42 4277.84,-117.32"/>
<polygon fill="black" stroke="black" points="4278.9,-120.66 4287.74,-114.83 4277.19,-113.87 4278.9,-120.66"/>
</g>
<!-- 9&#45;&gt;8 -->
<g id="edge10" class="edge">
<title>9:24&#45;&gt;8</title>
<path fill="none" stroke="black" d="M2068.87,-443.7C2227.62,-443.7 2396.92,-432.13 2558.14,-415.54"/>
<polygon fill="black" stroke="black" points="2558.67,-419 2568.25,-414.49 2557.95,-412.04 2558.67,-419"/>
</g>
</g>
</svg>
