<?xml version="1.0" encoding="UTF-8" standalone="no"?>
<!DOCTYPE svg PUBLIC "-//W3C//DTD SVG 1.1//EN"
 "http://www.w3.org/Graphics/SVG/1.1/DTD/svg11.dtd">
<!-- Generated by graphviz version 5.0.0 (20220707.1540)
 -->
<!-- Title: StorageDiagram Pages: 1 -->
<svg width="2550pt" height="473pt"
 viewBox="0.00 0.00 2550.36 472.60" xmlns="http://www.w3.org/2000/svg" xmlns:xlink="http://www.w3.org/1999/xlink">
<g id="graph0" class="graph" transform="scale(1 1) rotate(0) translate(4 468.6)">
<title>StorageDiagram</title>
<polygon fill="white" stroke="transparent" points="-4,4 -4,-468.6 2546.36,-468.6 2546.36,4 -4,4"/>
<!-- 8 -->
<g id="node1" class="node">
<title>8</title>
<polygon fill="#f2f2f2" stroke="black" points="0,-227.9 0,-327.1 426.86,-327.1 426.86,-227.9 0,-227.9"/>
<text text-anchor="middle" x="213.43" y="-310.5" font-family="Courier New" font-size="14.00">StructStorage &lt;&lt;Contract&gt;&gt;</text>
<polyline fill="none" stroke="black" points="0,-302.3 426.86,-302.3 "/>
<text text-anchor="middle" x="24.8" y="-285.7" font-family="Courier New" font-size="14.00">slot</text>
<polyline fill="none" stroke="black" points="0,-277.5 49.61,-277.5 "/>
<text text-anchor="middle" x="24.8" y="-260.9" font-family="Courier New" font-size="14.00">0&#45;5</text>
<polyline fill="none" stroke="black" points="0,-252.7 49.61,-252.7 "/>
<text text-anchor="middle" x="24.8" y="-236.1" font-family="Courier New" font-size="14.00">6</text>
<polyline fill="none" stroke="black" points="49.61,-227.9 49.61,-302.3 "/>
<text text-anchor="middle" x="238.23" y="-285.7" font-family="Courier New" font-size="14.00">type: &lt;inherited contract&gt;.variable (bytes)</text>
<polyline fill="none" stroke="black" points="49.61,-277.5 426.86,-277.5 "/>
<text text-anchor="middle" x="237.93" y="-260.9" font-family="Courier New" font-size="14.00">ExampleStruct: exampleStruct (192)</text>
<polyline fill="none" stroke="black" points="49.61,-252.7 426.86,-252.7 "/>
<text text-anchor="middle" x="237.83" y="-236.1" font-family="Courier New" font-size="14.00">ExampleStruct[]: dynamicStructs (32)</text>
</g>
<!-- 3 -->
<g id="node4" class="node">
<title>3</title>
<polygon fill="#f2f2f2" stroke="black" points="462.86,-242.7 462.86,-416.3 1172.97,-416.3 1172.97,-242.7 462.86,-242.7"/>
<text text-anchor="middle" x="817.92" y="-399.7" font-family="Courier New" font-size="14.00">ExampleStruct &lt;&lt;Struct&gt;&gt;</text>
<polyline fill="none" stroke="black" points="462.86,-391.5 1172.97,-391.5 "/>
<text text-anchor="middle" x="487.67" y="-374.9" font-family="Courier New" font-size="14.00">slot</text>
<polyline fill="none" stroke="black" points="462.86,-366.7 512.47,-366.7 "/>
<text text-anchor="middle" x="487.67" y="-350.1" font-family="Courier New" font-size="14.00">0</text>
<polyline fill="none" stroke="black" points="462.86,-341.9 512.47,-341.9 "/>
<text text-anchor="middle" x="487.67" y="-325.3" font-family="Courier New" font-size="14.00">1</text>
<polyline fill="none" stroke="black" points="462.86,-317.1 512.47,-317.1 "/>
<text text-anchor="middle" x="487.67" y="-300.5" font-family="Courier New" font-size="14.00">2&#45;3</text>
<polyline fill="none" stroke="black" points="462.86,-292.3 512.47,-292.3 "/>
<text text-anchor="middle" x="487.67" y="-275.7" font-family="Courier New" font-size="14.00">4</text>
<polyline fill="none" stroke="black" points="462.86,-267.5 512.47,-267.5 "/>
<text text-anchor="middle" x="487.67" y="-250.9" font-family="Courier New" font-size="14.00">5</text>
<polyline fill="none" stroke="black" points="512.47,-242.7 512.47,-391.5 "/>
<text text-anchor="middle" x="842.72" y="-374.9" font-family="Courier New" font-size="14.00">type: variable (bytes)</text>
<polyline fill="none" stroke="black" points="512.47,-366.7 1172.97,-366.7 "/>
<text text-anchor="middle" x="587.68" y="-350.1" font-family="Courier New" font-size="14.00">unallocated (10)</text>
<polyline fill="none" stroke="black" points="662.89,-341.9 662.89,-366.7 "/>
<text text-anchor="middle" x="763.31" y="-350.1" font-family="Courier New" font-size="14.00">Severity: severity (1)</text>
<polyline fill="none" stroke="black" points="863.72,-341.9 863.72,-366.7 "/>
<text text-anchor="middle" x="951.53" y="-350.1" font-family="Courier New" font-size="14.00">address: token (20)</text>
<polyline fill="none" stroke="black" points="1039.35,-341.9 1039.35,-366.7 "/>
<text text-anchor="middle" x="1106.16" y="-350.1" font-family="Courier New" font-size="14.00">bool: flag (1)</text>
<polyline fill="none" stroke="black" points="512.47,-341.9 1172.97,-341.9 "/>
<text text-anchor="middle" x="842.49" y="-325.3" font-family="Courier New" font-size="14.00">address[]: dynamicAddressArray (32)</text>
<polyline fill="none" stroke="black" points="512.47,-317.1 1172.97,-317.1 "/>
<text text-anchor="middle" x="842.69" y="-300.5" font-family="Courier New" font-size="14.00">uint256[2]: staticIntArray (64)</text>
<polyline fill="none" stroke="black" points="512.47,-292.3 1172.97,-292.3 "/>
<text text-anchor="middle" x="842.59" y="-275.7" font-family="Courier New" font-size="14.00">string: someString (32)</text>
<polyline fill="none" stroke="black" points="512.47,-267.5 1172.97,-267.5 "/>
<text text-anchor="middle" x="842.3" y="-250.9" font-family="Courier New" font-size="14.00">mapping(address=&gt;uint256): claimed (32)</text>
</g>
<!-- 8&#45;&gt;3 -->
<g id="edge1" class="edge">
<title>8:11&#45;&gt;3</title>
<path fill="none" stroke="black" d="M426.86,-265.5C435.37,-265.5 443.97,-265.65 452.63,-265.94"/>
<polygon fill="black" stroke="black" points="452.7,-269.44 462.83,-266.33 452.97,-262.45 452.7,-269.44"/>
</g>
<!-- 7 -->
<g id="node8" class="node">
<title>7</title>
<polygon fill="#f2f2f2" stroke="black" points="532.67,-130.9 532.67,-222.1 1103.16,-222.1 1103.16,-130.9 532.67,-130.9"/>
<text text-anchor="middle" x="817.92" y="-205.5" font-family="Courier New" font-size="14.00">ExampleStruct[]: dynamicStructs &lt;&lt;Array&gt;&gt;</text>
<text text-anchor="middle" x="817.92" y="-188.7" font-family="Courier New" font-size="14.00">0xf652222313e28459528d920b65115c16c04f3efc82aaedc97be59f3f377c0d3f</text>
<polyline fill="none" stroke="black" points="532.67,-180.5 1103.16,-180.5 "/>
<text text-anchor="middle" x="641.37" y="-163.9" font-family="Courier New" font-size="14.00">offset</text>
<polyline fill="none" stroke="black" points="532.67,-155.7 750.08,-155.7 "/>
<text text-anchor="middle" x="641.37" y="-139.1" font-family="Courier New" font-size="14.00">0&#45;5</text>
<polyline fill="none" stroke="black" points="750.08,-130.9 750.08,-180.5 "/>
<text text-anchor="middle" x="926.49" y="-163.9" font-family="Courier New" font-size="14.00">type: variable (bytes)</text>
<polyline fill="none" stroke="black" points="750.08,-155.7 1102.91,-155.7 "/>
<text text-anchor="middle" x="926.39" y="-139.1" font-family="Courier New" font-size="14.00">ExampleStruct (192)</text>
</g>
<!-- 8&#45;&gt;7 -->
<g id="edge2" class="edge">
<title>8:23&#45;&gt;7</title>
<path fill="none" stroke="black" d="M426.86,-240.5C443.16,-240.5 446.82,-236.35 462.86,-233.5 482.22,-230.06 502.19,-226.6 522.33,-223.18"/>
<polygon fill="black" stroke="black" points="522.95,-226.63 532.23,-221.51 521.79,-219.72 522.95,-226.63"/>
</g>
<!-- 1 -->
<g id="node2" class="node">
<title>1</title>
<polygon fill="#f2f2f2" stroke="black" points="1287.17,-372.9 1287.17,-464.1 1857.66,-464.1 1857.66,-372.9 1287.17,-372.9"/>
<text text-anchor="middle" x="1572.42" y="-447.5" font-family="Courier New" font-size="14.00">address[]: dynamicAddressArray &lt;&lt;Array&gt;&gt;</text>
<text text-anchor="middle" x="1572.42" y="-430.7" font-family="Courier New" font-size="14.00">0xb10e2d527612073b26eecdfd717e6a320cf44b4afac2b0732d9fcbe2b7fa0cf6</text>
<polyline fill="none" stroke="black" points="1287.17,-422.5 1857.66,-422.5 "/>
<text text-anchor="middle" x="1379.38" y="-405.9" font-family="Courier New" font-size="14.00">offset</text>
<polyline fill="none" stroke="black" points="1287.17,-397.7 1471.58,-397.7 "/>
<text text-anchor="middle" x="1379.38" y="-381.1" font-family="Courier New" font-size="14.00">0</text>
<polyline fill="none" stroke="black" points="1471.58,-372.9 1471.58,-422.5 "/>
<text text-anchor="middle" x="1664.2" y="-405.9" font-family="Courier New" font-size="14.00">type: variable (bytes)</text>
<polyline fill="none" stroke="black" points="1471.58,-397.7 1856.82,-397.7 "/>
<text text-anchor="middle" x="1576.29" y="-381.1" font-family="Courier New" font-size="14.00">unallocated (12)</text>
<polyline fill="none" stroke="black" points="1681,-372.9 1681,-397.7 "/>
<text text-anchor="middle" x="1768.91" y="-381.1" font-family="Courier New" font-size="14.00">address (20)</text>
</g>
<!-- 2 -->
<g id="node3" class="node">
<title>2</title>
<polygon fill="#f2f2f2" stroke="black" points="1413.19,-254.9 1413.19,-354.1 1731.64,-354.1 1731.64,-254.9 1413.19,-254.9"/>
<text text-anchor="middle" x="1572.42" y="-337.5" font-family="Courier New" font-size="14.00">uint256[2]: staticIntArray &lt;&lt;Array&gt;&gt;</text>
<polyline fill="none" stroke="black" points="1413.19,-329.3 1731.64,-329.3 "/>
<text text-anchor="middle" x="1455" y="-312.7" font-family="Courier New" font-size="14.00">slot</text>
<polyline fill="none" stroke="black" points="1413.19,-304.5 1496.8,-304.5 "/>
<text text-anchor="middle" x="1455" y="-287.9" font-family="Courier New" font-size="14.00">2</text>
<polyline fill="none" stroke="black" points="1413.19,-279.7 1496.8,-279.7 "/>
<text text-anchor="middle" x="1455" y="-263.1" font-family="Courier New" font-size="14.00">3</text>
<polyline fill="none" stroke="black" points="1496.8,-254.9 1496.8,-329.3 "/>
<text text-anchor="middle" x="1614.22" y="-312.7" font-family="Courier New" font-size="14.00">type: variable (bytes)</text>
<polyline fill="none" stroke="black" points="1496.8,-304.5 1731.63,-304.5 "/>
<text text-anchor="middle" x="1614.21" y="-287.9" font-family="Courier New" font-size="14.00">uint256 (32)</text>
<polyline fill="none" stroke="black" points="1496.8,-279.7 1731.63,-279.7 "/>
<text text-anchor="middle" x="1614.21" y="-263.1" font-family="Courier New" font-size="14.00">uint256 (32)</text>
</g>
<!-- 3&#45;&gt;1 -->
<g id="edge3" class="edge">
<title>3:5&#45;&gt;1</title>
<path fill="none" stroke="black" d="M1172.97,-329.5C1194.97,-329.5 1189.19,-353.85 1208.97,-363.5 1230.46,-373.98 1253.45,-382.57 1277.04,-389.6"/>
<polygon fill="black" stroke="black" points="1276.25,-393.01 1286.82,-392.41 1278.18,-386.28 1276.25,-393.01"/>
</g>
<!-- 3&#45;&gt;2 -->
<g id="edge4" class="edge">
<title>3:8&#45;&gt;2</title>
<path fill="none" stroke="black" d="M1172.97,-304.5C1248.3,-304.5 1331.63,-304.5 1402.54,-304.5"/>
<polygon fill="black" stroke="black" points="1402.91,-308 1412.91,-304.5 1402.91,-301 1402.91,-308"/>
</g>
<!-- 4 -->
<g id="node5" class="node">
<title>4</title>
<polygon fill="#f2f2f2" stroke="black" points="1971.87,-135.9 1971.87,-227.1 2542.36,-227.1 2542.36,-135.9 1971.87,-135.9"/>
<text text-anchor="middle" x="2257.12" y="-210.5" font-family="Courier New" font-size="14.00">address[]: dynamicAddressArray &lt;&lt;Array&gt;&gt;</text>
<text text-anchor="middle" x="2257.12" y="-193.7" font-family="Courier New" font-size="14.00">0x768c3a22b1e4688c94525eb9bc2cf1ce7601fc9e871dc6e10fc44f0f06340ce1</text>
<polyline fill="none" stroke="black" points="1971.87,-185.5 2542.36,-185.5 "/>
<text text-anchor="middle" x="2064.08" y="-168.9" font-family="Courier New" font-size="14.00">offset</text>
<polyline fill="none" stroke="black" points="1971.87,-160.7 2156.28,-160.7 "/>
<text text-anchor="middle" x="2064.08" y="-144.1" font-family="Courier New" font-size="14.00">0</text>
<polyline fill="none" stroke="black" points="2156.28,-135.9 2156.28,-185.5 "/>
<text text-anchor="middle" x="2348.9" y="-168.9" font-family="Courier New" font-size="14.00">type: variable (bytes)</text>
<polyline fill="none" stroke="black" points="2156.28,-160.7 2541.52,-160.7 "/>
<text text-anchor="middle" x="2260.99" y="-144.1" font-family="Courier New" font-size="14.00">unallocated (12)</text>
<polyline fill="none" stroke="black" points="2365.7,-135.9 2365.7,-160.7 "/>
<text text-anchor="middle" x="2453.61" y="-144.1" font-family="Courier New" font-size="14.00">address (20)</text>
</g>
<!-- 5 -->
<g id="node6" class="node">
<title>5</title>
<polygon fill="#f2f2f2" stroke="black" points="1971.87,-0.5 1971.87,-116.5 2542.36,-116.5 2542.36,-0.5 1971.87,-0.5"/>
<text text-anchor="middle" x="2257.12" y="-99.9" font-family="Courier New" font-size="14.00">uint256[2]: staticIntArray &lt;&lt;Array&gt;&gt;</text>
<text text-anchor="middle" x="2257.12" y="-83.1" font-family="Courier New" font-size="14.00">0xf652222313e28459528d920b65115c16c04f3efc82aaedc97be59f3f377c0d3f</text>
<polyline fill="none" stroke="black" points="1971.87,-74.9 2542.36,-74.9 "/>
<text text-anchor="middle" x="2080.58" y="-58.3" font-family="Courier New" font-size="14.00">offset</text>
<polyline fill="none" stroke="black" points="1971.87,-50.1 2189.28,-50.1 "/>
<text text-anchor="middle" x="2080.58" y="-33.5" font-family="Courier New" font-size="14.00">2</text>
<polyline fill="none" stroke="black" points="1971.87,-25.3 2189.28,-25.3 "/>
<text text-anchor="middle" x="2080.58" y="-8.7" font-family="Courier New" font-size="14.00">3</text>
<polyline fill="none" stroke="black" points="2189.28,-0.5 2189.28,-74.9 "/>
<text text-anchor="middle" x="2365.7" y="-58.3" font-family="Courier New" font-size="14.00">type: variable (bytes)</text>
<polyline fill="none" stroke="black" points="2189.28,-50.1 2542.11,-50.1 "/>
<text text-anchor="middle" x="2365.69" y="-33.5" font-family="Courier New" font-size="14.00">uint256 (32)</text>
<polyline fill="none" stroke="black" points="2189.28,-25.3 2542.11,-25.3 "/>
<text text-anchor="middle" x="2365.69" y="-8.7" font-family="Courier New" font-size="14.00">uint256 (32)</text>
</g>
<!-- 6 -->
<g id="node7" class="node">
<title>6</title>
<polygon fill="#f2f2f2" stroke="black" points="1208.97,-45.3 1208.97,-235.7 1935.87,-235.7 1935.87,-45.3 1208.97,-45.3"/>
<text text-anchor="middle" x="1572.42" y="-219.1" font-family="Courier New" font-size="14.00">ExampleStruct &lt;&lt;Struct&gt;&gt;</text>
<text text-anchor="middle" x="1572.42" y="-202.3" font-family="Courier New" font-size="14.00">0xf652222313e28459528d920b65115c16c04f3efc82aaedc97be59f3f377c0d3f</text>
<polyline fill="none" stroke="black" points="1208.97,-194.1 1935.87,-194.1 "/>
<text text-anchor="middle" x="1242.17" y="-177.5" font-family="Courier New" font-size="14.00">offset</text>
<polyline fill="none" stroke="black" points="1208.97,-169.3 1275.38,-169.3 "/>
<text text-anchor="middle" x="1242.17" y="-152.7" font-family="Courier New" font-size="14.00">0</text>
<polyline fill="none" stroke="black" points="1208.97,-144.5 1275.38,-144.5 "/>
<text text-anchor="middle" x="1242.17" y="-127.9" font-family="Courier New" font-size="14.00">1</text>
<polyline fill="none" stroke="black" points="1208.97,-119.7 1275.38,-119.7 "/>
<text text-anchor="middle" x="1242.17" y="-103.1" font-family="Courier New" font-size="14.00">2&#45;3</text>
<polyline fill="none" stroke="black" points="1208.97,-94.9 1275.38,-94.9 "/>
<text text-anchor="middle" x="1242.17" y="-78.3" font-family="Courier New" font-size="14.00">4</text>
<polyline fill="none" stroke="black" points="1208.97,-70.1 1275.38,-70.1 "/>
<text text-anchor="middle" x="1242.17" y="-53.5" font-family="Courier New" font-size="14.00">5</text>
<polyline fill="none" stroke="black" points="1275.38,-45.3 1275.38,-194.1 "/>
<text text-anchor="middle" x="1605.62" y="-177.5" font-family="Courier New" font-size="14.00">type: variable (bytes)</text>
<polyline fill="none" stroke="black" points="1275.38,-169.3 1935.87,-169.3 "/>
<text text-anchor="middle" x="1350.59" y="-152.7" font-family="Courier New" font-size="14.00">unallocated (10)</text>
<polyline fill="none" stroke="black" points="1425.8,-144.5 1425.8,-169.3 "/>
<text text-anchor="middle" x="1526.21" y="-152.7" font-family="Courier New" font-size="14.00">Severity: severity (1)</text>
<polyline fill="none" stroke="black" points="1626.63,-144.5 1626.63,-169.3 "/>
<text text-anchor="middle" x="1714.44" y="-152.7" font-family="Courier New" font-size="14.00">address: token (20)</text>
<polyline fill="none" stroke="black" points="1802.25,-144.5 1802.25,-169.3 "/>
<text text-anchor="middle" x="1869.06" y="-152.7" font-family="Courier New" font-size="14.00">bool: flag (1)</text>
<polyline fill="none" stroke="black" points="1275.38,-144.5 1935.87,-144.5 "/>
<text text-anchor="middle" x="1605.4" y="-127.9" font-family="Courier New" font-size="14.00">address[]: dynamicAddressArray (32)</text>
<polyline fill="none" stroke="black" points="1275.38,-119.7 1935.87,-119.7 "/>
<text text-anchor="middle" x="1605.6" y="-103.1" font-family="Courier New" font-size="14.00">uint256[2]: staticIntArray (64)</text>
<polyline fill="none" stroke="black" points="1275.38,-94.9 1935.87,-94.9 "/>
<text text-anchor="middle" x="1605.49" y="-78.3" font-family="Courier New" font-size="14.00">string: someString (32)</text>
<polyline fill="none" stroke="black" points="1275.38,-70.1 1935.87,-70.1 "/>
<text text-anchor="middle" x="1605.2" y="-53.5" font-family="Courier New" font-size="14.00">mapping(address=&gt;uint256): claimed (32)</text>
</g>
<!-- 6&#45;&gt;4 -->
<g id="edge5" class="edge">
<title>6:16&#45;&gt;4</title>
<path fill="none" stroke="black" d="M1935.87,-132.5C1955.69,-132.5 1976.12,-133.43 1996.62,-135.03"/>
<polygon fill="black" stroke="black" points="1996.42,-138.53 2006.68,-135.87 1997.01,-131.55 1996.42,-138.53"/>
</g>
<!-- 6&#45;&gt;5 -->
<g id="edge6" class="edge">
<title>6:19&#45;&gt;5</title>
<path fill="none" stroke="black" d="M1935.87,-107.5C1944.36,-107.5 1952.96,-107.33 1961.63,-107.01"/>
<polygon fill="black" stroke="black" points="1962,-110.5 1971.84,-106.56 1961.7,-103.5 1962,-110.5"/>
</g>
<!-- 7&#45;&gt;6 -->
<g id="edge7" class="edge">
<title>7:22&#45;&gt;6</title>
<path fill="none" stroke="black" d="M1103.92,-143.5C1134.58,-143.5 1166.38,-143.43 1198.31,-143.32"/>
<polygon fill="black" stroke="black" points="1198.7,-146.82 1208.68,-143.29 1198.67,-139.82 1198.7,-146.82"/>
</g>
</g>
</svg>
