<?xml version="1.0" encoding="UTF-8" standalone="no"?>
<!DOCTYPE svg PUBLIC "-//W3C//DTD SVG 1.1//EN"
 "http://www.w3.org/Graphics/SVG/1.1/DTD/svg11.dtd">
<!-- Generated by graphviz version 5.0.0 (20220707.1540)
 -->
<!-- Title: StorageDiagram Pages: 1 -->
<svg width="4192pt" height="1005pt"
 viewBox="0.00 0.00 4192.23 1005.00" xmlns="http://www.w3.org/2000/svg" xmlns:xlink="http://www.w3.org/1999/xlink">
<g id="graph0" class="graph" transform="scale(1 1) rotate(0) translate(4 1001)">
<title>StorageDiagram</title>
<polygon fill="white" stroke="transparent" points="-4,4 -4,-1001 4188.23,-1001 4188.23,4 -4,4"/>
<!-- 10 -->
<g id="node1" class="node">
<title>10</title>
<polygon fill="#f2f2f2" stroke="black" points="0,-573.1 0,-929.9 586.49,-929.9 586.49,-573.1 0,-573.1"/>
<text text-anchor="middle" x="293.25" y="-913.3" font-family="Courier New" font-size="14.00">UniswapV3Pool &lt;&lt;Contract&gt;&gt;</text>
<text text-anchor="middle" x="293.25" y="-896.5" font-family="Courier New" font-size="14.00">0x8ad599c3A0ff1De082011EFDDc58f1908eb6e6D8</text>
<polyline fill="none" stroke="black" points="0,-888.3 586.49,-888.3 "/>
<text text-anchor="middle" x="37.4" y="-871.7" font-family="Courier New" font-size="14.00">slot</text>
<text text-anchor="middle" x="37.4" y="-854.9" font-family="Courier New" font-size="14.00"> &#160;</text>
<polyline fill="none" stroke="black" points="0,-846.7 74.81,-846.7 "/>
<text text-anchor="middle" x="37.4" y="-830.1" font-family="Courier New" font-size="14.00">0 </text>
<polyline fill="none" stroke="black" points="0,-821.9 74.81,-821.9 "/>
<text text-anchor="middle" x="37.4" y="-805.3" font-family="Courier New" font-size="14.00">1</text>
<text text-anchor="middle" x="37.4" y="-788.5" font-family="Courier New" font-size="14.00"> &#160;</text>
<polyline fill="none" stroke="black" points="0,-780.3 74.81,-780.3 "/>
<text text-anchor="middle" x="37.4" y="-763.7" font-family="Courier New" font-size="14.00">2</text>
<text text-anchor="middle" x="37.4" y="-746.9" font-family="Courier New" font-size="14.00"> &#160;</text>
<polyline fill="none" stroke="black" points="0,-738.7 74.81,-738.7 "/>
<text text-anchor="middle" x="37.4" y="-722.1" font-family="Courier New" font-size="14.00">3 </text>
<polyline fill="none" stroke="black" points="0,-713.9 74.81,-713.9 "/>
<text text-anchor="middle" x="37.4" y="-697.3" font-family="Courier New" font-size="14.00">4</text>
<text text-anchor="middle" x="37.4" y="-680.5" font-family="Courier New" font-size="14.00"> &#160;</text>
<polyline fill="none" stroke="black" points="0,-672.3 74.81,-672.3 "/>
<text text-anchor="middle" x="37.4" y="-655.7" font-family="Courier New" font-size="14.00">5 </text>
<polyline fill="none" stroke="black" points="0,-647.5 74.81,-647.5 "/>
<text text-anchor="middle" x="37.4" y="-630.9" font-family="Courier New" font-size="14.00">6 </text>
<polyline fill="none" stroke="black" points="0,-622.7 74.81,-622.7 "/>
<text text-anchor="middle" x="37.4" y="-606.1" font-family="Courier New" font-size="14.00">7 </text>
<polyline fill="none" stroke="black" points="0,-597.9 74.81,-597.9 "/>
<text text-anchor="middle" x="37.4" y="-581.3" font-family="Courier New" font-size="14.00">8&#45;65542</text>
<polyline fill="none" stroke="black" points="74.81,-573.1 74.81,-888.3 "/>
<text text-anchor="middle" x="330.65" y="-871.7" font-family="Courier New" font-size="14.00">type: &lt;inherited contract&gt;.variable (bytes)</text>
<text text-anchor="middle" x="330.65" y="-854.9" font-family="Courier New" font-size="14.00">decoded data</text>
<polyline fill="none" stroke="black" points="74.81,-846.7 586.49,-846.7 "/>
<text text-anchor="middle" x="330.22" y="-830.1" font-family="Courier New" font-size="14.00">Slot0: slot0 (32)</text>
<polyline fill="none" stroke="black" points="74.81,-821.9 586.49,-821.9 "/>
<text text-anchor="middle" x="330.24" y="-805.3" font-family="Courier New" font-size="14.00">uint256: feeGrowthGlobal0X128 (32)</text>
<text text-anchor="middle" x="330.24" y="-788.5" font-family="Courier New" font-size="14.00"> 3,141,575,753,618,902,314,861,380,396,755,079 </text>
<polyline fill="none" stroke="black" points="74.81,-780.3 586.49,-780.3 "/>
<text text-anchor="middle" x="330.65" y="-763.7" font-family="Courier New" font-size="14.00">uint256: feeGrowthGlobal1X128 (32)</text>
<text text-anchor="middle" x="330.65" y="-746.9" font-family="Courier New" font-size="14.00"> 1,476,837,458,243,011,038,905,158,664,011,357,740,202,680 </text>
<polyline fill="none" stroke="black" points="74.81,-738.7 586.49,-738.7 "/>
<text text-anchor="middle" x="330.53" y="-722.1" font-family="Courier New" font-size="14.00">ProtocolFees: protocolFees (32)</text>
<polyline fill="none" stroke="black" points="74.81,-713.9 586.49,-713.9 "/>
<text text-anchor="middle" x="179.52" y="-688.9" font-family="Courier New" font-size="14.00">unallocated (16)</text>
<polyline fill="none" stroke="black" points="284.23,-672.3 284.23,-713.9 "/>
<text text-anchor="middle" x="435.15" y="-697.3" font-family="Courier New" font-size="14.00">uint128: liquidity (16)</text>
<text text-anchor="middle" x="435.15" y="-680.5" font-family="Courier New" font-size="14.00"> 4,996,732,881,094,561,428 </text>
<polyline fill="none" stroke="black" points="74.81,-672.3 586.49,-672.3 "/>
<text text-anchor="middle" x="330.23" y="-655.7" font-family="Courier New" font-size="14.00">mapping(int24=&gt;Tick.Info): ticks (32)</text>
<polyline fill="none" stroke="black" points="74.81,-647.5 586.49,-647.5 "/>
<text text-anchor="middle" x="330.34" y="-630.9" font-family="Courier New" font-size="14.00">mapping(int16=&gt;uint256): tickBitmap (32)</text>
<polyline fill="none" stroke="black" points="74.81,-622.7 586.49,-622.7 "/>
<text text-anchor="middle" x="330.24" y="-606.1" font-family="Courier New" font-size="14.00">mapping(bytes32=&gt;Position.Info): positions (32)</text>
<polyline fill="none" stroke="black" points="74.81,-597.9 586.49,-597.9 "/>
<text text-anchor="middle" x="330.64" y="-581.3" font-family="Courier New" font-size="14.00">Oracle.Observation[65535]: observations (2097120)</text>
</g>
<!-- 1 -->
<g id="node2" class="node">
<title>1</title>
<polygon fill="#f2f2f2" stroke="black" points="622.49,-888.5 622.49,-996.5 2623.19,-996.5 2623.19,-888.5 622.49,-888.5"/>
<text text-anchor="middle" x="1622.84" y="-979.9" font-family="Courier New" font-size="14.00">Slot0 &lt;&lt;Struct&gt;&gt;</text>
<polyline fill="none" stroke="black" points="622.49,-971.7 2623.19,-971.7 "/>
<text text-anchor="middle" x="647.29" y="-955.1" font-family="Courier New" font-size="14.00">slot</text>
<text text-anchor="middle" x="647.29" y="-938.3" font-family="Courier New" font-size="14.00"> &#160;</text>
<polyline fill="none" stroke="black" points="622.49,-930.1 672.1,-930.1 "/>
<text text-anchor="middle" x="647.29" y="-913.5" font-family="Courier New" font-size="14.00">0</text>
<text text-anchor="middle" x="647.29" y="-896.7" font-family="Courier New" font-size="14.00"> </text>
<polyline fill="none" stroke="black" points="672.1,-888.5 672.1,-971.7 "/>
<text text-anchor="middle" x="1647.64" y="-955.1" font-family="Courier New" font-size="14.00">type: variable (bytes)</text>
<text text-anchor="middle" x="1647.64" y="-938.3" font-family="Courier New" font-size="14.00">decoded data</text>
<polyline fill="none" stroke="black" points="672.1,-930.1 2623.19,-930.1 "/>
<text text-anchor="middle" x="743.11" y="-905.1" font-family="Courier New" font-size="14.00">unallocated (1)</text>
<polyline fill="none" stroke="black" points="814.12,-888.5 814.12,-930.1 "/>
<text text-anchor="middle" x="897.73" y="-913.5" font-family="Courier New" font-size="14.00">bool: unlocked (1)</text>
<text text-anchor="middle" x="897.73" y="-896.7" font-family="Courier New" font-size="14.00"> true &#160;</text>
<polyline fill="none" stroke="black" points="981.34,-888.5 981.34,-930.1 "/>
<text text-anchor="middle" x="1081.76" y="-913.5" font-family="Courier New" font-size="14.00">uint8: feeProtocol (1)</text>
<text text-anchor="middle" x="1081.76" y="-896.7" font-family="Courier New" font-size="14.00"> 0 &#160;</text>
<polyline fill="none" stroke="black" points="1182.17,-888.5 1182.17,-930.1 "/>
<text text-anchor="middle" x="1349.8" y="-913.5" font-family="Courier New" font-size="14.00">uint16: observationCardinalityNext (2)</text>
<text text-anchor="middle" x="1349.8" y="-896.7" font-family="Courier New" font-size="14.00"> 1,440 &#160;</text>
<polyline fill="none" stroke="black" points="1517.42,-888.5 1517.42,-930.1 "/>
<text text-anchor="middle" x="1668.25" y="-913.5" font-family="Courier New" font-size="14.00">uint16: observationCardinality (2)</text>
<text text-anchor="middle" x="1668.25" y="-896.7" font-family="Courier New" font-size="14.00"> 1,440 &#160;</text>
<polyline fill="none" stroke="black" points="1819.07,-888.5 1819.07,-930.1 "/>
<text text-anchor="middle" x="1944.69" y="-913.5" font-family="Courier New" font-size="14.00">uint16: observationIndex (2)</text>
<text text-anchor="middle" x="1944.69" y="-896.7" font-family="Courier New" font-size="14.00"> 31 &#160;</text>
<polyline fill="none" stroke="black" points="2070.31,-888.5 2070.31,-930.1 "/>
<text text-anchor="middle" x="2141.32" y="-913.5" font-family="Courier New" font-size="14.00">int24: tick (3)</text>
<text text-anchor="middle" x="2141.32" y="-896.7" font-family="Courier New" font-size="14.00"> 202,341 &#160;</text>
<polyline fill="none" stroke="black" points="2212.33,-888.5 2212.33,-930.1 "/>
<text text-anchor="middle" x="2417.76" y="-913.5" font-family="Courier New" font-size="14.00">uint160: sqrtPriceX96 (20)</text>
<text text-anchor="middle" x="2417.76" y="-896.7" font-family="Courier New" font-size="14.00"> 1,960,848,261,529,737,969,238,681,445,726,839 </text>
</g>
<!-- 10&#45;&gt;1 -->
<g id="edge1" class="edge">
<title>10:8&#45;&gt;1</title>
<path fill="none" stroke="black" d="M586.25,-834.5C611.93,-834.5 599.69,-867.69 622.49,-879.5 625.34,-880.98 628.2,-882.43 631.07,-883.88"/>
<polygon fill="black" stroke="black" points="629.77,-887.13 640.28,-888.41 632.86,-880.85 629.77,-887.13"/>
</g>
<!-- 2 -->
<g id="node3" class="node">
<title>2</title>
<polygon fill="#f2f2f2" stroke="black" points="1414.01,-761.5 1414.01,-869.5 1831.67,-869.5 1831.67,-761.5 1414.01,-761.5"/>
<text text-anchor="middle" x="1622.84" y="-852.9" font-family="Courier New" font-size="14.00">ProtocolFees &lt;&lt;Struct&gt;&gt;</text>
<polyline fill="none" stroke="black" points="1414.01,-844.7 1831.67,-844.7 "/>
<text text-anchor="middle" x="1438.81" y="-828.1" font-family="Courier New" font-size="14.00">slot</text>
<text text-anchor="middle" x="1438.81" y="-811.3" font-family="Courier New" font-size="14.00"> &#160;</text>
<polyline fill="none" stroke="black" points="1414.01,-803.1 1463.62,-803.1 "/>
<text text-anchor="middle" x="1438.81" y="-786.5" font-family="Courier New" font-size="14.00">3</text>
<text text-anchor="middle" x="1438.81" y="-769.7" font-family="Courier New" font-size="14.00"> </text>
<polyline fill="none" stroke="black" points="1463.62,-761.5 1463.62,-844.7 "/>
<text text-anchor="middle" x="1647.64" y="-828.1" font-family="Courier New" font-size="14.00">type: variable (bytes)</text>
<text text-anchor="middle" x="1647.64" y="-811.3" font-family="Courier New" font-size="14.00">decoded data</text>
<polyline fill="none" stroke="black" points="1463.62,-803.1 1831.67,-803.1 "/>
<text text-anchor="middle" x="1555.63" y="-786.5" font-family="Courier New" font-size="14.00">uint128: token1 (16)</text>
<text text-anchor="middle" x="1555.63" y="-769.7" font-family="Courier New" font-size="14.00"> 0 &#160;</text>
<polyline fill="none" stroke="black" points="1647.64,-761.5 1647.64,-803.1 "/>
<text text-anchor="middle" x="1739.66" y="-786.5" font-family="Courier New" font-size="14.00">uint128: token0 (16)</text>
<text text-anchor="middle" x="1739.66" y="-769.7" font-family="Courier New" font-size="14.00"> 0 </text>
</g>
<!-- 10&#45;&gt;2 -->
<g id="edge2" class="edge">
<title>10:13&#45;&gt;2</title>
<path fill="none" stroke="black" d="M586.49,-726.5C605.97,-726.5 604.1,-745.09 622.49,-751.5 879.71,-841.18 1196.42,-845.06 1403.45,-834.57"/>
<polygon fill="black" stroke="black" points="1403.73,-838.06 1413.54,-834.04 1403.37,-831.07 1403.73,-838.06"/>
</g>
<!-- 3 -->
<g id="node4" class="node">
<title>3</title>
<polygon fill="#f2f2f2" stroke="black" points="1040.95,-576.7 1040.95,-742.3 2204.73,-742.3 2204.73,-576.7 1040.95,-576.7"/>
<text text-anchor="middle" x="1622.84" y="-725.7" font-family="Courier New" font-size="14.00">Info &lt;&lt;Struct&gt;&gt;</text>
<polyline fill="none" stroke="black" points="1040.95,-717.5 2204.73,-717.5 "/>
<text text-anchor="middle" x="1074.16" y="-700.9" font-family="Courier New" font-size="14.00">offset</text>
<text text-anchor="middle" x="1074.16" y="-684.1" font-family="Courier New" font-size="14.00"> &#160;</text>
<polyline fill="none" stroke="black" points="1040.95,-675.9 1107.36,-675.9 "/>
<text text-anchor="middle" x="1074.16" y="-659.3" font-family="Courier New" font-size="14.00">0 </text>
<polyline fill="none" stroke="black" points="1040.95,-651.1 1107.36,-651.1 "/>
<text text-anchor="middle" x="1074.16" y="-634.5" font-family="Courier New" font-size="14.00">1 </text>
<polyline fill="none" stroke="black" points="1040.95,-626.3 1107.36,-626.3 "/>
<text text-anchor="middle" x="1074.16" y="-609.7" font-family="Courier New" font-size="14.00">2 </text>
<polyline fill="none" stroke="black" points="1040.95,-601.5 1107.36,-601.5 "/>
<text text-anchor="middle" x="1074.16" y="-584.9" font-family="Courier New" font-size="14.00">3</text>
<polyline fill="none" stroke="black" points="1107.36,-576.7 1107.36,-717.5 "/>
<text text-anchor="middle" x="1656.05" y="-700.9" font-family="Courier New" font-size="14.00">type: variable (bytes)</text>
<text text-anchor="middle" x="1656.05" y="-684.1" font-family="Courier New" font-size="14.00">decoded data</text>
<polyline fill="none" stroke="black" points="1107.36,-675.9 2204.73,-675.9 "/>
<text text-anchor="middle" x="1375.38" y="-659.3" font-family="Courier New" font-size="14.00">int128: liquidityNet (16)</text>
<polyline fill="none" stroke="black" points="1643.4,-651.1 1643.4,-675.9 "/>
<text text-anchor="middle" x="1924.01" y="-659.3" font-family="Courier New" font-size="14.00">uint128: liquidityGross (16)</text>
<polyline fill="none" stroke="black" points="1107.36,-651.1 2204.73,-651.1 "/>
<text text-anchor="middle" x="1655.89" y="-634.5" font-family="Courier New" font-size="14.00">uint256: feeGrowthOutside0X128 (32)</text>
<polyline fill="none" stroke="black" points="1107.36,-626.3 2204.73,-626.3 "/>
<text text-anchor="middle" x="1655.89" y="-609.7" font-family="Courier New" font-size="14.00">uint256: feeGrowthOutside1X128 (32)</text>
<polyline fill="none" stroke="black" points="1107.36,-601.5 2204.73,-601.5 "/>
<text text-anchor="middle" x="1203.58" y="-584.9" font-family="Courier New" font-size="14.00">bool: initialized (1)</text>
<polyline fill="none" stroke="black" points="1299.79,-576.7 1299.79,-601.5 "/>
<text text-anchor="middle" x="1417.01" y="-584.9" font-family="Courier New" font-size="14.00">uint32: secondsOutside (4)</text>
<polyline fill="none" stroke="black" points="1534.23,-576.7 1534.23,-601.5 "/>
<text text-anchor="middle" x="1727.06" y="-584.9" font-family="Courier New" font-size="14.00">uint160: secondsPerLiquidityOutsideX128 (20)</text>
<polyline fill="none" stroke="black" points="1919.89,-576.7 1919.89,-601.5 "/>
<text text-anchor="middle" x="2062.31" y="-584.9" font-family="Courier New" font-size="14.00">int56: tickCumulativeOutside (7)</text>
</g>
<!-- 10&#45;&gt;3 -->
<g id="edge3" class="edge">
<title>10:23&#45;&gt;3</title>
<path fill="none" stroke="black" d="M586.25,-659.5C730.25,-659.5 885.52,-659.5 1030.91,-659.5"/>
<polygon fill="black" stroke="black" points="1030.92,-663 1040.92,-659.5 1030.92,-656 1030.92,-663"/>
</g>
<!-- 4 -->
<g id="node5" class="node">
<title>4</title>
<polygon fill="#f2f2f2" stroke="black" points="1040.95,-391.7 1040.95,-557.3 2204.73,-557.3 2204.73,-391.7 1040.95,-391.7"/>
<text text-anchor="middle" x="1622.84" y="-540.7" font-family="Courier New" font-size="14.00">Info &lt;&lt;Struct&gt;&gt;</text>
<polyline fill="none" stroke="black" points="1040.95,-532.5 2204.73,-532.5 "/>
<text text-anchor="middle" x="1074.16" y="-515.9" font-family="Courier New" font-size="14.00">offset</text>
<text text-anchor="middle" x="1074.16" y="-499.1" font-family="Courier New" font-size="14.00"> &#160;</text>
<polyline fill="none" stroke="black" points="1040.95,-490.9 1107.36,-490.9 "/>
<text text-anchor="middle" x="1074.16" y="-474.3" font-family="Courier New" font-size="14.00">0 </text>
<polyline fill="none" stroke="black" points="1040.95,-466.1 1107.36,-466.1 "/>
<text text-anchor="middle" x="1074.16" y="-449.5" font-family="Courier New" font-size="14.00">1 </text>
<polyline fill="none" stroke="black" points="1040.95,-441.3 1107.36,-441.3 "/>
<text text-anchor="middle" x="1074.16" y="-424.7" font-family="Courier New" font-size="14.00">2 </text>
<polyline fill="none" stroke="black" points="1040.95,-416.5 1107.36,-416.5 "/>
<text text-anchor="middle" x="1074.16" y="-399.9" font-family="Courier New" font-size="14.00">3</text>
<polyline fill="none" stroke="black" points="1107.36,-391.7 1107.36,-532.5 "/>
<text text-anchor="middle" x="1656.05" y="-515.9" font-family="Courier New" font-size="14.00">type: variable (bytes)</text>
<text text-anchor="middle" x="1656.05" y="-499.1" font-family="Courier New" font-size="14.00">decoded data</text>
<polyline fill="none" stroke="black" points="1107.36,-490.9 2204.73,-490.9 "/>
<text text-anchor="middle" x="1375.38" y="-474.3" font-family="Courier New" font-size="14.00">int128: liquidityNet (16)</text>
<polyline fill="none" stroke="black" points="1643.4,-466.1 1643.4,-490.9 "/>
<text text-anchor="middle" x="1924.01" y="-474.3" font-family="Courier New" font-size="14.00">uint128: liquidityGross (16)</text>
<polyline fill="none" stroke="black" points="1107.36,-466.1 2204.73,-466.1 "/>
<text text-anchor="middle" x="1655.89" y="-449.5" font-family="Courier New" font-size="14.00">uint256: feeGrowthOutside0X128 (32)</text>
<polyline fill="none" stroke="black" points="1107.36,-441.3 2204.73,-441.3 "/>
<text text-anchor="middle" x="1655.89" y="-424.7" font-family="Courier New" font-size="14.00">uint256: feeGrowthOutside1X128 (32)</text>
<polyline fill="none" stroke="black" points="1107.36,-416.5 2204.73,-416.5 "/>
<text text-anchor="middle" x="1203.58" y="-399.9" font-family="Courier New" font-size="14.00">bool: initialized (1)</text>
<polyline fill="none" stroke="black" points="1299.79,-391.7 1299.79,-416.5 "/>
<text text-anchor="middle" x="1417.01" y="-399.9" font-family="Courier New" font-size="14.00">uint32: secondsOutside (4)</text>
<polyline fill="none" stroke="black" points="1534.23,-391.7 1534.23,-416.5 "/>
<text text-anchor="middle" x="1727.06" y="-399.9" font-family="Courier New" font-size="14.00">uint160: secondsPerLiquidityOutsideX128 (20)</text>
<polyline fill="none" stroke="black" points="1919.89,-391.7 1919.89,-416.5 "/>
<text text-anchor="middle" x="2062.31" y="-399.9" font-family="Courier New" font-size="14.00">int56: tickCumulativeOutside (7)</text>
</g>
<!-- 10&#45;&gt;4 -->
<g id="edge4" class="edge">
<title>10:33&#45;&gt;4</title>
<path fill="none" stroke="black" d="M586.25,-610.5C611.24,-610.5 600.34,-579.08 622.49,-567.5 746.44,-502.72 890.89,-469.42 1030.82,-454.22"/>
<polygon fill="black" stroke="black" points="1031.31,-457.69 1040.88,-453.16 1030.57,-450.73 1031.31,-457.69"/>
</g>
<!-- 9 -->
<g id="node10" class="node">
<title>9</title>
<polygon fill="#f2f2f2" stroke="black" points="1409.01,-182.3 1409.01,-372.7 1836.67,-372.7 1836.67,-182.3 1409.01,-182.3"/>
<text text-anchor="middle" x="1622.84" y="-356.1" font-family="Courier New" font-size="14.00">Oracle.Observation[65535]: observations &lt;&lt;Array&gt;&gt;</text>
<polyline fill="none" stroke="black" points="1409.01,-347.9 1836.67,-347.9 "/>
<text text-anchor="middle" x="1486.31" y="-331.3" font-family="Courier New" font-size="14.00">slot</text>
<text text-anchor="middle" x="1486.31" y="-314.5" font-family="Courier New" font-size="14.00"> &#160;</text>
<polyline fill="none" stroke="black" points="1409.01,-306.3 1563.62,-306.3 "/>
<text text-anchor="middle" x="1486.31" y="-289.7" font-family="Courier New" font-size="14.00">8 </text>
<polyline fill="none" stroke="black" points="1409.01,-281.5 1563.62,-281.5 "/>
<text text-anchor="middle" x="1486.31" y="-264.9" font-family="Courier New" font-size="14.00">9 </text>
<polyline fill="none" stroke="black" points="1409.01,-256.7 1563.62,-256.7 "/>
<text text-anchor="middle" x="1486.31" y="-240.1" font-family="Courier New" font-size="14.00">10&#45;65540 </text>
<polyline fill="none" stroke="black" points="1409.01,-231.9 1563.62,-231.9 "/>
<text text-anchor="middle" x="1486.31" y="-215.3" font-family="Courier New" font-size="14.00">65541 </text>
<polyline fill="none" stroke="black" points="1409.01,-207.1 1563.62,-207.1 "/>
<text text-anchor="middle" x="1486.31" y="-190.5" font-family="Courier New" font-size="14.00">65542</text>
<polyline fill="none" stroke="black" points="1563.62,-182.3 1563.62,-347.9 "/>
<text text-anchor="middle" x="1699.74" y="-331.3" font-family="Courier New" font-size="14.00">type: variable (bytes)</text>
<text text-anchor="middle" x="1699.74" y="-314.5" font-family="Courier New" font-size="14.00">decoded data</text>
<polyline fill="none" stroke="black" points="1563.62,-306.3 1835.85,-306.3 "/>
<text text-anchor="middle" x="1699.74" y="-289.7" font-family="Courier New" font-size="14.00">Oracle.Observation (32)</text>
<polyline fill="none" stroke="black" points="1563.62,-281.5 1835.85,-281.5 "/>
<text text-anchor="middle" x="1699.74" y="-264.9" font-family="Courier New" font-size="14.00">Oracle.Observation (32)</text>
<polyline fill="none" stroke="black" points="1563.62,-256.7 1835.85,-256.7 "/>
<text text-anchor="middle" x="1699.43" y="-240.1" font-family="Courier New" font-size="14.00">&#45;&#45;&#45;&#45; (2096992)</text>
<polyline fill="none" stroke="black" points="1563.62,-231.9 1835.85,-231.9 "/>
<text text-anchor="middle" x="1699.74" y="-215.3" font-family="Courier New" font-size="14.00">Oracle.Observation (32)</text>
<polyline fill="none" stroke="black" points="1563.62,-207.1 1835.85,-207.1 "/>
<text text-anchor="middle" x="1699.74" y="-190.5" font-family="Courier New" font-size="14.00">Oracle.Observation (32)</text>
</g>
<!-- 10&#45;&gt;9 -->
<g id="edge5" class="edge">
<title>10:55&#45;&gt;9</title>
<path fill="none" stroke="black" d="M586.49,-585.5C678.12,-585.5 555.44,-444.96 622.49,-382.5 828.84,-190.27 1173.09,-198.95 1398.79,-231.45"/>
<polygon fill="black" stroke="black" points="1398.37,-234.93 1408.78,-232.91 1399.39,-228 1398.37,-234.93"/>
</g>
<!-- 5 -->
<g id="node6" class="node">
<title>5</title>
<polygon fill="#f2f2f2" stroke="black" points="2663.39,-381.5 2663.39,-489.5 4180.03,-489.5 4180.03,-381.5 2663.39,-381.5"/>
<text text-anchor="middle" x="3421.71" y="-472.9" font-family="Courier New" font-size="14.00">Oracle.Observation &lt;&lt;Struct&gt;&gt;</text>
<polyline fill="none" stroke="black" points="2663.39,-464.7 4180.03,-464.7 "/>
<text text-anchor="middle" x="2688.2" y="-448.1" font-family="Courier New" font-size="14.00">slot</text>
<text text-anchor="middle" x="2688.2" y="-431.3" font-family="Courier New" font-size="14.00"> &#160;</text>
<polyline fill="none" stroke="black" points="2663.39,-423.1 2713,-423.1 "/>
<text text-anchor="middle" x="2688.2" y="-406.5" font-family="Courier New" font-size="14.00">8</text>
<text text-anchor="middle" x="2688.2" y="-389.7" font-family="Courier New" font-size="14.00"> </text>
<polyline fill="none" stroke="black" points="2713,-381.5 2713,-464.7 "/>
<text text-anchor="middle" x="3446.51" y="-448.1" font-family="Courier New" font-size="14.00">type: variable (bytes)</text>
<text text-anchor="middle" x="3446.51" y="-431.3" font-family="Courier New" font-size="14.00">decoded data</text>
<polyline fill="none" stroke="black" points="2713,-423.1 4180.03,-423.1 "/>
<text text-anchor="middle" x="2859.62" y="-406.5" font-family="Courier New" font-size="14.00">bool: Observation.initialized (1)</text>
<text text-anchor="middle" x="2859.62" y="-389.7" font-family="Courier New" font-size="14.00"> true &#160;</text>
<polyline fill="none" stroke="black" points="3006.24,-381.5 3006.24,-423.1 "/>
<text text-anchor="middle" x="3262.08" y="-406.5" font-family="Courier New" font-size="14.00">uint160: Observation.secondsPerLiquidityCumulativeX128 (20)</text>
<text text-anchor="middle" x="3262.08" y="-389.7" font-family="Courier New" font-size="14.00"> 198,044,337,547,994,018,516,395,723,981,929,874,703,065 &#160;</text>
<polyline fill="none" stroke="black" points="3517.92,-381.5 3517.92,-423.1 "/>
<text text-anchor="middle" x="3681.35" y="-406.5" font-family="Courier New" font-size="14.00">int56: Observation.tickCumulative (7)</text>
<text text-anchor="middle" x="3681.35" y="-389.7" font-family="Courier New" font-size="14.00"> 14,751,938,758,702 &#160;</text>
<polyline fill="none" stroke="black" points="3844.77,-381.5 3844.77,-423.1 "/>
<text text-anchor="middle" x="4012.4" y="-406.5" font-family="Courier New" font-size="14.00">uint32: Observation.blockTimestamp (4)</text>
<text text-anchor="middle" x="4012.4" y="-389.7" font-family="Courier New" font-size="14.00"> 1,694,022,875 </text>
</g>
<!-- 6 -->
<g id="node7" class="node">
<title>6</title>
<polygon fill="#f2f2f2" stroke="black" points="2663.39,-254.5 2663.39,-362.5 4180.03,-362.5 4180.03,-254.5 2663.39,-254.5"/>
<text text-anchor="middle" x="3421.71" y="-345.9" font-family="Courier New" font-size="14.00">Oracle.Observation &lt;&lt;Struct&gt;&gt;</text>
<polyline fill="none" stroke="black" points="2663.39,-337.7 4180.03,-337.7 "/>
<text text-anchor="middle" x="2688.2" y="-321.1" font-family="Courier New" font-size="14.00">slot</text>
<text text-anchor="middle" x="2688.2" y="-304.3" font-family="Courier New" font-size="14.00"> &#160;</text>
<polyline fill="none" stroke="black" points="2663.39,-296.1 2713,-296.1 "/>
<text text-anchor="middle" x="2688.2" y="-279.5" font-family="Courier New" font-size="14.00">9</text>
<text text-anchor="middle" x="2688.2" y="-262.7" font-family="Courier New" font-size="14.00"> </text>
<polyline fill="none" stroke="black" points="2713,-254.5 2713,-337.7 "/>
<text text-anchor="middle" x="3446.51" y="-321.1" font-family="Courier New" font-size="14.00">type: variable (bytes)</text>
<text text-anchor="middle" x="3446.51" y="-304.3" font-family="Courier New" font-size="14.00">decoded data</text>
<polyline fill="none" stroke="black" points="2713,-296.1 4180.03,-296.1 "/>
<text text-anchor="middle" x="2859.62" y="-279.5" font-family="Courier New" font-size="14.00">bool: Observation.initialized (1)</text>
<text text-anchor="middle" x="2859.62" y="-262.7" font-family="Courier New" font-size="14.00"> true &#160;</text>
<polyline fill="none" stroke="black" points="3006.24,-254.5 3006.24,-296.1 "/>
<text text-anchor="middle" x="3262.08" y="-279.5" font-family="Courier New" font-size="14.00">uint160: Observation.secondsPerLiquidityCumulativeX128 (20)</text>
<text text-anchor="middle" x="3262.08" y="-262.7" font-family="Courier New" font-size="14.00"> 198,044,337,547,994,018,518,030,147,136,431,465,207,986 &#160;</text>
<polyline fill="none" stroke="black" points="3517.92,-254.5 3517.92,-296.1 "/>
<text text-anchor="middle" x="3681.35" y="-279.5" font-family="Courier New" font-size="14.00">int56: Observation.tickCumulative (7)</text>
<text text-anchor="middle" x="3681.35" y="-262.7" font-family="Courier New" font-size="14.00"> 14,751,943,615,102 &#160;</text>
<polyline fill="none" stroke="black" points="3844.77,-254.5 3844.77,-296.1 "/>
<text text-anchor="middle" x="4012.4" y="-279.5" font-family="Courier New" font-size="14.00">uint32: Observation.blockTimestamp (4)</text>
<text text-anchor="middle" x="4012.4" y="-262.7" font-family="Courier New" font-size="14.00"> 1,694,022,899 </text>
</g>
<!-- 7 -->
<g id="node8" class="node">
<title>7</title>
<polygon fill="#f2f2f2" stroke="black" points="2659.19,-127.5 2659.19,-235.5 4184.23,-235.5 4184.23,-127.5 2659.19,-127.5"/>
<text text-anchor="middle" x="3421.71" y="-218.9" font-family="Courier New" font-size="14.00">Oracle.Observation &lt;&lt;Struct&gt;&gt;</text>
<polyline fill="none" stroke="black" points="2659.19,-210.7 4184.23,-210.7 "/>
<text text-anchor="middle" x="2688.2" y="-194.1" font-family="Courier New" font-size="14.00">slot</text>
<text text-anchor="middle" x="2688.2" y="-177.3" font-family="Courier New" font-size="14.00"> &#160;</text>
<polyline fill="none" stroke="black" points="2659.19,-169.1 2717.2,-169.1 "/>
<text text-anchor="middle" x="2688.2" y="-152.5" font-family="Courier New" font-size="14.00">65541</text>
<text text-anchor="middle" x="2688.2" y="-135.7" font-family="Courier New" font-size="14.00"> </text>
<polyline fill="none" stroke="black" points="2717.2,-127.5 2717.2,-210.7 "/>
<text text-anchor="middle" x="3450.71" y="-194.1" font-family="Courier New" font-size="14.00">type: variable (bytes)</text>
<text text-anchor="middle" x="3450.71" y="-177.3" font-family="Courier New" font-size="14.00">decoded data</text>
<polyline fill="none" stroke="black" points="2717.2,-169.1 4184.23,-169.1 "/>
<text text-anchor="middle" x="2863.82" y="-152.5" font-family="Courier New" font-size="14.00">bool: Observation.initialized (1)</text>
<text text-anchor="middle" x="2863.82" y="-135.7" font-family="Courier New" font-size="14.00"> false &#160;</text>
<polyline fill="none" stroke="black" points="3010.44,-127.5 3010.44,-169.1 "/>
<text text-anchor="middle" x="3266.28" y="-152.5" font-family="Courier New" font-size="14.00">uint160: Observation.secondsPerLiquidityCumulativeX128 (20)</text>
<text text-anchor="middle" x="3266.28" y="-135.7" font-family="Courier New" font-size="14.00"> 0 &#160;</text>
<polyline fill="none" stroke="black" points="3522.12,-127.5 3522.12,-169.1 "/>
<text text-anchor="middle" x="3685.55" y="-152.5" font-family="Courier New" font-size="14.00">int56: Observation.tickCumulative (7)</text>
<text text-anchor="middle" x="3685.55" y="-135.7" font-family="Courier New" font-size="14.00"> 0 &#160;</text>
<polyline fill="none" stroke="black" points="3848.98,-127.5 3848.98,-169.1 "/>
<text text-anchor="middle" x="4016.6" y="-152.5" font-family="Courier New" font-size="14.00">uint32: Observation.blockTimestamp (4)</text>
<text text-anchor="middle" x="4016.6" y="-135.7" font-family="Courier New" font-size="14.00"> 0 </text>
</g>
<!-- 8 -->
<g id="node9" class="node">
<title>8</title>
<polygon fill="#f2f2f2" stroke="black" points="2659.19,-0.5 2659.19,-108.5 4184.23,-108.5 4184.23,-0.5 2659.19,-0.5"/>
<text text-anchor="middle" x="3421.71" y="-91.9" font-family="Courier New" font-size="14.00">Oracle.Observation &lt;&lt;Struct&gt;&gt;</text>
<polyline fill="none" stroke="black" points="2659.19,-83.7 4184.23,-83.7 "/>
<text text-anchor="middle" x="2688.2" y="-67.1" font-family="Courier New" font-size="14.00">slot</text>
<text text-anchor="middle" x="2688.2" y="-50.3" font-family="Courier New" font-size="14.00"> &#160;</text>
<polyline fill="none" stroke="black" points="2659.19,-42.1 2717.2,-42.1 "/>
<text text-anchor="middle" x="2688.2" y="-25.5" font-family="Courier New" font-size="14.00">65542</text>
<text text-anchor="middle" x="2688.2" y="-8.7" font-family="Courier New" font-size="14.00"> </text>
<polyline fill="none" stroke="black" points="2717.2,-0.5 2717.2,-83.7 "/>
<text text-anchor="middle" x="3450.71" y="-67.1" font-family="Courier New" font-size="14.00">type: variable (bytes)</text>
<text text-anchor="middle" x="3450.71" y="-50.3" font-family="Courier New" font-size="14.00">decoded data</text>
<polyline fill="none" stroke="black" points="2717.2,-42.1 4184.23,-42.1 "/>
<text text-anchor="middle" x="2863.82" y="-25.5" font-family="Courier New" font-size="14.00">bool: Observation.initialized (1)</text>
<text text-anchor="middle" x="2863.82" y="-8.7" font-family="Courier New" font-size="14.00"> false &#160;</text>
<polyline fill="none" stroke="black" points="3010.44,-0.5 3010.44,-42.1 "/>
<text text-anchor="middle" x="3266.28" y="-25.5" font-family="Courier New" font-size="14.00">uint160: Observation.secondsPerLiquidityCumulativeX128 (20)</text>
<text text-anchor="middle" x="3266.28" y="-8.7" font-family="Courier New" font-size="14.00"> 0 &#160;</text>
<polyline fill="none" stroke="black" points="3522.12,-0.5 3522.12,-42.1 "/>
<text text-anchor="middle" x="3685.55" y="-25.5" font-family="Courier New" font-size="14.00">int56: Observation.tickCumulative (7)</text>
<text text-anchor="middle" x="3685.55" y="-8.7" font-family="Courier New" font-size="14.00"> 0 &#160;</text>
<polyline fill="none" stroke="black" points="3848.98,-0.5 3848.98,-42.1 "/>
<text text-anchor="middle" x="4016.6" y="-25.5" font-family="Courier New" font-size="14.00">uint32: Observation.blockTimestamp (4)</text>
<text text-anchor="middle" x="4016.6" y="-8.7" font-family="Courier New" font-size="14.00"> 0 </text>
</g>
<!-- 9&#45;&gt;5 -->
<g id="edge6" class="edge">
<title>9:38&#45;&gt;5</title>
<path fill="none" stroke="black" d="M1836.84,-293.5C2204.01,-293.5 2293.48,-339.81 2659.19,-372.5 2689.3,-375.19 2720.08,-377.9 2751.17,-380.61"/>
<polygon fill="black" stroke="black" points="2751.01,-384.11 2761.28,-381.49 2751.62,-377.13 2751.01,-384.11"/>
</g>
<!-- 9&#45;&gt;6 -->
<g id="edge7" class="edge">
<title>9:39&#45;&gt;6</title>
<path fill="none" stroke="black" d="M1836.84,-269.5C2102.76,-269.5 2393.72,-275.06 2652.88,-281.99"/>
<polygon fill="black" stroke="black" points="2653.16,-285.49 2663.25,-282.26 2653.35,-278.5 2653.16,-285.49"/>
</g>
<!-- 9&#45;&gt;7 -->
<g id="edge8" class="edge">
<title>9:41&#45;&gt;7</title>
<path fill="none" stroke="black" d="M1836.84,-219.5C2101.32,-219.5 2390.56,-214.14 2648.66,-207.44"/>
<polygon fill="black" stroke="black" points="2649.08,-210.93 2658.98,-207.18 2648.9,-203.94 2649.08,-210.93"/>
</g>
<!-- 9&#45;&gt;8 -->
<g id="edge9" class="edge">
<title>9:42&#45;&gt;8</title>
<path fill="none" stroke="black" d="M1836.84,-194.5C2203.89,-194.5 2293.57,-150.76 2659.19,-118.5 2693.32,-115.49 2728.31,-112.43 2763.64,-109.38"/>
<polygon fill="black" stroke="black" points="2763.95,-112.86 2773.62,-108.51 2763.35,-105.89 2763.95,-112.86"/>
</g>
</g>
</svg>
