<?xml version="1.0" encoding="UTF-8" standalone="no"?>
<!DOCTYPE svg PUBLIC "-//W3C//DTD SVG 1.1//EN"
 "http://www.w3.org/Graphics/SVG/1.1/DTD/svg11.dtd">
<!-- Generated by graphviz version 5.0.0 (20220707.1540)
 -->
<!-- Title: UmlClassDiagram Pages: 1 -->
<svg width="2557pt" height="241pt"
 viewBox="0.00 0.00 2556.84 241.40" xmlns="http://www.w3.org/2000/svg" xmlns:xlink="http://www.w3.org/1999/xlink">
<g id="graph0" class="graph" transform="scale(1 1) rotate(0) translate(4 237.4)">
<title>UmlClassDiagram</title>
<polygon fill="white" stroke="transparent" points="-4,4 -4,-237.4 2552.84,-237.4 2552.84,4 -4,4"/>
<!-- 2 -->
<g id="node1" class="node">
<title>2</title>
<polygon fill="#f2f2f2" stroke="black" points="1125.09,-0.5 1125.09,-42.1 1450.17,-42.1 1450.17,-0.5 1125.09,-0.5"/>
<text text-anchor="middle" x="1287.63" y="-25.5" font-family="Times,serif" font-size="14.00">EntryPoint</text>
<text text-anchor="middle" x="1287.63" y="-8.7" font-family="Times,serif" font-size="14.00">../../../account&#45;abstraction/contracts/core/EntryPoint.sol</text>
</g>
<!-- 6 -->
<g id="node2" class="node">
<title>6</title>
<polygon fill="#f2f2f2" stroke="black" points="0,-87.5 0,-129.1 345.27,-129.1 345.27,-87.5 0,-87.5"/>
<text text-anchor="middle" x="172.63" y="-112.5" font-family="Times,serif" font-size="14.00">SenderCreator</text>
<text text-anchor="middle" x="172.63" y="-95.7" font-family="Times,serif" font-size="14.00">../../../account&#45;abstraction/contracts/core/SenderCreator.sol</text>
</g>
<!-- 2&#45;&gt;6 -->
<g id="edge4" class="edge">
<title>2&#45;&gt;6</title>
<path fill="none" stroke="black" d="M1124.83,-27.32C938.14,-34.19 623.12,-49.18 353.63,-78.6 335.18,-80.61 315.74,-83.2 296.72,-85.99"/>
<polygon fill="black" stroke="black" points="296.2,-82.53 286.82,-87.47 297.23,-89.46 296.2,-82.53"/>
</g>
<!-- 7 -->
<g id="node3" class="node">
<title>7</title>
<polygon fill="#f2f2f2" stroke="black" points="363,-79.1 363,-137.5 708.27,-137.5 708.27,-79.1 363,-79.1"/>
<text text-anchor="middle" x="535.63" y="-120.9" font-family="Times,serif" font-size="14.00">&lt;&lt;Abstract&gt;&gt;</text>
<text text-anchor="middle" x="535.63" y="-104.1" font-family="Times,serif" font-size="14.00">StakeManager</text>
<text text-anchor="middle" x="535.63" y="-87.3" font-family="Times,serif" font-size="14.00">../../../account&#45;abstraction/contracts/core/StakeManager.sol</text>
</g>
<!-- 2&#45;&gt;7 -->
<g id="edge2" class="edge">
<title>2&#45;&gt;7</title>
<path fill="none" stroke="black" d="M1124.9,-35.77C1018.32,-45.18 875.17,-58.92 738.49,-75.87"/>
<polygon fill="none" stroke="black" points="736.97,-65.48 708.53,-79.66 739.61,-86.32 736.97,-65.48"/>
</g>
<!-- 9 -->
<g id="node4" class="node">
<title>9</title>
<polygon fill="#f2f2f2" stroke="black" points="726.06,-79.1 726.06,-137.5 1089.2,-137.5 1089.2,-79.1 726.06,-79.1"/>
<text text-anchor="middle" x="907.63" y="-120.9" font-family="Times,serif" font-size="14.00">&lt;&lt;Interface&gt;&gt;</text>
<text text-anchor="middle" x="907.63" y="-104.1" font-family="Times,serif" font-size="14.00">IAggregator</text>
<text text-anchor="middle" x="907.63" y="-87.3" font-family="Times,serif" font-size="14.00">../../../account&#45;abstraction/contracts/interfaces/IAggregator.sol</text>
</g>
<!-- 2&#45;&gt;9 -->
<g id="edge5" class="edge">
<title>2&#45;&gt;9</title>
<path fill="none" stroke="black" stroke-dasharray="5,2" d="M1199.02,-42.12C1152.87,-52.44 1095.43,-65.29 1043.78,-76.85"/>
<polygon fill="black" stroke="black" points="1042.87,-73.46 1033.87,-79.06 1044.39,-80.3 1042.87,-73.46"/>
</g>
<!-- 10 -->
<g id="node5" class="node">
<title>10</title>
<polygon fill="#f2f2f2" stroke="black" points="1107.6,-79.1 1107.6,-137.5 1467.66,-137.5 1467.66,-79.1 1107.6,-79.1"/>
<text text-anchor="middle" x="1287.63" y="-120.9" font-family="Times,serif" font-size="14.00">&lt;&lt;Interface&gt;&gt;</text>
<text text-anchor="middle" x="1287.63" y="-104.1" font-family="Times,serif" font-size="14.00">IEntryPoint</text>
<text text-anchor="middle" x="1287.63" y="-87.3" font-family="Times,serif" font-size="14.00">../../../account&#45;abstraction/contracts/interfaces/IEntryPoint.sol</text>
</g>
<!-- 2&#45;&gt;10 -->
<g id="edge1" class="edge">
<title>2&#45;&gt;10</title>
<path fill="none" stroke="black" stroke-dasharray="5,2" d="M1287.63,-42.44C1287.63,-44.49 1287.63,-46.63 1287.63,-48.83"/>
<polygon fill="none" stroke="black" points="1277.13,-48.94 1287.63,-78.94 1298.13,-48.94 1277.13,-48.94"/>
</g>
<!-- 14 -->
<g id="node6" class="node">
<title>14</title>
<polygon fill="#f2f2f2" stroke="black" points="1485.78,-79.1 1485.78,-137.5 1843.49,-137.5 1843.49,-79.1 1485.78,-79.1"/>
<text text-anchor="middle" x="1664.63" y="-120.9" font-family="Times,serif" font-size="14.00">&lt;&lt;Interface&gt;&gt;</text>
<text text-anchor="middle" x="1664.63" y="-104.1" font-family="Times,serif" font-size="14.00">IPaymaster</text>
<text text-anchor="middle" x="1664.63" y="-87.3" font-family="Times,serif" font-size="14.00">../../../account&#45;abstraction/contracts/interfaces/IPaymaster.sol</text>
</g>
<!-- 2&#45;&gt;14 -->
<g id="edge6" class="edge">
<title>2&#45;&gt;14</title>
<path fill="none" stroke="black" stroke-dasharray="5,2" d="M1375.55,-42.12C1421.33,-52.44 1478.32,-65.29 1529.56,-76.85"/>
<polygon fill="black" stroke="black" points="1528.87,-80.28 1539.39,-79.06 1530.41,-73.45 1528.87,-80.28"/>
</g>
<!-- 20 -->
<g id="node8" class="node">
<title>20</title>
<polygon fill="#f2f2f2" stroke="black" points="1861.06,-79.1 1861.06,-137.5 2238.2,-137.5 2238.2,-79.1 1861.06,-79.1"/>
<text text-anchor="middle" x="2049.63" y="-120.9" font-family="Times,serif" font-size="14.00">&lt;&lt;Library&gt;&gt;</text>
<text text-anchor="middle" x="2049.63" y="-104.1" font-family="Times,serif" font-size="14.00">UserOperationLib</text>
<text text-anchor="middle" x="2049.63" y="-87.3" font-family="Times,serif" font-size="14.00">../../../account&#45;abstraction/contracts/interfaces/UserOperation.sol</text>
</g>
<!-- 2&#45;&gt;20 -->
<g id="edge3" class="edge">
<title>2&#45;&gt;20</title>
<path fill="none" stroke="black" stroke-dasharray="5,2" d="M1450.42,-36.55C1560.77,-46.68 1710.17,-61.31 1850.81,-78.4"/>
<polygon fill="black" stroke="black" points="1850.57,-81.89 1860.93,-79.63 1851.42,-74.94 1850.57,-81.89"/>
</g>
<!-- 43 -->
<g id="node9" class="node">
<title>43</title>
<polygon fill="#f2f2f2" stroke="black" points="2256.42,-79.1 2256.42,-137.5 2548.84,-137.5 2548.84,-79.1 2256.42,-79.1"/>
<text text-anchor="middle" x="2402.63" y="-120.9" font-family="Times,serif" font-size="14.00">&lt;&lt;Library&gt;&gt;</text>
<text text-anchor="middle" x="2402.63" y="-104.1" font-family="Times,serif" font-size="14.00">Exec</text>
<text text-anchor="middle" x="2402.63" y="-87.3" font-family="Times,serif" font-size="14.00">../../../account&#45;abstraction/contracts/utils/Exec.sol</text>
</g>
<!-- 2&#45;&gt;43 -->
<g id="edge7" class="edge">
<title>2&#45;&gt;43</title>
<path fill="none" stroke="black" stroke-dasharray="5,2" d="M1450.4,-25.68C1639.56,-31.01 1961.14,-44.42 2246.14,-78.48"/>
<polygon fill="black" stroke="black" points="2245.92,-81.97 2256.26,-79.7 2246.76,-75.02 2245.92,-81.97"/>
</g>
<!-- 16 -->
<g id="node7" class="node">
<title>16</title>
<polygon fill="#f2f2f2" stroke="black" points="721.51,-174.5 721.51,-232.9 1101.76,-232.9 1101.76,-174.5 721.51,-174.5"/>
<text text-anchor="middle" x="911.63" y="-216.3" font-family="Times,serif" font-size="14.00">&lt;&lt;Interface&gt;&gt;</text>
<text text-anchor="middle" x="911.63" y="-199.5" font-family="Times,serif" font-size="14.00">IStakeManager</text>
<text text-anchor="middle" x="911.63" y="-182.7" font-family="Times,serif" font-size="14.00">../../../account&#45;abstraction/contracts/interfaces/IStakeManager.sol</text>
</g>
<!-- 7&#45;&gt;16 -->
<g id="edge8" class="edge">
<title>7&#45;&gt;16</title>
<path fill="none" stroke="black" stroke-dasharray="5,2" d="M649.21,-137.51C686.86,-146.87 729.26,-157.4 768.81,-167.22"/>
<polygon fill="none" stroke="black" points="766.39,-177.44 798.04,-174.48 771.46,-157.06 766.39,-177.44"/>
</g>
<!-- 10&#45;&gt;16 -->
<g id="edge9" class="edge">
<title>10&#45;&gt;16</title>
<path fill="none" stroke="black" stroke-dasharray="5,2" d="M1174.06,-137.51C1136.41,-146.87 1094.01,-157.4 1054.45,-167.22"/>
<polygon fill="none" stroke="black" points="1051.81,-157.06 1025.23,-174.48 1056.87,-177.44 1051.81,-157.06"/>
</g>
</g>
</svg>
