<?xml version="1.0" encoding="UTF-8" standalone="no"?>
<!DOCTYPE svg PUBLIC "-//W3C//DTD SVG 1.1//EN"
 "http://www.w3.org/Graphics/SVG/1.1/DTD/svg11.dtd">
<!-- Generated by graphviz version 5.0.0 (20220707.1540)
 -->
<!-- Title: UmlClassDiagram Pages: 1 -->
<svg width="3613pt" height="1959pt"
 viewBox="0.00 0.00 3613.22 1958.60" xmlns="http://www.w3.org/2000/svg" xmlns:xlink="http://www.w3.org/1999/xlink">
<g id="graph0" class="graph" transform="scale(1 1) rotate(0) translate(4 1954.6)">
<title>UmlClassDiagram</title>
<polygon fill="white" stroke="transparent" points="-4,4 -4,-1954.6 3609.22,-1954.6 3609.22,4 -4,4"/>
<!-- 3 -->
<g id="node1" class="node">
<title>3</title>
<polygon fill="#f2f2f2" stroke="black" points="1844,-0.5 1844,-201.3 2169.08,-201.3 2169.08,-0.5 1844,-0.5"/>
<text text-anchor="middle" x="2006.54" y="-184.7" font-family="Times,serif" font-size="14.00">&lt;&lt;Struct&gt;&gt;</text>
<text text-anchor="middle" x="2006.54" y="-167.9" font-family="Times,serif" font-size="14.00">MemoryUserOp</text>
<text text-anchor="middle" x="2006.54" y="-151.1" font-family="Times,serif" font-size="14.00">../../../account&#45;abstraction/contracts/core/EntryPoint.sol</text>
<polyline fill="none" stroke="black" points="1844,-142.9 2169.08,-142.9 "/>
<text text-anchor="start" x="1852" y="-126.3" font-family="Times,serif" font-size="14.00">sender: address</text>
<text text-anchor="start" x="1852" y="-109.5" font-family="Times,serif" font-size="14.00">nonce: uint256</text>
<text text-anchor="start" x="1852" y="-92.7" font-family="Times,serif" font-size="14.00">callGasLimit: uint256</text>
<text text-anchor="start" x="1852" y="-75.9" font-family="Times,serif" font-size="14.00">verificationGasLimit: uint256</text>
<text text-anchor="start" x="1852" y="-59.1" font-family="Times,serif" font-size="14.00">preVerificationGas: uint256</text>
<text text-anchor="start" x="1852" y="-42.3" font-family="Times,serif" font-size="14.00">paymaster: address</text>
<text text-anchor="start" x="1852" y="-25.5" font-family="Times,serif" font-size="14.00">maxFeePerGas: uint256</text>
<text text-anchor="start" x="1852" y="-8.7" font-family="Times,serif" font-size="14.00">maxPriorityFeePerGas: uint256</text>
</g>
<!-- 2 -->
<g id="node3" class="node">
<title>2</title>
<polygon fill="#f2f2f2" stroke="black" points="1353.86,-238.3 1353.86,-1236.7 2659.22,-1236.7 2659.22,-238.3 1353.86,-238.3"/>
<text text-anchor="middle" x="2006.54" y="-1220.1" font-family="Times,serif" font-size="14.00">EntryPoint</text>
<text text-anchor="middle" x="2006.54" y="-1203.3" font-family="Times,serif" font-size="14.00">../../../account&#45;abstraction/contracts/core/EntryPoint.sol</text>
<polyline fill="none" stroke="black" points="1353.86,-1195.1 2659.22,-1195.1 "/>
<text text-anchor="start" x="1361.86" y="-1178.5" font-family="Times,serif" font-size="14.00">Private:</text>
<text text-anchor="start" x="1361.86" y="-1161.7" font-family="Times,serif" font-size="14.00"> &#160;&#160;senderCreator: SenderCreator &lt;&lt;EntryPoint&gt;&gt;</text>
<text text-anchor="start" x="1361.86" y="-1144.9" font-family="Times,serif" font-size="14.00"> &#160;&#160;SIMULATE_FIND_AGGREGATOR: address &lt;&lt;EntryPoint&gt;&gt;</text>
<text text-anchor="start" x="1361.86" y="-1128.1" font-family="Times,serif" font-size="14.00"> &#160;&#160;INNER_OUT_OF_GAS: bytes32 &lt;&lt;EntryPoint&gt;&gt;</text>
<text text-anchor="start" x="1361.86" y="-1111.3" font-family="Times,serif" font-size="14.00"> &#160;&#160;REVERT_REASON_MAX_LEN: uint256 &lt;&lt;EntryPoint&gt;&gt;</text>
<text text-anchor="start" x="1361.86" y="-1094.5" font-family="Times,serif" font-size="14.00">Public:</text>
<text text-anchor="start" x="1361.86" y="-1077.7" font-family="Times,serif" font-size="14.00"> &#160;&#160;deposits: mapping(address=&gt;DepositInfo) &lt;&lt;StakeManager&gt;&gt;</text>
<text text-anchor="start" x="1361.86" y="-1060.9" font-family="Times,serif" font-size="14.00"> &#160;&#160;SIG_VALIDATION_FAILED: uint256 &lt;&lt;EntryPoint&gt;&gt;</text>
<polyline fill="none" stroke="black" points="1353.86,-1052.7 2659.22,-1052.7 "/>
<text text-anchor="start" x="1361.86" y="-1036.1" font-family="Times,serif" font-size="14.00">Private:</text>
<text text-anchor="start" x="1361.86" y="-1019.3" font-family="Times,serif" font-size="14.00"> &#160;&#160;&#160;_executeUserOp(opIndex: uint256, userOp: UserOperation, opInfo: UserOpInfo): (collected: uint256) &lt;&lt;EntryPoint&gt;&gt;</text>
<text text-anchor="start" x="1361.86" y="-1002.5" font-family="Times,serif" font-size="14.00"> &#160;&#160;&#160;_validatePrepayment(opIndex: uint256, userOp: UserOperation, outOpInfo: UserOpInfo): (validationData: uint256, paymasterValidationData: uint256) &lt;&lt;EntryPoint&gt;&gt;</text>
<text text-anchor="start" x="1361.86" y="-985.7" font-family="Times,serif" font-size="14.00"> &#160;&#160;&#160;_handlePostOp(opIndex: uint256, mode: IPaymaster.PostOpMode, opInfo: UserOpInfo, context: bytes, actualGas: uint256): (actualGasCost: uint256) &lt;&lt;EntryPoint&gt;&gt;</text>
<text text-anchor="start" x="1361.86" y="-968.9" font-family="Times,serif" font-size="14.00">Internal:</text>
<text text-anchor="start" x="1361.86" y="-952.1" font-family="Times,serif" font-size="14.00"> &#160;&#160;&#160;_getStakeInfo(addr: address): (info: StakeInfo) &lt;&lt;StakeManager&gt;&gt;</text>
<text text-anchor="start" x="1361.86" y="-935.3" font-family="Times,serif" font-size="14.00"> &#160;&#160;&#160;_incrementDeposit(account: address, amount: uint256) &lt;&lt;StakeManager&gt;&gt;</text>
<text text-anchor="start" x="1361.86" y="-918.5" font-family="Times,serif" font-size="14.00"> &#160;&#160;&#160;_compensate(beneficiary: address, amount: uint256) &lt;&lt;EntryPoint&gt;&gt;</text>
<text text-anchor="start" x="1361.86" y="-901.7" font-family="Times,serif" font-size="14.00"> &#160;&#160;&#160;_copyUserOpToMemory(userOp: UserOperation, mUserOp: MemoryUserOp) &lt;&lt;EntryPoint&gt;&gt;</text>
<text text-anchor="start" x="1361.86" y="-884.9" font-family="Times,serif" font-size="14.00"> &#160;&#160;&#160;_getRequiredPrefund(mUserOp: MemoryUserOp): (requiredPrefund: uint256) &lt;&lt;EntryPoint&gt;&gt;</text>
<text text-anchor="start" x="1361.86" y="-868.1" font-family="Times,serif" font-size="14.00"> &#160;&#160;&#160;_createSenderIfNeeded(opIndex: uint256, opInfo: UserOpInfo, initCode: bytes) &lt;&lt;EntryPoint&gt;&gt;</text>
<text text-anchor="start" x="1361.86" y="-851.3" font-family="Times,serif" font-size="14.00"> &#160;&#160;&#160;_simulationOnlyValidations(userOp: UserOperation) &lt;&lt;EntryPoint&gt;&gt;</text>
<text text-anchor="start" x="1361.86" y="-834.5" font-family="Times,serif" font-size="14.00"> &#160;&#160;&#160;_validateAccountPrepayment(opIndex: uint256, op: UserOperation, opInfo: UserOpInfo, requiredPrefund: uint256): (gasUsedByValidateAccountPrepayment: uint256, validationData: uint256) &lt;&lt;EntryPoint&gt;&gt;</text>
<text text-anchor="start" x="1361.86" y="-817.7" font-family="Times,serif" font-size="14.00"> &#160;&#160;&#160;_validatePaymasterPrepayment(opIndex: uint256, op: UserOperation, opInfo: UserOpInfo, requiredPreFund: uint256, gasUsedByValidateAccountPrepayment: uint256): (context: bytes, validationData: uint256) &lt;&lt;EntryPoint&gt;&gt;</text>
<text text-anchor="start" x="1361.86" y="-800.9" font-family="Times,serif" font-size="14.00"> &#160;&#160;&#160;_validateAccountAndPaymasterValidationData(opIndex: uint256, validationData: uint256, paymasterValidationData: uint256, expectedAggregator: address) &lt;&lt;EntryPoint&gt;&gt;</text>
<text text-anchor="start" x="1361.86" y="-784.1" font-family="Times,serif" font-size="14.00"> &#160;&#160;&#160;_getValidationData(validationData: uint256): (aggregator: address, outOfTimeRange: bool) &lt;&lt;EntryPoint&gt;&gt;</text>
<text text-anchor="start" x="1361.86" y="-767.3" font-family="Times,serif" font-size="14.00"> &#160;&#160;&#160;getUserOpGasPrice(mUserOp: MemoryUserOp): uint256 &lt;&lt;EntryPoint&gt;&gt;</text>
<text text-anchor="start" x="1361.86" y="-750.5" font-family="Times,serif" font-size="14.00"> &#160;&#160;&#160;min(a: uint256, b: uint256): uint256 &lt;&lt;EntryPoint&gt;&gt;</text>
<text text-anchor="start" x="1361.86" y="-733.7" font-family="Times,serif" font-size="14.00"> &#160;&#160;&#160;getOffsetOfMemoryBytes(data: bytes): (offset: uint256) &lt;&lt;EntryPoint&gt;&gt;</text>
<text text-anchor="start" x="1361.86" y="-716.9" font-family="Times,serif" font-size="14.00"> &#160;&#160;&#160;getMemoryBytesFromOffset(offset: uint256): (data: bytes) &lt;&lt;EntryPoint&gt;&gt;</text>
<text text-anchor="start" x="1361.86" y="-700.1" font-family="Times,serif" font-size="14.00"> &#160;&#160;&#160;numberMarker() &lt;&lt;EntryPoint&gt;&gt;</text>
<text text-anchor="start" x="1361.86" y="-683.3" font-family="Times,serif" font-size="14.00">External:</text>
<text text-anchor="start" x="1361.86" y="-666.5" font-family="Times,serif" font-size="14.00"> &#160;&#160;&#160;&lt;&lt;payable&gt;&gt; null() &lt;&lt;StakeManager&gt;&gt;</text>
<text text-anchor="start" x="1361.86" y="-649.7" font-family="Times,serif" font-size="14.00"> &#160;&#160;&#160;unlockStake() &lt;&lt;StakeManager&gt;&gt;</text>
<text text-anchor="start" x="1361.86" y="-632.9" font-family="Times,serif" font-size="14.00"> &#160;&#160;&#160;withdrawStake(withdrawAddress: address) &lt;&lt;StakeManager&gt;&gt;</text>
<text text-anchor="start" x="1361.86" y="-616.1" font-family="Times,serif" font-size="14.00"> &#160;&#160;&#160;withdrawTo(withdrawAddress: address, withdrawAmount: uint256) &lt;&lt;StakeManager&gt;&gt;</text>
<text text-anchor="start" x="1361.86" y="-599.3" font-family="Times,serif" font-size="14.00"> &#160;&#160;&#160;simulateValidation(userOp: UserOperation) &lt;&lt;EntryPoint&gt;&gt;</text>
<text text-anchor="start" x="1361.86" y="-582.5" font-family="Times,serif" font-size="14.00"> &#160;&#160;&#160;simulateHandleOp(op: UserOperation, target: address, targetCallData: bytes) &lt;&lt;EntryPoint&gt;&gt;</text>
<text text-anchor="start" x="1361.86" y="-565.7" font-family="Times,serif" font-size="14.00"> &#160;&#160;&#160;innerHandleOp(callData: bytes, opInfo: UserOpInfo, context: bytes): (actualGasCost: uint256) &lt;&lt;EntryPoint&gt;&gt;</text>
<text text-anchor="start" x="1361.86" y="-548.9" font-family="Times,serif" font-size="14.00"> &#160;&#160;&#160;_validateSenderAndPaymaster(initCode: bytes, sender: address, paymasterAndData: bytes) &lt;&lt;EntryPoint&gt;&gt;</text>
<text text-anchor="start" x="1361.86" y="-532.1" font-family="Times,serif" font-size="14.00">Public:</text>
<text text-anchor="start" x="1361.86" y="-515.3" font-family="Times,serif" font-size="14.00"> &#160;&#160;&#160;&lt;&lt;payable&gt;&gt; depositTo(account: address) &lt;&lt;StakeManager&gt;&gt;</text>
<text text-anchor="start" x="1361.86" y="-498.5" font-family="Times,serif" font-size="14.00"> &#160;&#160;&#160;&lt;&lt;payable&gt;&gt; addStake(unstakeDelaySec: uint32) &lt;&lt;StakeManager&gt;&gt;</text>
<text text-anchor="start" x="1361.86" y="-481.7" font-family="Times,serif" font-size="14.00"> &#160;&#160;&#160;&lt;&lt;event&gt;&gt; Deposited(account: address, totalDeposit: uint256) &lt;&lt;IStakeManager&gt;&gt;</text>
<text text-anchor="start" x="1361.86" y="-464.9" font-family="Times,serif" font-size="14.00"> &#160;&#160;&#160;&lt;&lt;event&gt;&gt; Withdrawn(account: address, withdrawAddress: address, amount: uint256) &lt;&lt;IStakeManager&gt;&gt;</text>
<text text-anchor="start" x="1361.86" y="-448.1" font-family="Times,serif" font-size="14.00"> &#160;&#160;&#160;&lt;&lt;event&gt;&gt; StakeLocked(account: address, totalStaked: uint256, unstakeDelaySec: uint256) &lt;&lt;IStakeManager&gt;&gt;</text>
<text text-anchor="start" x="1361.86" y="-431.3" font-family="Times,serif" font-size="14.00"> &#160;&#160;&#160;&lt;&lt;event&gt;&gt; StakeUnlocked(account: address, withdrawTime: uint256) &lt;&lt;IStakeManager&gt;&gt;</text>
<text text-anchor="start" x="1361.86" y="-414.5" font-family="Times,serif" font-size="14.00"> &#160;&#160;&#160;&lt;&lt;event&gt;&gt; StakeWithdrawn(account: address, withdrawAddress: address, amount: uint256) &lt;&lt;IStakeManager&gt;&gt;</text>
<text text-anchor="start" x="1361.86" y="-397.7" font-family="Times,serif" font-size="14.00"> &#160;&#160;&#160;&lt;&lt;event&gt;&gt; UserOperationEvent(userOpHash: bytes32, sender: address, paymaster: address, nonce: uint256, success: bool, actualGasCost: uint256, actualGasUsed: uint256) &lt;&lt;IEntryPoint&gt;&gt;</text>
<text text-anchor="start" x="1361.86" y="-380.9" font-family="Times,serif" font-size="14.00"> &#160;&#160;&#160;&lt;&lt;event&gt;&gt; AccountDeployed(userOpHash: bytes32, sender: address, factory: address, paymaster: address) &lt;&lt;IEntryPoint&gt;&gt;</text>
<text text-anchor="start" x="1361.86" y="-364.1" font-family="Times,serif" font-size="14.00"> &#160;&#160;&#160;&lt;&lt;event&gt;&gt; UserOperationRevertReason(userOpHash: bytes32, sender: address, nonce: uint256, revertReason: bytes) &lt;&lt;IEntryPoint&gt;&gt;</text>
<text text-anchor="start" x="1361.86" y="-347.3" font-family="Times,serif" font-size="14.00"> &#160;&#160;&#160;&lt;&lt;event&gt;&gt; SignatureAggregatorChanged(aggregator: address) &lt;&lt;IEntryPoint&gt;&gt;</text>
<text text-anchor="start" x="1361.86" y="-330.5" font-family="Times,serif" font-size="14.00"> &#160;&#160;&#160;getDepositInfo(account: address): (info: DepositInfo) &lt;&lt;StakeManager&gt;&gt;</text>
<text text-anchor="start" x="1361.86" y="-313.7" font-family="Times,serif" font-size="14.00"> &#160;&#160;&#160;balanceOf(account: address): uint256 &lt;&lt;StakeManager&gt;&gt;</text>
<text text-anchor="start" x="1361.86" y="-296.9" font-family="Times,serif" font-size="14.00"> &#160;&#160;&#160;handleOps(ops: UserOperation[], beneficiary: address) &lt;&lt;EntryPoint&gt;&gt;</text>
<text text-anchor="start" x="1361.86" y="-280.1" font-family="Times,serif" font-size="14.00"> &#160;&#160;&#160;handleAggregatedOps(opsPerAggregator: UserOpsPerAggregator[], beneficiary: address) &lt;&lt;EntryPoint&gt;&gt;</text>
<text text-anchor="start" x="1361.86" y="-263.3" font-family="Times,serif" font-size="14.00"> &#160;&#160;&#160;getUserOpHash(userOp: UserOperation): bytes32 &lt;&lt;EntryPoint&gt;&gt;</text>
<text text-anchor="start" x="1361.86" y="-246.5" font-family="Times,serif" font-size="14.00"> &#160;&#160;&#160;getSenderAddress(initCode: bytes) &lt;&lt;EntryPoint&gt;&gt;</text>
</g>
<!-- 3&#45;&gt;2 -->
<g id="edge7" class="edge">
<title>3&#45;&gt;2</title>
<path fill="none" stroke="black" d="M2001.47,-201.41C2001.32,-209.23 2001.19,-217.39 2001.06,-225.86"/>
<polygon fill="black" stroke="black" points="2001.06,-226.01 2004.97,-232.07 2000.88,-238.01 1996.97,-231.96 2001.06,-226.01"/>
</g>
<!-- 4 -->
<g id="node2" class="node">
<title>4</title>
<polygon fill="#f2f2f2" stroke="black" points="0,-1290.5 0,-1440.9 325.08,-1440.9 325.08,-1290.5 0,-1290.5"/>
<text text-anchor="middle" x="162.54" y="-1424.3" font-family="Times,serif" font-size="14.00">&lt;&lt;Struct&gt;&gt;</text>
<text text-anchor="middle" x="162.54" y="-1407.5" font-family="Times,serif" font-size="14.00">UserOpInfo</text>
<text text-anchor="middle" x="162.54" y="-1390.7" font-family="Times,serif" font-size="14.00">../../../account&#45;abstraction/contracts/core/EntryPoint.sol</text>
<polyline fill="none" stroke="black" points="0,-1382.5 325.08,-1382.5 "/>
<text text-anchor="start" x="8" y="-1365.9" font-family="Times,serif" font-size="14.00">mUserOp: MemoryUserOp</text>
<text text-anchor="start" x="8" y="-1349.1" font-family="Times,serif" font-size="14.00">userOpHash: bytes32</text>
<text text-anchor="start" x="8" y="-1332.3" font-family="Times,serif" font-size="14.00">prefund: uint256</text>
<text text-anchor="start" x="8" y="-1315.5" font-family="Times,serif" font-size="14.00">contextOffset: uint256</text>
<text text-anchor="start" x="8" y="-1298.7" font-family="Times,serif" font-size="14.00">preOpGas: uint256</text>
</g>
<!-- 4&#45;&gt;3 -->
<g id="edge1" class="edge">
<title>4&#45;&gt;3</title>
<path fill="none" stroke="black" stroke-dasharray="5,2" d="M215.96,-1290.27C367.19,-1085.62 821.37,-511.5 1344.54,-237.8 1497.94,-157.55 1694.44,-124.66 1833.39,-111.2"/>
<polygon fill="black" stroke="black" points="1834.08,-114.65 1843.71,-110.22 1833.43,-107.68 1834.08,-114.65"/>
</g>
<!-- 4&#45;&gt;2 -->
<g id="edge8" class="edge">
<title>4&#45;&gt;2</title>
<path fill="none" stroke="black" d="M297.73,-1290.31C312.85,-1283.63 328.29,-1277.7 343.54,-1273.2 524.94,-1219.7 583.5,-1280.76 767.54,-1237.2 959.03,-1191.87 1159.81,-1122.28 1342.64,-1049.34"/>
<polygon fill="black" stroke="black" points="1342.68,-1049.32 1346.77,-1043.38 1353.82,-1044.86 1349.74,-1050.81 1342.68,-1049.32"/>
</g>
<!-- 2&#45;&gt;3 -->
<g id="edge18" class="edge">
<title>2&#45;&gt;3</title>
<path fill="none" stroke="black" stroke-dasharray="5,2" d="M2012.2,-238.01C2012.07,-228.88 2011.94,-220.05 2011.79,-211.57"/>
<polygon fill="black" stroke="black" points="2015.29,-211.34 2011.61,-201.41 2008.29,-211.47 2015.29,-211.34"/>
</g>
<!-- 2&#45;&gt;4 -->
<g id="edge15" class="edge">
<title>2&#45;&gt;4</title>
<path fill="none" stroke="black" stroke-dasharray="5,2" d="M1353.52,-1038.03C1162.53,-1115.04 950.91,-1189.53 749.54,-1237.2 565.5,-1280.76 506.94,-1219.7 325.54,-1273.2 313.39,-1276.78 301.11,-1281.28 289.03,-1286.34"/>
<polygon fill="black" stroke="black" points="287.63,-1283.13 279.84,-1290.31 290.41,-1289.56 287.63,-1283.13"/>
</g>
<!-- 5 -->
<g id="node4" class="node">
<title>5</title>
<polygon fill="#f2f2f2" stroke="black" points="343.57,-1307.3 343.57,-1424.1 651.51,-1424.1 651.51,-1307.3 343.57,-1307.3"/>
<text text-anchor="middle" x="497.54" y="-1407.5" font-family="Times,serif" font-size="14.00">&lt;&lt;Struct&gt;&gt;</text>
<text text-anchor="middle" x="497.54" y="-1390.7" font-family="Times,serif" font-size="14.00">ValidationData</text>
<text text-anchor="middle" x="497.54" y="-1373.9" font-family="Times,serif" font-size="14.00">../../../account&#45;abstraction/contracts/core/Helpers.sol</text>
<polyline fill="none" stroke="black" points="343.57,-1365.7 651.51,-1365.7 "/>
<text text-anchor="start" x="351.57" y="-1349.1" font-family="Times,serif" font-size="14.00">aggregator: address</text>
<text text-anchor="start" x="351.57" y="-1332.3" font-family="Times,serif" font-size="14.00">validAfter: uint48</text>
<text text-anchor="start" x="351.57" y="-1315.5" font-family="Times,serif" font-size="14.00">validUntil: uint48</text>
</g>
<!-- 2&#45;&gt;5 -->
<g id="edge17" class="edge">
<title>2&#45;&gt;5</title>
<path fill="none" stroke="black" stroke-dasharray="5,2" d="M1353.72,-1003.38C1162.36,-1079.94 952.44,-1162.86 758.54,-1237.2 715.21,-1253.81 702.68,-1253.78 660.54,-1273.2 641.58,-1281.93 621.86,-1292.06 602.96,-1302.31"/>
<polygon fill="black" stroke="black" points="601.14,-1299.32 594.05,-1307.19 604.5,-1305.46 601.14,-1299.32"/>
</g>
<!-- 6 -->
<g id="node5" class="node">
<title>6</title>
<polygon fill="#f2f2f2" stroke="black" points="669.91,-1324.1 669.91,-1407.3 1015.17,-1407.3 1015.17,-1324.1 669.91,-1324.1"/>
<text text-anchor="middle" x="842.54" y="-1390.7" font-family="Times,serif" font-size="14.00">SenderCreator</text>
<text text-anchor="middle" x="842.54" y="-1373.9" font-family="Times,serif" font-size="14.00">../../../account&#45;abstraction/contracts/core/SenderCreator.sol</text>
<polyline fill="none" stroke="black" points="669.91,-1365.7 1015.17,-1365.7 "/>
<text text-anchor="start" x="677.91" y="-1349.1" font-family="Times,serif" font-size="14.00">External:</text>
<text text-anchor="start" x="677.91" y="-1332.3" font-family="Times,serif" font-size="14.00"> &#160;&#160;&#160;createSender(initCode: bytes): (sender: address)</text>
</g>
<!-- 2&#45;&gt;6 -->
<g id="edge14" class="edge">
<title>2&#45;&gt;6</title>
<path fill="none" stroke="black" d="M1353.51,-1089.81C1183.47,-1181.29 1021.64,-1268.35 927.25,-1319.13"/>
<polygon fill="black" stroke="black" points="925.48,-1316.11 918.33,-1323.93 928.8,-1322.27 925.48,-1316.11"/>
</g>
<!-- 9 -->
<g id="node6" class="node">
<title>9</title>
<polygon fill="#f2f2f2" stroke="black" points="1016.51,-1511.5 1016.51,-1645.1 1486.57,-1645.1 1486.57,-1511.5 1016.51,-1511.5"/>
<text text-anchor="middle" x="1251.54" y="-1628.5" font-family="Times,serif" font-size="14.00">&lt;&lt;Interface&gt;&gt;</text>
<text text-anchor="middle" x="1251.54" y="-1611.7" font-family="Times,serif" font-size="14.00">IAggregator</text>
<text text-anchor="middle" x="1251.54" y="-1594.9" font-family="Times,serif" font-size="14.00">../../../account&#45;abstraction/contracts/interfaces/IAggregator.sol</text>
<polyline fill="none" stroke="black" points="1016.51,-1586.7 1486.57,-1586.7 "/>
<text text-anchor="start" x="1024.51" y="-1570.1" font-family="Times,serif" font-size="14.00">External:</text>
<text text-anchor="start" x="1024.51" y="-1553.3" font-family="Times,serif" font-size="14.00"> &#160;&#160;&#160;&#160;validateSignatures(userOps: UserOperation[], signature: bytes)</text>
<text text-anchor="start" x="1024.51" y="-1536.5" font-family="Times,serif" font-size="14.00"> &#160;&#160;&#160;&#160;validateUserOpSignature(userOp: UserOperation): (sigForUserOp: bytes)</text>
<text text-anchor="start" x="1024.51" y="-1519.7" font-family="Times,serif" font-size="14.00"> &#160;&#160;&#160;&#160;aggregateSignatures(userOps: UserOperation[]): (aggregatedSignature: bytes)</text>
</g>
<!-- 2&#45;&gt;9 -->
<g id="edge16" class="edge">
<title>2&#45;&gt;9</title>
<path fill="none" stroke="black" stroke-dasharray="5,2" d="M1353.69,-986.41C1237.38,-1060.69 1131.48,-1154.92 1062.54,-1273.2 1021.14,-1344.24 1022.81,-1386.21 1062.54,-1458.2 1072.36,-1476 1086.09,-1491.51 1101.71,-1504.91"/>
<polygon fill="black" stroke="black" points="1099.57,-1507.68 1109.52,-1511.32 1104.01,-1502.27 1099.57,-1507.68"/>
</g>
<!-- 11 -->
<g id="node7" class="node">
<title>11</title>
<polygon fill="#f2f2f2" stroke="black" points="1071.51,-1307.3 1071.51,-1424.1 1431.57,-1424.1 1431.57,-1307.3 1071.51,-1307.3"/>
<text text-anchor="middle" x="1251.54" y="-1407.5" font-family="Times,serif" font-size="14.00">&lt;&lt;Struct&gt;&gt;</text>
<text text-anchor="middle" x="1251.54" y="-1390.7" font-family="Times,serif" font-size="14.00">UserOpsPerAggregator</text>
<text text-anchor="middle" x="1251.54" y="-1373.9" font-family="Times,serif" font-size="14.00">../../../account&#45;abstraction/contracts/interfaces/IEntryPoint.sol</text>
<polyline fill="none" stroke="black" points="1071.51,-1365.7 1431.57,-1365.7 "/>
<text text-anchor="start" x="1079.51" y="-1349.1" font-family="Times,serif" font-size="14.00">userOps: UserOperation[]</text>
<text text-anchor="start" x="1079.51" y="-1332.3" font-family="Times,serif" font-size="14.00">aggregator: IAggregator</text>
<text text-anchor="start" x="1079.51" y="-1315.5" font-family="Times,serif" font-size="14.00">signature: bytes</text>
</g>
<!-- 2&#45;&gt;11 -->
<g id="edge11" class="edge">
<title>2&#45;&gt;11</title>
<path fill="none" stroke="black" stroke-dasharray="5,2" d="M1400.13,-1236.85C1371.85,-1260.59 1346.32,-1282.11 1324.72,-1300.44"/>
<polygon fill="black" stroke="black" points="1322.29,-1297.91 1316.94,-1307.05 1326.82,-1303.25 1322.29,-1297.91"/>
</g>
<!-- 12 -->
<g id="node8" class="node">
<title>12</title>
<polygon fill="#f2f2f2" stroke="black" points="1449.51,-1282.1 1449.51,-1449.3 1809.57,-1449.3 1809.57,-1282.1 1449.51,-1282.1"/>
<text text-anchor="middle" x="1629.54" y="-1432.7" font-family="Times,serif" font-size="14.00">&lt;&lt;Struct&gt;&gt;</text>
<text text-anchor="middle" x="1629.54" y="-1415.9" font-family="Times,serif" font-size="14.00">ReturnInfo</text>
<text text-anchor="middle" x="1629.54" y="-1399.1" font-family="Times,serif" font-size="14.00">../../../account&#45;abstraction/contracts/interfaces/IEntryPoint.sol</text>
<polyline fill="none" stroke="black" points="1449.51,-1390.9 1809.57,-1390.9 "/>
<text text-anchor="start" x="1457.51" y="-1374.3" font-family="Times,serif" font-size="14.00">preOpGas: uint256</text>
<text text-anchor="start" x="1457.51" y="-1357.5" font-family="Times,serif" font-size="14.00">prefund: uint256</text>
<text text-anchor="start" x="1457.51" y="-1340.7" font-family="Times,serif" font-size="14.00">sigFailed: bool</text>
<text text-anchor="start" x="1457.51" y="-1323.9" font-family="Times,serif" font-size="14.00">validAfter: uint48</text>
<text text-anchor="start" x="1457.51" y="-1307.1" font-family="Times,serif" font-size="14.00">validUntil: uint48</text>
<text text-anchor="start" x="1457.51" y="-1290.3" font-family="Times,serif" font-size="14.00">paymasterContext: bytes</text>
</g>
<!-- 2&#45;&gt;12 -->
<g id="edge22" class="edge">
<title>2&#45;&gt;12</title>
<path fill="none" stroke="black" stroke-dasharray="5,2" d="M1700.95,-1236.85C1693.48,-1249.56 1686.42,-1261.64 1679.85,-1272.93"/>
<polygon fill="black" stroke="black" points="1676.68,-1271.41 1674.69,-1281.81 1682.74,-1274.93 1676.68,-1271.41"/>
</g>
<!-- 13 -->
<g id="node9" class="node">
<title>13</title>
<polygon fill="#f2f2f2" stroke="black" points="2241.51,-1315.7 2241.51,-1415.7 2601.57,-1415.7 2601.57,-1315.7 2241.51,-1315.7"/>
<text text-anchor="middle" x="2421.54" y="-1399.1" font-family="Times,serif" font-size="14.00">&lt;&lt;Struct&gt;&gt;</text>
<text text-anchor="middle" x="2421.54" y="-1382.3" font-family="Times,serif" font-size="14.00">AggregatorStakeInfo</text>
<text text-anchor="middle" x="2421.54" y="-1365.5" font-family="Times,serif" font-size="14.00">../../../account&#45;abstraction/contracts/interfaces/IEntryPoint.sol</text>
<polyline fill="none" stroke="black" points="2241.51,-1357.3 2601.57,-1357.3 "/>
<text text-anchor="start" x="2249.51" y="-1340.7" font-family="Times,serif" font-size="14.00">aggregator: address</text>
<text text-anchor="start" x="2249.51" y="-1323.9" font-family="Times,serif" font-size="14.00">stakeInfo: StakeInfo</text>
</g>
<!-- 2&#45;&gt;13 -->
<g id="edge23" class="edge">
<title>2&#45;&gt;13</title>
<path fill="none" stroke="black" stroke-dasharray="5,2" d="M2331.24,-1236.85C2349.31,-1263.51 2365.61,-1287.38 2379.24,-1307.07"/>
<polygon fill="black" stroke="black" points="2376.53,-1309.31 2385.11,-1315.53 2382.28,-1305.32 2376.53,-1309.31"/>
</g>
<!-- 15 -->
<g id="node10" class="node">
<title>15</title>
<polygon fill="#f2f2f2" stroke="black" points="1827.69,-1307.3 1827.69,-1424.1 2185.39,-1424.1 2185.39,-1307.3 1827.69,-1307.3"/>
<text text-anchor="middle" x="2006.54" y="-1407.5" font-family="Times,serif" font-size="14.00">&lt;&lt;Enum&gt;&gt;</text>
<text text-anchor="middle" x="2006.54" y="-1390.7" font-family="Times,serif" font-size="14.00">PostOpMode</text>
<text text-anchor="middle" x="2006.54" y="-1373.9" font-family="Times,serif" font-size="14.00">../../../account&#45;abstraction/contracts/interfaces/IPaymaster.sol</text>
<polyline fill="none" stroke="black" points="1827.69,-1365.7 2185.39,-1365.7 "/>
<text text-anchor="start" x="1835.69" y="-1349.1" font-family="Times,serif" font-size="14.00">opSucceeded: 0</text>
<text text-anchor="start" x="1835.69" y="-1332.3" font-family="Times,serif" font-size="14.00">opReverted: 1</text>
<text text-anchor="start" x="1835.69" y="-1315.5" font-family="Times,serif" font-size="14.00">postOpReverted: 2</text>
</g>
<!-- 2&#45;&gt;15 -->
<g id="edge20" class="edge">
<title>2&#45;&gt;15</title>
<path fill="none" stroke="black" stroke-dasharray="5,2" d="M2006.54,-1236.85C2006.54,-1259.13 2006.54,-1279.46 2006.54,-1297.03"/>
<polygon fill="black" stroke="black" points="2003.04,-1297.05 2006.54,-1307.05 2010.04,-1297.05 2003.04,-1297.05"/>
</g>
<!-- 14 -->
<g id="node11" class="node">
<title>14</title>
<polygon fill="#f2f2f2" stroke="black" points="1612.65,-1519.9 1612.65,-1636.7 2400.43,-1636.7 2400.43,-1519.9 1612.65,-1519.9"/>
<text text-anchor="middle" x="2006.54" y="-1620.1" font-family="Times,serif" font-size="14.00">&lt;&lt;Interface&gt;&gt;</text>
<text text-anchor="middle" x="2006.54" y="-1603.3" font-family="Times,serif" font-size="14.00">IPaymaster</text>
<text text-anchor="middle" x="2006.54" y="-1586.5" font-family="Times,serif" font-size="14.00">../../../account&#45;abstraction/contracts/interfaces/IPaymaster.sol</text>
<polyline fill="none" stroke="black" points="1612.65,-1578.3 2400.43,-1578.3 "/>
<text text-anchor="start" x="1620.65" y="-1561.7" font-family="Times,serif" font-size="14.00">External:</text>
<text text-anchor="start" x="1620.65" y="-1544.9" font-family="Times,serif" font-size="14.00"> &#160;&#160;&#160;&#160;validatePaymasterUserOp(userOp: UserOperation, userOpHash: bytes32, maxCost: uint256): (context: bytes, validationData: uint256)</text>
<text text-anchor="start" x="1620.65" y="-1528.1" font-family="Times,serif" font-size="14.00"> &#160;&#160;&#160;&#160;postOp(mode: PostOpMode, context: bytes, actualGasCost: uint256)</text>
</g>
<!-- 2&#45;&gt;14 -->
<g id="edge19" class="edge">
<title>2&#45;&gt;14</title>
<path fill="none" stroke="black" stroke-dasharray="5,2" d="M2187.7,-1236.96C2190.2,-1249.1 2192.49,-1261.2 2194.54,-1273.2 2208.37,-1354.25 2234.18,-1386.16 2194.54,-1458.2 2182.54,-1480.02 2164.66,-1498.39 2144.63,-1513.69"/>
<polygon fill="black" stroke="black" points="2142.55,-1510.88 2136.55,-1519.61 2146.69,-1516.52 2142.55,-1510.88"/>
</g>
<!-- 17 -->
<g id="node12" class="node">
<title>17</title>
<polygon fill="#f2f2f2" stroke="black" points="2619.42,-1290.5 2619.42,-1440.9 2999.66,-1440.9 2999.66,-1290.5 2619.42,-1290.5"/>
<text text-anchor="middle" x="2809.54" y="-1424.3" font-family="Times,serif" font-size="14.00">&lt;&lt;Struct&gt;&gt;</text>
<text text-anchor="middle" x="2809.54" y="-1407.5" font-family="Times,serif" font-size="14.00">DepositInfo</text>
<text text-anchor="middle" x="2809.54" y="-1390.7" font-family="Times,serif" font-size="14.00">../../../account&#45;abstraction/contracts/interfaces/IStakeManager.sol</text>
<polyline fill="none" stroke="black" points="2619.42,-1382.5 2999.66,-1382.5 "/>
<text text-anchor="start" x="2627.42" y="-1365.9" font-family="Times,serif" font-size="14.00">deposit: uint112</text>
<text text-anchor="start" x="2627.42" y="-1349.1" font-family="Times,serif" font-size="14.00">staked: bool</text>
<text text-anchor="start" x="2627.42" y="-1332.3" font-family="Times,serif" font-size="14.00">stake: uint112</text>
<text text-anchor="start" x="2627.42" y="-1315.5" font-family="Times,serif" font-size="14.00">unstakeDelaySec: uint32</text>
<text text-anchor="start" x="2627.42" y="-1298.7" font-family="Times,serif" font-size="14.00">withdrawTime: uint48</text>
</g>
<!-- 2&#45;&gt;17 -->
<g id="edge9" class="edge">
<title>2&#45;&gt;17</title>
<path fill="none" stroke="black" d="M2640.02,-1236.85C2662.03,-1253.82 2682.63,-1269.65 2701.35,-1284"/>
<polygon fill="black" stroke="black" points="2699.47,-1286.97 2709.54,-1290.27 2703.73,-1281.41 2699.47,-1286.97"/>
</g>
<!-- 18 -->
<g id="node13" class="node">
<title>18</title>
<polygon fill="#f2f2f2" stroke="black" points="2675.42,-1528.3 2675.42,-1628.3 3055.66,-1628.3 3055.66,-1528.3 2675.42,-1528.3"/>
<text text-anchor="middle" x="2865.54" y="-1611.7" font-family="Times,serif" font-size="14.00">&lt;&lt;Struct&gt;&gt;</text>
<text text-anchor="middle" x="2865.54" y="-1594.9" font-family="Times,serif" font-size="14.00">StakeInfo</text>
<text text-anchor="middle" x="2865.54" y="-1578.1" font-family="Times,serif" font-size="14.00">../../../account&#45;abstraction/contracts/interfaces/IStakeManager.sol</text>
<polyline fill="none" stroke="black" points="2675.42,-1569.9 3055.66,-1569.9 "/>
<text text-anchor="start" x="2683.42" y="-1553.3" font-family="Times,serif" font-size="14.00">stake: uint256</text>
<text text-anchor="start" x="2683.42" y="-1536.5" font-family="Times,serif" font-size="14.00">unstakeDelaySec: uint256</text>
</g>
<!-- 2&#45;&gt;18 -->
<g id="edge12" class="edge">
<title>2&#45;&gt;18</title>
<path fill="none" stroke="black" stroke-dasharray="5,2" d="M2659.46,-961.4C2794.51,-1038.53 2919.79,-1140.25 2999.54,-1273.2 3041.83,-1343.71 3034.43,-1383.75 2999.54,-1458.2 2987.99,-1482.85 2968.56,-1504.17 2948,-1521.68"/>
<polygon fill="black" stroke="black" points="2945.58,-1519.15 2940.09,-1528.21 2950.03,-1524.55 2945.58,-1519.15"/>
</g>
<!-- 19 -->
<g id="node14" class="node">
<title>19</title>
<polygon fill="#f2f2f2" stroke="black" points="1817.97,-1698.9 1817.97,-1950.1 2195.11,-1950.1 2195.11,-1698.9 1817.97,-1698.9"/>
<text text-anchor="middle" x="2006.54" y="-1933.5" font-family="Times,serif" font-size="14.00">&lt;&lt;Struct&gt;&gt;</text>
<text text-anchor="middle" x="2006.54" y="-1916.7" font-family="Times,serif" font-size="14.00">UserOperation</text>
<text text-anchor="middle" x="2006.54" y="-1899.9" font-family="Times,serif" font-size="14.00">../../../account&#45;abstraction/contracts/interfaces/UserOperation.sol</text>
<polyline fill="none" stroke="black" points="1817.97,-1891.7 2195.11,-1891.7 "/>
<text text-anchor="start" x="1825.97" y="-1875.1" font-family="Times,serif" font-size="14.00">sender: address</text>
<text text-anchor="start" x="1825.97" y="-1858.3" font-family="Times,serif" font-size="14.00">nonce: uint256</text>
<text text-anchor="start" x="1825.97" y="-1841.5" font-family="Times,serif" font-size="14.00">initCode: bytes</text>
<text text-anchor="start" x="1825.97" y="-1824.7" font-family="Times,serif" font-size="14.00">callData: bytes</text>
<text text-anchor="start" x="1825.97" y="-1807.9" font-family="Times,serif" font-size="14.00">callGasLimit: uint256</text>
<text text-anchor="start" x="1825.97" y="-1791.1" font-family="Times,serif" font-size="14.00">verificationGasLimit: uint256</text>
<text text-anchor="start" x="1825.97" y="-1774.3" font-family="Times,serif" font-size="14.00">preVerificationGas: uint256</text>
<text text-anchor="start" x="1825.97" y="-1757.5" font-family="Times,serif" font-size="14.00">maxFeePerGas: uint256</text>
<text text-anchor="start" x="1825.97" y="-1740.7" font-family="Times,serif" font-size="14.00">maxPriorityFeePerGas: uint256</text>
<text text-anchor="start" x="1825.97" y="-1723.9" font-family="Times,serif" font-size="14.00">paymasterAndData: bytes</text>
<text text-anchor="start" x="1825.97" y="-1707.1" font-family="Times,serif" font-size="14.00">signature: bytes</text>
</g>
<!-- 2&#45;&gt;19 -->
<g id="edge10" class="edge">
<title>2&#45;&gt;19</title>
<path fill="none" stroke="black" stroke-dasharray="5,2" d="M2659.23,-948.89C2808.95,-1027.5 2951.56,-1133.03 3045.54,-1273.2 3093.76,-1345.12 3120.97,-1596.72 3064.54,-1662.4 2955.99,-1788.72 2480.58,-1817.12 2205.39,-1822.8"/>
<polygon fill="black" stroke="black" points="2205.2,-1819.3 2195.28,-1823 2205.34,-1826.3 2205.2,-1819.3"/>
</g>
<!-- 20 -->
<g id="node15" class="node">
<title>20</title>
<polygon fill="#f2f2f2" stroke="black" points="3111.97,-1494.7 3111.97,-1661.9 3489.11,-1661.9 3489.11,-1494.7 3111.97,-1494.7"/>
<text text-anchor="middle" x="3300.54" y="-1645.3" font-family="Times,serif" font-size="14.00">&lt;&lt;Library&gt;&gt;</text>
<text text-anchor="middle" x="3300.54" y="-1628.5" font-family="Times,serif" font-size="14.00">UserOperationLib</text>
<text text-anchor="middle" x="3300.54" y="-1611.7" font-family="Times,serif" font-size="14.00">../../../account&#45;abstraction/contracts/interfaces/UserOperation.sol</text>
<polyline fill="none" stroke="black" points="3111.97,-1603.5 3489.11,-1603.5 "/>
<text text-anchor="start" x="3119.97" y="-1586.9" font-family="Times,serif" font-size="14.00">Internal:</text>
<text text-anchor="start" x="3119.97" y="-1570.1" font-family="Times,serif" font-size="14.00"> &#160;&#160;&#160;getSender(userOp: UserOperation): address</text>
<text text-anchor="start" x="3119.97" y="-1553.3" font-family="Times,serif" font-size="14.00"> &#160;&#160;&#160;gasPrice(userOp: UserOperation): uint256</text>
<text text-anchor="start" x="3119.97" y="-1536.5" font-family="Times,serif" font-size="14.00"> &#160;&#160;&#160;pack(userOp: UserOperation): (ret: bytes)</text>
<text text-anchor="start" x="3119.97" y="-1519.7" font-family="Times,serif" font-size="14.00"> &#160;&#160;&#160;hash(userOp: UserOperation): bytes32</text>
<text text-anchor="start" x="3119.97" y="-1502.9" font-family="Times,serif" font-size="14.00"> &#160;&#160;&#160;min(a: uint256, b: uint256): uint256</text>
</g>
<!-- 2&#45;&gt;20 -->
<g id="edge13" class="edge">
<title>2&#45;&gt;20</title>
<path fill="none" stroke="black" stroke-dasharray="5,2" d="M2659.41,-943.83C2823.08,-1023.34 2984.15,-1130.59 3097.54,-1273.2 3150.07,-1339.27 3094.3,-1387.57 3140.54,-1458.2 3147.27,-1468.49 3155.22,-1478.21 3163.91,-1487.33"/>
<polygon fill="black" stroke="black" points="3161.5,-1489.88 3171.03,-1494.52 3166.48,-1484.95 3161.5,-1489.88"/>
</g>
<!-- 43 -->
<g id="node16" class="node">
<title>43</title>
<polygon fill="#f2f2f2" stroke="black" points="3149.86,-1273.7 3149.86,-1457.7 3605.22,-1457.7 3605.22,-1273.7 3149.86,-1273.7"/>
<text text-anchor="middle" x="3377.54" y="-1441.1" font-family="Times,serif" font-size="14.00">&lt;&lt;Library&gt;&gt;</text>
<text text-anchor="middle" x="3377.54" y="-1424.3" font-family="Times,serif" font-size="14.00">Exec</text>
<text text-anchor="middle" x="3377.54" y="-1407.5" font-family="Times,serif" font-size="14.00">../../../account&#45;abstraction/contracts/utils/Exec.sol</text>
<polyline fill="none" stroke="black" points="3149.86,-1399.3 3605.22,-1399.3 "/>
<text text-anchor="start" x="3157.86" y="-1382.7" font-family="Times,serif" font-size="14.00">Internal:</text>
<text text-anchor="start" x="3157.86" y="-1365.9" font-family="Times,serif" font-size="14.00"> &#160;&#160;&#160;call(to: address, value: uint256, data: bytes, txGas: uint256): (success: bool)</text>
<text text-anchor="start" x="3157.86" y="-1349.1" font-family="Times,serif" font-size="14.00"> &#160;&#160;&#160;staticcall(to: address, data: bytes, txGas: uint256): (success: bool)</text>
<text text-anchor="start" x="3157.86" y="-1332.3" font-family="Times,serif" font-size="14.00"> &#160;&#160;&#160;delegateCall(to: address, data: bytes, txGas: uint256): (success: bool)</text>
<text text-anchor="start" x="3157.86" y="-1315.5" font-family="Times,serif" font-size="14.00"> &#160;&#160;&#160;getReturnData(maxLen: uint256): (returnData: bytes)</text>
<text text-anchor="start" x="3157.86" y="-1298.7" font-family="Times,serif" font-size="14.00"> &#160;&#160;&#160;revertWithData(returnData: bytes)</text>
<text text-anchor="start" x="3157.86" y="-1281.9" font-family="Times,serif" font-size="14.00"> &#160;&#160;&#160;callAndRevert(to: address, data: bytes, maxLen: uint256)</text>
</g>
<!-- 2&#45;&gt;43 -->
<g id="edge21" class="edge">
<title>2&#45;&gt;43</title>
<path fill="none" stroke="black" stroke-dasharray="5,2" d="M2659.42,-1036.7C2843.89,-1120.96 3031.52,-1206.66 3168.71,-1269.32"/>
<polygon fill="black" stroke="black" points="3167.53,-1272.63 3178.08,-1273.6 3170.44,-1266.26 3167.53,-1272.63"/>
</g>
<!-- 9&#45;&gt;19 -->
<g id="edge24" class="edge">
<title>9&#45;&gt;19</title>
<path fill="none" stroke="black" stroke-dasharray="5,2" d="M1455.36,-1645.22C1564.84,-1680.63 1699.25,-1724.11 1807.92,-1759.26"/>
<polygon fill="black" stroke="black" points="1807.1,-1762.67 1817.69,-1762.42 1809.25,-1756.01 1807.1,-1762.67"/>
</g>
<!-- 11&#45;&gt;2 -->
<g id="edge4" class="edge">
<title>11&#45;&gt;2</title>
<path fill="none" stroke="black" d="M1325.15,-1307.05C1347.09,-1289.29 1373.06,-1268.13 1401.82,-1244.58"/>
<polygon fill="black" stroke="black" points="1401.97,-1244.45 1404.08,-1237.55 1411.26,-1236.85 1409.15,-1243.74 1401.97,-1244.45"/>
</g>
<!-- 11&#45;&gt;9 -->
<g id="edge26" class="edge">
<title>11&#45;&gt;9</title>
<path fill="none" stroke="black" stroke-dasharray="5,2" d="M1251.54,-1424.25C1251.54,-1447.9 1251.54,-1475.64 1251.54,-1500.95"/>
<polygon fill="black" stroke="black" points="1248.04,-1501.26 1251.54,-1511.26 1255.04,-1501.26 1248.04,-1501.26"/>
</g>
<!-- 11&#45;&gt;19 -->
<g id="edge25" class="edge">
<title>11&#45;&gt;19</title>
<path fill="none" stroke="black" stroke-dasharray="5,2" d="M1368.15,-1424.26C1425.38,-1453.12 1484.45,-1484.06 1495.54,-1494.2 1561.1,-1554.15 1535.03,-1605.84 1603.54,-1662.4 1662.57,-1711.14 1738.22,-1746.56 1808,-1771.57"/>
<polygon fill="black" stroke="black" points="1807.21,-1775 1817.81,-1775.03 1809.54,-1768.4 1807.21,-1775"/>
</g>
<!-- 12&#45;&gt;2 -->
<g id="edge5" class="edge">
<title>12&#45;&gt;2</title>
<path fill="none" stroke="black" d="M1684.19,-1281.81C1690.91,-1271.06 1698.09,-1259.5 1705.64,-1247.27"/>
<polygon fill="black" stroke="black" points="1705.78,-1247.06 1705.52,-1239.85 1712.08,-1236.85 1712.33,-1244.05 1705.78,-1247.06"/>
</g>
<!-- 13&#45;&gt;2 -->
<g id="edge6" class="edge">
<title>13&#45;&gt;2</title>
<path fill="none" stroke="black" d="M2392.8,-1315.53C2380.99,-1296.78 2366.08,-1273.49 2349.02,-1247.11"/>
<polygon fill="black" stroke="black" points="2348.89,-1246.92 2342.28,-1244.06 2342.37,-1236.85 2348.99,-1239.71 2348.89,-1246.92"/>
</g>
<!-- 13&#45;&gt;18 -->
<g id="edge27" class="edge">
<title>13&#45;&gt;18</title>
<path fill="none" stroke="black" stroke-dasharray="5,2" d="M2522.44,-1415.87C2550.89,-1429.65 2581.9,-1444.58 2610.54,-1458.2 2656.16,-1479.9 2706.53,-1503.5 2750.37,-1523.92"/>
<polygon fill="black" stroke="black" points="2749.08,-1527.18 2759.62,-1528.23 2752.03,-1520.84 2749.08,-1527.18"/>
</g>
<!-- 15&#45;&gt;14 -->
<g id="edge28" class="edge">
<title>15&#45;&gt;14</title>
<path fill="none" stroke="black" d="M2000.45,-1424.25C1999.69,-1450.02 1999.59,-1480.63 2000.15,-1507.68"/>
<polygon fill="black" stroke="black" points="2000.15,-1507.83 2004.3,-1513.72 2000.45,-1519.82 1996.3,-1513.92 2000.15,-1507.83"/>
</g>
<!-- 14&#45;&gt;15 -->
<g id="edge30" class="edge">
<title>14&#45;&gt;15</title>
<path fill="none" stroke="black" stroke-dasharray="5,2" d="M2012.63,-1519.82C2013.41,-1493.48 2013.5,-1462.07 2012.9,-1434.58"/>
<polygon fill="black" stroke="black" points="2016.39,-1434.15 2012.63,-1424.25 2009.39,-1434.33 2016.39,-1434.15"/>
</g>
<!-- 14&#45;&gt;19 -->
<g id="edge29" class="edge">
<title>14&#45;&gt;19</title>
<path fill="none" stroke="black" stroke-dasharray="5,2" d="M2006.54,-1636.86C2006.54,-1652.57 2006.54,-1670.27 2006.54,-1688.36"/>
<polygon fill="black" stroke="black" points="2003.04,-1688.44 2006.54,-1698.44 2010.04,-1688.44 2003.04,-1688.44"/>
</g>
<!-- 17&#45;&gt;2 -->
<g id="edge2" class="edge">
<title>17&#45;&gt;2</title>
<path fill="none" stroke="black" d="M2718.66,-1290.27C2701.17,-1276.37 2681.67,-1260.93 2660.61,-1244.3"/>
<polygon fill="black" stroke="black" points="2660.57,-1244.28 2653.39,-1243.7 2651.15,-1236.85 2658.34,-1237.42 2660.57,-1244.28"/>
</g>
<!-- 18&#45;&gt;2 -->
<g id="edge3" class="edge">
<title>18&#45;&gt;2</title>
<path fill="none" stroke="black" d="M2957.17,-1528.21C2981.47,-1509.56 3004.52,-1485.99 3017.54,-1458.2 3052.43,-1383.75 3059.83,-1343.71 3017.54,-1273.2 2936.48,-1138.07 2808.38,-1035.2 2670.24,-957.61"/>
<polygon fill="black" stroke="black" points="2669.91,-957.43 2662.72,-958.01 2659.42,-951.6 2666.61,-951.02 2669.91,-957.43"/>
</g>
<!-- 20&#45;&gt;19 -->
<g id="edge31" class="edge">
<title>20&#45;&gt;19</title>
<path fill="none" stroke="black" stroke-dasharray="5,2" d="M3111.96,-1658.24C3107.13,-1659.7 3102.31,-1661.09 3097.54,-1662.4 2792.25,-1746.1 2426.23,-1788.88 2205.27,-1808.69"/>
<polygon fill="black" stroke="black" points="2204.83,-1805.21 2195.18,-1809.58 2205.45,-1812.18 2204.83,-1805.21"/>
</g>
</g>
</svg>
