<?xml version="1.0" encoding="UTF-8" standalone="no"?>
<!DOCTYPE svg PUBLIC "-//W3C//DTD SVG 1.1//EN"
 "http://www.w3.org/Graphics/SVG/1.1/DTD/svg11.dtd">
<!-- Generated by graphviz version 5.0.0 (20220707.1540)
 -->
<!-- Title: UmlClassDiagram Pages: 1 -->
<svg width="4451pt" height="1866pt"
 viewBox="0.00 0.00 4451.17 1865.80" xmlns="http://www.w3.org/2000/svg" xmlns:xlink="http://www.w3.org/1999/xlink">
<g id="graph0" class="graph" transform="scale(1 1) rotate(0) translate(4 1861.8)">
<title>UmlClassDiagram</title>
<polygon fill="white" stroke="transparent" points="-4,4 -4,-1861.8 4447.17,-1861.8 4447.17,4 -4,4"/>
<!-- 3 -->
<g id="node1" class="node">
<title>3</title>
<polygon fill="#f2f2f2" stroke="black" points="1415,-0.5 1415,-201.3 1740.08,-201.3 1740.08,-0.5 1415,-0.5"/>
<text text-anchor="middle" x="1577.54" y="-184.7" font-family="Times,serif" font-size="14.00">&lt;&lt;Struct&gt;&gt;</text>
<text text-anchor="middle" x="1577.54" y="-167.9" font-family="Times,serif" font-size="14.00">MemoryUserOp</text>
<text text-anchor="middle" x="1577.54" y="-151.1" font-family="Times,serif" font-size="14.00">../../../account&#45;abstraction/contracts/core/EntryPoint.sol</text>
<polyline fill="none" stroke="black" points="1415,-142.9 1740.08,-142.9 "/>
<text text-anchor="start" x="1423" y="-126.3" font-family="Times,serif" font-size="14.00">sender: address</text>
<text text-anchor="start" x="1423" y="-109.5" font-family="Times,serif" font-size="14.00">nonce: uint256</text>
<text text-anchor="start" x="1423" y="-92.7" font-family="Times,serif" font-size="14.00">callGasLimit: uint256</text>
<text text-anchor="start" x="1423" y="-75.9" font-family="Times,serif" font-size="14.00">verificationGasLimit: uint256</text>
<text text-anchor="start" x="1423" y="-59.1" font-family="Times,serif" font-size="14.00">preVerificationGas: uint256</text>
<text text-anchor="start" x="1423" y="-42.3" font-family="Times,serif" font-size="14.00">paymaster: address</text>
<text text-anchor="start" x="1423" y="-25.5" font-family="Times,serif" font-size="14.00">maxFeePerGas: uint256</text>
<text text-anchor="start" x="1423" y="-8.7" font-family="Times,serif" font-size="14.00">maxPriorityFeePerGas: uint256</text>
</g>
<!-- 2 -->
<g id="node3" class="node">
<title>2</title>
<polygon fill="#f2f2f2" stroke="black" points="972.73,-238.3 972.73,-900.7 2182.35,-900.7 2182.35,-238.3 972.73,-238.3"/>
<text text-anchor="middle" x="1577.54" y="-884.1" font-family="Times,serif" font-size="14.00">EntryPoint</text>
<text text-anchor="middle" x="1577.54" y="-867.3" font-family="Times,serif" font-size="14.00">../../../account&#45;abstraction/contracts/core/EntryPoint.sol</text>
<polyline fill="none" stroke="black" points="972.73,-859.1 2182.35,-859.1 "/>
<text text-anchor="start" x="980.73" y="-842.5" font-family="Times,serif" font-size="14.00">Private:</text>
<text text-anchor="start" x="980.73" y="-825.7" font-family="Times,serif" font-size="14.00"> &#160;&#160;senderCreator: SenderCreator</text>
<text text-anchor="start" x="980.73" y="-808.9" font-family="Times,serif" font-size="14.00"> &#160;&#160;SIMULATE_FIND_AGGREGATOR: address</text>
<text text-anchor="start" x="980.73" y="-792.1" font-family="Times,serif" font-size="14.00"> &#160;&#160;INNER_OUT_OF_GAS: bytes32</text>
<text text-anchor="start" x="980.73" y="-775.3" font-family="Times,serif" font-size="14.00"> &#160;&#160;REVERT_REASON_MAX_LEN: uint256</text>
<text text-anchor="start" x="980.73" y="-758.5" font-family="Times,serif" font-size="14.00">Public:</text>
<text text-anchor="start" x="980.73" y="-741.7" font-family="Times,serif" font-size="14.00"> &#160;&#160;SIG_VALIDATION_FAILED: uint256</text>
<polyline fill="none" stroke="black" points="972.73,-733.5 2182.35,-733.5 "/>
<text text-anchor="start" x="980.73" y="-716.9" font-family="Times,serif" font-size="14.00">Private:</text>
<text text-anchor="start" x="980.73" y="-700.1" font-family="Times,serif" font-size="14.00"> &#160;&#160;&#160;_executeUserOp(opIndex: uint256, userOp: UserOperation, opInfo: UserOpInfo): (collected: uint256)</text>
<text text-anchor="start" x="980.73" y="-683.3" font-family="Times,serif" font-size="14.00"> &#160;&#160;&#160;_validatePrepayment(opIndex: uint256, userOp: UserOperation, outOpInfo: UserOpInfo): (validationData: uint256, paymasterValidationData: uint256)</text>
<text text-anchor="start" x="980.73" y="-666.5" font-family="Times,serif" font-size="14.00"> &#160;&#160;&#160;_handlePostOp(opIndex: uint256, mode: IPaymaster.PostOpMode, opInfo: UserOpInfo, context: bytes, actualGas: uint256): (actualGasCost: uint256)</text>
<text text-anchor="start" x="980.73" y="-649.7" font-family="Times,serif" font-size="14.00">Internal:</text>
<text text-anchor="start" x="980.73" y="-632.9" font-family="Times,serif" font-size="14.00"> &#160;&#160;&#160;_compensate(beneficiary: address, amount: uint256)</text>
<text text-anchor="start" x="980.73" y="-616.1" font-family="Times,serif" font-size="14.00"> &#160;&#160;&#160;_copyUserOpToMemory(userOp: UserOperation, mUserOp: MemoryUserOp)</text>
<text text-anchor="start" x="980.73" y="-599.3" font-family="Times,serif" font-size="14.00"> &#160;&#160;&#160;_getRequiredPrefund(mUserOp: MemoryUserOp): (requiredPrefund: uint256)</text>
<text text-anchor="start" x="980.73" y="-582.5" font-family="Times,serif" font-size="14.00"> &#160;&#160;&#160;_createSenderIfNeeded(opIndex: uint256, opInfo: UserOpInfo, initCode: bytes)</text>
<text text-anchor="start" x="980.73" y="-565.7" font-family="Times,serif" font-size="14.00"> &#160;&#160;&#160;_simulationOnlyValidations(userOp: UserOperation)</text>
<text text-anchor="start" x="980.73" y="-548.9" font-family="Times,serif" font-size="14.00"> &#160;&#160;&#160;_validateAccountPrepayment(opIndex: uint256, op: UserOperation, opInfo: UserOpInfo, requiredPrefund: uint256): (gasUsedByValidateAccountPrepayment: uint256, validationData: uint256)</text>
<text text-anchor="start" x="980.73" y="-532.1" font-family="Times,serif" font-size="14.00"> &#160;&#160;&#160;_validatePaymasterPrepayment(opIndex: uint256, op: UserOperation, opInfo: UserOpInfo, requiredPreFund: uint256, gasUsedByValidateAccountPrepayment: uint256): (context: bytes, validationData: uint256)</text>
<text text-anchor="start" x="980.73" y="-515.3" font-family="Times,serif" font-size="14.00"> &#160;&#160;&#160;_validateAccountAndPaymasterValidationData(opIndex: uint256, validationData: uint256, paymasterValidationData: uint256, expectedAggregator: address)</text>
<text text-anchor="start" x="980.73" y="-498.5" font-family="Times,serif" font-size="14.00"> &#160;&#160;&#160;_getValidationData(validationData: uint256): (aggregator: address, outOfTimeRange: bool)</text>
<text text-anchor="start" x="980.73" y="-481.7" font-family="Times,serif" font-size="14.00"> &#160;&#160;&#160;getUserOpGasPrice(mUserOp: MemoryUserOp): uint256</text>
<text text-anchor="start" x="980.73" y="-464.9" font-family="Times,serif" font-size="14.00"> &#160;&#160;&#160;min(a: uint256, b: uint256): uint256</text>
<text text-anchor="start" x="980.73" y="-448.1" font-family="Times,serif" font-size="14.00"> &#160;&#160;&#160;getOffsetOfMemoryBytes(data: bytes): (offset: uint256)</text>
<text text-anchor="start" x="980.73" y="-431.3" font-family="Times,serif" font-size="14.00"> &#160;&#160;&#160;getMemoryBytesFromOffset(offset: uint256): (data: bytes)</text>
<text text-anchor="start" x="980.73" y="-414.5" font-family="Times,serif" font-size="14.00"> &#160;&#160;&#160;numberMarker()</text>
<text text-anchor="start" x="980.73" y="-397.7" font-family="Times,serif" font-size="14.00">External:</text>
<text text-anchor="start" x="980.73" y="-380.9" font-family="Times,serif" font-size="14.00"> &#160;&#160;&#160;simulateHandleOp(op: UserOperation, target: address, targetCallData: bytes)</text>
<text text-anchor="start" x="980.73" y="-364.1" font-family="Times,serif" font-size="14.00"> &#160;&#160;&#160;innerHandleOp(callData: bytes, opInfo: UserOpInfo, context: bytes): (actualGasCost: uint256)</text>
<text text-anchor="start" x="980.73" y="-347.3" font-family="Times,serif" font-size="14.00"> &#160;&#160;&#160;simulateValidation(userOp: UserOperation)</text>
<text text-anchor="start" x="980.73" y="-330.5" font-family="Times,serif" font-size="14.00"> &#160;&#160;&#160;_validateSenderAndPaymaster(initCode: bytes, sender: address, paymasterAndData: bytes)</text>
<text text-anchor="start" x="980.73" y="-313.7" font-family="Times,serif" font-size="14.00">Public:</text>
<text text-anchor="start" x="980.73" y="-296.9" font-family="Times,serif" font-size="14.00"> &#160;&#160;&#160;handleOps(ops: UserOperation[], beneficiary: address)</text>
<text text-anchor="start" x="980.73" y="-280.1" font-family="Times,serif" font-size="14.00"> &#160;&#160;&#160;handleAggregatedOps(opsPerAggregator: UserOpsPerAggregator[], beneficiary: address)</text>
<text text-anchor="start" x="980.73" y="-263.3" font-family="Times,serif" font-size="14.00"> &#160;&#160;&#160;getUserOpHash(userOp: UserOperation): bytes32</text>
<text text-anchor="start" x="980.73" y="-246.5" font-family="Times,serif" font-size="14.00"> &#160;&#160;&#160;getSenderAddress(initCode: bytes)</text>
</g>
<!-- 3&#45;&gt;2 -->
<g id="edge2" class="edge">
<title>3&#45;&gt;2</title>
<path fill="none" stroke="black" d="M1571.89,-201.43C1571.75,-209.34 1571.61,-217.56 1571.5,-226.03"/>
<polygon fill="black" stroke="black" points="1571.49,-226.17 1575.42,-232.22 1571.34,-238.17 1567.42,-232.12 1571.49,-226.17"/>
</g>
<!-- 4 -->
<g id="node2" class="node">
<title>4</title>
<polygon fill="#f2f2f2" stroke="black" points="0,-1025.7 0,-1176.1 325.08,-1176.1 325.08,-1025.7 0,-1025.7"/>
<text text-anchor="middle" x="162.54" y="-1159.5" font-family="Times,serif" font-size="14.00">&lt;&lt;Struct&gt;&gt;</text>
<text text-anchor="middle" x="162.54" y="-1142.7" font-family="Times,serif" font-size="14.00">UserOpInfo</text>
<text text-anchor="middle" x="162.54" y="-1125.9" font-family="Times,serif" font-size="14.00">../../../account&#45;abstraction/contracts/core/EntryPoint.sol</text>
<polyline fill="none" stroke="black" points="0,-1117.7 325.08,-1117.7 "/>
<text text-anchor="start" x="8" y="-1101.1" font-family="Times,serif" font-size="14.00">mUserOp: MemoryUserOp</text>
<text text-anchor="start" x="8" y="-1084.3" font-family="Times,serif" font-size="14.00">userOpHash: bytes32</text>
<text text-anchor="start" x="8" y="-1067.5" font-family="Times,serif" font-size="14.00">prefund: uint256</text>
<text text-anchor="start" x="8" y="-1050.7" font-family="Times,serif" font-size="14.00">contextOffset: uint256</text>
<text text-anchor="start" x="8" y="-1033.9" font-family="Times,serif" font-size="14.00">preOpGas: uint256</text>
</g>
<!-- 4&#45;&gt;3 -->
<g id="edge1" class="edge">
<title>4&#45;&gt;3</title>
<path fill="none" stroke="black" stroke-dasharray="5,2" d="M208.42,-1025.56C316.98,-856.41 607.39,-441.71 963.54,-237.8 1099.51,-159.95 1275.99,-126.68 1404.83,-112.47"/>
<polygon fill="black" stroke="black" points="1405.23,-115.94 1414.8,-111.39 1404.49,-108.98 1405.23,-115.94"/>
</g>
<!-- 4&#45;&gt;2 -->
<g id="edge3" class="edge">
<title>4&#45;&gt;2</title>
<path fill="none" stroke="black" d="M232.91,-1025.62C264.86,-993.33 305.13,-958.17 348.54,-937.2 440.92,-892.58 476.81,-925.24 576.54,-901.2 702.21,-870.91 834.75,-832.43 960.79,-792.51"/>
<polygon fill="black" stroke="black" points="961.14,-792.4 965.65,-786.77 972.58,-788.77 968.07,-794.4 961.14,-792.4"/>
</g>
<!-- 2&#45;&gt;3 -->
<g id="edge13" class="edge">
<title>2&#45;&gt;3</title>
<path fill="none" stroke="black" stroke-dasharray="5,2" d="M1583.74,-238.17C1583.63,-229.08 1583.51,-220.23 1583.37,-211.68"/>
<polygon fill="black" stroke="black" points="1586.86,-211.36 1583.19,-201.43 1579.86,-211.49 1586.86,-211.36"/>
</g>
<!-- 2&#45;&gt;4 -->
<g id="edge9" class="edge">
<title>2&#45;&gt;4</title>
<path fill="none" stroke="black" stroke-dasharray="5,2" d="M972.47,-783.19C837.36,-826.41 693.96,-868.56 558.54,-901.2 458.81,-925.24 422.92,-892.58 330.54,-937.2 290.52,-956.53 253.17,-987.93 223.84,-1018.01"/>
<polygon fill="black" stroke="black" points="220.95,-1015.97 216.56,-1025.62 226,-1020.81 220.95,-1015.97"/>
</g>
<!-- 5 -->
<g id="node4" class="node">
<title>5</title>
<polygon fill="#f2f2f2" stroke="black" points="3771.57,-1042.5 3771.57,-1159.3 4079.51,-1159.3 4079.51,-1042.5 3771.57,-1042.5"/>
<text text-anchor="middle" x="3925.54" y="-1142.7" font-family="Times,serif" font-size="14.00">&lt;&lt;Struct&gt;&gt;</text>
<text text-anchor="middle" x="3925.54" y="-1125.9" font-family="Times,serif" font-size="14.00">ValidationData</text>
<text text-anchor="middle" x="3925.54" y="-1109.1" font-family="Times,serif" font-size="14.00">../../../account&#45;abstraction/contracts/core/Helpers.sol</text>
<polyline fill="none" stroke="black" points="3771.57,-1100.9 4079.51,-1100.9 "/>
<text text-anchor="start" x="3779.57" y="-1084.3" font-family="Times,serif" font-size="14.00">aggregator: address</text>
<text text-anchor="start" x="3779.57" y="-1067.5" font-family="Times,serif" font-size="14.00">validAfter: uint48</text>
<text text-anchor="start" x="3779.57" y="-1050.7" font-family="Times,serif" font-size="14.00">validUntil: uint48</text>
</g>
<!-- 2&#45;&gt;5 -->
<g id="edge12" class="edge">
<title>2&#45;&gt;5</title>
<path fill="none" stroke="black" stroke-dasharray="5,2" d="M2182.37,-630.35C2730.97,-692.1 3493.7,-798.81 3762.54,-937.2 3807.32,-960.25 3847.5,-1000.01 3876.76,-1034.46"/>
<polygon fill="black" stroke="black" points="3874.11,-1036.75 3883.21,-1042.17 3879.48,-1032.26 3874.11,-1036.75"/>
</g>
<!-- 6 -->
<g id="node5" class="node">
<title>6</title>
<polygon fill="#f2f2f2" stroke="black" points="4097.91,-1059.3 4097.91,-1142.5 4443.17,-1142.5 4443.17,-1059.3 4097.91,-1059.3"/>
<text text-anchor="middle" x="4270.54" y="-1125.9" font-family="Times,serif" font-size="14.00">SenderCreator</text>
<text text-anchor="middle" x="4270.54" y="-1109.1" font-family="Times,serif" font-size="14.00">../../../account&#45;abstraction/contracts/core/SenderCreator.sol</text>
<polyline fill="none" stroke="black" points="4097.91,-1100.9 4443.17,-1100.9 "/>
<text text-anchor="start" x="4105.91" y="-1084.3" font-family="Times,serif" font-size="14.00">External:</text>
<text text-anchor="start" x="4105.91" y="-1067.5" font-family="Times,serif" font-size="14.00"> &#160;&#160;&#160;createSender(initCode: bytes): (sender: address)</text>
</g>
<!-- 2&#45;&gt;6 -->
<g id="edge7" class="edge">
<title>2&#45;&gt;6</title>
<path fill="none" stroke="black" d="M2182.6,-618.55C2814.92,-675.86 3759.89,-783.59 4088.54,-937.2 4145.18,-963.67 4196.97,-1013.66 4230.7,-1051.27"/>
<polygon fill="black" stroke="black" points="4228.37,-1053.92 4237.62,-1059.09 4233.62,-1049.28 4228.37,-1053.92"/>
</g>
<!-- 7 -->
<g id="node6" class="node">
<title>7</title>
<polygon fill="#f2f2f2" stroke="black" points="381.63,-937.7 381.63,-1264.1 793.45,-1264.1 793.45,-937.7 381.63,-937.7"/>
<text text-anchor="middle" x="587.54" y="-1247.5" font-family="Times,serif" font-size="14.00">&lt;&lt;Abstract&gt;&gt;</text>
<text text-anchor="middle" x="587.54" y="-1230.7" font-family="Times,serif" font-size="14.00">StakeManager</text>
<text text-anchor="middle" x="587.54" y="-1213.9" font-family="Times,serif" font-size="14.00">../../../account&#45;abstraction/contracts/core/StakeManager.sol</text>
<polyline fill="none" stroke="black" points="381.63,-1205.7 793.45,-1205.7 "/>
<text text-anchor="start" x="389.63" y="-1189.1" font-family="Times,serif" font-size="14.00">Public:</text>
<text text-anchor="start" x="389.63" y="-1172.3" font-family="Times,serif" font-size="14.00"> &#160;&#160;deposits: mapping(address=&gt;DepositInfo)</text>
<polyline fill="none" stroke="black" points="381.63,-1164.1 793.45,-1164.1 "/>
<text text-anchor="start" x="389.63" y="-1147.5" font-family="Times,serif" font-size="14.00">Internal:</text>
<text text-anchor="start" x="389.63" y="-1130.7" font-family="Times,serif" font-size="14.00"> &#160;&#160;&#160;_getStakeInfo(addr: address): (info: StakeInfo)</text>
<text text-anchor="start" x="389.63" y="-1113.9" font-family="Times,serif" font-size="14.00"> &#160;&#160;&#160;_incrementDeposit(account: address, amount: uint256)</text>
<text text-anchor="start" x="389.63" y="-1097.1" font-family="Times,serif" font-size="14.00">External:</text>
<text text-anchor="start" x="389.63" y="-1080.3" font-family="Times,serif" font-size="14.00"> &#160;&#160;&#160;&lt;&lt;payable&gt;&gt; null()</text>
<text text-anchor="start" x="389.63" y="-1063.5" font-family="Times,serif" font-size="14.00"> &#160;&#160;&#160;unlockStake()</text>
<text text-anchor="start" x="389.63" y="-1046.7" font-family="Times,serif" font-size="14.00"> &#160;&#160;&#160;withdrawStake(withdrawAddress: address)</text>
<text text-anchor="start" x="389.63" y="-1029.9" font-family="Times,serif" font-size="14.00"> &#160;&#160;&#160;withdrawTo(withdrawAddress: address, withdrawAmount: uint256)</text>
<text text-anchor="start" x="389.63" y="-1013.1" font-family="Times,serif" font-size="14.00">Public:</text>
<text text-anchor="start" x="389.63" y="-996.3" font-family="Times,serif" font-size="14.00"> &#160;&#160;&#160;&lt;&lt;payable&gt;&gt; depositTo(account: address)</text>
<text text-anchor="start" x="389.63" y="-979.5" font-family="Times,serif" font-size="14.00"> &#160;&#160;&#160;&lt;&lt;payable&gt;&gt; addStake(unstakeDelaySec: uint32)</text>
<text text-anchor="start" x="389.63" y="-962.7" font-family="Times,serif" font-size="14.00"> &#160;&#160;&#160;getDepositInfo(account: address): (info: DepositInfo)</text>
<text text-anchor="start" x="389.63" y="-945.9" font-family="Times,serif" font-size="14.00"> &#160;&#160;&#160;balanceOf(account: address): uint256</text>
</g>
<!-- 2&#45;&gt;7 -->
<g id="edge5" class="edge">
<title>2&#45;&gt;7</title>
<path fill="none" stroke="black" d="M972.67,-841.68C922.4,-868.06 872.71,-895.5 819.5,-927.14"/>
<polygon fill="none" stroke="black" points="813.82,-918.3 793.51,-942.75 824.63,-936.3 813.82,-918.3"/>
</g>
<!-- 9 -->
<g id="node7" class="node">
<title>9</title>
<polygon fill="#f2f2f2" stroke="black" points="1758.51,-1368.3 1758.51,-1501.9 2228.57,-1501.9 2228.57,-1368.3 1758.51,-1368.3"/>
<text text-anchor="middle" x="1993.54" y="-1485.3" font-family="Times,serif" font-size="14.00">&lt;&lt;Interface&gt;&gt;</text>
<text text-anchor="middle" x="1993.54" y="-1468.5" font-family="Times,serif" font-size="14.00">IAggregator</text>
<text text-anchor="middle" x="1993.54" y="-1451.7" font-family="Times,serif" font-size="14.00">../../../account&#45;abstraction/contracts/interfaces/IAggregator.sol</text>
<polyline fill="none" stroke="black" points="1758.51,-1443.5 2228.57,-1443.5 "/>
<text text-anchor="start" x="1766.51" y="-1426.9" font-family="Times,serif" font-size="14.00">External:</text>
<text text-anchor="start" x="1766.51" y="-1410.1" font-family="Times,serif" font-size="14.00"> &#160;&#160;&#160;&#160;validateSignatures(userOps: UserOperation[], signature: bytes)</text>
<text text-anchor="start" x="1766.51" y="-1393.3" font-family="Times,serif" font-size="14.00"> &#160;&#160;&#160;&#160;validateUserOpSignature(userOp: UserOperation): (sigForUserOp: bytes)</text>
<text text-anchor="start" x="1766.51" y="-1376.5" font-family="Times,serif" font-size="14.00"> &#160;&#160;&#160;&#160;aggregateSignatures(userOps: UserOperation[]): (aggregatedSignature: bytes)</text>
</g>
<!-- 2&#45;&gt;9 -->
<g id="edge11" class="edge">
<title>2&#45;&gt;9</title>
<path fill="none" stroke="black" stroke-dasharray="5,2" d="M1955.67,-900.81C1962.53,-912.71 1968.85,-924.84 1974.54,-937.2 2037.83,-1074.6 2023.38,-1256.72 2007.96,-1357.96"/>
<polygon fill="black" stroke="black" points="2004.46,-1357.68 2006.37,-1368.1 2011.38,-1358.76 2004.46,-1357.68"/>
</g>
<!-- 11 -->
<g id="node8" class="node">
<title>11</title>
<polygon fill="#f2f2f2" stroke="black" points="1605.51,-1042.5 1605.51,-1159.3 1965.57,-1159.3 1965.57,-1042.5 1605.51,-1042.5"/>
<text text-anchor="middle" x="1785.54" y="-1142.7" font-family="Times,serif" font-size="14.00">&lt;&lt;Struct&gt;&gt;</text>
<text text-anchor="middle" x="1785.54" y="-1125.9" font-family="Times,serif" font-size="14.00">UserOpsPerAggregator</text>
<text text-anchor="middle" x="1785.54" y="-1109.1" font-family="Times,serif" font-size="14.00">../../../account&#45;abstraction/contracts/interfaces/IEntryPoint.sol</text>
<polyline fill="none" stroke="black" points="1605.51,-1100.9 1965.57,-1100.9 "/>
<text text-anchor="start" x="1613.51" y="-1084.3" font-family="Times,serif" font-size="14.00">userOps: UserOperation[]</text>
<text text-anchor="start" x="1613.51" y="-1067.5" font-family="Times,serif" font-size="14.00">aggregator: IAggregator</text>
<text text-anchor="start" x="1613.51" y="-1050.7" font-family="Times,serif" font-size="14.00">signature: bytes</text>
</g>
<!-- 2&#45;&gt;11 -->
<g id="edge10" class="edge">
<title>2&#45;&gt;11</title>
<path fill="none" stroke="black" stroke-dasharray="5,2" d="M1707.35,-900.89C1726.89,-950.64 1745.14,-997.08 1759.08,-1032.57"/>
<polygon fill="black" stroke="black" points="1755.99,-1034.25 1762.9,-1042.28 1762.5,-1031.69 1755.99,-1034.25"/>
</g>
<!-- 12 -->
<g id="node9" class="node">
<title>12</title>
<polygon fill="#f2f2f2" stroke="black" points="1189.51,-1017.3 1189.51,-1184.5 1549.57,-1184.5 1549.57,-1017.3 1189.51,-1017.3"/>
<text text-anchor="middle" x="1369.54" y="-1167.9" font-family="Times,serif" font-size="14.00">&lt;&lt;Struct&gt;&gt;</text>
<text text-anchor="middle" x="1369.54" y="-1151.1" font-family="Times,serif" font-size="14.00">ReturnInfo</text>
<text text-anchor="middle" x="1369.54" y="-1134.3" font-family="Times,serif" font-size="14.00">../../../account&#45;abstraction/contracts/interfaces/IEntryPoint.sol</text>
<polyline fill="none" stroke="black" points="1189.51,-1126.1 1549.57,-1126.1 "/>
<text text-anchor="start" x="1197.51" y="-1109.5" font-family="Times,serif" font-size="14.00">preOpGas: uint256</text>
<text text-anchor="start" x="1197.51" y="-1092.7" font-family="Times,serif" font-size="14.00">prefund: uint256</text>
<text text-anchor="start" x="1197.51" y="-1075.9" font-family="Times,serif" font-size="14.00">sigFailed: bool</text>
<text text-anchor="start" x="1197.51" y="-1059.1" font-family="Times,serif" font-size="14.00">validAfter: uint48</text>
<text text-anchor="start" x="1197.51" y="-1042.3" font-family="Times,serif" font-size="14.00">validUntil: uint48</text>
<text text-anchor="start" x="1197.51" y="-1025.5" font-family="Times,serif" font-size="14.00">paymasterContext: bytes</text>
</g>
<!-- 2&#45;&gt;12 -->
<g id="edge18" class="edge">
<title>2&#45;&gt;12</title>
<path fill="none" stroke="black" stroke-dasharray="5,2" d="M1447.73,-900.89C1432.53,-939.59 1418.11,-976.29 1405.89,-1007.38"/>
<polygon fill="black" stroke="black" points="1402.57,-1006.26 1402.17,-1016.85 1409.08,-1008.82 1402.57,-1006.26"/>
</g>
<!-- 13 -->
<g id="node10" class="node">
<title>13</title>
<polygon fill="#f2f2f2" stroke="black" points="811.51,-1050.9 811.51,-1150.9 1171.57,-1150.9 1171.57,-1050.9 811.51,-1050.9"/>
<text text-anchor="middle" x="991.54" y="-1134.3" font-family="Times,serif" font-size="14.00">&lt;&lt;Struct&gt;&gt;</text>
<text text-anchor="middle" x="991.54" y="-1117.5" font-family="Times,serif" font-size="14.00">AggregatorStakeInfo</text>
<text text-anchor="middle" x="991.54" y="-1100.7" font-family="Times,serif" font-size="14.00">../../../account&#45;abstraction/contracts/interfaces/IEntryPoint.sol</text>
<polyline fill="none" stroke="black" points="811.51,-1092.5 1171.57,-1092.5 "/>
<text text-anchor="start" x="819.51" y="-1075.9" font-family="Times,serif" font-size="14.00">aggregator: address</text>
<text text-anchor="start" x="819.51" y="-1059.1" font-family="Times,serif" font-size="14.00">stakeInfo: StakeInfo</text>
</g>
<!-- 2&#45;&gt;13 -->
<g id="edge19" class="edge">
<title>2&#45;&gt;13</title>
<path fill="none" stroke="black" stroke-dasharray="5,2" d="M1211.83,-900.89C1150.66,-956.15 1094.01,-1007.33 1053.47,-1043.95"/>
<polygon fill="black" stroke="black" points="1050.92,-1041.54 1045.84,-1050.84 1055.61,-1046.74 1050.92,-1041.54"/>
</g>
<!-- 10 -->
<g id="node11" class="node">
<title>10</title>
<polygon fill="#f2f2f2" stroke="black" points="704.64,-1301.1 704.64,-1569.1 1702.44,-1569.1 1702.44,-1301.1 704.64,-1301.1"/>
<text text-anchor="middle" x="1203.54" y="-1552.5" font-family="Times,serif" font-size="14.00">&lt;&lt;Interface&gt;&gt;</text>
<text text-anchor="middle" x="1203.54" y="-1535.7" font-family="Times,serif" font-size="14.00">IEntryPoint</text>
<text text-anchor="middle" x="1203.54" y="-1518.9" font-family="Times,serif" font-size="14.00">../../../account&#45;abstraction/contracts/interfaces/IEntryPoint.sol</text>
<polyline fill="none" stroke="black" points="704.64,-1510.7 1702.44,-1510.7 "/>
<text text-anchor="start" x="712.64" y="-1494.1" font-family="Times,serif" font-size="14.00">External:</text>
<text text-anchor="start" x="712.64" y="-1477.3" font-family="Times,serif" font-size="14.00"> &#160;&#160;&#160;&#160;handleOps(ops: UserOperation[], beneficiary: address)</text>
<text text-anchor="start" x="712.64" y="-1460.5" font-family="Times,serif" font-size="14.00"> &#160;&#160;&#160;&#160;handleAggregatedOps(opsPerAggregator: UserOpsPerAggregator[], beneficiary: address)</text>
<text text-anchor="start" x="712.64" y="-1443.7" font-family="Times,serif" font-size="14.00"> &#160;&#160;&#160;&#160;getUserOpHash(userOp: UserOperation): bytes32</text>
<text text-anchor="start" x="712.64" y="-1426.9" font-family="Times,serif" font-size="14.00"> &#160;&#160;&#160;&#160;simulateValidation(userOp: UserOperation)</text>
<text text-anchor="start" x="712.64" y="-1410.1" font-family="Times,serif" font-size="14.00"> &#160;&#160;&#160;&#160;getSenderAddress(initCode: bytes)</text>
<text text-anchor="start" x="712.64" y="-1393.3" font-family="Times,serif" font-size="14.00"> &#160;&#160;&#160;&#160;simulateHandleOp(op: UserOperation, target: address, targetCallData: bytes)</text>
<text text-anchor="start" x="712.64" y="-1376.5" font-family="Times,serif" font-size="14.00">Public:</text>
<text text-anchor="start" x="712.64" y="-1359.7" font-family="Times,serif" font-size="14.00"> &#160;&#160;&#160;&lt;&lt;event&gt;&gt; UserOperationEvent(userOpHash: bytes32, sender: address, paymaster: address, nonce: uint256, success: bool, actualGasCost: uint256, actualGasUsed: uint256)</text>
<text text-anchor="start" x="712.64" y="-1342.9" font-family="Times,serif" font-size="14.00"> &#160;&#160;&#160;&lt;&lt;event&gt;&gt; AccountDeployed(userOpHash: bytes32, sender: address, factory: address, paymaster: address)</text>
<text text-anchor="start" x="712.64" y="-1326.1" font-family="Times,serif" font-size="14.00"> &#160;&#160;&#160;&lt;&lt;event&gt;&gt; UserOperationRevertReason(userOpHash: bytes32, sender: address, nonce: uint256, revertReason: bytes)</text>
<text text-anchor="start" x="712.64" y="-1309.3" font-family="Times,serif" font-size="14.00"> &#160;&#160;&#160;&lt;&lt;event&gt;&gt; SignatureAggregatorChanged(aggregator: address)</text>
</g>
<!-- 2&#45;&gt;10 -->
<g id="edge4" class="edge">
<title>2&#45;&gt;10</title>
<path fill="none" stroke="black" stroke-dasharray="5,2" d="M1583.83,-901.05C1584.16,-1064.12 1579.23,-1232.76 1558.54,-1264.6 1555.56,-1269.18 1552.43,-1273.64 1549.14,-1277.98"/>
<polygon fill="none" stroke="black" points="1541.11,-1271.22 1529.54,-1300.82 1557.04,-1284.89 1541.11,-1271.22"/>
</g>
<!-- 15 -->
<g id="node12" class="node">
<title>15</title>
<polygon fill="#f2f2f2" stroke="black" points="2461.69,-1042.5 2461.69,-1159.3 2819.39,-1159.3 2819.39,-1042.5 2461.69,-1042.5"/>
<text text-anchor="middle" x="2640.54" y="-1142.7" font-family="Times,serif" font-size="14.00">&lt;&lt;Enum&gt;&gt;</text>
<text text-anchor="middle" x="2640.54" y="-1125.9" font-family="Times,serif" font-size="14.00">PostOpMode</text>
<text text-anchor="middle" x="2640.54" y="-1109.1" font-family="Times,serif" font-size="14.00">../../../account&#45;abstraction/contracts/interfaces/IPaymaster.sol</text>
<polyline fill="none" stroke="black" points="2461.69,-1100.9 2819.39,-1100.9 "/>
<text text-anchor="start" x="2469.69" y="-1084.3" font-family="Times,serif" font-size="14.00">opSucceeded: 0</text>
<text text-anchor="start" x="2469.69" y="-1067.5" font-family="Times,serif" font-size="14.00">opReverted: 1</text>
<text text-anchor="start" x="2469.69" y="-1050.7" font-family="Times,serif" font-size="14.00">postOpReverted: 2</text>
</g>
<!-- 2&#45;&gt;15 -->
<g id="edge15" class="edge">
<title>2&#45;&gt;15</title>
<path fill="none" stroke="black" stroke-dasharray="5,2" d="M2182.41,-871.74C2309.18,-934.88 2430.28,-995.19 2516.1,-1037.93"/>
<polygon fill="black" stroke="black" points="2514.57,-1041.07 2525.08,-1042.4 2517.69,-1034.81 2514.57,-1041.07"/>
</g>
<!-- 14 -->
<g id="node13" class="node">
<title>14</title>
<polygon fill="#f2f2f2" stroke="black" points="2246.65,-1376.7 2246.65,-1493.5 3034.43,-1493.5 3034.43,-1376.7 2246.65,-1376.7"/>
<text text-anchor="middle" x="2640.54" y="-1476.9" font-family="Times,serif" font-size="14.00">&lt;&lt;Interface&gt;&gt;</text>
<text text-anchor="middle" x="2640.54" y="-1460.1" font-family="Times,serif" font-size="14.00">IPaymaster</text>
<text text-anchor="middle" x="2640.54" y="-1443.3" font-family="Times,serif" font-size="14.00">../../../account&#45;abstraction/contracts/interfaces/IPaymaster.sol</text>
<polyline fill="none" stroke="black" points="2246.65,-1435.1 3034.43,-1435.1 "/>
<text text-anchor="start" x="2254.65" y="-1418.5" font-family="Times,serif" font-size="14.00">External:</text>
<text text-anchor="start" x="2254.65" y="-1401.7" font-family="Times,serif" font-size="14.00"> &#160;&#160;&#160;&#160;validatePaymasterUserOp(userOp: UserOperation, userOpHash: bytes32, maxCost: uint256): (context: bytes, validationData: uint256)</text>
<text text-anchor="start" x="2254.65" y="-1384.9" font-family="Times,serif" font-size="14.00"> &#160;&#160;&#160;&#160;postOp(mode: PostOpMode, context: bytes, actualGasCost: uint256)</text>
</g>
<!-- 2&#45;&gt;14 -->
<g id="edge14" class="edge">
<title>2&#45;&gt;14</title>
<path fill="none" stroke="black" stroke-dasharray="5,2" d="M1984.34,-901C2197.92,-1074.51 2439.97,-1271.16 2561.71,-1370.06"/>
<polygon fill="black" stroke="black" points="2559.59,-1372.84 2569.56,-1376.43 2564,-1367.41 2559.59,-1372.84"/>
</g>
<!-- 18 -->
<g id="node14" class="node">
<title>18</title>
<polygon fill="#f2f2f2" stroke="black" points="306.42,-1385.1 306.42,-1485.1 686.66,-1485.1 686.66,-1385.1 306.42,-1385.1"/>
<text text-anchor="middle" x="496.54" y="-1468.5" font-family="Times,serif" font-size="14.00">&lt;&lt;Struct&gt;&gt;</text>
<text text-anchor="middle" x="496.54" y="-1451.7" font-family="Times,serif" font-size="14.00">StakeInfo</text>
<text text-anchor="middle" x="496.54" y="-1434.9" font-family="Times,serif" font-size="14.00">../../../account&#45;abstraction/contracts/interfaces/IStakeManager.sol</text>
<polyline fill="none" stroke="black" points="306.42,-1426.7 686.66,-1426.7 "/>
<text text-anchor="start" x="314.42" y="-1410.1" font-family="Times,serif" font-size="14.00">stake: uint256</text>
<text text-anchor="start" x="314.42" y="-1393.3" font-family="Times,serif" font-size="14.00">unstakeDelaySec: uint256</text>
</g>
<!-- 2&#45;&gt;18 -->
<g id="edge17" class="edge">
<title>2&#45;&gt;18</title>
<path fill="none" stroke="black" stroke-dasharray="5,2" d="M972.55,-783.16C840.06,-825.63 699.85,-867.49 567.54,-901.2 482.14,-922.96 428.92,-869.46 372.54,-937.2 326,-993.12 349.94,-1195.44 372.54,-1264.6 386.22,-1306.45 414.58,-1346.54 440.74,-1377.21"/>
<polygon fill="black" stroke="black" points="438.13,-1379.55 447.33,-1384.8 443.42,-1374.96 438.13,-1379.55"/>
</g>
<!-- 19 -->
<g id="node15" class="node">
<title>19</title>
<polygon fill="#f2f2f2" stroke="black" points="2127.97,-1606.1 2127.97,-1857.3 2505.11,-1857.3 2505.11,-1606.1 2127.97,-1606.1"/>
<text text-anchor="middle" x="2316.54" y="-1840.7" font-family="Times,serif" font-size="14.00">&lt;&lt;Struct&gt;&gt;</text>
<text text-anchor="middle" x="2316.54" y="-1823.9" font-family="Times,serif" font-size="14.00">UserOperation</text>
<text text-anchor="middle" x="2316.54" y="-1807.1" font-family="Times,serif" font-size="14.00">../../../account&#45;abstraction/contracts/interfaces/UserOperation.sol</text>
<polyline fill="none" stroke="black" points="2127.97,-1798.9 2505.11,-1798.9 "/>
<text text-anchor="start" x="2135.97" y="-1782.3" font-family="Times,serif" font-size="14.00">sender: address</text>
<text text-anchor="start" x="2135.97" y="-1765.5" font-family="Times,serif" font-size="14.00">nonce: uint256</text>
<text text-anchor="start" x="2135.97" y="-1748.7" font-family="Times,serif" font-size="14.00">initCode: bytes</text>
<text text-anchor="start" x="2135.97" y="-1731.9" font-family="Times,serif" font-size="14.00">callData: bytes</text>
<text text-anchor="start" x="2135.97" y="-1715.1" font-family="Times,serif" font-size="14.00">callGasLimit: uint256</text>
<text text-anchor="start" x="2135.97" y="-1698.3" font-family="Times,serif" font-size="14.00">verificationGasLimit: uint256</text>
<text text-anchor="start" x="2135.97" y="-1681.5" font-family="Times,serif" font-size="14.00">preVerificationGas: uint256</text>
<text text-anchor="start" x="2135.97" y="-1664.7" font-family="Times,serif" font-size="14.00">maxFeePerGas: uint256</text>
<text text-anchor="start" x="2135.97" y="-1647.9" font-family="Times,serif" font-size="14.00">maxPriorityFeePerGas: uint256</text>
<text text-anchor="start" x="2135.97" y="-1631.1" font-family="Times,serif" font-size="14.00">paymasterAndData: bytes</text>
<text text-anchor="start" x="2135.97" y="-1614.3" font-family="Times,serif" font-size="14.00">signature: bytes</text>
</g>
<!-- 2&#45;&gt;19 -->
<g id="edge8" class="edge">
<title>2&#45;&gt;19</title>
<path fill="none" stroke="black" stroke-dasharray="5,2" d="M2182.51,-646.76C2446.01,-699.62 2749.85,-788.47 2994.54,-937.2 3161.66,-1038.78 3120.53,-1164.5 3288.54,-1264.6 3347.44,-1299.69 3396.09,-1246.76 3438.54,-1300.6 3512.56,-1394.49 3516.84,-1479.25 3438.54,-1569.6 3379.04,-1638.25 2821.63,-1691.68 2515.55,-1716.13"/>
<polygon fill="black" stroke="black" points="2514.91,-1712.67 2505.22,-1716.95 2515.46,-1719.65 2514.91,-1712.67"/>
</g>
<!-- 20 -->
<g id="node16" class="node">
<title>20</title>
<polygon fill="#f2f2f2" stroke="black" points="3051.97,-1351.5 3051.97,-1518.7 3429.11,-1518.7 3429.11,-1351.5 3051.97,-1351.5"/>
<text text-anchor="middle" x="3240.54" y="-1502.1" font-family="Times,serif" font-size="14.00">&lt;&lt;Library&gt;&gt;</text>
<text text-anchor="middle" x="3240.54" y="-1485.3" font-family="Times,serif" font-size="14.00">UserOperationLib</text>
<text text-anchor="middle" x="3240.54" y="-1468.5" font-family="Times,serif" font-size="14.00">../../../account&#45;abstraction/contracts/interfaces/UserOperation.sol</text>
<polyline fill="none" stroke="black" points="3051.97,-1460.3 3429.11,-1460.3 "/>
<text text-anchor="start" x="3059.97" y="-1443.7" font-family="Times,serif" font-size="14.00">Internal:</text>
<text text-anchor="start" x="3059.97" y="-1426.9" font-family="Times,serif" font-size="14.00"> &#160;&#160;&#160;getSender(userOp: UserOperation): address</text>
<text text-anchor="start" x="3059.97" y="-1410.1" font-family="Times,serif" font-size="14.00"> &#160;&#160;&#160;gasPrice(userOp: UserOperation): uint256</text>
<text text-anchor="start" x="3059.97" y="-1393.3" font-family="Times,serif" font-size="14.00"> &#160;&#160;&#160;pack(userOp: UserOperation): (ret: bytes)</text>
<text text-anchor="start" x="3059.97" y="-1376.5" font-family="Times,serif" font-size="14.00"> &#160;&#160;&#160;hash(userOp: UserOperation): bytes32</text>
<text text-anchor="start" x="3059.97" y="-1359.7" font-family="Times,serif" font-size="14.00"> &#160;&#160;&#160;min(a: uint256, b: uint256): uint256</text>
</g>
<!-- 2&#45;&gt;20 -->
<g id="edge6" class="edge">
<title>2&#45;&gt;20</title>
<path fill="none" stroke="black" stroke-dasharray="5,2" d="M2182.41,-671.42C2398.48,-726.55 2635.91,-810.49 2828.54,-937.2 2989.36,-1042.99 3119.86,-1230.53 3188.32,-1342.49"/>
<polygon fill="black" stroke="black" points="3185.36,-1344.35 3193.54,-1351.08 3191.34,-1340.72 3185.36,-1344.35"/>
</g>
<!-- 43 -->
<g id="node17" class="node">
<title>43</title>
<polygon fill="#f2f2f2" stroke="black" points="3297.86,-1008.9 3297.86,-1192.9 3753.22,-1192.9 3753.22,-1008.9 3297.86,-1008.9"/>
<text text-anchor="middle" x="3525.54" y="-1176.3" font-family="Times,serif" font-size="14.00">&lt;&lt;Library&gt;&gt;</text>
<text text-anchor="middle" x="3525.54" y="-1159.5" font-family="Times,serif" font-size="14.00">Exec</text>
<text text-anchor="middle" x="3525.54" y="-1142.7" font-family="Times,serif" font-size="14.00">../../../account&#45;abstraction/contracts/utils/Exec.sol</text>
<polyline fill="none" stroke="black" points="3297.86,-1134.5 3753.22,-1134.5 "/>
<text text-anchor="start" x="3305.86" y="-1117.9" font-family="Times,serif" font-size="14.00">Internal:</text>
<text text-anchor="start" x="3305.86" y="-1101.1" font-family="Times,serif" font-size="14.00"> &#160;&#160;&#160;call(to: address, value: uint256, data: bytes, txGas: uint256): (success: bool)</text>
<text text-anchor="start" x="3305.86" y="-1084.3" font-family="Times,serif" font-size="14.00"> &#160;&#160;&#160;staticcall(to: address, data: bytes, txGas: uint256): (success: bool)</text>
<text text-anchor="start" x="3305.86" y="-1067.5" font-family="Times,serif" font-size="14.00"> &#160;&#160;&#160;delegateCall(to: address, data: bytes, txGas: uint256): (success: bool)</text>
<text text-anchor="start" x="3305.86" y="-1050.7" font-family="Times,serif" font-size="14.00"> &#160;&#160;&#160;getReturnData(maxLen: uint256): (returnData: bytes)</text>
<text text-anchor="start" x="3305.86" y="-1033.9" font-family="Times,serif" font-size="14.00"> &#160;&#160;&#160;revertWithData(returnData: bytes)</text>
<text text-anchor="start" x="3305.86" y="-1017.1" font-family="Times,serif" font-size="14.00"> &#160;&#160;&#160;callAndRevert(to: address, data: bytes, maxLen: uint256)</text>
</g>
<!-- 2&#45;&gt;43 -->
<g id="edge16" class="edge">
<title>2&#45;&gt;43</title>
<path fill="none" stroke="black" stroke-dasharray="5,2" d="M2182.74,-643.3C2516.79,-697.48 2933.63,-788.51 3283.54,-937.2 3323.87,-954.34 3364.6,-978.49 3400.84,-1002.95"/>
<polygon fill="black" stroke="black" points="3399.23,-1006.09 3409.47,-1008.83 3403.18,-1000.31 3399.23,-1006.09"/>
</g>
<!-- 7&#45;&gt;18 -->
<g id="edge20" class="edge">
<title>7&#45;&gt;18</title>
<path fill="none" stroke="black" stroke-dasharray="5,2" d="M543.11,-1264.11C532.24,-1303.79 521.29,-1343.77 512.74,-1374.97"/>
<polygon fill="black" stroke="black" points="509.31,-1374.22 510.05,-1384.79 516.07,-1376.07 509.31,-1374.22"/>
</g>
<!-- 9&#45;&gt;19 -->
<g id="edge21" class="edge">
<title>9&#45;&gt;19</title>
<path fill="none" stroke="black" stroke-dasharray="5,2" d="M2066.03,-1502.21C2097.37,-1530.8 2135.22,-1565.32 2171.9,-1598.77"/>
<polygon fill="black" stroke="black" points="2169.95,-1601.74 2179.7,-1605.89 2174.67,-1596.57 2169.95,-1601.74"/>
</g>
<!-- 11&#45;&gt;9 -->
<g id="edge23" class="edge">
<title>11&#45;&gt;9</title>
<path fill="none" stroke="black" stroke-dasharray="5,2" d="M1821.53,-1159.39C1856.22,-1214.79 1908.88,-1298.89 1946.8,-1359.45"/>
<polygon fill="black" stroke="black" points="1944.01,-1361.58 1952.28,-1368.2 1949.94,-1357.87 1944.01,-1361.58"/>
</g>
<!-- 11&#45;&gt;10 -->
<g id="edge25" class="edge">
<title>11&#45;&gt;10</title>
<path fill="none" stroke="black" d="M1718.29,-1159.46C1680.38,-1193.01 1631.11,-1234.49 1582.54,-1264.6 1565.5,-1275.16 1547.69,-1285.4 1529.47,-1295.25"/>
<polygon fill="black" stroke="black" points="1529.28,-1295.36 1525.88,-1301.71 1518.7,-1301.02 1522.11,-1294.66 1529.28,-1295.36"/>
</g>
<!-- 11&#45;&gt;19 -->
<g id="edge22" class="edge">
<title>11&#45;&gt;19</title>
<path fill="none" stroke="black" stroke-dasharray="5,2" d="M1771.94,-1159.39C1747.27,-1269.87 1701.86,-1506.49 1749.54,-1569.6 1794.61,-1629.26 1973,-1673.31 2117.81,-1700.12"/>
<polygon fill="black" stroke="black" points="2117.27,-1703.58 2127.74,-1701.94 2118.53,-1696.7 2117.27,-1703.58"/>
</g>
<!-- 12&#45;&gt;10 -->
<g id="edge26" class="edge">
<title>12&#45;&gt;10</title>
<path fill="none" stroke="black" d="M1328.08,-1184.87C1312.2,-1216.66 1293.58,-1253.91 1275.65,-1289.79"/>
<polygon fill="black" stroke="black" points="1275.48,-1290.14 1276.37,-1297.29 1270.11,-1300.87 1269.22,-1293.72 1275.48,-1290.14"/>
</g>
<!-- 13&#45;&gt;10 -->
<g id="edge27" class="edge">
<title>13&#45;&gt;10</title>
<path fill="none" stroke="black" d="M1022.82,-1150.92C1046.42,-1187.9 1080.07,-1240.63 1111.95,-1290.58"/>
<polygon fill="black" stroke="black" points="1112.05,-1290.74 1118.65,-1293.65 1118.51,-1300.86 1111.91,-1297.95 1112.05,-1290.74"/>
</g>
<!-- 13&#45;&gt;18 -->
<g id="edge24" class="edge">
<title>13&#45;&gt;18</title>
<path fill="none" stroke="black" stroke-dasharray="5,2" d="M945.02,-1151.11C909.01,-1186.79 856.34,-1233.96 802.54,-1264.6 758.94,-1289.43 740.55,-1278.43 695.54,-1300.6 651.13,-1322.48 605.01,-1352.86 568.36,-1379.12"/>
<polygon fill="black" stroke="black" points="566.27,-1376.31 560.21,-1385 570.37,-1381.98 566.27,-1376.31"/>
</g>
<!-- 10&#45;&gt;11 -->
<g id="edge29" class="edge">
<title>10&#45;&gt;11</title>
<path fill="none" stroke="black" stroke-dasharray="5,2" d="M1536.66,-1301.02C1558.67,-1289.4 1580.16,-1277.23 1600.54,-1264.6 1645.7,-1236.61 1691.45,-1198.79 1726.24,-1166.65"/>
<polygon fill="black" stroke="black" points="1729.01,-1168.85 1733.93,-1159.46 1724.24,-1163.73 1729.01,-1168.85"/>
</g>
<!-- 10&#45;&gt;19 -->
<g id="edge28" class="edge">
<title>10&#45;&gt;19</title>
<path fill="none" stroke="black" stroke-dasharray="5,2" d="M1702.66,-1568.21C1849.56,-1607.1 2001.86,-1647.41 2118.01,-1678.15"/>
<polygon fill="black" stroke="black" points="2117.15,-1681.55 2127.72,-1680.72 2118.95,-1674.78 2117.15,-1681.55"/>
</g>
<!-- 15&#45;&gt;14 -->
<g id="edge30" class="edge">
<title>15&#45;&gt;14</title>
<path fill="none" stroke="black" d="M2635.29,-1159.39C2633.42,-1216.28 2633.3,-1303.46 2634.92,-1364.3"/>
<polygon fill="black" stroke="black" points="2634.93,-1364.49 2639.1,-1370.37 2635.28,-1376.48 2631.11,-1370.6 2634.93,-1364.49"/>
</g>
<!-- 14&#45;&gt;15 -->
<g id="edge32" class="edge">
<title>14&#45;&gt;15</title>
<path fill="none" stroke="black" stroke-dasharray="5,2" d="M2645.8,-1376.48C2647.68,-1318.95 2647.78,-1230.54 2646.1,-1169.66"/>
<polygon fill="black" stroke="black" points="2649.59,-1169.28 2645.79,-1159.39 2642.6,-1169.49 2649.59,-1169.28"/>
</g>
<!-- 14&#45;&gt;19 -->
<g id="edge31" class="edge">
<title>14&#45;&gt;19</title>
<path fill="none" stroke="black" stroke-dasharray="5,2" d="M2577.3,-1493.6C2544.1,-1523.79 2501.95,-1562.11 2461.27,-1599.1"/>
<polygon fill="black" stroke="black" points="2458.74,-1596.67 2453.69,-1605.99 2463.45,-1601.85 2458.74,-1596.67"/>
</g>
<!-- 20&#45;&gt;19 -->
<g id="edge33" class="edge">
<title>20&#45;&gt;19</title>
<path fill="none" stroke="black" stroke-dasharray="5,2" d="M3134.35,-1518.7C3106.05,-1537.68 3074.65,-1556.19 3043.54,-1569.6 2873.08,-1643.05 2665.15,-1684.78 2515.39,-1707.27"/>
<polygon fill="black" stroke="black" points="2514.54,-1703.86 2505.16,-1708.79 2515.57,-1710.79 2514.54,-1703.86"/>
</g>
</g>
</svg>
