<?xml version="1.0" encoding="UTF-8" standalone="no"?>
<!DOCTYPE svg PUBLIC "-//W3C//DTD SVG 1.1//EN"
 "http://www.w3.org/Graphics/SVG/1.1/DTD/svg11.dtd">
<!-- Generated by graphviz version 5.0.0 (20220707.1540)
 -->
<!-- Title: UmlClassDiagram Pages: 1 -->
<svg width="728pt" height="397pt"
 viewBox="0.00 0.00 727.76 397.20" xmlns="http://www.w3.org/2000/svg" xmlns:xlink="http://www.w3.org/1999/xlink">
<g id="graph0" class="graph" transform="scale(1 1) rotate(0) translate(4 393.2)">
<title>UmlClassDiagram</title>
<polygon fill="white" stroke="transparent" points="-4,4 -4,-393.2 723.76,-393.2 723.76,4 -4,4"/>
<!-- 8 -->
<g id="node1" class="node">
<title>8</title>
<polygon fill="#f2f2f2" stroke="black" points="0,-0.5 0,-100.5 719.76,-100.5 719.76,-0.5 0,-0.5"/>
<text text-anchor="middle" x="359.88" y="-83.9" font-family="Times,serif" font-size="14.00">&lt;&lt;Interface&gt;&gt;</text>
<text text-anchor="middle" x="359.88" y="-67.1" font-family="Times,serif" font-size="14.00">IAccount</text>
<text text-anchor="middle" x="359.88" y="-50.3" font-family="Times,serif" font-size="14.00">../../../account&#45;abstraction/contracts/interfaces/IAccount.sol</text>
<polyline fill="none" stroke="black" points="0,-42.1 719.76,-42.1 "/>
<text text-anchor="start" x="8" y="-25.5" font-family="Times,serif" font-size="14.00">External:</text>
<text text-anchor="start" x="8" y="-8.7" font-family="Times,serif" font-size="14.00"> &#160;&#160;&#160;&#160;validateUserOp(userOp: UserOperation, userOpHash: bytes32, missingAccountFunds: uint256): (validationData: uint256)</text>
</g>
<!-- 19 -->
<g id="node2" class="node">
<title>19</title>
<polygon fill="#f2f2f2" stroke="black" points="171.31,-137.5 171.31,-388.7 548.45,-388.7 548.45,-137.5 171.31,-137.5"/>
<text text-anchor="middle" x="359.88" y="-372.1" font-family="Times,serif" font-size="14.00">&lt;&lt;Struct&gt;&gt;</text>
<text text-anchor="middle" x="359.88" y="-355.3" font-family="Times,serif" font-size="14.00">UserOperation</text>
<text text-anchor="middle" x="359.88" y="-338.5" font-family="Times,serif" font-size="14.00">../../../account&#45;abstraction/contracts/interfaces/UserOperation.sol</text>
<polyline fill="none" stroke="black" points="171.31,-330.3 548.45,-330.3 "/>
<text text-anchor="start" x="179.31" y="-313.7" font-family="Times,serif" font-size="14.00">sender: address</text>
<text text-anchor="start" x="179.31" y="-296.9" font-family="Times,serif" font-size="14.00">nonce: uint256</text>
<text text-anchor="start" x="179.31" y="-280.1" font-family="Times,serif" font-size="14.00">initCode: bytes</text>
<text text-anchor="start" x="179.31" y="-263.3" font-family="Times,serif" font-size="14.00">callData: bytes</text>
<text text-anchor="start" x="179.31" y="-246.5" font-family="Times,serif" font-size="14.00">callGasLimit: uint256</text>
<text text-anchor="start" x="179.31" y="-229.7" font-family="Times,serif" font-size="14.00">verificationGasLimit: uint256</text>
<text text-anchor="start" x="179.31" y="-212.9" font-family="Times,serif" font-size="14.00">preVerificationGas: uint256</text>
<text text-anchor="start" x="179.31" y="-196.1" font-family="Times,serif" font-size="14.00">maxFeePerGas: uint256</text>
<text text-anchor="start" x="179.31" y="-179.3" font-family="Times,serif" font-size="14.00">maxPriorityFeePerGas: uint256</text>
<text text-anchor="start" x="179.31" y="-162.5" font-family="Times,serif" font-size="14.00">paymasterAndData: bytes</text>
<text text-anchor="start" x="179.31" y="-145.7" font-family="Times,serif" font-size="14.00">signature: bytes</text>
</g>
<!-- 8&#45;&gt;19 -->
<g id="edge1" class="edge">
<title>8&#45;&gt;19</title>
<path fill="none" stroke="black" stroke-dasharray="5,2" d="M359.88,-100.61C359.88,-108.91 359.88,-117.87 359.88,-127.17"/>
<polygon fill="black" stroke="black" points="356.38,-127.37 359.88,-137.37 363.38,-127.37 356.38,-127.37"/>
</g>
</g>
</svg>
