<?xml version="1.0" encoding="UTF-8" standalone="no"?>
<!DOCTYPE svg PUBLIC "-//W3C//DTD SVG 1.1//EN"
 "http://www.w3.org/Graphics/SVG/1.1/DTD/svg11.dtd">
<!-- Generated by graphviz version 5.0.0 (20220707.1540)
 -->
<!-- Title: UmlClassDiagram Pages: 1 -->
<svg width="1139pt" height="337pt"
 viewBox="0.00 0.00 1138.53 336.80" xmlns="http://www.w3.org/2000/svg" xmlns:xlink="http://www.w3.org/1999/xlink">
<g id="graph0" class="graph" transform="scale(1 1) rotate(0) translate(4 332.8)">
<title>UmlClassDiagram</title>
<polygon fill="white" stroke="transparent" points="-4,4 -4,-332.8 1134.53,-332.8 1134.53,4 -4,4"/>
<!-- 0 -->
<g id="node1" class="node">
<title>0</title>
<polygon fill="#f2f2f2" stroke="black" points="193.88,-79.1 193.88,-137.5 532.94,-137.5 532.94,-79.1 193.88,-79.1"/>
<text text-anchor="middle" x="363.41" y="-120.9" font-family="Times,serif" font-size="14.00">&lt;&lt;Abstract&gt;&gt;</text>
<text text-anchor="middle" x="363.41" y="-104.1" font-family="Times,serif" font-size="14.00">BaseAccount</text>
<text text-anchor="middle" x="363.41" y="-87.3" font-family="Times,serif" font-size="14.00">../../../account&#45;abstraction/contracts/core/BaseAccount.sol</text>
</g>
<!-- 8 -->
<g id="node2" class="node">
<title>8</title>
<polygon fill="#f2f2f2" stroke="black" points="0,-174.5 0,-232.9 346.82,-232.9 346.82,-174.5 0,-174.5"/>
<text text-anchor="middle" x="173.41" y="-216.3" font-family="Times,serif" font-size="14.00">&lt;&lt;Interface&gt;&gt;</text>
<text text-anchor="middle" x="173.41" y="-199.5" font-family="Times,serif" font-size="14.00">IAccount</text>
<text text-anchor="middle" x="173.41" y="-182.7" font-family="Times,serif" font-size="14.00">../../../account&#45;abstraction/contracts/interfaces/IAccount.sol</text>
</g>
<!-- 0&#45;&gt;8 -->
<g id="edge1" class="edge">
<title>0&#45;&gt;8</title>
<path fill="none" stroke="black" stroke-dasharray="5,2" d="M305.89,-137.58C290.8,-144.99 274.2,-153.15 258.02,-161.11"/>
<polygon fill="none" stroke="black" points="253.35,-151.7 231.06,-174.36 262.62,-170.55 253.35,-151.7"/>
</g>
<!-- 10 -->
<g id="node3" class="node">
<title>10</title>
<polygon fill="#f2f2f2" stroke="black" points="760.38,-174.5 760.38,-232.9 1120.44,-232.9 1120.44,-174.5 760.38,-174.5"/>
<text text-anchor="middle" x="940.41" y="-216.3" font-family="Times,serif" font-size="14.00">&lt;&lt;Interface&gt;&gt;</text>
<text text-anchor="middle" x="940.41" y="-199.5" font-family="Times,serif" font-size="14.00">IEntryPoint</text>
<text text-anchor="middle" x="940.41" y="-182.7" font-family="Times,serif" font-size="14.00">../../../account&#45;abstraction/contracts/interfaces/IEntryPoint.sol</text>
</g>
<!-- 0&#45;&gt;10 -->
<g id="edge3" class="edge">
<title>0&#45;&gt;10</title>
<path fill="none" stroke="black" stroke-dasharray="5,2" d="M533.02,-136.75C603.12,-148.1 684.56,-161.29 756.13,-172.87"/>
<polygon fill="black" stroke="black" points="755.73,-176.35 766.16,-174.49 756.84,-169.44 755.73,-176.35"/>
</g>
<!-- 20 -->
<g id="node5" class="node">
<title>20</title>
<polygon fill="#f2f2f2" stroke="black" points="364.84,-174.5 364.84,-232.9 741.98,-232.9 741.98,-174.5 364.84,-174.5"/>
<text text-anchor="middle" x="553.41" y="-216.3" font-family="Times,serif" font-size="14.00">&lt;&lt;Library&gt;&gt;</text>
<text text-anchor="middle" x="553.41" y="-199.5" font-family="Times,serif" font-size="14.00">UserOperationLib</text>
<text text-anchor="middle" x="553.41" y="-182.7" font-family="Times,serif" font-size="14.00">../../../account&#45;abstraction/contracts/interfaces/UserOperation.sol</text>
</g>
<!-- 0&#45;&gt;20 -->
<g id="edge2" class="edge">
<title>0&#45;&gt;20</title>
<path fill="none" stroke="black" stroke-dasharray="5,2" d="M420.93,-137.58C441.67,-147.77 465.25,-159.36 486.7,-169.91"/>
<polygon fill="black" stroke="black" points="485.24,-173.09 495.76,-174.36 488.32,-166.81 485.24,-173.09"/>
</g>
<!-- 16 -->
<g id="node4" class="node">
<title>16</title>
<polygon fill="#f2f2f2" stroke="black" points="750.29,-269.9 750.29,-328.3 1130.53,-328.3 1130.53,-269.9 750.29,-269.9"/>
<text text-anchor="middle" x="940.41" y="-311.7" font-family="Times,serif" font-size="14.00">&lt;&lt;Interface&gt;&gt;</text>
<text text-anchor="middle" x="940.41" y="-294.9" font-family="Times,serif" font-size="14.00">IStakeManager</text>
<text text-anchor="middle" x="940.41" y="-278.1" font-family="Times,serif" font-size="14.00">../../../account&#45;abstraction/contracts/interfaces/IStakeManager.sol</text>
</g>
<!-- 10&#45;&gt;16 -->
<g id="edge4" class="edge">
<title>10&#45;&gt;16</title>
<path fill="none" stroke="black" stroke-dasharray="5,2" d="M940.41,-232.98C940.41,-235.06 940.41,-237.2 940.41,-239.38"/>
<polygon fill="none" stroke="black" points="929.91,-239.6 940.41,-269.6 950.91,-239.6 929.91,-239.6"/>
</g>
<!-- 23 -->
<g id="node6" class="node">
<title>23</title>
<polygon fill="#f2f2f2" stroke="black" points="177.15,-0.5 177.15,-42.1 549.67,-42.1 549.67,-0.5 177.15,-0.5"/>
<text text-anchor="middle" x="363.41" y="-25.5" font-family="Times,serif" font-size="14.00">SimpleAccount</text>
<text text-anchor="middle" x="363.41" y="-8.7" font-family="Times,serif" font-size="14.00">../../../account&#45;abstraction/contracts/samples/SimpleAccount.sol</text>
</g>
<!-- 23&#45;&gt;0 -->
<g id="edge5" class="edge">
<title>23&#45;&gt;0</title>
<path fill="none" stroke="black" d="M363.41,-42.44C363.41,-44.49 363.41,-46.63 363.41,-48.83"/>
<polygon fill="none" stroke="black" points="352.91,-48.94 363.41,-78.94 373.91,-48.94 352.91,-48.94"/>
</g>
<!-- 23&#45;&gt;10 -->
<g id="edge6" class="edge">
<title>23&#45;&gt;10</title>
<path fill="none" stroke="black" d="M426.81,-42.12C526.61,-73.33 721.22,-134.17 840.13,-171.35"/>
<polygon fill="black" stroke="black" points="839.38,-174.78 849.97,-174.42 841.47,-168.1 839.38,-174.78"/>
</g>
</g>
</svg>
