<?xml version="1.0" encoding="UTF-8" standalone="no"?>
<!DOCTYPE svg PUBLIC "-//W3C//DTD SVG 1.1//EN"
 "http://www.w3.org/Graphics/SVG/1.1/DTD/svg11.dtd">
<!-- Generated by graphviz version 5.0.0 (20220707.1540)
 -->
<!-- Title: UmlClassDiagram Pages: 1 -->
<svg width="1891pt" height="1969pt"
 viewBox="0.00 0.00 1891.35 1969.20" xmlns="http://www.w3.org/2000/svg" xmlns:xlink="http://www.w3.org/1999/xlink">
<g id="graph0" class="graph" transform="scale(1 1) rotate(0) translate(4 1965.2)">
<title>UmlClassDiagram</title>
<polygon fill="white" stroke="transparent" points="-4,4 -4,-1965.2 1887.35,-1965.2 1887.35,4 -4,4"/>
<!-- 0 -->
<g id="node1" class="node">
<title>0</title>
<polygon fill="#f2f2f2" stroke="black" points="1091.51,-565.5 1091.51,-841.5 1807.77,-841.5 1807.77,-565.5 1091.51,-565.5"/>
<text text-anchor="middle" x="1449.64" y="-824.9" font-family="Times,serif" font-size="14.00">&lt;&lt;Abstract&gt;&gt;</text>
<text text-anchor="middle" x="1449.64" y="-808.1" font-family="Times,serif" font-size="14.00">BaseAccount</text>
<text text-anchor="middle" x="1449.64" y="-791.3" font-family="Times,serif" font-size="14.00">../../../account&#45;abstraction/contracts/core/BaseAccount.sol</text>
<polyline fill="none" stroke="black" points="1091.51,-783.1 1807.77,-783.1 "/>
<text text-anchor="start" x="1099.51" y="-766.5" font-family="Times,serif" font-size="14.00">Internal:</text>
<text text-anchor="start" x="1099.51" y="-749.7" font-family="Times,serif" font-size="14.00"> &#160;&#160;SIG_VALIDATION_FAILED: uint256</text>
<polyline fill="none" stroke="black" points="1091.51,-741.5 1807.77,-741.5 "/>
<text text-anchor="start" x="1099.51" y="-724.9" font-family="Times,serif" font-size="14.00">Internal:</text>
<text text-anchor="start" x="1099.51" y="-708.1" font-family="Times,serif" font-size="14.00"> &#160;&#160;&#160;&lt;&lt;abstract&gt;&gt; _validateSignature(userOp: UserOperation, userOpHash: bytes32): (validationData: uint256)</text>
<text text-anchor="start" x="1099.51" y="-691.3" font-family="Times,serif" font-size="14.00"> &#160;&#160;&#160;&lt;&lt;abstract&gt;&gt; _validateAndUpdateNonce(userOp: UserOperation)</text>
<text text-anchor="start" x="1099.51" y="-674.5" font-family="Times,serif" font-size="14.00"> &#160;&#160;&#160;_requireFromEntryPoint()</text>
<text text-anchor="start" x="1099.51" y="-657.7" font-family="Times,serif" font-size="14.00"> &#160;&#160;&#160;_payPrefund(missingAccountFunds: uint256)</text>
<text text-anchor="start" x="1099.51" y="-640.9" font-family="Times,serif" font-size="14.00">External:</text>
<text text-anchor="start" x="1099.51" y="-624.1" font-family="Times,serif" font-size="14.00"> &#160;&#160;&#160;validateUserOp(userOp: UserOperation, userOpHash: bytes32, missingAccountFunds: uint256): (validationData: uint256)</text>
<text text-anchor="start" x="1099.51" y="-607.3" font-family="Times,serif" font-size="14.00">Public:</text>
<text text-anchor="start" x="1099.51" y="-590.5" font-family="Times,serif" font-size="14.00"> &#160;&#160;&#160;&lt;&lt;abstract&gt;&gt; nonce(): uint256</text>
<text text-anchor="start" x="1099.51" y="-573.7" font-family="Times,serif" font-size="14.00"> &#160;&#160;&#160;&lt;&lt;abstract&gt;&gt; entryPoint(): IEntryPoint</text>
</g>
<!-- 8 -->
<g id="node2" class="node">
<title>8</title>
<polygon fill="#f2f2f2" stroke="black" points="1089.76,-962.5 1089.76,-1062.5 1809.52,-1062.5 1809.52,-962.5 1089.76,-962.5"/>
<text text-anchor="middle" x="1449.64" y="-1045.9" font-family="Times,serif" font-size="14.00">&lt;&lt;Interface&gt;&gt;</text>
<text text-anchor="middle" x="1449.64" y="-1029.1" font-family="Times,serif" font-size="14.00">IAccount</text>
<text text-anchor="middle" x="1449.64" y="-1012.3" font-family="Times,serif" font-size="14.00">../../../account&#45;abstraction/contracts/interfaces/IAccount.sol</text>
<polyline fill="none" stroke="black" points="1089.76,-1004.1 1809.52,-1004.1 "/>
<text text-anchor="start" x="1097.76" y="-987.5" font-family="Times,serif" font-size="14.00">External:</text>
<text text-anchor="start" x="1097.76" y="-970.7" font-family="Times,serif" font-size="14.00"> &#160;&#160;&#160;&#160;validateUserOp(userOp: UserOperation, userOpHash: bytes32, missingAccountFunds: uint256): (validationData: uint256)</text>
</g>
<!-- 0&#45;&gt;8 -->
<g id="edge1" class="edge">
<title>0&#45;&gt;8</title>
<path fill="none" stroke="black" stroke-dasharray="5,2" d="M1449.64,-841.84C1449.64,-872.7 1449.64,-904.45 1449.64,-932.02"/>
<polygon fill="none" stroke="black" points="1439.14,-932.15 1449.64,-962.15 1460.14,-932.15 1439.14,-932.15"/>
</g>
<!-- 10 -->
<g id="node5" class="node">
<title>10</title>
<polygon fill="#f2f2f2" stroke="black" points="35.74,-878.5 35.74,-1146.5 1033.54,-1146.5 1033.54,-878.5 35.74,-878.5"/>
<text text-anchor="middle" x="534.64" y="-1129.9" font-family="Times,serif" font-size="14.00">&lt;&lt;Interface&gt;&gt;</text>
<text text-anchor="middle" x="534.64" y="-1113.1" font-family="Times,serif" font-size="14.00">IEntryPoint</text>
<text text-anchor="middle" x="534.64" y="-1096.3" font-family="Times,serif" font-size="14.00">../../../account&#45;abstraction/contracts/interfaces/IEntryPoint.sol</text>
<polyline fill="none" stroke="black" points="35.74,-1088.1 1033.54,-1088.1 "/>
<text text-anchor="start" x="43.74" y="-1071.5" font-family="Times,serif" font-size="14.00">External:</text>
<text text-anchor="start" x="43.74" y="-1054.7" font-family="Times,serif" font-size="14.00"> &#160;&#160;&#160;&#160;handleOps(ops: UserOperation[], beneficiary: address)</text>
<text text-anchor="start" x="43.74" y="-1037.9" font-family="Times,serif" font-size="14.00"> &#160;&#160;&#160;&#160;handleAggregatedOps(opsPerAggregator: UserOpsPerAggregator[], beneficiary: address)</text>
<text text-anchor="start" x="43.74" y="-1021.1" font-family="Times,serif" font-size="14.00"> &#160;&#160;&#160;&#160;getUserOpHash(userOp: UserOperation): bytes32</text>
<text text-anchor="start" x="43.74" y="-1004.3" font-family="Times,serif" font-size="14.00"> &#160;&#160;&#160;&#160;simulateValidation(userOp: UserOperation)</text>
<text text-anchor="start" x="43.74" y="-987.5" font-family="Times,serif" font-size="14.00"> &#160;&#160;&#160;&#160;getSenderAddress(initCode: bytes)</text>
<text text-anchor="start" x="43.74" y="-970.7" font-family="Times,serif" font-size="14.00"> &#160;&#160;&#160;&#160;simulateHandleOp(op: UserOperation, target: address, targetCallData: bytes)</text>
<text text-anchor="start" x="43.74" y="-953.9" font-family="Times,serif" font-size="14.00">Public:</text>
<text text-anchor="start" x="43.74" y="-937.1" font-family="Times,serif" font-size="14.00"> &#160;&#160;&#160;&lt;&lt;event&gt;&gt; UserOperationEvent(userOpHash: bytes32, sender: address, paymaster: address, nonce: uint256, success: bool, actualGasCost: uint256, actualGasUsed: uint256)</text>
<text text-anchor="start" x="43.74" y="-920.3" font-family="Times,serif" font-size="14.00"> &#160;&#160;&#160;&lt;&lt;event&gt;&gt; AccountDeployed(userOpHash: bytes32, sender: address, factory: address, paymaster: address)</text>
<text text-anchor="start" x="43.74" y="-903.5" font-family="Times,serif" font-size="14.00"> &#160;&#160;&#160;&lt;&lt;event&gt;&gt; UserOperationRevertReason(userOpHash: bytes32, sender: address, nonce: uint256, revertReason: bytes)</text>
<text text-anchor="start" x="43.74" y="-886.7" font-family="Times,serif" font-size="14.00"> &#160;&#160;&#160;&lt;&lt;event&gt;&gt; SignatureAggregatorChanged(aggregator: address)</text>
</g>
<!-- 0&#45;&gt;10 -->
<g id="edge3" class="edge">
<title>0&#45;&gt;10</title>
<path fill="none" stroke="black" stroke-dasharray="5,2" d="M1091.29,-824.73C1041.99,-841.27 991.08,-858.36 940.99,-875.16"/>
<polygon fill="black" stroke="black" points="939.69,-871.91 931.32,-878.4 941.92,-878.54 939.69,-871.91"/>
</g>
<!-- 19 -->
<g id="node8" class="node">
<title>19</title>
<polygon fill="#f2f2f2" stroke="black" points="1044.06,-1709.5 1044.06,-1960.7 1421.21,-1960.7 1421.21,-1709.5 1044.06,-1709.5"/>
<text text-anchor="middle" x="1232.64" y="-1944.1" font-family="Times,serif" font-size="14.00">&lt;&lt;Struct&gt;&gt;</text>
<text text-anchor="middle" x="1232.64" y="-1927.3" font-family="Times,serif" font-size="14.00">UserOperation</text>
<text text-anchor="middle" x="1232.64" y="-1910.5" font-family="Times,serif" font-size="14.00">../../../account&#45;abstraction/contracts/interfaces/UserOperation.sol</text>
<polyline fill="none" stroke="black" points="1044.06,-1902.3 1421.21,-1902.3 "/>
<text text-anchor="start" x="1052.06" y="-1885.7" font-family="Times,serif" font-size="14.00">sender: address</text>
<text text-anchor="start" x="1052.06" y="-1868.9" font-family="Times,serif" font-size="14.00">nonce: uint256</text>
<text text-anchor="start" x="1052.06" y="-1852.1" font-family="Times,serif" font-size="14.00">initCode: bytes</text>
<text text-anchor="start" x="1052.06" y="-1835.3" font-family="Times,serif" font-size="14.00">callData: bytes</text>
<text text-anchor="start" x="1052.06" y="-1818.5" font-family="Times,serif" font-size="14.00">callGasLimit: uint256</text>
<text text-anchor="start" x="1052.06" y="-1801.7" font-family="Times,serif" font-size="14.00">verificationGasLimit: uint256</text>
<text text-anchor="start" x="1052.06" y="-1784.9" font-family="Times,serif" font-size="14.00">preVerificationGas: uint256</text>
<text text-anchor="start" x="1052.06" y="-1768.1" font-family="Times,serif" font-size="14.00">maxFeePerGas: uint256</text>
<text text-anchor="start" x="1052.06" y="-1751.3" font-family="Times,serif" font-size="14.00">maxPriorityFeePerGas: uint256</text>
<text text-anchor="start" x="1052.06" y="-1734.5" font-family="Times,serif" font-size="14.00">paymasterAndData: bytes</text>
<text text-anchor="start" x="1052.06" y="-1717.7" font-family="Times,serif" font-size="14.00">signature: bytes</text>
</g>
<!-- 0&#45;&gt;19 -->
<g id="edge4" class="edge">
<title>0&#45;&gt;19</title>
<path fill="none" stroke="black" stroke-dasharray="5,2" d="M1790.37,-841.8C1800.87,-852.96 1810.38,-865 1818.64,-878 1882.71,-978.93 1858.22,-1034.19 1818.64,-1147 1738.63,-1374.99 1542.57,-1577.5 1399.19,-1702.57"/>
<polygon fill="black" stroke="black" points="1396.8,-1700.01 1391.54,-1709.21 1401.39,-1705.3 1396.8,-1700.01"/>
</g>
<!-- 20 -->
<g id="node9" class="node">
<title>20</title>
<polygon fill="#f2f2f2" stroke="black" points="1044.06,-1250.7 1044.06,-1417.9 1421.21,-1417.9 1421.21,-1250.7 1044.06,-1250.7"/>
<text text-anchor="middle" x="1232.64" y="-1401.3" font-family="Times,serif" font-size="14.00">&lt;&lt;Library&gt;&gt;</text>
<text text-anchor="middle" x="1232.64" y="-1384.5" font-family="Times,serif" font-size="14.00">UserOperationLib</text>
<text text-anchor="middle" x="1232.64" y="-1367.7" font-family="Times,serif" font-size="14.00">../../../account&#45;abstraction/contracts/interfaces/UserOperation.sol</text>
<polyline fill="none" stroke="black" points="1044.06,-1359.5 1421.21,-1359.5 "/>
<text text-anchor="start" x="1052.06" y="-1342.9" font-family="Times,serif" font-size="14.00">Internal:</text>
<text text-anchor="start" x="1052.06" y="-1326.1" font-family="Times,serif" font-size="14.00"> &#160;&#160;&#160;getSender(userOp: UserOperation): address</text>
<text text-anchor="start" x="1052.06" y="-1309.3" font-family="Times,serif" font-size="14.00"> &#160;&#160;&#160;gasPrice(userOp: UserOperation): uint256</text>
<text text-anchor="start" x="1052.06" y="-1292.5" font-family="Times,serif" font-size="14.00"> &#160;&#160;&#160;pack(userOp: UserOperation): (ret: bytes)</text>
<text text-anchor="start" x="1052.06" y="-1275.7" font-family="Times,serif" font-size="14.00"> &#160;&#160;&#160;hash(userOp: UserOperation): bytes32</text>
<text text-anchor="start" x="1052.06" y="-1258.9" font-family="Times,serif" font-size="14.00"> &#160;&#160;&#160;min(a: uint256, b: uint256): uint256</text>
</g>
<!-- 0&#45;&gt;20 -->
<g id="edge2" class="edge">
<title>0&#45;&gt;20</title>
<path fill="none" stroke="black" stroke-dasharray="5,2" d="M1108.9,-841.8C1098.4,-852.96 1088.89,-865 1080.64,-878 1048.6,-928.47 1060.58,-1090.69 1080.64,-1147 1092.99,-1181.69 1114.88,-1214.59 1138.26,-1242.81"/>
<polygon fill="black" stroke="black" points="1135.76,-1245.28 1144.89,-1250.65 1141.1,-1240.75 1135.76,-1245.28"/>
</g>
<!-- 8&#45;&gt;19 -->
<g id="edge5" class="edge">
<title>8&#45;&gt;19</title>
<path fill="none" stroke="black" stroke-dasharray="5,2" d="M1455.14,-1062.61C1463.27,-1149.76 1473.31,-1336.34 1430.64,-1485.6 1408.99,-1561.32 1367.78,-1638.21 1328.54,-1700.42"/>
<polygon fill="black" stroke="black" points="1325.44,-1698.79 1323.02,-1709.1 1331.34,-1702.54 1325.44,-1698.79"/>
</g>
<!-- 9 -->
<g id="node3" class="node">
<title>9</title>
<polygon fill="#f2f2f2" stroke="black" points="36.6,-1530.5 36.6,-1664.1 506.67,-1664.1 506.67,-1530.5 36.6,-1530.5"/>
<text text-anchor="middle" x="271.64" y="-1647.5" font-family="Times,serif" font-size="14.00">&lt;&lt;Interface&gt;&gt;</text>
<text text-anchor="middle" x="271.64" y="-1630.7" font-family="Times,serif" font-size="14.00">IAggregator</text>
<text text-anchor="middle" x="271.64" y="-1613.9" font-family="Times,serif" font-size="14.00">../../../account&#45;abstraction/contracts/interfaces/IAggregator.sol</text>
<polyline fill="none" stroke="black" points="36.6,-1605.7 506.67,-1605.7 "/>
<text text-anchor="start" x="44.6" y="-1589.1" font-family="Times,serif" font-size="14.00">External:</text>
<text text-anchor="start" x="44.6" y="-1572.3" font-family="Times,serif" font-size="14.00"> &#160;&#160;&#160;&#160;validateSignatures(userOps: UserOperation[], signature: bytes)</text>
<text text-anchor="start" x="44.6" y="-1555.5" font-family="Times,serif" font-size="14.00"> &#160;&#160;&#160;&#160;validateUserOpSignature(userOp: UserOperation): (sigForUserOp: bytes)</text>
<text text-anchor="start" x="44.6" y="-1538.7" font-family="Times,serif" font-size="14.00"> &#160;&#160;&#160;&#160;aggregateSignatures(userOps: UserOperation[]): (aggregatedSignature: bytes)</text>
</g>
<!-- 9&#45;&gt;19 -->
<g id="edge6" class="edge">
<title>9&#45;&gt;19</title>
<path fill="none" stroke="black" stroke-dasharray="5,2" d="M483.29,-1664.16C494.21,-1667.23 505.04,-1670.19 515.64,-1673 689.54,-1719.08 889.4,-1763.28 1033.87,-1793.68"/>
<polygon fill="black" stroke="black" points="1033.23,-1797.13 1043.73,-1795.76 1034.67,-1790.28 1033.23,-1797.13"/>
</g>
<!-- 11 -->
<g id="node4" class="node">
<title>11</title>
<polygon fill="#f2f2f2" stroke="black" points="63.61,-1275.9 63.61,-1392.7 423.67,-1392.7 423.67,-1275.9 63.61,-1275.9"/>
<text text-anchor="middle" x="243.64" y="-1376.1" font-family="Times,serif" font-size="14.00">&lt;&lt;Struct&gt;&gt;</text>
<text text-anchor="middle" x="243.64" y="-1359.3" font-family="Times,serif" font-size="14.00">UserOpsPerAggregator</text>
<text text-anchor="middle" x="243.64" y="-1342.5" font-family="Times,serif" font-size="14.00">../../../account&#45;abstraction/contracts/interfaces/IEntryPoint.sol</text>
<polyline fill="none" stroke="black" points="63.61,-1334.3 423.67,-1334.3 "/>
<text text-anchor="start" x="71.61" y="-1317.7" font-family="Times,serif" font-size="14.00">userOps: UserOperation[]</text>
<text text-anchor="start" x="71.61" y="-1300.9" font-family="Times,serif" font-size="14.00">aggregator: IAggregator</text>
<text text-anchor="start" x="71.61" y="-1284.1" font-family="Times,serif" font-size="14.00">signature: bytes</text>
</g>
<!-- 11&#45;&gt;9 -->
<g id="edge8" class="edge">
<title>11&#45;&gt;9</title>
<path fill="none" stroke="black" stroke-dasharray="5,2" d="M249.82,-1392.9C253.82,-1430.27 259.09,-1479.37 263.45,-1519.97"/>
<polygon fill="black" stroke="black" points="259.99,-1520.53 264.53,-1530.1 266.95,-1519.78 259.99,-1520.53"/>
</g>
<!-- 11&#45;&gt;10 -->
<g id="edge9" class="edge">
<title>11&#45;&gt;10</title>
<path fill="none" stroke="black" d="M301.23,-1275.86C332.91,-1242.25 373.46,-1198.2 411.84,-1155.82"/>
<polygon fill="black" stroke="black" points="411.95,-1155.71 413.01,-1148.57 420,-1146.81 418.94,-1153.94 411.95,-1155.71"/>
</g>
<!-- 11&#45;&gt;19 -->
<g id="edge7" class="edge">
<title>11&#45;&gt;19</title>
<path fill="none" stroke="black" stroke-dasharray="5,2" d="M144.5,-1392.83C99.97,-1424.56 52.02,-1468.36 27.64,-1521.6 -0.39,-1582.78 -16.68,-1622.37 27.64,-1673 92.79,-1747.45 708.89,-1799.26 1033.95,-1821.66"/>
<polygon fill="black" stroke="black" points="1033.74,-1825.15 1043.96,-1822.35 1034.22,-1818.17 1033.74,-1825.15"/>
</g>
<!-- 10&#45;&gt;11 -->
<g id="edge12" class="edge">
<title>10&#45;&gt;11</title>
<path fill="none" stroke="black" stroke-dasharray="5,2" d="M406.67,-1146.81C368.27,-1188.71 328.22,-1233.13 297.41,-1268.09"/>
<polygon fill="black" stroke="black" points="294.55,-1266.04 290.58,-1275.86 299.81,-1270.66 294.55,-1266.04"/>
</g>
<!-- 16 -->
<g id="node7" class="node">
<title>16</title>
<polygon fill="#f2f2f2" stroke="black" points="441.63,-1183.5 441.63,-1485.1 987.64,-1485.1 987.64,-1183.5 441.63,-1183.5"/>
<text text-anchor="middle" x="714.64" y="-1468.5" font-family="Times,serif" font-size="14.00">&lt;&lt;Interface&gt;&gt;</text>
<text text-anchor="middle" x="714.64" y="-1451.7" font-family="Times,serif" font-size="14.00">IStakeManager</text>
<text text-anchor="middle" x="714.64" y="-1434.9" font-family="Times,serif" font-size="14.00">../../../account&#45;abstraction/contracts/interfaces/IStakeManager.sol</text>
<polyline fill="none" stroke="black" points="441.63,-1426.7 987.64,-1426.7 "/>
<text text-anchor="start" x="449.63" y="-1410.1" font-family="Times,serif" font-size="14.00">External:</text>
<text text-anchor="start" x="449.63" y="-1393.3" font-family="Times,serif" font-size="14.00"> &#160;&#160;&#160;&#160;getDepositInfo(account: address): (info: DepositInfo)</text>
<text text-anchor="start" x="449.63" y="-1376.5" font-family="Times,serif" font-size="14.00"> &#160;&#160;&#160;&#160;balanceOf(account: address): uint256</text>
<text text-anchor="start" x="449.63" y="-1359.7" font-family="Times,serif" font-size="14.00"> &#160;&#160;&#160;&#160;depositTo(account: address)</text>
<text text-anchor="start" x="449.63" y="-1342.9" font-family="Times,serif" font-size="14.00"> &#160;&#160;&#160;&#160;addStake(_unstakeDelaySec: uint32)</text>
<text text-anchor="start" x="449.63" y="-1326.1" font-family="Times,serif" font-size="14.00"> &#160;&#160;&#160;&#160;unlockStake()</text>
<text text-anchor="start" x="449.63" y="-1309.3" font-family="Times,serif" font-size="14.00"> &#160;&#160;&#160;&#160;withdrawStake(withdrawAddress: address)</text>
<text text-anchor="start" x="449.63" y="-1292.5" font-family="Times,serif" font-size="14.00"> &#160;&#160;&#160;&#160;withdrawTo(withdrawAddress: address, withdrawAmount: uint256)</text>
<text text-anchor="start" x="449.63" y="-1275.7" font-family="Times,serif" font-size="14.00">Public:</text>
<text text-anchor="start" x="449.63" y="-1258.9" font-family="Times,serif" font-size="14.00"> &#160;&#160;&#160;&lt;&lt;event&gt;&gt; Deposited(account: address, totalDeposit: uint256)</text>
<text text-anchor="start" x="449.63" y="-1242.1" font-family="Times,serif" font-size="14.00"> &#160;&#160;&#160;&lt;&lt;event&gt;&gt; Withdrawn(account: address, withdrawAddress: address, amount: uint256)</text>
<text text-anchor="start" x="449.63" y="-1225.3" font-family="Times,serif" font-size="14.00"> &#160;&#160;&#160;&lt;&lt;event&gt;&gt; StakeLocked(account: address, totalStaked: uint256, unstakeDelaySec: uint256)</text>
<text text-anchor="start" x="449.63" y="-1208.5" font-family="Times,serif" font-size="14.00"> &#160;&#160;&#160;&lt;&lt;event&gt;&gt; StakeUnlocked(account: address, withdrawTime: uint256)</text>
<text text-anchor="start" x="449.63" y="-1191.7" font-family="Times,serif" font-size="14.00"> &#160;&#160;&#160;&lt;&lt;event&gt;&gt; StakeWithdrawn(account: address, withdrawAddress: address, amount: uint256)</text>
</g>
<!-- 10&#45;&gt;16 -->
<g id="edge10" class="edge">
<title>10&#45;&gt;16</title>
<path fill="none" stroke="black" stroke-dasharray="5,2" d="M609.67,-1146.81C611.58,-1150.21 613.5,-1153.62 615.43,-1157.05"/>
<polygon fill="none" stroke="black" points="606.4,-1162.4 630.26,-1183.4 624.7,-1152.1 606.4,-1162.4"/>
</g>
<!-- 10&#45;&gt;19 -->
<g id="edge11" class="edge">
<title>10&#45;&gt;19</title>
<path fill="none" stroke="black" stroke-dasharray="5,2" d="M962.45,-1146.82C974.79,-1157.93 986.26,-1169.96 996.64,-1183 1081.02,-1289.07 991.9,-1356.97 1034.64,-1485.6 1059.63,-1560.81 1101.57,-1638.08 1140.44,-1700.69"/>
<polygon fill="black" stroke="black" points="1137.63,-1702.8 1145.9,-1709.42 1143.57,-1699.09 1137.63,-1702.8"/>
</g>
<!-- 17 -->
<g id="node6" class="node">
<title>17</title>
<polygon fill="#f2f2f2" stroke="black" points="524.51,-1522.1 524.51,-1672.5 904.76,-1672.5 904.76,-1522.1 524.51,-1522.1"/>
<text text-anchor="middle" x="714.64" y="-1655.9" font-family="Times,serif" font-size="14.00">&lt;&lt;Struct&gt;&gt;</text>
<text text-anchor="middle" x="714.64" y="-1639.1" font-family="Times,serif" font-size="14.00">DepositInfo</text>
<text text-anchor="middle" x="714.64" y="-1622.3" font-family="Times,serif" font-size="14.00">../../../account&#45;abstraction/contracts/interfaces/IStakeManager.sol</text>
<polyline fill="none" stroke="black" points="524.51,-1614.1 904.76,-1614.1 "/>
<text text-anchor="start" x="532.51" y="-1597.5" font-family="Times,serif" font-size="14.00">deposit: uint112</text>
<text text-anchor="start" x="532.51" y="-1580.7" font-family="Times,serif" font-size="14.00">staked: bool</text>
<text text-anchor="start" x="532.51" y="-1563.9" font-family="Times,serif" font-size="14.00">stake: uint112</text>
<text text-anchor="start" x="532.51" y="-1547.1" font-family="Times,serif" font-size="14.00">unstakeDelaySec: uint32</text>
<text text-anchor="start" x="532.51" y="-1530.3" font-family="Times,serif" font-size="14.00">withdrawTime: uint48</text>
</g>
<!-- 17&#45;&gt;16 -->
<g id="edge13" class="edge">
<title>17&#45;&gt;16</title>
<path fill="none" stroke="black" d="M720.8,-1521.84C720.98,-1513.93 721.11,-1505.69 721.21,-1497.26"/>
<polygon fill="black" stroke="black" points="721.21,-1497.23 717.26,-1491.2 721.32,-1485.23 725.26,-1491.27 721.21,-1497.23"/>
</g>
<!-- 16&#45;&gt;17 -->
<g id="edge14" class="edge">
<title>16&#45;&gt;17</title>
<path fill="none" stroke="black" stroke-dasharray="5,2" d="M707.95,-1485.23C708.02,-1494.2 708.12,-1503.04 708.27,-1511.58"/>
<polygon fill="black" stroke="black" points="704.78,-1511.91 708.47,-1521.84 711.77,-1511.77 704.78,-1511.91"/>
</g>
<!-- 20&#45;&gt;19 -->
<g id="edge15" class="edge">
<title>20&#45;&gt;19</title>
<path fill="none" stroke="black" stroke-dasharray="5,2" d="M1232.64,-1417.95C1232.64,-1494.32 1232.64,-1609.21 1232.64,-1698.93"/>
<polygon fill="black" stroke="black" points="1229.14,-1699.19 1232.64,-1709.19 1236.14,-1699.19 1229.14,-1699.19"/>
</g>
<!-- 23 -->
<g id="node10" class="node">
<title>23</title>
<polygon fill="#f2f2f2" stroke="black" points="1174.15,-0.5 1174.15,-528.5 1725.12,-528.5 1725.12,-0.5 1174.15,-0.5"/>
<text text-anchor="middle" x="1449.64" y="-511.9" font-family="Times,serif" font-size="14.00">SimpleAccount</text>
<text text-anchor="middle" x="1449.64" y="-495.1" font-family="Times,serif" font-size="14.00">../../../account&#45;abstraction/contracts/samples/SimpleAccount.sol</text>
<polyline fill="none" stroke="black" points="1174.15,-486.9 1725.12,-486.9 "/>
<text text-anchor="start" x="1182.15" y="-470.3" font-family="Times,serif" font-size="14.00">Private:</text>
<text text-anchor="start" x="1182.15" y="-453.5" font-family="Times,serif" font-size="14.00"> &#160;&#160;_filler: bytes28</text>
<text text-anchor="start" x="1182.15" y="-436.7" font-family="Times,serif" font-size="14.00"> &#160;&#160;_nonce: uint96</text>
<text text-anchor="start" x="1182.15" y="-419.9" font-family="Times,serif" font-size="14.00"> &#160;&#160;_entryPoint: IEntryPoint</text>
<text text-anchor="start" x="1182.15" y="-403.1" font-family="Times,serif" font-size="14.00">Public:</text>
<text text-anchor="start" x="1182.15" y="-386.3" font-family="Times,serif" font-size="14.00"> &#160;&#160;owner: address</text>
<polyline fill="none" stroke="black" points="1174.15,-378.1 1725.12,-378.1 "/>
<text text-anchor="start" x="1182.15" y="-361.5" font-family="Times,serif" font-size="14.00">Internal:</text>
<text text-anchor="start" x="1182.15" y="-344.7" font-family="Times,serif" font-size="14.00"> &#160;&#160;&#160;_onlyOwner()</text>
<text text-anchor="start" x="1182.15" y="-327.9" font-family="Times,serif" font-size="14.00"> &#160;&#160;&#160;_initialize(anOwner: address)</text>
<text text-anchor="start" x="1182.15" y="-311.1" font-family="Times,serif" font-size="14.00"> &#160;&#160;&#160;_requireFromEntryPointOrOwner()</text>
<text text-anchor="start" x="1182.15" y="-294.3" font-family="Times,serif" font-size="14.00"> &#160;&#160;&#160;_validateAndUpdateNonce(userOp: UserOperation)</text>
<text text-anchor="start" x="1182.15" y="-277.5" font-family="Times,serif" font-size="14.00"> &#160;&#160;&#160;_validateSignature(userOp: UserOperation, userOpHash: bytes32): (validationData: uint256)</text>
<text text-anchor="start" x="1182.15" y="-260.7" font-family="Times,serif" font-size="14.00"> &#160;&#160;&#160;_call(target: address, value: uint256, data: bytes)</text>
<text text-anchor="start" x="1182.15" y="-243.9" font-family="Times,serif" font-size="14.00"> &#160;&#160;&#160;_authorizeUpgrade(newImplementation: address)</text>
<text text-anchor="start" x="1182.15" y="-227.1" font-family="Times,serif" font-size="14.00">External:</text>
<text text-anchor="start" x="1182.15" y="-210.3" font-family="Times,serif" font-size="14.00"> &#160;&#160;&#160;&lt;&lt;payable&gt;&gt; null()</text>
<text text-anchor="start" x="1182.15" y="-193.5" font-family="Times,serif" font-size="14.00"> &#160;&#160;&#160;execute(dest: address, value: uint256, func: bytes)</text>
<text text-anchor="start" x="1182.15" y="-176.7" font-family="Times,serif" font-size="14.00"> &#160;&#160;&#160;executeBatch(dest: address[], func: bytes[])</text>
<text text-anchor="start" x="1182.15" y="-159.9" font-family="Times,serif" font-size="14.00">Public:</text>
<text text-anchor="start" x="1182.15" y="-143.1" font-family="Times,serif" font-size="14.00"> &#160;&#160;&#160;&lt;&lt;payable&gt;&gt; addDeposit()</text>
<text text-anchor="start" x="1182.15" y="-126.3" font-family="Times,serif" font-size="14.00"> &#160;&#160;&#160;&lt;&lt;event&gt;&gt; SimpleAccountInitialized(entryPoint: IEntryPoint, owner: address)</text>
<text text-anchor="start" x="1182.15" y="-109.5" font-family="Times,serif" font-size="14.00"> &#160;&#160;&#160;&lt;&lt;modifier&gt;&gt; onlyOwner()</text>
<text text-anchor="start" x="1182.15" y="-92.7" font-family="Times,serif" font-size="14.00"> &#160;&#160;&#160;nonce(): uint256</text>
<text text-anchor="start" x="1182.15" y="-75.9" font-family="Times,serif" font-size="14.00"> &#160;&#160;&#160;entryPoint(): IEntryPoint</text>
<text text-anchor="start" x="1182.15" y="-59.1" font-family="Times,serif" font-size="14.00"> &#160;&#160;&#160;constructor(anEntryPoint: IEntryPoint)</text>
<text text-anchor="start" x="1182.15" y="-42.3" font-family="Times,serif" font-size="14.00"> &#160;&#160;&#160;initialize(anOwner: address) &lt;&lt;initializer&gt;&gt;</text>
<text text-anchor="start" x="1182.15" y="-25.5" font-family="Times,serif" font-size="14.00"> &#160;&#160;&#160;getDeposit(): uint256</text>
<text text-anchor="start" x="1182.15" y="-8.7" font-family="Times,serif" font-size="14.00"> &#160;&#160;&#160;withdrawDepositTo(withdrawAddress: address, amount: uint256) &lt;&lt;onlyOwner&gt;&gt;</text>
</g>
<!-- 23&#45;&gt;0 -->
<g id="edge16" class="edge">
<title>23&#45;&gt;0</title>
<path fill="none" stroke="black" d="M1449.64,-528.53C1449.64,-530.79 1449.64,-533.04 1449.64,-535.28"/>
<polygon fill="none" stroke="black" points="1439.14,-535.43 1449.64,-565.43 1460.14,-535.43 1439.14,-535.43"/>
</g>
<!-- 23&#45;&gt;10 -->
<g id="edge17" class="edge">
<title>23&#45;&gt;10</title>
<path fill="none" stroke="black" d="M1173.87,-490.34C1021.54,-614.53 837.12,-764.89 705.59,-872.12"/>
<polygon fill="black" stroke="black" points="703.33,-869.45 697.79,-878.48 707.75,-874.87 703.33,-869.45"/>
</g>
<!-- 23&#45;&gt;19 -->
<g id="edge18" class="edge">
<title>23&#45;&gt;19</title>
<path fill="none" stroke="black" stroke-dasharray="5,2" d="M1725.15,-449.33C1760.76,-483.88 1793,-522.63 1816.64,-565 1914.15,-739.81 1875.64,-811.33 1875.64,-1011.5 1875.64,-1011.5 1875.64,-1011.5 1875.64,-1335.3 1875.64,-1563.5 1619.66,-1702.31 1430.72,-1773.68"/>
<polygon fill="black" stroke="black" points="1429.35,-1770.45 1421.21,-1777.24 1431.81,-1777.01 1429.35,-1770.45"/>
</g>
</g>
</svg>
